<svg width="1264" height="1024" viewBox="0 0 1264 1024" fill="none" xmlns="http://www.w3.org/2000/svg">
<path d="M688.77 173.724H683.457C683.306 172.853 683.027 172.081 682.619 171.409C682.212 170.727 681.705 170.15 681.099 169.676C680.493 169.203 679.802 168.848 679.026 168.611C678.259 168.365 677.43 168.241 676.54 168.241C674.958 168.241 673.557 168.639 672.335 169.435C671.114 170.221 670.157 171.376 669.466 172.901C668.775 174.416 668.429 176.267 668.429 178.455C668.429 180.68 668.775 182.555 669.466 184.08C670.167 185.595 671.123 186.741 672.335 187.517C673.557 188.284 674.954 188.668 676.526 188.668C677.397 188.668 678.211 188.554 678.969 188.327C679.736 188.09 680.422 187.744 681.028 187.29C681.644 186.835 682.16 186.277 682.577 185.614C683.003 184.951 683.296 184.193 683.457 183.341L688.77 183.369C688.571 184.752 688.14 186.049 687.477 187.261C686.824 188.473 685.967 189.544 684.906 190.472C683.846 191.39 682.605 192.11 681.185 192.631C679.764 193.142 678.188 193.398 676.455 193.398C673.898 193.398 671.616 192.806 669.608 191.622C667.6 190.438 666.019 188.729 664.864 186.494C663.708 184.259 663.131 181.58 663.131 178.455C663.131 175.32 663.713 172.64 664.878 170.415C666.043 168.18 667.629 166.471 669.636 165.287C671.644 164.103 673.917 163.511 676.455 163.511C678.074 163.511 679.58 163.739 680.972 164.193C682.364 164.648 683.604 165.315 684.693 166.196C685.782 167.067 686.677 168.137 687.378 169.406C688.088 170.666 688.552 172.105 688.77 173.724ZM699.647 193.44C698.264 193.44 697.019 193.194 695.911 192.702C694.813 192.2 693.942 191.461 693.298 190.486C692.663 189.51 692.346 188.308 692.346 186.878C692.346 185.647 692.573 184.629 693.028 183.824C693.482 183.019 694.103 182.375 694.888 181.892C695.674 181.409 696.56 181.045 697.545 180.798C698.539 180.543 699.567 180.358 700.627 180.244C701.906 180.112 702.942 179.993 703.738 179.889C704.533 179.776 705.111 179.605 705.471 179.378C705.84 179.141 706.025 178.777 706.025 178.284V178.199C706.025 177.129 705.708 176.3 705.073 175.713C704.439 175.126 703.525 174.832 702.332 174.832C701.072 174.832 700.073 175.107 699.335 175.656C698.605 176.205 698.113 176.854 697.857 177.602L693.056 176.92C693.435 175.595 694.06 174.487 694.931 173.597C695.802 172.697 696.868 172.025 698.127 171.58C699.387 171.125 700.779 170.898 702.303 170.898C703.354 170.898 704.401 171.021 705.442 171.267C706.484 171.513 707.436 171.92 708.298 172.489C709.159 173.047 709.851 173.81 710.371 174.776C710.902 175.741 711.167 176.949 711.167 178.398V193H706.224V190.003H706.053C705.741 190.609 705.3 191.177 704.732 191.707C704.174 192.228 703.468 192.65 702.616 192.972C701.773 193.284 700.783 193.44 699.647 193.44ZM700.982 189.662C702.014 189.662 702.909 189.458 703.667 189.051C704.424 188.634 705.007 188.085 705.414 187.403C705.831 186.722 706.039 185.978 706.039 185.173V182.602C705.878 182.735 705.603 182.858 705.215 182.972C704.836 183.085 704.41 183.185 703.937 183.27C703.463 183.355 702.995 183.431 702.531 183.497C702.067 183.563 701.664 183.62 701.323 183.668C700.556 183.772 699.87 183.942 699.263 184.179C698.657 184.416 698.179 184.747 697.829 185.173C697.478 185.59 697.303 186.13 697.303 186.793C697.303 187.74 697.649 188.455 698.34 188.938C699.031 189.42 699.912 189.662 700.982 189.662ZM716.337 193V171.182H721.323V174.818H721.55C721.948 173.559 722.63 172.588 723.596 171.906C724.571 171.215 725.684 170.869 726.934 170.869C727.218 170.869 727.535 170.884 727.886 170.912C728.246 170.931 728.544 170.964 728.781 171.011V175.741C728.563 175.666 728.217 175.599 727.744 175.543C727.28 175.476 726.83 175.443 726.394 175.443C725.457 175.443 724.614 175.647 723.866 176.054C723.127 176.452 722.545 177.006 722.119 177.716C721.692 178.426 721.479 179.245 721.479 180.173V193H716.337ZM744.263 171.182V175.159H731.721V171.182H744.263ZM734.817 165.955H739.96V186.438C739.96 187.129 740.064 187.659 740.272 188.028C740.49 188.388 740.774 188.634 741.124 188.767C741.475 188.9 741.863 188.966 742.289 188.966C742.611 188.966 742.905 188.942 743.17 188.895C743.444 188.848 743.653 188.805 743.795 188.767L744.661 192.787C744.387 192.882 743.994 192.986 743.482 193.099C742.98 193.213 742.365 193.279 741.636 193.298C740.348 193.336 739.188 193.142 738.156 192.716C737.123 192.28 736.304 191.608 735.698 190.699C735.102 189.79 734.808 188.653 734.817 187.29V165.955ZM762.989 193L756.824 171.182H762.065L765.901 186.523H766.099L770.02 171.182H775.205L779.125 186.438H779.338L783.116 171.182H788.372L782.193 193H776.838L772.747 178.256H772.449L768.358 193H762.989ZM791.962 193V171.182H797.104V193H791.962ZM794.548 168.085C793.733 168.085 793.032 167.815 792.445 167.276C791.858 166.726 791.565 166.068 791.565 165.301C791.565 164.525 791.858 163.866 792.445 163.327C793.032 162.777 793.733 162.503 794.548 162.503C795.371 162.503 796.072 162.777 796.65 163.327C797.237 163.866 797.531 164.525 797.531 165.301C797.531 166.068 797.237 166.726 796.65 167.276C796.072 167.815 795.371 168.085 794.548 168.085ZM813.287 171.182V175.159H800.744V171.182H813.287ZM803.841 165.955H808.983V186.438C808.983 187.129 809.087 187.659 809.295 188.028C809.513 188.388 809.797 188.634 810.148 188.767C810.498 188.9 810.886 188.966 811.312 188.966C811.634 188.966 811.928 188.942 812.193 188.895C812.468 188.848 812.676 188.805 812.818 188.767L813.685 192.787C813.41 192.882 813.017 192.986 812.506 193.099C812.004 193.213 811.388 193.279 810.659 193.298C809.371 193.336 808.211 193.142 807.179 192.716C806.147 192.28 805.328 191.608 804.722 190.699C804.125 189.79 803.831 188.653 803.841 187.29V165.955ZM823.198 180.216V193H818.056V163.909H823.085V174.889H823.34C823.852 173.658 824.642 172.687 825.712 171.977C826.792 171.258 828.165 170.898 829.832 170.898C831.347 170.898 832.668 171.215 833.795 171.849C834.922 172.484 835.793 173.412 836.408 174.634C837.033 175.855 837.346 177.347 837.346 179.108V193H832.204V179.903C832.204 178.436 831.825 177.295 831.067 176.48C830.319 175.656 829.268 175.244 827.914 175.244C827.005 175.244 826.191 175.443 825.471 175.841C824.761 176.229 824.202 176.793 823.795 177.531C823.397 178.27 823.198 179.165 823.198 180.216ZM851.458 168.327V163.909H874.668V168.327H865.677V193H860.45V168.327H851.458ZM885.411 193.426C883.223 193.426 881.334 192.972 879.743 192.062C878.161 191.144 876.945 189.847 876.092 188.17C875.24 186.485 874.814 184.501 874.814 182.219C874.814 179.974 875.24 178.005 876.092 176.31C876.954 174.605 878.157 173.279 879.7 172.332C881.244 171.376 883.057 170.898 885.141 170.898C886.485 170.898 887.754 171.116 888.947 171.551C890.15 171.977 891.211 172.64 892.129 173.54C893.057 174.439 893.786 175.585 894.317 176.977C894.847 178.36 895.112 180.008 895.112 181.92V183.497H877.229V180.031H890.183C890.174 179.046 889.961 178.17 889.544 177.403C889.127 176.627 888.545 176.016 887.797 175.571C887.058 175.126 886.196 174.903 885.212 174.903C884.161 174.903 883.237 175.159 882.442 175.67C881.646 176.172 881.026 176.835 880.581 177.659C880.145 178.473 879.923 179.368 879.913 180.344V183.369C879.913 184.638 880.145 185.727 880.609 186.636C881.073 187.536 881.722 188.227 882.555 188.71C883.389 189.184 884.364 189.42 885.482 189.42C886.23 189.42 886.907 189.316 887.513 189.108C888.119 188.89 888.644 188.573 889.089 188.156C889.535 187.74 889.871 187.223 890.098 186.608L894.899 187.148C894.596 188.417 894.018 189.525 893.166 190.472C892.323 191.409 891.244 192.138 889.928 192.659C888.611 193.17 887.106 193.426 885.411 193.426ZM904.15 186.153L904.136 179.946H904.96L912.8 171.182H918.809L909.164 181.92H908.099L904.15 186.153ZM899.462 193V163.909H904.604V193H899.462ZM913.156 193L906.053 183.071L909.519 179.449L919.306 193H913.156ZM930.996 193.426C928.809 193.426 926.92 192.972 925.329 192.062C923.747 191.144 922.531 189.847 921.678 188.17C920.826 186.485 920.4 184.501 920.4 182.219C920.4 179.974 920.826 178.005 921.678 176.31C922.54 174.605 923.743 173.279 925.286 172.332C926.83 171.376 928.643 170.898 930.727 170.898C932.071 170.898 933.34 171.116 934.533 171.551C935.736 171.977 936.797 172.64 937.715 173.54C938.643 174.439 939.372 175.585 939.903 176.977C940.433 178.36 940.698 180.008 940.698 181.92V183.497H922.815V180.031H935.769C935.76 179.046 935.547 178.17 935.13 177.403C934.713 176.627 934.131 176.016 933.383 175.571C932.644 175.126 931.782 174.903 930.798 174.903C929.746 174.903 928.823 175.159 928.028 175.67C927.232 176.172 926.612 176.835 926.167 177.659C925.731 178.473 925.509 179.368 925.499 180.344V183.369C925.499 184.638 925.731 185.727 926.195 186.636C926.659 187.536 927.308 188.227 928.141 188.71C928.975 189.184 929.95 189.42 931.067 189.42C931.816 189.42 932.493 189.316 933.099 189.108C933.705 188.89 934.23 188.573 934.675 188.156C935.121 187.74 935.457 187.223 935.684 186.608L940.485 187.148C940.182 188.417 939.604 189.525 938.752 190.472C937.909 191.409 936.83 192.138 935.513 192.659C934.197 193.17 932.692 193.426 930.996 193.426ZM956.099 171.182V175.159H943.202V171.182H956.099ZM946.426 193V169.122C946.426 167.654 946.729 166.433 947.335 165.457C947.951 164.482 948.775 163.753 949.807 163.27C950.839 162.787 951.985 162.545 953.244 162.545C954.134 162.545 954.925 162.616 955.616 162.759C956.308 162.901 956.819 163.028 957.151 163.142L956.128 167.119C955.91 167.053 955.635 166.987 955.304 166.92C954.973 166.845 954.603 166.807 954.196 166.807C953.24 166.807 952.563 167.039 952.165 167.503C951.777 167.957 951.582 168.611 951.582 169.463V193H946.426ZM960.126 193V171.182H965.112V174.818H965.339C965.737 173.559 966.419 172.588 967.385 171.906C968.36 171.215 969.473 170.869 970.723 170.869C971.007 170.869 971.324 170.884 971.675 170.912C972.035 170.931 972.333 170.964 972.57 171.011V175.741C972.352 175.666 972.006 175.599 971.533 175.543C971.069 175.476 970.619 175.443 970.183 175.443C969.246 175.443 968.403 175.647 967.655 176.054C966.916 176.452 966.334 177.006 965.908 177.716C965.482 178.426 965.268 179.245 965.268 180.173V193H960.126ZM984.746 193.426C982.559 193.426 980.67 192.972 979.079 192.062C977.497 191.144 976.281 189.847 975.428 188.17C974.576 186.485 974.15 184.501 974.15 182.219C974.15 179.974 974.576 178.005 975.428 176.31C976.29 174.605 977.493 173.279 979.036 172.332C980.58 171.376 982.393 170.898 984.477 170.898C985.821 170.898 987.09 171.116 988.283 171.551C989.486 171.977 990.547 172.64 991.465 173.54C992.393 174.439 993.122 175.585 993.653 176.977C994.183 178.36 994.448 180.008 994.448 181.92V183.497H976.565V180.031H989.519C989.51 179.046 989.297 178.17 988.88 177.403C988.463 176.627 987.881 176.016 987.133 175.571C986.394 175.126 985.532 174.903 984.548 174.903C983.496 174.903 982.573 175.159 981.778 175.67C980.982 176.172 980.362 176.835 979.917 177.659C979.481 178.473 979.259 179.368 979.249 180.344V183.369C979.249 184.638 979.481 185.727 979.945 186.636C980.409 187.536 981.058 188.227 981.891 188.71C982.725 189.184 983.7 189.42 984.817 189.42C985.566 189.42 986.243 189.316 986.849 189.108C987.455 188.89 987.98 188.573 988.425 188.156C988.871 187.74 989.207 187.223 989.434 186.608L994.235 187.148C993.932 188.417 993.354 189.525 992.502 190.472C991.659 191.409 990.58 192.138 989.263 192.659C987.947 193.17 986.442 193.426 984.746 193.426ZM1016.04 176.949L1011.36 177.46C1011.22 176.987 1010.99 176.542 1010.66 176.125C1010.34 175.708 1009.9 175.372 1009.35 175.116C1008.8 174.861 1008.13 174.733 1007.34 174.733C1006.27 174.733 1005.37 174.965 1004.64 175.429C1003.92 175.893 1003.56 176.494 1003.57 177.233C1003.56 177.867 1003.79 178.384 1004.27 178.781C1004.75 179.179 1005.55 179.506 1006.65 179.761L1010.38 180.557C1012.44 181.002 1013.97 181.707 1014.98 182.673C1015.99 183.639 1016.5 184.903 1016.51 186.466C1016.5 187.839 1016.1 189.051 1015.3 190.102C1014.52 191.144 1013.42 191.958 1012.02 192.545C1010.62 193.133 1009.01 193.426 1007.19 193.426C1004.52 193.426 1002.37 192.867 1000.74 191.75C999.116 190.623 998.145 189.056 997.832 187.048L1002.85 186.565C1003.07 187.55 1003.56 188.294 1004.3 188.795C1005.03 189.297 1006 189.548 1007.18 189.548C1008.4 189.548 1009.38 189.297 1010.12 188.795C1010.87 188.294 1011.24 187.673 1011.24 186.935C1011.24 186.31 1011 185.794 1010.52 185.386C1010.04 184.979 1009.3 184.667 1008.3 184.449L1004.58 183.668C1002.49 183.232 1000.94 182.498 999.935 181.466C998.931 180.424 998.434 179.108 998.443 177.517C998.434 176.172 998.798 175.008 999.537 174.023C1000.29 173.028 1001.32 172.261 1002.65 171.722C1003.98 171.172 1005.52 170.898 1007.26 170.898C1009.82 170.898 1011.83 171.442 1013.3 172.531C1014.78 173.62 1015.69 175.093 1016.04 176.949ZM1025.89 180.216V193H1020.75V163.909H1025.78V174.889H1026.04C1026.55 173.658 1027.34 172.687 1028.41 171.977C1029.49 171.258 1030.86 170.898 1032.53 170.898C1034.04 170.898 1035.36 171.215 1036.49 171.849C1037.62 172.484 1038.49 173.412 1039.1 174.634C1039.73 175.855 1040.04 177.347 1040.04 179.108V193H1034.9V179.903C1034.9 178.436 1034.52 177.295 1033.76 176.48C1033.01 175.656 1031.96 175.244 1030.61 175.244C1029.7 175.244 1028.89 175.443 1028.17 175.841C1027.46 176.229 1026.9 176.793 1026.49 177.531C1026.09 178.27 1025.89 179.165 1025.89 180.216Z" fill="white"/>
<path d="M674.466 221H672.705C672.6 220.493 672.418 220.048 672.158 219.665C671.902 219.281 671.589 218.959 671.22 218.699C670.856 218.434 670.451 218.235 670.006 218.102C669.561 217.97 669.097 217.903 668.614 217.903C667.733 217.903 666.935 218.126 666.22 218.571C665.51 219.016 664.944 219.672 664.523 220.538C664.106 221.405 663.898 222.468 663.898 223.727C663.898 224.987 664.106 226.05 664.523 226.916C664.944 227.783 665.51 228.438 666.22 228.884C666.935 229.329 667.733 229.551 668.614 229.551C669.097 229.551 669.561 229.485 670.006 229.352C670.451 229.22 670.856 229.023 671.22 228.763C671.589 228.498 671.902 228.173 672.158 227.79C672.418 227.402 672.6 226.956 672.705 226.455H674.466C674.333 227.198 674.092 227.863 673.741 228.45C673.391 229.037 672.955 229.537 672.435 229.949C671.914 230.356 671.329 230.666 670.68 230.879C670.036 231.092 669.348 231.199 668.614 231.199C667.373 231.199 666.27 230.896 665.304 230.29C664.338 229.684 663.578 228.822 663.024 227.705C662.47 226.587 662.193 225.261 662.193 223.727C662.193 222.193 662.47 220.867 663.024 219.75C663.578 218.633 664.338 217.771 665.304 217.165C666.27 216.559 667.373 216.256 668.614 216.256C669.348 216.256 670.036 216.362 670.68 216.575C671.329 216.788 671.914 217.101 672.435 217.513C672.955 217.92 673.391 218.417 673.741 219.004C674.092 219.587 674.333 220.252 674.466 221ZM677.335 231V220.091H678.954V221.739H679.068C679.267 221.199 679.627 220.761 680.147 220.425C680.668 220.089 681.255 219.92 681.909 219.92C682.032 219.92 682.186 219.923 682.37 219.928C682.555 219.932 682.695 219.939 682.789 219.949V221.653C682.733 221.639 682.602 221.618 682.399 221.589C682.2 221.556 681.989 221.54 681.767 221.54C681.236 221.54 680.763 221.651 680.346 221.874C679.934 222.091 679.608 222.394 679.366 222.783C679.129 223.166 679.011 223.604 679.011 224.097V231H677.335ZM689.268 231.227C688.217 231.227 687.31 230.995 686.548 230.531C685.79 230.062 685.206 229.409 684.794 228.571C684.386 227.728 684.183 226.748 684.183 225.631C684.183 224.513 684.386 223.528 684.794 222.676C685.206 221.819 685.779 221.152 686.512 220.673C687.251 220.19 688.113 219.949 689.098 219.949C689.666 219.949 690.227 220.044 690.781 220.233C691.335 220.422 691.839 220.73 692.294 221.156C692.748 221.578 693.11 222.136 693.38 222.832C693.65 223.528 693.785 224.385 693.785 225.403V226.114H685.376V224.665H692.081C692.081 224.049 691.958 223.5 691.711 223.017C691.47 222.534 691.124 222.153 690.674 221.874C690.229 221.594 689.704 221.455 689.098 221.455C688.43 221.455 687.852 221.62 687.365 221.952C686.882 222.278 686.51 222.705 686.25 223.23C685.989 223.756 685.859 224.319 685.859 224.92V225.886C685.859 226.71 686.001 227.409 686.285 227.982C686.574 228.55 686.974 228.983 687.485 229.281C687.997 229.575 688.591 229.722 689.268 229.722C689.708 229.722 690.106 229.66 690.461 229.537C690.821 229.409 691.131 229.22 691.392 228.969C691.652 228.713 691.853 228.396 691.995 228.017L693.615 228.472C693.444 229.021 693.158 229.504 692.755 229.92C692.353 230.332 691.856 230.654 691.264 230.886C690.672 231.114 690.007 231.227 689.268 231.227ZM699.795 231.256C699.104 231.256 698.476 231.125 697.913 230.865C697.35 230.6 696.902 230.219 696.571 229.722C696.239 229.22 696.074 228.614 696.074 227.903C696.074 227.278 696.197 226.772 696.443 226.384C696.689 225.991 697.018 225.683 697.43 225.46C697.842 225.238 698.297 225.072 698.794 224.963C699.296 224.849 699.8 224.759 700.306 224.693C700.969 224.608 701.507 224.544 701.919 224.501C702.335 224.454 702.638 224.376 702.828 224.267C703.022 224.158 703.119 223.969 703.119 223.699V223.642C703.119 222.941 702.927 222.397 702.544 222.009C702.165 221.62 701.59 221.426 700.818 221.426C700.018 221.426 699.39 221.601 698.936 221.952C698.481 222.302 698.162 222.676 697.977 223.074L696.386 222.506C696.67 221.843 697.049 221.327 697.522 220.957C698.001 220.583 698.521 220.323 699.085 220.176C699.653 220.025 700.212 219.949 700.761 219.949C701.111 219.949 701.514 219.991 701.968 220.077C702.428 220.157 702.87 220.325 703.297 220.581C703.727 220.837 704.085 221.223 704.369 221.739C704.653 222.255 704.795 222.946 704.795 223.812V231H703.119V229.523H703.034C702.92 229.759 702.731 230.013 702.466 230.283C702.2 230.553 701.848 230.782 701.407 230.972C700.967 231.161 700.43 231.256 699.795 231.256ZM700.051 229.75C700.714 229.75 701.272 229.62 701.727 229.359C702.186 229.099 702.532 228.763 702.764 228.351C703.001 227.939 703.119 227.506 703.119 227.051V225.517C703.048 225.602 702.892 225.68 702.65 225.751C702.413 225.818 702.139 225.877 701.826 225.929C701.519 225.976 701.218 226.019 700.924 226.057C700.636 226.09 700.401 226.118 700.221 226.142C699.786 226.199 699.378 226.291 699 226.419C698.626 226.542 698.323 226.729 698.091 226.98C697.863 227.226 697.75 227.562 697.75 227.989C697.75 228.571 697.965 229.011 698.396 229.31C698.832 229.603 699.383 229.75 700.051 229.75ZM712.849 220.091V221.511H707.195V220.091H712.849ZM708.843 217.477H710.519V227.875C710.519 228.348 710.588 228.704 710.725 228.94C710.867 229.172 711.047 229.329 711.265 229.409C711.487 229.485 711.722 229.523 711.968 229.523C712.153 229.523 712.304 229.513 712.423 229.494C712.541 229.471 712.636 229.452 712.707 229.438L713.048 230.943C712.934 230.986 712.775 231.028 712.572 231.071C712.368 231.118 712.11 231.142 711.798 231.142C711.324 231.142 710.86 231.04 710.406 230.837C709.956 230.633 709.582 230.323 709.283 229.906C708.99 229.49 708.843 228.964 708.843 228.33V217.477ZM720.077 231.227C719.026 231.227 718.119 230.995 717.357 230.531C716.599 230.062 716.014 229.409 715.602 228.571C715.195 227.728 714.991 226.748 714.991 225.631C714.991 224.513 715.195 223.528 715.602 222.676C716.014 221.819 716.587 221.152 717.321 220.673C718.06 220.19 718.921 219.949 719.906 219.949C720.474 219.949 721.036 220.044 721.589 220.233C722.143 220.422 722.648 220.73 723.102 221.156C723.557 221.578 723.919 222.136 724.189 222.832C724.459 223.528 724.594 224.385 724.594 225.403V226.114H716.185V224.665H722.889C722.889 224.049 722.766 223.5 722.52 223.017C722.278 222.534 721.933 222.153 721.483 221.874C721.038 221.594 720.512 221.455 719.906 221.455C719.239 221.455 718.661 221.62 718.173 221.952C717.69 222.278 717.319 222.705 717.058 223.23C716.798 223.756 716.668 224.319 716.668 224.92V225.886C716.668 226.71 716.81 227.409 717.094 227.982C717.383 228.55 717.783 228.983 718.294 229.281C718.805 229.575 719.4 229.722 720.077 229.722C720.517 229.722 720.915 229.66 721.27 229.537C721.63 229.409 721.94 229.22 722.2 228.969C722.461 228.713 722.662 228.396 722.804 228.017L724.423 228.472C724.253 229.021 723.966 229.504 723.564 229.92C723.161 230.332 722.664 230.654 722.072 230.886C721.481 231.114 720.815 231.227 720.077 231.227ZM734.348 235.091C734.064 235.091 733.811 235.067 733.588 235.02C733.366 234.977 733.212 234.935 733.126 234.892L733.553 233.415C733.96 233.519 734.32 233.557 734.632 233.528C734.945 233.5 735.222 233.36 735.463 233.109C735.709 232.863 735.934 232.463 736.138 231.909L736.45 231.057L732.416 220.091H734.234L737.246 228.784H737.359L740.371 220.091H742.189L737.558 232.591C737.35 233.154 737.092 233.621 736.784 233.99C736.476 234.364 736.119 234.641 735.712 234.821C735.309 235.001 734.855 235.091 734.348 235.091ZM748.692 231.227C747.708 231.227 746.844 230.993 746.1 230.524C745.362 230.055 744.784 229.4 744.367 228.557C743.955 227.714 743.749 226.729 743.749 225.602C743.749 224.466 743.955 223.474 744.367 222.626C744.784 221.779 745.362 221.121 746.1 220.652C746.844 220.183 747.708 219.949 748.692 219.949C749.677 219.949 750.539 220.183 751.278 220.652C752.021 221.121 752.599 221.779 753.011 222.626C753.427 223.474 753.636 224.466 753.636 225.602C753.636 226.729 753.427 227.714 753.011 228.557C752.599 229.4 752.021 230.055 751.278 230.524C750.539 230.993 749.677 231.227 748.692 231.227ZM748.692 229.722C749.441 229.722 750.056 229.53 750.539 229.146C751.022 228.763 751.379 228.259 751.612 227.634C751.844 227.009 751.96 226.331 751.96 225.602C751.96 224.873 751.844 224.194 751.612 223.564C751.379 222.934 751.022 222.425 750.539 222.037C750.056 221.649 749.441 221.455 748.692 221.455C747.944 221.455 747.329 221.649 746.846 222.037C746.363 222.425 746.005 222.934 745.773 223.564C745.541 224.194 745.425 224.873 745.425 225.602C745.425 226.331 745.541 227.009 745.773 227.634C746.005 228.259 746.363 228.763 746.846 229.146C747.329 229.53 747.944 229.722 748.692 229.722ZM763.319 226.54V220.091H764.995V231H763.319V229.153H763.206C762.95 229.707 762.552 230.179 762.012 230.567C761.473 230.95 760.791 231.142 759.967 231.142C759.285 231.142 758.679 230.993 758.149 230.695C757.618 230.392 757.202 229.937 756.899 229.331C756.596 228.72 756.444 227.951 756.444 227.023V220.091H758.12V226.909C758.12 227.705 758.343 228.339 758.788 228.812C759.238 229.286 759.811 229.523 760.507 229.523C760.923 229.523 761.347 229.416 761.778 229.203C762.214 228.99 762.578 228.663 762.872 228.223C763.17 227.783 763.319 227.222 763.319 226.54ZM768.315 231V220.091H769.935V221.739H770.048C770.247 221.199 770.607 220.761 771.128 220.425C771.649 220.089 772.236 219.92 772.889 219.92C773.012 219.92 773.166 219.923 773.351 219.928C773.536 219.932 773.675 219.939 773.77 219.949V221.653C773.713 221.639 773.583 221.618 773.379 221.589C773.18 221.556 772.97 221.54 772.747 221.54C772.217 221.54 771.743 221.651 771.327 221.874C770.915 222.091 770.588 222.394 770.347 222.783C770.11 223.166 769.991 223.604 769.991 224.097V231H768.315ZM784.751 231L780.774 216.455H782.564L785.603 228.301H785.745L788.842 216.455H790.831L793.927 228.301H794.069L797.109 216.455H798.899L794.922 231H793.103L789.893 219.409H789.779L786.569 231H784.751ZM804.532 231.227C803.547 231.227 802.683 230.993 801.94 230.524C801.201 230.055 800.624 229.4 800.207 228.557C799.795 227.714 799.589 226.729 799.589 225.602C799.589 224.466 799.795 223.474 800.207 222.626C800.624 221.779 801.201 221.121 801.94 220.652C802.683 220.183 803.547 219.949 804.532 219.949C805.517 219.949 806.379 220.183 807.118 220.652C807.861 221.121 808.439 221.779 808.85 222.626C809.267 223.474 809.475 224.466 809.475 225.602C809.475 226.729 809.267 227.714 808.85 228.557C808.439 229.4 807.861 230.055 807.118 230.524C806.379 230.993 805.517 231.227 804.532 231.227ZM804.532 229.722C805.28 229.722 805.896 229.53 806.379 229.146C806.862 228.763 807.219 228.259 807.451 227.634C807.683 227.009 807.799 226.331 807.799 225.602C807.799 224.873 807.683 224.194 807.451 223.564C807.219 222.934 806.862 222.425 806.379 222.037C805.896 221.649 805.28 221.455 804.532 221.455C803.784 221.455 803.169 221.649 802.686 222.037C802.203 222.425 801.845 222.934 801.613 223.564C801.381 224.194 801.265 224.873 801.265 225.602C801.265 226.331 801.381 227.009 801.613 227.634C801.845 228.259 802.203 228.763 802.686 229.146C803.169 229.53 803.784 229.722 804.532 229.722ZM813.847 227.023L813.818 224.949H814.159L818.932 220.091H821.006L815.92 225.233H815.778L813.847 227.023ZM812.284 231V216.455H813.96V231H812.284ZM819.216 231L814.955 225.602L816.148 224.438L821.347 231H819.216ZM825.089 224.438V231H823.413V216.455H825.089V221.795H825.231C825.487 221.232 825.87 220.785 826.382 220.453C826.898 220.117 827.584 219.949 828.441 219.949C829.185 219.949 829.836 220.098 830.395 220.396C830.953 220.69 831.386 221.142 831.694 221.753C832.007 222.359 832.163 223.131 832.163 224.068V231H830.487V224.182C830.487 223.315 830.262 222.645 829.812 222.172C829.367 221.694 828.749 221.455 827.958 221.455C827.409 221.455 826.917 221.571 826.481 221.803C826.05 222.035 825.709 222.373 825.458 222.818C825.212 223.263 825.089 223.803 825.089 224.438ZM835.479 231V220.091H837.156V231H835.479ZM836.332 218.273C836.005 218.273 835.723 218.161 835.487 217.939C835.254 217.716 835.138 217.449 835.138 217.136C835.138 216.824 835.254 216.556 835.487 216.334C835.723 216.111 836.005 216 836.332 216C836.658 216 836.938 216.111 837.17 216.334C837.406 216.556 837.525 216.824 837.525 217.136C837.525 217.449 837.406 217.716 837.17 217.939C836.938 218.161 836.658 218.273 836.332 218.273ZM849.396 220.091L845.362 231H843.657L839.623 220.091H841.441L844.453 228.784H844.566L847.578 220.091H849.396ZM856.042 231.227C854.99 231.227 854.084 230.995 853.321 230.531C852.564 230.062 851.979 229.409 851.567 228.571C851.16 227.728 850.956 226.748 850.956 225.631C850.956 224.513 851.16 223.528 851.567 222.676C851.979 221.819 852.552 221.152 853.286 220.673C854.025 220.19 854.886 219.949 855.871 219.949C856.439 219.949 857 220.044 857.554 220.233C858.108 220.422 858.613 220.73 859.067 221.156C859.522 221.578 859.884 222.136 860.154 222.832C860.424 223.528 860.559 224.385 860.559 225.403V226.114H852.15V224.665H858.854C858.854 224.049 858.731 223.5 858.485 223.017C858.243 222.534 857.898 222.153 857.448 221.874C857.003 221.594 856.477 221.455 855.871 221.455C855.203 221.455 854.626 221.62 854.138 221.952C853.655 222.278 853.283 222.705 853.023 223.23C852.763 223.756 852.632 224.319 852.632 224.92V225.886C852.632 226.71 852.775 227.409 853.059 227.982C853.347 228.55 853.748 228.983 854.259 229.281C854.77 229.575 855.364 229.722 856.042 229.722C856.482 229.722 856.88 229.66 857.235 229.537C857.595 229.409 857.905 229.22 858.165 228.969C858.426 228.713 858.627 228.396 858.769 228.017L860.388 228.472C860.218 229.021 859.931 229.504 859.529 229.92C859.126 230.332 858.629 230.654 858.037 230.886C857.445 231.114 856.78 231.227 856.042 231.227ZM872.444 231.256C871.752 231.256 871.125 231.125 870.561 230.865C869.998 230.6 869.551 230.219 869.219 229.722C868.888 229.22 868.722 228.614 868.722 227.903C868.722 227.278 868.845 226.772 869.091 226.384C869.337 225.991 869.667 225.683 870.078 225.46C870.49 225.238 870.945 225.072 871.442 224.963C871.944 224.849 872.448 224.759 872.955 224.693C873.618 224.608 874.155 224.544 874.567 224.501C874.984 224.454 875.287 224.376 875.476 224.267C875.67 224.158 875.767 223.969 875.767 223.699V223.642C875.767 222.941 875.576 222.397 875.192 222.009C874.813 221.62 874.238 221.426 873.466 221.426C872.666 221.426 872.039 221.601 871.584 221.952C871.13 222.302 870.81 222.676 870.625 223.074L869.034 222.506C869.319 221.843 869.697 221.327 870.171 220.957C870.649 220.583 871.17 220.323 871.733 220.176C872.301 220.025 872.86 219.949 873.409 219.949C873.76 219.949 874.162 219.991 874.617 220.077C875.076 220.157 875.519 220.325 875.945 220.581C876.376 220.837 876.733 221.223 877.017 221.739C877.301 222.255 877.444 222.946 877.444 223.812V231H875.767V229.523H875.682C875.569 229.759 875.379 230.013 875.114 230.283C874.849 230.553 874.496 230.782 874.056 230.972C873.615 231.161 873.078 231.256 872.444 231.256ZM872.699 229.75C873.362 229.75 873.921 229.62 874.375 229.359C874.835 229.099 875.18 228.763 875.412 228.351C875.649 227.939 875.767 227.506 875.767 227.051V225.517C875.696 225.602 875.54 225.68 875.299 225.751C875.062 225.818 874.787 225.877 874.475 225.929C874.167 225.976 873.866 226.019 873.573 226.057C873.284 226.09 873.05 226.118 872.87 226.142C872.434 226.199 872.027 226.291 871.648 226.419C871.274 226.542 870.971 226.729 870.739 226.98C870.512 227.226 870.398 227.562 870.398 227.989C870.398 228.571 870.614 229.011 871.044 229.31C871.48 229.603 872.032 229.75 872.699 229.75ZM885.185 231.227C884.162 231.227 883.281 230.986 882.543 230.503C881.804 230.02 881.236 229.355 880.838 228.507C880.44 227.66 880.241 226.691 880.241 225.602C880.241 224.494 880.445 223.517 880.852 222.669C881.264 221.817 881.837 221.152 882.571 220.673C883.31 220.19 884.171 219.949 885.156 219.949C885.923 219.949 886.615 220.091 887.23 220.375C887.846 220.659 888.35 221.057 888.743 221.568C889.136 222.08 889.38 222.676 889.474 223.358H887.798C887.67 222.861 887.386 222.42 886.946 222.037C886.51 221.649 885.923 221.455 885.185 221.455C884.531 221.455 883.958 221.625 883.466 221.966C882.978 222.302 882.597 222.778 882.322 223.393C882.053 224.004 881.918 224.722 881.918 225.545C881.918 226.388 882.05 227.122 882.315 227.747C882.585 228.372 882.964 228.857 883.452 229.203C883.944 229.549 884.522 229.722 885.185 229.722C885.62 229.722 886.016 229.646 886.371 229.494C886.726 229.343 887.027 229.125 887.273 228.841C887.519 228.557 887.694 228.216 887.798 227.818H889.474C889.38 228.462 889.145 229.042 888.771 229.558C888.402 230.07 887.912 230.477 887.301 230.78C886.695 231.078 885.99 231.227 885.185 231.227ZM896.607 231.227C895.584 231.227 894.703 230.986 893.964 230.503C893.226 230.02 892.658 229.355 892.26 228.507C891.862 227.66 891.663 226.691 891.663 225.602C891.663 224.494 891.867 223.517 892.274 222.669C892.686 221.817 893.259 221.152 893.993 220.673C894.732 220.19 895.593 219.949 896.578 219.949C897.345 219.949 898.036 220.091 898.652 220.375C899.268 220.659 899.772 221.057 900.165 221.568C900.558 222.08 900.802 222.676 900.896 223.358H899.22C899.092 222.861 898.808 222.42 898.368 222.037C897.932 221.649 897.345 221.455 896.607 221.455C895.953 221.455 895.38 221.625 894.888 221.966C894.4 222.302 894.019 222.778 893.744 223.393C893.474 224.004 893.339 224.722 893.339 225.545C893.339 226.388 893.472 227.122 893.737 227.747C894.007 228.372 894.386 228.857 894.874 229.203C895.366 229.549 895.944 229.722 896.607 229.722C897.042 229.722 897.438 229.646 897.793 229.494C898.148 229.343 898.448 229.125 898.695 228.841C898.941 228.557 899.116 228.216 899.22 227.818H900.896C900.802 228.462 900.567 229.042 900.193 229.558C899.824 230.07 899.334 230.477 898.723 230.78C898.117 231.078 897.411 231.227 896.607 231.227ZM908.028 231.227C907.044 231.227 906.179 230.993 905.436 230.524C904.697 230.055 904.12 229.4 903.703 228.557C903.291 227.714 903.085 226.729 903.085 225.602C903.085 224.466 903.291 223.474 903.703 222.626C904.12 221.779 904.697 221.121 905.436 220.652C906.179 220.183 907.044 219.949 908.028 219.949C909.013 219.949 909.875 220.183 910.614 220.652C911.357 221.121 911.935 221.779 912.347 222.626C912.763 223.474 912.972 224.466 912.972 225.602C912.972 226.729 912.763 227.714 912.347 228.557C911.935 229.4 911.357 230.055 910.614 230.524C909.875 230.993 909.013 231.227 908.028 231.227ZM908.028 229.722C908.777 229.722 909.392 229.53 909.875 229.146C910.358 228.763 910.715 228.259 910.947 227.634C911.179 227.009 911.295 226.331 911.295 225.602C911.295 224.873 911.179 224.194 910.947 223.564C910.715 222.934 910.358 222.425 909.875 222.037C909.392 221.649 908.777 221.455 908.028 221.455C907.28 221.455 906.665 221.649 906.182 222.037C905.699 222.425 905.341 222.934 905.109 223.564C904.877 224.194 904.761 224.873 904.761 225.602C904.761 226.331 904.877 227.009 905.109 227.634C905.341 228.259 905.699 228.763 906.182 229.146C906.665 229.53 907.28 229.722 908.028 229.722ZM922.655 226.54V220.091H924.331V231H922.655V229.153H922.542C922.286 229.707 921.888 230.179 921.348 230.567C920.809 230.95 920.127 231.142 919.303 231.142C918.621 231.142 918.015 230.993 917.485 230.695C916.954 230.392 916.538 229.937 916.235 229.331C915.932 228.72 915.78 227.951 915.78 227.023V220.091H917.456V226.909C917.456 227.705 917.679 228.339 918.124 228.812C918.574 229.286 919.147 229.523 919.843 229.523C920.259 229.523 920.683 229.416 921.114 229.203C921.55 228.99 921.914 228.663 922.208 228.223C922.506 227.783 922.655 227.222 922.655 226.54ZM929.327 224.438V231H927.651V220.091H929.271V221.795H929.413C929.668 221.241 930.057 220.796 930.577 220.46C931.098 220.119 931.771 219.949 932.594 219.949C933.333 219.949 933.979 220.1 934.533 220.403C935.087 220.702 935.518 221.156 935.826 221.767C936.134 222.373 936.288 223.14 936.288 224.068V231H934.612V224.182C934.612 223.325 934.389 222.657 933.944 222.179C933.499 221.696 932.888 221.455 932.112 221.455C931.576 221.455 931.098 221.571 930.677 221.803C930.26 222.035 929.931 222.373 929.69 222.818C929.448 223.263 929.327 223.803 929.327 224.438ZM944.345 220.091V221.511H938.691V220.091H944.345ZM940.339 217.477H942.015V227.875C942.015 228.348 942.084 228.704 942.221 228.94C942.363 229.172 942.543 229.329 942.761 229.409C942.984 229.485 943.218 229.523 943.464 229.523C943.649 229.523 943.8 229.513 943.919 229.494C944.037 229.471 944.132 229.452 944.203 229.438L944.544 230.943C944.43 230.986 944.271 231.028 944.068 231.071C943.864 231.118 943.606 231.142 943.294 231.142C942.82 231.142 942.356 231.04 941.902 230.837C941.452 230.633 941.078 230.323 940.779 229.906C940.486 229.49 940.339 228.964 940.339 228.33V217.477ZM957.735 220.091V221.511H952.082V220.091H957.735ZM953.73 217.477H955.406V227.875C955.406 228.348 955.475 228.704 955.612 228.94C955.754 229.172 955.934 229.329 956.152 229.409C956.374 229.485 956.609 229.523 956.855 229.523C957.039 229.523 957.191 229.513 957.309 229.494C957.428 229.471 957.522 229.452 957.593 229.438L957.934 230.943C957.821 230.986 957.662 231.028 957.458 231.071C957.255 231.118 956.997 231.142 956.684 231.142C956.211 231.142 955.747 231.04 955.292 230.837C954.842 230.633 954.468 230.323 954.17 229.906C953.877 229.49 953.73 228.964 953.73 228.33V217.477ZM964.821 231.227C963.837 231.227 962.972 230.993 962.229 230.524C961.49 230.055 960.913 229.4 960.496 228.557C960.084 227.714 959.878 226.729 959.878 225.602C959.878 224.466 960.084 223.474 960.496 222.626C960.913 221.779 961.49 221.121 962.229 220.652C962.972 220.183 963.837 219.949 964.821 219.949C965.806 219.949 966.668 220.183 967.407 220.652C968.15 221.121 968.728 221.779 969.14 222.626C969.556 223.474 969.765 224.466 969.765 225.602C969.765 226.729 969.556 227.714 969.14 228.557C968.728 229.4 968.15 230.055 967.407 230.524C966.668 230.993 965.806 231.227 964.821 231.227ZM964.821 229.722C965.569 229.722 966.185 229.53 966.668 229.146C967.151 228.763 967.508 228.259 967.74 227.634C967.972 227.009 968.088 226.331 968.088 225.602C968.088 224.873 967.972 224.194 967.74 223.564C967.508 222.934 967.151 222.425 966.668 222.037C966.185 221.649 965.569 221.455 964.821 221.455C964.073 221.455 963.458 221.649 962.975 222.037C962.492 222.425 962.134 222.934 961.902 223.564C961.67 224.194 961.554 224.873 961.554 225.602C961.554 226.331 961.67 227.009 961.902 227.634C962.134 228.259 962.492 228.763 962.975 229.146C963.458 229.53 964.073 229.722 964.821 229.722ZM978.448 231V220.091H980.067V221.795H980.21C980.437 221.213 980.804 220.761 981.31 220.439C981.817 220.112 982.425 219.949 983.136 219.949C983.855 219.949 984.454 220.112 984.933 220.439C985.415 220.761 985.792 221.213 986.062 221.795H986.175C986.455 221.232 986.874 220.785 987.433 220.453C987.991 220.117 988.661 219.949 989.442 219.949C990.418 219.949 991.216 220.254 991.836 220.865C992.456 221.471 992.766 222.416 992.766 223.699V231H991.09V223.699C991.09 222.894 990.87 222.319 990.43 221.973C989.989 221.627 989.471 221.455 988.874 221.455C988.107 221.455 987.513 221.687 987.092 222.151C986.67 222.61 986.46 223.192 986.46 223.898V231H984.755V223.528C984.755 222.908 984.554 222.409 984.151 222.03C983.749 221.646 983.23 221.455 982.596 221.455C982.16 221.455 981.753 221.571 981.374 221.803C981 222.035 980.697 222.357 980.465 222.768C980.238 223.176 980.124 223.647 980.124 224.182V231H978.448ZM999.291 231.256C998.6 231.256 997.973 231.125 997.409 230.865C996.846 230.6 996.398 230.219 996.067 229.722C995.735 229.22 995.57 228.614 995.57 227.903C995.57 227.278 995.693 226.772 995.939 226.384C996.185 225.991 996.514 225.683 996.926 225.46C997.338 225.238 997.793 225.072 998.29 224.963C998.792 224.849 999.296 224.759 999.803 224.693C1000.47 224.608 1001 224.544 1001.41 224.501C1001.83 224.454 1002.13 224.376 1002.32 224.267C1002.52 224.158 1002.62 223.969 1002.62 223.699V223.642C1002.62 222.941 1002.42 222.397 1002.04 222.009C1001.66 221.62 1001.09 221.426 1000.31 221.426C999.514 221.426 998.886 221.601 998.432 221.952C997.977 222.302 997.658 222.676 997.473 223.074L995.882 222.506C996.166 221.843 996.545 221.327 997.018 220.957C997.497 220.583 998.018 220.323 998.581 220.176C999.149 220.025 999.708 219.949 1000.26 219.949C1000.61 219.949 1001.01 219.991 1001.46 220.077C1001.92 220.157 1002.37 220.325 1002.79 220.581C1003.22 220.837 1003.58 221.223 1003.87 221.739C1004.15 222.255 1004.29 222.946 1004.29 223.812V231H1002.62V229.523H1002.53C1002.42 229.759 1002.23 230.013 1001.96 230.283C1001.7 230.553 1001.34 230.782 1000.9 230.972C1000.46 231.161 999.926 231.256 999.291 231.256ZM999.547 229.75C1000.21 229.75 1000.77 229.62 1001.22 229.359C1001.68 229.099 1002.03 228.763 1002.26 228.351C1002.5 227.939 1002.62 227.506 1002.62 227.051V225.517C1002.54 225.602 1002.39 225.68 1002.15 225.751C1001.91 225.818 1001.63 225.877 1001.32 225.929C1001.01 225.976 1000.71 226.019 1000.42 226.057C1000.13 226.09 999.897 226.118 999.717 226.142C999.282 226.199 998.875 226.291 998.496 226.419C998.122 226.542 997.819 226.729 997.587 226.98C997.359 227.226 997.246 227.562 997.246 227.989C997.246 228.571 997.461 229.011 997.892 229.31C998.328 229.603 998.879 229.75 999.547 229.75ZM1009.28 224.438V231H1007.6V220.091H1009.22V221.795H1009.36C1009.62 221.241 1010.01 220.796 1010.53 220.46C1011.05 220.119 1011.72 219.949 1012.54 219.949C1013.28 219.949 1013.93 220.1 1014.48 220.403C1015.04 220.702 1015.47 221.156 1015.78 221.767C1016.08 222.373 1016.24 223.14 1016.24 224.068V231H1014.56V224.182C1014.56 223.325 1014.34 222.657 1013.89 222.179C1013.45 221.696 1012.84 221.455 1012.06 221.455C1011.53 221.455 1011.05 221.571 1010.63 221.803C1010.21 222.035 1009.88 222.373 1009.64 222.818C1009.4 223.263 1009.28 223.803 1009.28 224.438ZM1022.76 231.256C1022.07 231.256 1021.44 231.125 1020.88 230.865C1020.31 230.6 1019.87 230.219 1019.54 229.722C1019.2 229.22 1019.04 228.614 1019.04 227.903C1019.04 227.278 1019.16 226.772 1019.41 226.384C1019.65 225.991 1019.98 225.683 1020.39 225.46C1020.81 225.238 1021.26 225.072 1021.76 224.963C1022.26 224.849 1022.76 224.759 1023.27 224.693C1023.93 224.608 1024.47 224.544 1024.88 224.501C1025.3 224.454 1025.6 224.376 1025.79 224.267C1025.99 224.158 1026.08 223.969 1026.08 223.699V223.642C1026.08 222.941 1025.89 222.397 1025.51 222.009C1025.13 221.62 1024.55 221.426 1023.78 221.426C1022.98 221.426 1022.36 221.601 1021.9 221.952C1021.45 222.302 1021.13 222.676 1020.94 223.074L1019.35 222.506C1019.63 221.843 1020.01 221.327 1020.49 220.957C1020.97 220.583 1021.49 220.323 1022.05 220.176C1022.62 220.025 1023.18 219.949 1023.73 219.949C1024.08 219.949 1024.48 219.991 1024.93 220.077C1025.39 220.157 1025.84 220.325 1026.26 220.581C1026.69 220.837 1027.05 221.223 1027.33 221.739C1027.62 222.255 1027.76 222.946 1027.76 223.812V231H1026.08V229.523H1026C1025.88 229.759 1025.7 230.013 1025.43 230.283C1025.17 230.553 1024.81 230.782 1024.37 230.972C1023.93 231.161 1023.39 231.256 1022.76 231.256ZM1023.02 229.75C1023.68 229.75 1024.24 229.62 1024.69 229.359C1025.15 229.099 1025.5 228.763 1025.73 228.351C1025.97 227.939 1026.08 227.506 1026.08 227.051V225.517C1026.01 225.602 1025.86 225.68 1025.62 225.751C1025.38 225.818 1025.1 225.877 1024.79 225.929C1024.48 225.976 1024.18 226.019 1023.89 226.057C1023.6 226.09 1023.37 226.118 1023.19 226.142C1022.75 226.199 1022.34 226.291 1021.96 226.419C1021.59 226.542 1021.29 226.729 1021.06 226.98C1020.83 227.226 1020.71 227.562 1020.71 227.989C1020.71 228.571 1020.93 229.011 1021.36 229.31C1021.8 229.603 1022.35 229.75 1023.02 229.75ZM1035.47 235.318C1034.66 235.318 1033.97 235.214 1033.38 235.006C1032.8 234.802 1032.32 234.532 1031.93 234.196C1031.55 233.865 1031.24 233.509 1031.01 233.131L1032.35 232.193C1032.5 232.392 1032.69 232.619 1032.92 232.875C1033.15 233.135 1033.47 233.36 1033.87 233.55C1034.28 233.744 1034.81 233.841 1035.47 233.841C1036.35 233.841 1037.08 233.628 1037.65 233.202C1038.23 232.776 1038.51 232.108 1038.51 231.199V228.983H1038.37C1038.25 229.182 1038.07 229.428 1037.84 229.722C1037.62 230.01 1037.3 230.268 1036.88 230.496C1036.46 230.718 1035.9 230.83 1035.19 230.83C1034.31 230.83 1033.52 230.621 1032.82 230.205C1032.12 229.788 1031.57 229.182 1031.16 228.386C1030.76 227.591 1030.56 226.625 1030.56 225.489C1030.56 224.371 1030.75 223.398 1031.15 222.57C1031.54 221.736 1032.09 221.092 1032.79 220.638C1033.49 220.179 1034.3 219.949 1035.22 219.949C1035.93 219.949 1036.49 220.067 1036.91 220.304C1037.33 220.536 1037.65 220.801 1037.87 221.099C1038.1 221.393 1038.28 221.634 1038.4 221.824H1038.57V220.091H1040.19V231.312C1040.19 232.25 1039.98 233.012 1039.55 233.599C1039.13 234.191 1038.56 234.625 1037.84 234.899C1037.13 235.179 1036.34 235.318 1035.47 235.318ZM1035.42 229.324C1036.09 229.324 1036.66 229.17 1037.12 228.862C1037.58 228.554 1037.94 228.112 1038.18 227.534C1038.42 226.956 1038.54 226.265 1038.54 225.46C1038.54 224.674 1038.42 223.981 1038.19 223.379C1037.95 222.778 1037.6 222.307 1037.13 221.966C1036.67 221.625 1036.1 221.455 1035.42 221.455C1034.71 221.455 1034.11 221.634 1033.64 221.994C1033.17 222.354 1032.82 222.837 1032.58 223.443C1032.35 224.049 1032.23 224.722 1032.23 225.46C1032.23 226.218 1032.35 226.888 1032.59 227.47C1032.83 228.048 1033.19 228.502 1033.65 228.834C1034.13 229.161 1034.72 229.324 1035.42 229.324ZM1048.08 231.227C1047.03 231.227 1046.12 230.995 1045.36 230.531C1044.6 230.062 1044.02 229.409 1043.61 228.571C1043.2 227.728 1043 226.748 1043 225.631C1043 224.513 1043.2 223.528 1043.61 222.676C1044.02 221.819 1044.59 221.152 1045.32 220.673C1046.06 220.19 1046.93 219.949 1047.91 219.949C1048.48 219.949 1049.04 220.044 1049.59 220.233C1050.15 220.422 1050.65 220.73 1051.11 221.156C1051.56 221.578 1051.92 222.136 1052.19 222.832C1052.46 223.528 1052.6 224.385 1052.6 225.403V226.114H1044.19V224.665H1050.89C1050.89 224.049 1050.77 223.5 1050.52 223.017C1050.28 222.534 1049.94 222.153 1049.49 221.874C1049.04 221.594 1048.52 221.455 1047.91 221.455C1047.24 221.455 1046.66 221.62 1046.18 221.952C1045.69 222.278 1045.32 222.705 1045.06 223.23C1044.8 223.756 1044.67 224.319 1044.67 224.92V225.886C1044.67 226.71 1044.81 227.409 1045.1 227.982C1045.39 228.55 1045.79 228.983 1046.3 229.281C1046.81 229.575 1047.4 229.722 1048.08 229.722C1048.52 229.722 1048.92 229.66 1049.27 229.537C1049.63 229.409 1049.94 229.22 1050.2 228.969C1050.46 228.713 1050.67 228.396 1050.81 228.017L1052.43 228.472C1052.26 229.021 1051.97 229.504 1051.57 229.92C1051.17 230.332 1050.67 230.654 1050.08 230.886C1049.48 231.114 1048.82 231.227 1048.08 231.227ZM1062.35 235.091C1062.07 235.091 1061.81 235.067 1061.59 235.02C1061.37 234.977 1061.22 234.935 1061.13 234.892L1061.56 233.415C1061.96 233.519 1062.32 233.557 1062.64 233.528C1062.95 233.5 1063.23 233.36 1063.47 233.109C1063.71 232.863 1063.94 232.463 1064.14 231.909L1064.45 231.057L1060.42 220.091H1062.24L1065.25 228.784H1065.36L1068.37 220.091H1070.19L1065.56 232.591C1065.35 233.154 1065.1 233.621 1064.79 233.99C1064.48 234.364 1064.12 234.641 1063.72 234.821C1063.31 235.001 1062.86 235.091 1062.35 235.091ZM1076.7 231.227C1075.71 231.227 1074.85 230.993 1074.1 230.524C1073.37 230.055 1072.79 229.4 1072.37 228.557C1071.96 227.714 1071.75 226.729 1071.75 225.602C1071.75 224.466 1071.96 223.474 1072.37 222.626C1072.79 221.779 1073.37 221.121 1074.1 220.652C1074.85 220.183 1075.71 219.949 1076.7 219.949C1077.68 219.949 1078.54 220.183 1079.28 220.652C1080.02 221.121 1080.6 221.779 1081.01 222.626C1081.43 223.474 1081.64 224.466 1081.64 225.602C1081.64 226.729 1081.43 227.714 1081.01 228.557C1080.6 229.4 1080.02 230.055 1079.28 230.524C1078.54 230.993 1077.68 231.227 1076.7 231.227ZM1076.7 229.722C1077.44 229.722 1078.06 229.53 1078.54 229.146C1079.03 228.763 1079.38 228.259 1079.62 227.634C1079.85 227.009 1079.96 226.331 1079.96 225.602C1079.96 224.873 1079.85 224.194 1079.62 223.564C1079.38 222.934 1079.03 222.425 1078.54 222.037C1078.06 221.649 1077.44 221.455 1076.7 221.455C1075.95 221.455 1075.33 221.649 1074.85 222.037C1074.37 222.425 1074.01 222.934 1073.78 223.564C1073.55 224.194 1073.43 224.873 1073.43 225.602C1073.43 226.331 1073.55 227.009 1073.78 227.634C1074.01 228.259 1074.37 228.763 1074.85 229.146C1075.33 229.53 1075.95 229.722 1076.7 229.722ZM1091.32 226.54V220.091H1093V231H1091.32V229.153H1091.21C1090.95 229.707 1090.56 230.179 1090.02 230.567C1089.48 230.95 1088.79 231.142 1087.97 231.142C1087.29 231.142 1086.68 230.993 1086.15 230.695C1085.62 230.392 1085.21 229.937 1084.9 229.331C1084.6 228.72 1084.45 227.951 1084.45 227.023V220.091H1086.12V226.909C1086.12 227.705 1086.35 228.339 1086.79 228.812C1087.24 229.286 1087.81 229.523 1088.51 229.523C1088.93 229.523 1089.35 229.416 1089.78 229.203C1090.22 228.99 1090.58 228.663 1090.88 228.223C1091.17 227.783 1091.32 227.222 1091.32 226.54ZM1096.32 231V220.091H1097.94V221.739H1098.05C1098.25 221.199 1098.61 220.761 1099.13 220.425C1099.65 220.089 1100.24 219.92 1100.89 219.92C1101.02 219.92 1101.17 219.923 1101.35 219.928C1101.54 219.932 1101.68 219.939 1101.77 219.949V221.653C1101.72 221.639 1101.59 221.618 1101.38 221.589C1101.18 221.556 1100.97 221.54 1100.75 221.54C1100.22 221.54 1099.75 221.651 1099.33 221.874C1098.92 222.091 1098.59 222.394 1098.35 222.783C1098.11 223.166 1098 223.604 1098 224.097V231H1096.32ZM662.534 259.091V244.091H664.153V245.824H664.352C664.475 245.634 664.646 245.393 664.864 245.099C665.086 244.801 665.403 244.536 665.815 244.304C666.232 244.067 666.795 243.949 667.506 243.949C668.424 243.949 669.234 244.179 669.935 244.638C670.635 245.097 671.182 245.748 671.575 246.591C671.968 247.434 672.165 248.428 672.165 249.574C672.165 250.729 671.968 251.731 671.575 252.578C671.182 253.421 670.638 254.074 669.942 254.538C669.246 254.998 668.443 255.227 667.534 255.227C666.833 255.227 666.272 255.111 665.851 254.879C665.429 254.643 665.105 254.375 664.878 254.077C664.651 253.774 664.475 253.523 664.352 253.324H664.21V259.091H662.534ZM664.182 249.545C664.182 250.369 664.303 251.096 664.544 251.726C664.786 252.351 665.138 252.841 665.602 253.196C666.066 253.546 666.634 253.722 667.307 253.722C668.008 253.722 668.592 253.537 669.061 253.168C669.535 252.794 669.89 252.292 670.126 251.662C670.368 251.027 670.489 250.322 670.489 249.545C670.489 248.778 670.37 248.087 670.134 247.472C669.902 246.851 669.549 246.361 669.075 246.001C668.607 245.637 668.017 245.455 667.307 245.455C666.625 245.455 666.052 245.627 665.588 245.973C665.124 246.314 664.774 246.792 664.537 247.408C664.3 248.018 664.182 248.731 664.182 249.545ZM679.545 255.227C678.494 255.227 677.588 254.995 676.825 254.531C676.068 254.062 675.483 253.409 675.071 252.571C674.664 251.728 674.46 250.748 674.46 249.631C674.46 248.513 674.664 247.528 675.071 246.676C675.483 245.819 676.056 245.152 676.79 244.673C677.528 244.19 678.39 243.949 679.375 243.949C679.943 243.949 680.504 244.044 681.058 244.233C681.612 244.422 682.116 244.73 682.571 245.156C683.026 245.578 683.388 246.136 683.658 246.832C683.928 247.528 684.062 248.385 684.062 249.403V250.114H675.653V248.665H682.358C682.358 248.049 682.235 247.5 681.989 247.017C681.747 246.534 681.402 246.153 680.952 245.874C680.507 245.594 679.981 245.455 679.375 245.455C678.707 245.455 678.13 245.62 677.642 245.952C677.159 246.278 676.787 246.705 676.527 247.23C676.267 247.756 676.136 248.319 676.136 248.92V249.886C676.136 250.71 676.278 251.409 676.562 251.982C676.851 252.55 677.251 252.983 677.763 253.281C678.274 253.575 678.868 253.722 679.545 253.722C679.986 253.722 680.384 253.66 680.739 253.537C681.098 253.409 681.409 253.22 681.669 252.969C681.929 252.713 682.131 252.396 682.273 252.017L683.892 252.472C683.722 253.021 683.435 253.504 683.033 253.92C682.63 254.332 682.133 254.654 681.541 254.886C680.949 255.114 680.284 255.227 679.545 255.227ZM686.862 255V244.091H688.482V245.739H688.595C688.794 245.199 689.154 244.761 689.675 244.425C690.196 244.089 690.783 243.92 691.436 243.92C691.559 243.92 691.713 243.923 691.898 243.928C692.082 243.932 692.222 243.939 692.317 243.949V245.653C692.26 245.639 692.13 245.618 691.926 245.589C691.727 245.556 691.517 245.54 691.294 245.54C690.764 245.54 690.29 245.651 689.874 245.874C689.462 246.091 689.135 246.394 688.893 246.783C688.657 247.166 688.538 247.604 688.538 248.097V255H686.862ZM702.281 246.534L700.775 246.96C700.681 246.709 700.541 246.465 700.356 246.229C700.176 245.987 699.93 245.788 699.618 245.632C699.305 245.476 698.905 245.398 698.417 245.398C697.75 245.398 697.193 245.552 696.748 245.859C696.308 246.162 696.088 246.548 696.088 247.017C696.088 247.434 696.239 247.763 696.542 248.004C696.845 248.246 697.319 248.447 697.963 248.608L699.582 249.006C700.557 249.242 701.284 249.605 701.762 250.092C702.241 250.575 702.48 251.198 702.48 251.96C702.48 252.585 702.3 253.144 701.94 253.636C701.585 254.129 701.088 254.517 700.449 254.801C699.809 255.085 699.066 255.227 698.218 255.227C697.106 255.227 696.185 254.986 695.456 254.503C694.726 254.02 694.265 253.314 694.071 252.386L695.662 251.989C695.813 252.576 696.1 253.016 696.521 253.31C696.947 253.603 697.503 253.75 698.19 253.75C698.971 253.75 699.592 253.584 700.051 253.253C700.515 252.917 700.747 252.514 700.747 252.045C700.747 251.667 700.614 251.349 700.349 251.094C700.084 250.833 699.677 250.639 699.127 250.511L697.309 250.085C696.31 249.848 695.576 249.482 695.108 248.984C694.644 248.482 694.412 247.855 694.412 247.102C694.412 246.487 694.584 245.942 694.93 245.469C695.28 244.995 695.756 244.624 696.358 244.354C696.964 244.084 697.65 243.949 698.417 243.949C699.497 243.949 700.344 244.186 700.96 244.659C701.58 245.133 702.02 245.758 702.281 246.534ZM709.685 255.227C708.7 255.227 707.836 254.993 707.092 254.524C706.354 254.055 705.776 253.4 705.359 252.557C704.947 251.714 704.741 250.729 704.741 249.602C704.741 248.466 704.947 247.474 705.359 246.626C705.776 245.779 706.354 245.121 707.092 244.652C707.836 244.183 708.7 243.949 709.685 243.949C710.67 243.949 711.531 244.183 712.27 244.652C713.013 245.121 713.591 245.779 714.003 246.626C714.42 247.474 714.628 248.466 714.628 249.602C714.628 250.729 714.42 251.714 714.003 252.557C713.591 253.4 713.013 254.055 712.27 254.524C711.531 254.993 710.67 255.227 709.685 255.227ZM709.685 253.722C710.433 253.722 711.048 253.53 711.531 253.146C712.014 252.763 712.372 252.259 712.604 251.634C712.836 251.009 712.952 250.331 712.952 249.602C712.952 248.873 712.836 248.194 712.604 247.564C712.372 246.934 712.014 246.425 711.531 246.037C711.048 245.649 710.433 245.455 709.685 245.455C708.937 245.455 708.321 245.649 707.838 246.037C707.355 246.425 706.998 246.934 706.766 247.564C706.534 248.194 706.418 248.873 706.418 249.602C706.418 250.331 706.534 251.009 706.766 251.634C706.998 252.259 707.355 252.763 707.838 253.146C708.321 253.53 708.937 253.722 709.685 253.722ZM719.113 248.438V255H717.436V244.091H719.056V245.795H719.198C719.453 245.241 719.842 244.796 720.363 244.46C720.883 244.119 721.556 243.949 722.38 243.949C723.118 243.949 723.765 244.1 724.319 244.403C724.873 244.702 725.303 245.156 725.611 245.767C725.919 246.373 726.073 247.14 726.073 248.068V255H724.397V248.182C724.397 247.325 724.174 246.657 723.729 246.179C723.284 245.696 722.673 245.455 721.897 245.455C721.362 245.455 720.883 245.571 720.462 245.803C720.045 246.035 719.716 246.373 719.475 246.818C719.233 247.263 719.113 247.803 719.113 248.438ZM732.596 255.256C731.905 255.256 731.277 255.125 730.714 254.865C730.15 254.6 729.703 254.219 729.371 253.722C729.04 253.22 728.874 252.614 728.874 251.903C728.874 251.278 728.997 250.772 729.244 250.384C729.49 249.991 729.819 249.683 730.231 249.46C730.643 249.238 731.097 249.072 731.594 248.963C732.096 248.849 732.601 248.759 733.107 248.693C733.77 248.608 734.308 248.544 734.719 248.501C735.136 248.454 735.439 248.376 735.629 248.267C735.823 248.158 735.92 247.969 735.92 247.699V247.642C735.92 246.941 735.728 246.397 735.344 246.009C734.966 245.62 734.39 245.426 733.619 245.426C732.818 245.426 732.191 245.601 731.737 245.952C731.282 246.302 730.962 246.676 730.778 247.074L729.187 246.506C729.471 245.843 729.85 245.327 730.323 244.957C730.801 244.583 731.322 244.323 731.886 244.176C732.454 244.025 733.013 243.949 733.562 243.949C733.912 243.949 734.315 243.991 734.769 244.077C735.228 244.157 735.671 244.325 736.097 244.581C736.528 244.837 736.886 245.223 737.17 245.739C737.454 246.255 737.596 246.946 737.596 247.812V255H735.92V253.523H735.835C735.721 253.759 735.531 254.013 735.266 254.283C735.001 254.553 734.648 254.782 734.208 254.972C733.768 255.161 733.23 255.256 732.596 255.256ZM732.852 253.75C733.514 253.75 734.073 253.62 734.528 253.359C734.987 253.099 735.333 252.763 735.565 252.351C735.801 251.939 735.92 251.506 735.92 251.051V249.517C735.849 249.602 735.692 249.68 735.451 249.751C735.214 249.818 734.94 249.877 734.627 249.929C734.319 249.976 734.019 250.019 733.725 250.057C733.436 250.09 733.202 250.118 733.022 250.142C732.586 250.199 732.179 250.291 731.8 250.419C731.426 250.542 731.123 250.729 730.891 250.98C730.664 251.226 730.55 251.562 730.55 251.989C730.55 252.571 730.766 253.011 731.197 253.31C731.632 253.603 732.184 253.75 732.852 253.75ZM742.581 240.455V255H740.905V240.455H742.581ZM756.208 255.227C755.185 255.227 754.305 254.986 753.566 254.503C752.827 254.02 752.259 253.355 751.862 252.507C751.464 251.66 751.265 250.691 751.265 249.602C751.265 248.494 751.469 247.517 751.876 246.669C752.288 245.817 752.861 245.152 753.594 244.673C754.333 244.19 755.195 243.949 756.18 243.949C756.947 243.949 757.638 244.091 758.254 244.375C758.869 244.659 759.373 245.057 759.766 245.568C760.159 246.08 760.403 246.676 760.498 247.358H758.822C758.694 246.861 758.41 246.42 757.969 246.037C757.534 245.649 756.947 245.455 756.208 245.455C755.555 245.455 754.982 245.625 754.489 245.966C754.002 246.302 753.621 246.778 753.346 247.393C753.076 248.004 752.941 248.722 752.941 249.545C752.941 250.388 753.074 251.122 753.339 251.747C753.609 252.372 753.987 252.857 754.475 253.203C754.968 253.549 755.545 253.722 756.208 253.722C756.644 253.722 757.039 253.646 757.394 253.494C757.749 253.343 758.05 253.125 758.296 252.841C758.542 252.557 758.718 252.216 758.822 251.818H760.498C760.403 252.462 760.169 253.042 759.795 253.558C759.425 254.07 758.935 254.477 758.325 254.78C757.719 255.078 757.013 255.227 756.208 255.227ZM764.874 240.455V255H763.198V240.455H764.874ZM768.194 255V244.091H769.87V255H768.194ZM769.047 242.273C768.72 242.273 768.438 242.161 768.201 241.939C767.969 241.716 767.853 241.449 767.853 241.136C767.853 240.824 767.969 240.556 768.201 240.334C768.438 240.111 768.72 240 769.047 240C769.373 240 769.653 240.111 769.885 240.334C770.121 240.556 770.24 240.824 770.24 241.136C770.24 241.449 770.121 241.716 769.885 241.939C769.653 242.161 769.373 242.273 769.047 242.273ZM777.764 255.227C776.713 255.227 775.806 254.995 775.044 254.531C774.286 254.062 773.702 253.409 773.29 252.571C772.883 251.728 772.679 250.748 772.679 249.631C772.679 248.513 772.883 247.528 773.29 246.676C773.702 245.819 774.275 245.152 775.009 244.673C775.747 244.19 776.609 243.949 777.594 243.949C778.162 243.949 778.723 244.044 779.277 244.233C779.831 244.422 780.335 244.73 780.79 245.156C781.244 245.578 781.607 246.136 781.876 246.832C782.146 247.528 782.281 248.385 782.281 249.403V250.114H773.872V248.665H780.577C780.577 248.049 780.454 247.5 780.207 247.017C779.966 246.534 779.62 246.153 779.17 245.874C778.725 245.594 778.2 245.455 777.594 245.455C776.926 245.455 776.348 245.62 775.861 245.952C775.378 246.278 775.006 246.705 774.746 247.23C774.485 247.756 774.355 248.319 774.355 248.92V249.886C774.355 250.71 774.497 251.409 774.781 251.982C775.07 252.55 775.47 252.983 775.982 253.281C776.493 253.575 777.087 253.722 777.764 253.722C778.205 253.722 778.602 253.66 778.957 253.537C779.317 253.409 779.627 253.22 779.888 252.969C780.148 252.713 780.349 252.396 780.491 252.017L782.111 252.472C781.94 253.021 781.654 253.504 781.251 253.92C780.849 254.332 780.352 254.654 779.76 254.886C779.168 255.114 778.503 255.227 777.764 255.227ZM786.757 248.438V255H785.081V244.091H786.7V245.795H786.842C787.098 245.241 787.486 244.796 788.007 244.46C788.528 244.119 789.2 243.949 790.024 243.949C790.763 243.949 791.409 244.1 791.963 244.403C792.517 244.702 792.948 245.156 793.256 245.767C793.563 246.373 793.717 247.14 793.717 248.068V255H792.041V248.182C792.041 247.325 791.819 246.657 791.374 246.179C790.929 245.696 790.318 245.455 789.541 245.455C789.006 245.455 788.528 245.571 788.107 245.803C787.69 246.035 787.361 246.373 787.119 246.818C786.878 247.263 786.757 247.803 786.757 248.438ZM801.775 244.091V245.511H796.121V244.091H801.775ZM797.769 241.477H799.445V251.875C799.445 252.348 799.514 252.704 799.651 252.94C799.793 253.172 799.973 253.329 800.191 253.409C800.413 253.485 800.648 253.523 800.894 253.523C801.078 253.523 801.23 253.513 801.348 253.494C801.467 253.471 801.561 253.452 801.632 253.438L801.973 254.943C801.86 254.986 801.701 255.028 801.498 255.071C801.294 255.118 801.036 255.142 800.723 255.142C800.25 255.142 799.786 255.04 799.331 254.837C798.882 254.633 798.507 254.323 798.209 253.906C797.916 253.49 797.769 252.964 797.769 252.33V241.477ZM812.078 246.534L810.572 246.96C810.477 246.709 810.338 246.465 810.153 246.229C809.973 245.987 809.727 245.788 809.414 245.632C809.102 245.476 808.702 245.398 808.214 245.398C807.547 245.398 806.99 245.552 806.545 245.859C806.105 246.162 805.885 246.548 805.885 247.017C805.885 247.434 806.036 247.763 806.339 248.004C806.642 248.246 807.116 248.447 807.76 248.608L809.379 249.006C810.354 249.242 811.081 249.605 811.559 250.092C812.038 250.575 812.277 251.198 812.277 251.96C812.277 252.585 812.097 253.144 811.737 253.636C811.382 254.129 810.885 254.517 810.245 254.801C809.606 255.085 808.863 255.227 808.015 255.227C806.903 255.227 805.982 254.986 805.252 254.503C804.523 254.02 804.062 253.314 803.868 252.386L805.458 251.989C805.61 252.576 805.896 253.016 806.318 253.31C806.744 253.603 807.3 253.75 807.987 253.75C808.768 253.75 809.388 253.584 809.848 253.253C810.312 252.917 810.544 252.514 810.544 252.045C810.544 251.667 810.411 251.349 810.146 251.094C809.881 250.833 809.474 250.639 808.924 250.511L807.106 250.085C806.107 249.848 805.373 249.482 804.904 248.984C804.44 248.482 804.208 247.855 804.208 247.102C804.208 246.487 804.381 245.942 804.727 245.469C805.077 244.995 805.553 244.624 806.154 244.354C806.761 244.084 807.447 243.949 808.214 243.949C809.294 243.949 810.141 244.186 810.757 244.659C811.377 245.133 811.817 245.758 812.078 246.534ZM824.135 255.256C823.444 255.256 822.816 255.125 822.253 254.865C821.689 254.6 821.242 254.219 820.911 253.722C820.579 253.22 820.413 252.614 820.413 251.903C820.413 251.278 820.536 250.772 820.783 250.384C821.029 249.991 821.358 249.683 821.77 249.46C822.182 249.238 822.636 249.072 823.134 248.963C823.635 248.849 824.14 248.759 824.646 248.693C825.309 248.608 825.847 248.544 826.259 248.501C826.675 248.454 826.978 248.376 827.168 248.267C827.362 248.158 827.459 247.969 827.459 247.699V247.642C827.459 246.941 827.267 246.397 826.884 246.009C826.505 245.62 825.929 245.426 825.158 245.426C824.357 245.426 823.73 245.601 823.276 245.952C822.821 246.302 822.501 246.676 822.317 247.074L820.726 246.506C821.01 245.843 821.389 245.327 821.862 244.957C822.34 244.583 822.861 244.323 823.425 244.176C823.993 244.025 824.552 243.949 825.101 243.949C825.451 243.949 825.854 243.991 826.308 244.077C826.768 244.157 827.21 244.325 827.636 244.581C828.067 244.837 828.425 245.223 828.709 245.739C828.993 246.255 829.135 246.946 829.135 247.812V255H827.459V253.523H827.374C827.26 253.759 827.071 254.013 826.805 254.283C826.54 254.553 826.188 254.782 825.747 254.972C825.307 255.161 824.769 255.256 824.135 255.256ZM824.391 253.75C825.054 253.75 825.612 253.62 826.067 253.359C826.526 253.099 826.872 252.763 827.104 252.351C827.34 251.939 827.459 251.506 827.459 251.051V249.517C827.388 249.602 827.232 249.68 826.99 249.751C826.753 249.818 826.479 249.877 826.166 249.929C825.858 249.976 825.558 250.019 825.264 250.057C824.975 250.09 824.741 250.118 824.561 250.142C824.125 250.199 823.718 250.291 823.339 250.419C822.965 250.542 822.662 250.729 822.43 250.98C822.203 251.226 822.089 251.562 822.089 251.989C822.089 252.571 822.305 253.011 822.736 253.31C823.171 253.603 823.723 253.75 824.391 253.75ZM834.12 248.438V255H832.444V244.091H834.064V245.795H834.206C834.461 245.241 834.85 244.796 835.37 244.46C835.891 244.119 836.564 243.949 837.387 243.949C838.126 243.949 838.772 244.1 839.326 244.403C839.88 244.702 840.311 245.156 840.619 245.767C840.927 246.373 841.081 247.14 841.081 248.068V255H839.404V248.182C839.404 247.325 839.182 246.657 838.737 246.179C838.292 245.696 837.681 245.455 836.904 245.455C836.369 245.455 835.891 245.571 835.47 245.803C835.053 246.035 834.724 246.373 834.483 246.818C834.241 247.263 834.12 247.803 834.12 248.438ZM848.513 255.227C847.604 255.227 846.801 254.998 846.105 254.538C845.409 254.074 844.865 253.421 844.472 252.578C844.079 251.731 843.882 250.729 843.882 249.574C843.882 248.428 844.079 247.434 844.472 246.591C844.865 245.748 845.411 245.097 846.112 244.638C846.813 244.179 847.623 243.949 848.541 243.949C849.251 243.949 849.813 244.067 850.224 244.304C850.641 244.536 850.958 244.801 851.176 245.099C851.399 245.393 851.571 245.634 851.695 245.824H851.837V240.455H853.513V255H851.893V253.324H851.695C851.571 253.523 851.396 253.774 851.169 254.077C850.942 254.375 850.617 254.643 850.196 254.879C849.775 255.111 849.214 255.227 848.513 255.227ZM848.74 253.722C849.412 253.722 849.981 253.546 850.445 253.196C850.909 252.841 851.261 252.351 851.503 251.726C851.744 251.096 851.865 250.369 851.865 249.545C851.865 248.731 851.747 248.018 851.51 247.408C851.273 246.792 850.923 246.314 850.459 245.973C849.995 245.627 849.422 245.455 848.74 245.455C848.03 245.455 847.438 245.637 846.964 246.001C846.496 246.361 846.143 246.851 845.906 247.472C845.674 248.087 845.558 248.778 845.558 249.545C845.558 250.322 845.677 251.027 845.913 251.662C846.155 252.292 846.51 252.794 846.979 253.168C847.452 253.537 848.039 253.722 848.74 253.722ZM862.94 259.091V244.091H864.56V245.824H864.759C864.882 245.634 865.052 245.393 865.27 245.099C865.492 244.801 865.81 244.536 866.222 244.304C866.638 244.067 867.202 243.949 867.912 243.949C868.83 243.949 869.64 244.179 870.341 244.638C871.042 245.097 871.589 245.748 871.982 246.591C872.375 247.434 872.571 248.428 872.571 249.574C872.571 250.729 872.375 251.731 871.982 252.578C871.589 253.421 871.044 254.074 870.348 254.538C869.652 254.998 868.849 255.227 867.94 255.227C867.24 255.227 866.679 255.111 866.257 254.879C865.836 254.643 865.511 254.375 865.284 254.077C865.057 253.774 864.882 253.523 864.759 253.324H864.616V259.091H862.94ZM864.588 249.545C864.588 250.369 864.709 251.096 864.95 251.726C865.192 252.351 865.545 252.841 866.009 253.196C866.473 253.546 867.041 253.722 867.713 253.722C868.414 253.722 868.999 253.537 869.467 253.168C869.941 252.794 870.296 252.292 870.533 251.662C870.774 251.027 870.895 250.322 870.895 249.545C870.895 248.778 870.777 248.087 870.54 247.472C870.308 246.851 869.955 246.361 869.482 246.001C869.013 245.637 868.423 245.455 867.713 245.455C867.031 245.455 866.458 245.627 865.994 245.973C865.53 246.314 865.18 246.792 864.943 247.408C864.706 248.018 864.588 248.731 864.588 249.545ZM875.378 255V244.091H876.997V245.739H877.111C877.31 245.199 877.67 244.761 878.19 244.425C878.711 244.089 879.298 243.92 879.952 243.92C880.075 243.92 880.229 243.923 880.413 243.928C880.598 243.932 880.738 243.939 880.832 243.949V245.653C880.776 245.639 880.645 245.618 880.442 245.589C880.243 245.556 880.032 245.54 879.81 245.54C879.279 245.54 878.806 245.651 878.389 245.874C877.977 246.091 877.651 246.394 877.409 246.783C877.172 247.166 877.054 247.604 877.054 248.097V255H875.378ZM887.169 255.227C886.184 255.227 885.32 254.993 884.577 254.524C883.838 254.055 883.26 253.4 882.844 252.557C882.432 251.714 882.226 250.729 882.226 249.602C882.226 248.466 882.432 247.474 882.844 246.626C883.26 245.779 883.838 245.121 884.577 244.652C885.32 244.183 886.184 243.949 887.169 243.949C888.154 243.949 889.016 244.183 889.754 244.652C890.498 245.121 891.075 245.779 891.487 246.626C891.904 247.474 892.112 248.466 892.112 249.602C892.112 250.729 891.904 251.714 891.487 252.557C891.075 253.4 890.498 254.055 889.754 254.524C889.016 254.993 888.154 255.227 887.169 255.227ZM887.169 253.722C887.917 253.722 888.533 253.53 889.016 253.146C889.499 252.763 889.856 252.259 890.088 251.634C890.32 251.009 890.436 250.331 890.436 249.602C890.436 248.873 890.32 248.194 890.088 247.564C889.856 246.934 889.499 246.425 889.016 246.037C888.533 245.649 887.917 245.455 887.169 245.455C886.421 245.455 885.805 245.649 885.322 246.037C884.839 246.425 884.482 246.934 884.25 247.564C884.018 248.194 883.902 248.873 883.902 249.602C883.902 250.331 884.018 251.009 884.25 251.634C884.482 252.259 884.839 252.763 885.322 253.146C885.805 253.53 886.421 253.722 887.169 253.722ZM894.921 244.091H896.597V255.795C896.597 256.468 896.481 257.05 896.249 257.543C896.022 258.035 895.676 258.416 895.212 258.686C894.753 258.956 894.173 259.091 893.472 259.091C893.415 259.091 893.358 259.091 893.301 259.091C893.245 259.091 893.188 259.091 893.131 259.091V257.528C893.188 257.528 893.24 257.528 893.287 257.528C893.335 257.528 893.387 257.528 893.444 257.528C893.955 257.528 894.329 257.377 894.566 257.074C894.802 256.776 894.921 256.349 894.921 255.795V244.091ZM895.745 242.273C895.418 242.273 895.136 242.161 894.9 241.939C894.667 241.716 894.551 241.449 894.551 241.136C894.551 240.824 894.667 240.556 894.9 240.334C895.136 240.111 895.418 240 895.745 240C896.071 240 896.351 240.111 896.583 240.334C896.819 240.556 896.938 240.824 896.938 241.136C896.938 241.449 896.819 241.716 896.583 241.939C896.351 242.161 896.071 242.273 895.745 242.273ZM904.491 255.227C903.44 255.227 902.533 254.995 901.771 254.531C901.013 254.062 900.428 253.409 900.016 252.571C899.609 251.728 899.406 250.748 899.406 249.631C899.406 248.513 899.609 247.528 900.016 246.676C900.428 245.819 901.001 245.152 901.735 244.673C902.474 244.19 903.335 243.949 904.32 243.949C904.888 243.949 905.45 244.044 906.004 244.233C906.558 244.422 907.062 244.73 907.516 245.156C907.971 245.578 908.333 246.136 908.603 246.832C908.873 247.528 909.008 248.385 909.008 249.403V250.114H900.599V248.665H907.303C907.303 248.049 907.18 247.5 906.934 247.017C906.692 246.534 906.347 246.153 905.897 245.874C905.452 245.594 904.926 245.455 904.32 245.455C903.653 245.455 903.075 245.62 902.587 245.952C902.104 246.278 901.733 246.705 901.472 247.23C901.212 247.756 901.082 248.319 901.082 248.92V249.886C901.082 250.71 901.224 251.409 901.508 251.982C901.797 252.55 902.197 252.983 902.708 253.281C903.219 253.575 903.814 253.722 904.491 253.722C904.931 253.722 905.329 253.66 905.684 253.537C906.044 253.409 906.354 253.22 906.614 252.969C906.875 252.713 907.076 252.396 907.218 252.017L908.837 252.472C908.667 253.021 908.38 253.504 907.978 253.92C907.576 254.332 907.078 254.654 906.487 254.886C905.895 255.114 905.229 255.227 904.491 255.227ZM916.239 255.227C915.217 255.227 914.336 254.986 913.597 254.503C912.859 254.02 912.29 253.355 911.893 252.507C911.495 251.66 911.296 250.691 911.296 249.602C911.296 248.494 911.5 247.517 911.907 246.669C912.319 245.817 912.892 245.152 913.626 244.673C914.364 244.19 915.226 243.949 916.211 243.949C916.978 243.949 917.669 244.091 918.285 244.375C918.9 244.659 919.405 245.057 919.798 245.568C920.191 246.08 920.434 246.676 920.529 247.358H918.853C918.725 246.861 918.441 246.42 918.001 246.037C917.565 245.649 916.978 245.455 916.239 245.455C915.586 245.455 915.013 245.625 914.521 245.966C914.033 246.302 913.652 246.778 913.377 247.393C913.107 248.004 912.972 248.722 912.972 249.545C912.972 250.388 913.105 251.122 913.37 251.747C913.64 252.372 914.019 252.857 914.506 253.203C914.999 253.549 915.576 253.722 916.239 253.722C916.675 253.722 917.07 253.646 917.425 253.494C917.781 253.343 918.081 253.125 918.327 252.841C918.574 252.557 918.749 252.216 918.853 251.818H920.529C920.434 252.462 920.2 253.042 919.826 253.558C919.457 254.07 918.967 254.477 918.356 254.78C917.75 255.078 917.044 255.227 916.239 255.227ZM927.974 244.091V245.511H922.32V244.091H927.974ZM923.968 241.477H925.644V251.875C925.644 252.348 925.713 252.704 925.85 252.94C925.992 253.172 926.172 253.329 926.39 253.409C926.612 253.485 926.847 253.523 927.093 253.523C927.278 253.523 927.429 253.513 927.548 253.494C927.666 253.471 927.761 253.452 927.832 253.438L928.173 254.943C928.059 254.986 927.9 255.028 927.697 255.071C927.493 255.118 927.235 255.142 926.923 255.142C926.449 255.142 925.985 255.04 925.531 254.837C925.081 254.633 924.707 254.323 924.408 253.906C924.115 253.49 923.968 252.964 923.968 252.33V241.477ZM938.277 246.534L936.771 246.96C936.677 246.709 936.537 246.465 936.352 246.229C936.172 245.987 935.926 245.788 935.614 245.632C935.301 245.476 934.901 245.398 934.413 245.398C933.746 245.398 933.189 245.552 932.744 245.859C932.304 246.162 932.084 246.548 932.084 247.017C932.084 247.434 932.235 247.763 932.538 248.004C932.841 248.246 933.315 248.447 933.959 248.608L935.578 249.006C936.554 249.242 937.28 249.605 937.759 250.092C938.237 250.575 938.476 251.198 938.476 251.96C938.476 252.585 938.296 253.144 937.936 253.636C937.581 254.129 937.084 254.517 936.445 254.801C935.805 255.085 935.062 255.227 934.214 255.227C933.102 255.227 932.181 254.986 931.452 254.503C930.723 254.02 930.261 253.314 930.067 252.386L931.658 251.989C931.809 252.576 932.096 253.016 932.517 253.31C932.943 253.603 933.5 253.75 934.186 253.75C934.967 253.75 935.588 253.584 936.047 253.253C936.511 252.917 936.743 252.514 936.743 252.045C936.743 251.667 936.61 251.349 936.345 251.094C936.08 250.833 935.673 250.639 935.124 250.511L933.305 250.085C932.306 249.848 931.572 249.482 931.104 248.984C930.64 248.482 930.408 247.855 930.408 247.102C930.408 246.487 930.58 245.942 930.926 245.469C931.277 244.995 931.752 244.624 932.354 244.354C932.96 244.084 933.646 243.949 934.413 243.949C935.493 243.949 936.34 244.186 936.956 244.659C937.576 245.133 938.017 245.758 938.277 246.534Z" fill="#F9F9F9"/>
<line x1="610" y1="182" x2="641" y2="182" stroke="#393939" stroke-width="2"/>
<rect x="839.904" y="1287.99" width="167.388" height="861.713" transform="rotate(-115.82 839.904 1287.99)" fill="url(#paint0_linear_27_13371)"/>
<rect x="277.904" y="167.99" width="167.388" height="861.713" transform="rotate(-115.82 277.904 167.99)" fill="url(#paint1_linear_27_13371)"/>
<rect x="359.904" y="333.99" width="167.388" height="861.713" transform="rotate(-115.82 359.904 333.99)" fill="url(#paint2_linear_27_13371)"/>
<rect x="441.904" y="499.99" width="167.388" height="861.713" transform="rotate(-115.82 441.904 499.99)" fill="url(#paint3_linear_27_13371)"/>
<rect x="523.904" y="665.99" width="167.388" height="861.713" transform="rotate(-115.82 523.904 665.99)" fill="url(#paint4_linear_27_13371)"/>
<rect x="605.904" y="831.99" width="167.388" height="861.713" transform="rotate(-115.82 605.904 831.99)" fill="url(#paint5_linear_27_13371)"/>
<rect x="687.904" y="997.99" width="167.388" height="861.713" transform="rotate(-115.82 687.904 997.99)" fill="url(#paint6_linear_27_13371)"/>
<rect x="769.904" y="1163.99" width="167.388" height="861.713" transform="rotate(-115.82 769.904 1163.99)" fill="url(#paint7_linear_27_13371)"/>
<rect width="212.584" height="746.735" transform="matrix(-0.892046 -0.451945 -0.451945 0.892046 527.117 -145.924)" fill="url(#paint8_linear_27_13371)"/>
<rect width="212.584" height="746.735" transform="matrix(-0.892046 -0.451945 -0.451945 0.892046 693.117 -57.9238)" fill="url(#paint9_linear_27_13371)"/>
<rect width="212.584" height="746.735" transform="matrix(-0.892046 -0.451945 -0.451945 0.892046 901.117 49.0762)" fill="url(#paint10_linear_27_13371)"/>
<rect width="212.584" height="746.735" transform="matrix(-0.892046 -0.451945 -0.451945 0.892046 1109.12 156.076)" fill="url(#paint11_linear_27_13371)"/>
<rect width="212.584" height="746.735" transform="matrix(-0.892046 -0.451945 -0.451945 0.892046 1317.12 263.076)" fill="url(#paint12_linear_27_13371)"/>
<rect width="212.584" height="746.735" transform="matrix(-0.892046 -0.451945 -0.451945 0.892046 1525.12 370.076)" fill="url(#paint13_linear_27_13371)"/>
<rect width="212.584" height="746.735" transform="matrix(-0.892046 -0.451945 -0.451945 0.892046 1733.12 477.076)" fill="url(#paint14_linear_27_13371)"/>
<defs>
<linearGradient id="paint0_linear_27_13371" x1="923.598" y1="1287.99" x2="923.598" y2="2149.7" gradientUnits="userSpaceOnUse">
<stop stop-color="#545454" stop-opacity="0.19"/>
<stop offset="1" stop-color="white" stop-opacity="0"/>
</linearGradient>
<linearGradient id="paint1_linear_27_13371" x1="361.598" y1="167.99" x2="361.598" y2="1029.7" gradientUnits="userSpaceOnUse">
<stop stop-color="#545454" stop-opacity="0.19"/>
<stop offset="1" stop-color="white" stop-opacity="0"/>
</linearGradient>
<linearGradient id="paint2_linear_27_13371" x1="443.598" y1="333.99" x2="443.598" y2="1195.7" gradientUnits="userSpaceOnUse">
<stop stop-color="#545454" stop-opacity="0.19"/>
<stop offset="1" stop-color="white" stop-opacity="0"/>
</linearGradient>
<linearGradient id="paint3_linear_27_13371" x1="525.598" y1="499.99" x2="525.598" y2="1361.7" gradientUnits="userSpaceOnUse">
<stop stop-color="#545454" stop-opacity="0.19"/>
<stop offset="1" stop-color="white" stop-opacity="0"/>
</linearGradient>
<linearGradient id="paint4_linear_27_13371" x1="607.598" y1="665.99" x2="607.598" y2="1527.7" gradientUnits="userSpaceOnUse">
<stop stop-color="#545454" stop-opacity="0.19"/>
<stop offset="1" stop-color="white" stop-opacity="0"/>
</linearGradient>
<linearGradient id="paint5_linear_27_13371" x1="689.598" y1="831.99" x2="689.598" y2="1693.7" gradientUnits="userSpaceOnUse">
<stop stop-color="#545454" stop-opacity="0.19"/>
<stop offset="1" stop-color="white" stop-opacity="0"/>
</linearGradient>
<linearGradient id="paint6_linear_27_13371" x1="771.598" y1="997.99" x2="771.598" y2="1859.7" gradientUnits="userSpaceOnUse">
<stop stop-color="#545454" stop-opacity="0.19"/>
<stop offset="1" stop-color="white" stop-opacity="0"/>
</linearGradient>
<linearGradient id="paint7_linear_27_13371" x1="853.598" y1="1163.99" x2="853.598" y2="2025.7" gradientUnits="userSpaceOnUse">
<stop stop-color="#545454" stop-opacity="0.19"/>
<stop offset="1" stop-color="white" stop-opacity="0"/>
</linearGradient>
<linearGradient id="paint8_linear_27_13371" x1="106.292" y1="0" x2="106.292" y2="746.735" gradientUnits="userSpaceOnUse">
<stop stop-color="#545454" stop-opacity="0.19"/>
<stop offset="1" stop-color="white" stop-opacity="0"/>
</linearGradient>
<linearGradient id="paint9_linear_27_13371" x1="106.292" y1="0" x2="106.292" y2="746.735" gradientUnits="userSpaceOnUse">
<stop stop-color="#545454" stop-opacity="0.19"/>
<stop offset="1" stop-color="white" stop-opacity="0"/>
</linearGradient>
<linearGradient id="paint10_linear_27_13371" x1="106.292" y1="0" x2="106.292" y2="746.735" gradientUnits="userSpaceOnUse">
<stop stop-color="#545454" stop-opacity="0.19"/>
<stop offset="1" stop-color="white" stop-opacity="0"/>
</linearGradient>
<linearGradient id="paint11_linear_27_13371" x1="106.292" y1="0" x2="106.292" y2="746.735" gradientUnits="userSpaceOnUse">
<stop stop-color="#545454" stop-opacity="0.19"/>
<stop offset="1" stop-color="white" stop-opacity="0"/>
</linearGradient>
<linearGradient id="paint12_linear_27_13371" x1="106.292" y1="0" x2="106.292" y2="746.735" gradientUnits="userSpaceOnUse">
<stop stop-color="#545454" stop-opacity="0.19"/>
<stop offset="1" stop-color="white" stop-opacity="0"/>
</linearGradient>
<linearGradient id="paint13_linear_27_13371" x1="106.292" y1="0" x2="106.292" y2="746.735" gradientUnits="userSpaceOnUse">
<stop stop-color="#545454" stop-opacity="0.19"/>
<stop offset="1" stop-color="white" stop-opacity="0"/>
</linearGradient>
<linearGradient id="paint14_linear_27_13371" x1="106.292" y1="0" x2="106.292" y2="746.735" gradientUnits="userSpaceOnUse">
<stop stop-color="#545454" stop-opacity="0.19"/>
<stop offset="1" stop-color="white" stop-opacity="0"/>
</linearGradient>
</defs>
</svg>
