<svg width="650" height="512" viewBox="0 0 650 512" fill="none" xmlns="http://www.w3.org/2000/svg">
<path d="M596.615 246.038V227.847C596.615 226.13 596.277 224.429 595.619 222.842C594.962 221.255 593.999 219.813 592.784 218.599C591.57 217.384 590.128 216.421 588.542 215.763C586.955 215.106 585.254 214.768 583.537 214.768H547.375C543.906 214.768 540.58 213.39 538.127 210.937C535.674 208.484 534.296 205.157 534.296 201.688V183.497C534.296 176.274 550.151 170.418 557.374 170.418H558.831C562.3 170.418 565.626 169.04 568.079 166.587C570.531 164.134 571.909 160.807 571.909 157.338V139.147C571.909 137.429 571.571 135.729 570.914 134.142C570.256 132.555 569.293 131.113 568.079 129.899C566.864 128.684 565.423 127.721 563.836 127.063C562.249 126.406 560.548 126.068 558.831 126.068H116.97C115.252 126.068 113.552 126.406 111.965 127.063C110.378 127.721 108.936 128.684 107.722 129.899C106.508 131.113 105.544 132.555 104.887 134.142C104.23 135.729 103.892 137.429 103.892 139.147V157.338C103.892 159.056 104.23 160.757 104.887 162.344C105.544 163.93 106.508 165.372 107.722 166.587C108.936 167.801 110.378 168.765 111.965 169.422C113.552 170.079 115.252 170.418 116.97 170.418C120.438 170.418 123.765 171.796 126.217 174.249C128.67 176.701 130.048 180.028 130.048 183.497V201.688C130.048 205.157 128.67 208.484 126.217 210.937C123.765 213.39 120.438 214.768 116.97 214.768H66.3955C64.678 214.768 62.9774 215.106 61.3907 215.763C59.804 216.421 58.3623 217.384 57.1479 218.599C55.9335 219.813 54.9701 221.255 54.3129 222.842C53.6557 224.429 53.3174 226.13 53.3174 227.847V246.038C53.3174 249.507 54.6953 252.834 57.1479 255.287C59.6005 257.74 62.927 259.118 66.3955 259.118H86.24C89.7085 259.118 93.035 260.496 95.4876 262.949C97.9402 265.402 99.3181 268.728 99.3181 272.197V290.389C99.3181 292.106 98.9798 293.807 98.3226 295.394C97.6654 296.981 96.702 298.423 95.4876 299.637C94.2732 300.852 92.8315 301.815 91.2448 302.472C89.6581 303.13 87.9574 303.468 86.24 303.468H86.192C82.7235 303.468 79.397 304.846 76.9444 307.299C74.4918 309.752 73.1139 313.079 73.1139 316.547V334.739C73.1139 336.456 73.4522 338.157 74.1094 339.744C74.7667 341.331 75.73 342.773 76.9444 343.987C78.1588 345.202 79.6005 346.165 81.1872 346.822C82.7739 347.48 84.4746 347.818 86.192 347.818H89.0631C92.5316 347.818 95.8581 349.196 98.3107 351.649C100.763 354.102 102.141 357.429 102.141 360.897V379.089C102.141 382.558 100.763 385.884 98.3107 388.337C95.8581 390.79 92.5317 392.168 89.0631 392.168H71.9404C70.223 392.168 68.5223 392.506 66.9356 393.164C65.3489 393.821 63.9072 394.784 62.6928 395.999C61.4784 397.214 60.5151 398.655 59.8578 400.242C59.2006 401.829 58.8623 403.53 58.8623 405.248V423.439C58.8623 426.908 60.2402 430.234 62.6928 432.687C65.1454 435.14 68.4719 436.518 71.9404 436.518H555.853C559.322 436.518 562.648 435.14 565.101 432.687C567.553 430.234 568.931 426.908 568.931 423.439V405.248C568.931 403.53 568.593 401.829 567.936 400.242C567.279 398.655 566.315 397.214 565.101 395.999C563.886 394.784 562.445 393.821 560.858 393.164C559.271 392.506 557.571 392.168 555.853 392.168H544.514C541.045 392.168 537.719 390.79 535.266 388.337C532.814 385.884 531.436 382.558 531.436 379.089V360.897C531.436 357.429 532.814 354.102 535.266 351.649C537.719 349.196 541.045 347.818 544.514 347.818H571.251C574.72 347.818 578.046 346.44 580.499 343.987C582.951 341.534 584.329 338.207 584.329 334.739V316.547C584.329 313.079 582.951 309.752 580.499 307.299C578.046 304.846 574.72 303.468 571.251 303.468H563.14C559.672 303.468 556.345 302.09 553.893 299.637C551.44 297.184 550.062 293.857 550.062 290.389V272.197C550.062 268.728 551.44 265.402 553.893 262.949C556.345 260.496 559.672 259.118 563.14 259.118H583.537C587.005 259.118 590.332 257.74 592.784 255.287C595.237 252.834 596.615 249.507 596.615 246.038Z" fill="#D6D6D6"/>
<path d="M221.76 214.165C221.757 220.798 219.121 227.158 214.433 231.849C209.744 236.54 203.386 239.178 196.754 239.184H103.313C98.5564 239.185 93.9673 237.426 90.4283 234.248C86.8893 231.069 84.6503 226.693 84.1418 221.963C83.6332 217.233 84.8911 212.482 87.6734 208.623C90.4558 204.765 94.5663 202.071 99.2145 201.06C99.5863 195.431 102.082 190.154 106.198 186.296C110.313 182.438 115.74 180.288 121.38 180.28C123.664 180.28 125.934 180.643 128.104 181.354C131.397 174.985 136.562 169.777 142.903 166.43C149.244 163.084 156.458 161.76 163.574 162.637C170.69 163.514 177.366 166.549 182.706 171.334C188.045 176.12 191.791 182.426 193.44 189.404C196.971 188.927 200.563 189.211 203.975 190.237C207.387 191.263 210.54 193.007 213.223 195.352C215.905 197.697 218.055 200.59 219.527 203.834C221 207.079 221.761 210.601 221.76 214.165Z" fill="#CCF2F7"/>
<path d="M384.24 361.08L365.663 333.46C380.639 320.152 390.077 301.71 392.111 281.778C394.145 261.847 388.627 241.877 376.647 225.819C364.668 209.761 347.1 198.782 327.416 195.055C307.733 191.327 287.368 195.122 270.347 205.689C253.327 216.256 240.891 232.825 235.498 252.12C230.105 271.416 232.148 292.033 241.223 309.894C250.297 327.756 265.743 341.562 284.506 348.582C303.269 355.603 323.983 355.326 342.552 347.808L360.661 374.612C361.549 376.16 362.734 377.518 364.147 378.609C365.56 379.699 367.174 380.501 368.897 380.967C370.62 381.434 372.418 381.557 374.189 381.328C375.959 381.1 377.667 380.525 379.215 379.637C380.764 378.748 382.122 377.563 383.212 376.15C384.302 374.737 385.104 373.122 385.57 371.399C386.037 369.676 386.16 367.878 385.931 366.107C385.703 364.337 385.128 362.628 384.24 361.08Z" fill="#1E97C6"/>
<path d="M312.7 330.561C344.204 330.561 369.742 305.02 369.742 273.513C369.742 242.007 344.204 216.465 312.7 216.465C281.197 216.465 255.658 242.007 255.658 273.513C255.658 305.02 281.197 330.561 312.7 330.561Z" fill="#80DFEB"/>
<path d="M312.701 216.465C309.977 216.468 307.258 216.665 304.562 217.053C318.14 219.009 330.558 225.794 339.54 236.164C348.522 246.534 353.467 259.794 353.467 273.513C353.467 287.233 348.522 300.493 339.54 310.863C330.558 321.232 318.14 328.017 304.562 329.974C312.317 331.092 320.218 330.6 327.774 328.53C335.33 326.46 342.379 322.855 348.48 317.94C354.582 313.025 359.606 306.906 363.239 299.964C366.872 293.023 369.036 285.407 369.596 277.591C370.156 269.776 369.101 261.929 366.496 254.54C363.89 247.151 359.791 240.378 354.452 234.643C349.114 228.908 342.652 224.334 335.469 221.206C328.286 218.079 320.535 216.465 312.701 216.465Z" fill="#082326"/>
<path d="M282.148 283.453C287.024 283.453 290.976 279.501 290.976 274.625C290.976 269.748 287.024 265.796 282.148 265.796C277.273 265.796 273.32 269.748 273.32 274.625C273.32 279.501 277.273 283.453 282.148 283.453Z" fill="#CCF2F7"/>
<path d="M341.243 268.759C344.618 268.759 347.354 266.023 347.354 262.647C347.354 259.271 344.618 256.535 341.243 256.535C337.867 256.535 335.131 259.271 335.131 262.647C335.131 266.023 337.867 268.759 341.243 268.759Z" fill="#082326"/>
<path d="M307.118 254.714C309.368 254.714 311.193 252.89 311.193 250.639C311.193 248.389 309.368 246.564 307.118 246.564C304.867 246.564 303.043 248.389 303.043 250.639C303.043 252.89 304.867 254.714 307.118 254.714Z" fill="#082326"/>
<path d="M308.626 308.981C310.876 308.981 312.7 307.157 312.7 304.906C312.7 302.656 310.876 300.832 308.626 300.832C306.375 300.832 304.551 302.656 304.551 304.906C304.551 307.157 306.375 308.981 308.626 308.981Z" fill="#082326"/>
<path d="M332.172 295.495C335.217 295.495 337.684 293.027 337.684 289.982C337.684 286.938 335.217 284.47 332.172 284.47C329.128 284.47 326.66 286.938 326.66 289.982C326.66 293.027 329.128 295.495 332.172 295.495Z" fill="#CCF2F7"/>
<path d="M270.189 329.312C271.919 329.312 273.321 327.909 273.321 326.179C273.321 324.449 271.919 323.047 270.189 323.047C268.459 323.047 267.057 324.449 267.057 326.179C267.057 327.909 268.459 329.312 270.189 329.312Z" fill="#1E97C6"/>
<path d="M372.875 243.061C374.604 243.061 376.007 241.658 376.007 239.928C376.007 238.198 374.604 236.796 372.875 236.796C371.145 236.796 369.742 238.198 369.742 239.928C369.742 241.658 371.145 243.061 372.875 243.061Z" fill="#1E97C6"/>
<path d="M370.973 307.043C369.072 311.078 366.742 314.896 364.022 318.431C361.209 321.945 358.051 325.169 354.597 328.056C351.071 330.895 347.277 333.386 343.27 335.494C335.164 339.656 326.264 342.042 317.163 342.493C314.894 342.514 312.63 342.598 310.369 342.46C308.112 342.334 305.863 342.083 303.634 341.708C294.753 340.282 286.314 336.848 278.961 331.668C286.877 335.364 295.355 337.711 304.045 338.614C312.605 339.45 321.245 338.741 329.555 336.523C333.688 335.398 337.718 333.92 341.599 332.107C345.467 330.231 349.18 328.051 352.704 325.589C356.201 323.033 359.493 320.209 362.553 317.144C365.591 313.977 368.405 310.602 370.973 307.043Z" fill="#1E97C6"/>
<path d="M246.808 286.85C243.672 275.302 243.922 263.095 247.531 251.686C249.318 245.939 251.888 240.465 255.168 235.419C256.811 232.895 258.627 230.488 260.605 228.215C262.566 225.927 264.678 223.773 266.927 221.767C269.193 219.78 271.581 217.935 274.076 216.245C275.355 215.45 276.589 214.581 277.914 213.862L279.876 212.744L281.895 211.732C283.232 211.04 284.641 210.496 286.013 209.884C287.426 209.368 288.809 208.772 290.251 208.341C293.099 207.389 296.013 206.645 298.969 206.115C304.86 205.075 310.865 204.841 316.819 205.421C322.711 206.022 328.484 207.473 333.96 209.729C328.317 208.282 322.525 207.494 316.7 207.381C310.949 207.295 305.208 207.896 299.599 209.172C294.04 210.482 288.666 212.478 283.599 215.114C281.073 216.422 278.626 217.88 276.272 219.478C273.936 221.101 271.701 222.864 269.579 224.758C260.995 232.339 254.43 241.936 250.475 252.685C246.515 263.611 245.257 275.333 246.808 286.85Z" fill="#1E97C6"/>
<path d="M203.248 332.512V355.677C203.248 375.796 204.467 377.32 226.107 379.453V387.989H154.787V379.453C177.646 377.32 179.169 375.491 179.169 355.372V332.512H98.7061V323.367C127.661 282.216 159.054 237.713 189.533 195.343H203.248V317.879H233.117V332.512L203.248 332.512ZM179.169 227.35C159.968 255.392 138.633 286.483 117.603 317.879H179.169V227.35Z" fill="#1E97C6"/>
<path d="M504.373 332.512V355.677C504.373 375.796 505.593 377.32 527.233 379.453V387.989H455.913V379.453C478.771 377.32 480.295 375.491 480.295 355.372V332.512H399.832V323.367C428.786 282.216 460.179 237.713 490.659 195.343H504.373V317.879H534.243V332.512L504.373 332.512ZM480.295 227.35C461.094 255.392 439.758 286.483 418.729 317.879H480.295V227.35Z" fill="#1E97C6"/>
<path d="M552.382 143.699C552.378 152.435 548.907 160.813 542.732 166.992C536.556 173.171 528.181 176.646 519.445 176.653H396.37C390.104 176.654 384.06 174.338 379.399 170.151C374.737 165.964 371.788 160.201 371.118 153.971C370.448 147.74 372.105 141.482 375.77 136.4C379.435 131.318 384.849 127.769 390.971 126.438C391.461 119.024 394.749 112.073 400.169 106.991C405.59 101.91 412.738 99.0775 420.167 99.0675C423.176 99.0677 426.165 99.5454 429.024 100.483C433.361 92.0929 440.163 85.2328 448.515 80.8252C456.868 76.4176 466.369 74.674 475.742 75.8288C485.115 76.9835 493.909 80.9814 500.942 87.2846C507.975 93.5877 512.909 101.894 515.081 111.085C519.731 110.457 524.463 110.831 528.957 112.182C533.451 113.533 537.604 115.831 541.137 118.92C544.671 122.009 547.502 125.818 549.441 130.092C551.381 134.366 552.383 139.005 552.382 143.699Z" fill="#CCF2F7"/>
<path d="M552.209 401.375C552.206 408.007 549.571 414.368 544.882 419.059C540.194 423.75 533.835 426.388 527.203 426.394H433.762C429.006 426.395 424.416 424.636 420.878 421.457C417.339 418.278 415.1 413.903 414.591 409.173C414.082 404.443 415.34 399.692 418.123 395.833C420.905 391.975 425.015 389.281 429.664 388.27C430.035 382.641 432.532 377.364 436.647 373.506C440.762 369.648 446.189 367.498 451.83 367.49C454.114 367.49 456.383 367.853 458.554 368.564C461.846 362.195 467.011 356.986 473.352 353.64C479.693 350.294 486.907 348.97 494.023 349.847C501.139 350.723 507.816 353.759 513.155 358.544C518.494 363.33 522.24 369.636 523.889 376.614C527.42 376.137 531.012 376.421 534.424 377.447C537.836 378.472 540.989 380.217 543.672 382.562C546.354 384.907 548.504 387.799 549.976 391.044C551.449 394.289 552.21 397.811 552.209 401.375Z" fill="#CCF2F7"/>
<path d="M119.213 119.327H151.512" stroke="#CCF2F7" stroke-width="3" stroke-miterlimit="10" stroke-linecap="round"/>
<path d="M119.213 128.637H151.512" stroke="#CCF2F7" stroke-width="3" stroke-miterlimit="10" stroke-linecap="round"/>
<path d="M119.213 137.948H151.512" stroke="#CCF2F7" stroke-width="3" stroke-miterlimit="10" stroke-linecap="round"/>
<path d="M273.566 395.257H305.866" stroke="#CCF2F7" stroke-width="3" stroke-miterlimit="10" stroke-linecap="round"/>
<path d="M273.566 404.568H305.866" stroke="#CCF2F7" stroke-width="3" stroke-miterlimit="10" stroke-linecap="round"/>
<path d="M273.566 413.878H305.866" stroke="#CCF2F7" stroke-width="3" stroke-miterlimit="10" stroke-linecap="round"/>
<path d="M536.059 271.982H568.358" stroke="#CCF2F7" stroke-width="3" stroke-miterlimit="10" stroke-linecap="round"/>
<path d="M536.059 281.293H568.358" stroke="#CCF2F7" stroke-width="3" stroke-miterlimit="10" stroke-linecap="round"/>
<path d="M536.059 290.603H568.358" stroke="#CCF2F7" stroke-width="3" stroke-miterlimit="10" stroke-linecap="round"/>
<path d="M80.9058 416.056C89.9778 416.056 97.3321 408.701 97.3321 399.628C97.3321 390.555 89.9778 383.2 80.9058 383.2C71.8338 383.2 64.4795 390.555 64.4795 399.628C64.4795 408.701 71.8338 416.056 80.9058 416.056Z" fill="#CCF2F7"/>
<path d="M101.578 381.824C106.303 381.824 110.134 377.993 110.134 373.267C110.134 368.541 106.303 364.71 101.578 364.71C96.8522 364.71 93.0215 368.541 93.0215 373.267C93.0215 377.993 96.8522 381.824 101.578 381.824Z" fill="#CCF2F7"/>
<path d="M144.105 418.942C148.194 418.942 151.51 415.626 151.51 411.536C151.51 407.446 148.194 404.13 144.105 404.13C140.015 404.13 136.699 407.446 136.699 411.536C136.699 415.626 140.015 418.942 144.105 418.942Z" fill="#CCF2F7"/>
<path d="M126.906 394.519C129.632 394.519 131.842 392.309 131.842 389.583C131.842 386.857 129.632 384.647 126.906 384.647C124.18 384.647 121.971 386.857 121.971 389.583C121.971 392.309 124.18 394.519 126.906 394.519Z" fill="#CCF2F7"/>
<path d="M115.289 426.392C121.824 426.392 127.121 421.094 127.121 414.559C127.121 408.024 121.824 402.727 115.289 402.727C108.755 402.727 103.458 408.024 103.458 414.559C103.458 421.094 108.755 426.392 115.289 426.392Z" fill="#CCF2F7"/>
<path d="M308.25 178.717C317.322 178.717 324.677 171.362 324.677 162.289C324.677 153.216 317.322 145.861 308.25 145.861C299.179 145.861 291.824 153.216 291.824 162.289C291.824 171.362 299.179 178.717 308.25 178.717Z" fill="#CCF2F7"/>
<path d="M275.665 186.123C279.755 186.123 283.071 182.808 283.071 178.717C283.071 174.627 279.755 171.311 275.665 171.311C271.575 171.311 268.26 174.627 268.26 178.717C268.26 182.808 271.575 186.123 275.665 186.123Z" fill="#CCF2F7"/>
<path d="M266.587 162.289C273.122 162.289 278.419 156.991 278.419 150.456C278.419 143.921 273.122 138.624 266.587 138.624C260.053 138.624 254.756 143.921 254.756 150.456C254.756 156.991 260.053 162.289 266.587 162.289Z" fill="#CCF2F7"/>
</svg>
