<svg width="220" height="220" viewBox="0 0 220 220" fill="none" xmlns="http://www.w3.org/2000/svg">
<g id="success">
<path id="Vector" d="M107.835 17.1165H94.1416V147.202H107.835V17.1165Z" fill="#D6D6D6"/>
<path id="Vector_2" d="M107.835 148.914H94.1413C93.6874 148.914 93.252 148.734 92.931 148.413C92.61 148.092 92.4297 147.656 92.4297 147.202V17.1165C92.4297 16.6626 92.61 16.2272 92.931 15.9062C93.252 15.5852 93.6874 15.4049 94.1413 15.4049H107.835C108.289 15.4049 108.724 15.5852 109.045 15.9062C109.366 16.2272 109.546 16.6626 109.546 17.1165V147.202C109.546 147.656 109.366 148.092 109.045 148.413C108.724 148.734 108.289 148.914 107.835 148.914ZM95.853 145.491H106.123V18.8282H95.853V145.491Z" fill="#041213"/>
<path id="Vector_3" d="M22.2518 147.202H8.55859V201.975H22.2518V147.202Z" fill="#1E97C6"/>
<path id="Vector_4" d="M22.2516 203.687H8.55834C8.10438 203.687 7.66901 203.507 7.34801 203.186C7.02701 202.865 6.84668 202.429 6.84668 201.975V147.202C6.84668 146.748 7.02701 146.313 7.34801 145.992C7.66901 145.671 8.10438 145.491 8.55834 145.491H22.2516C22.7055 145.491 23.1409 145.671 23.4619 145.992C23.7829 146.313 23.9632 146.748 23.9632 147.202V201.975C23.9632 202.429 23.7829 202.865 23.4619 203.186C23.1409 203.507 22.7055 203.687 22.2516 203.687ZM10.27 200.264H20.5399V148.914H10.27V200.264Z" fill="#041213"/>
<path id="Vector_5" d="M63.3315 147.202H22.2517V201.975H63.3315V147.202Z" fill="#1E97C6"/>
<path id="Vector_6" d="M63.3315 203.687H22.2517C21.7977 203.687 21.3624 203.507 21.0414 203.186C20.7204 202.865 20.54 202.429 20.54 201.975V147.202C20.54 146.748 20.7204 146.313 21.0414 145.992C21.3624 145.671 21.7977 145.491 22.2517 145.491H63.3315C63.7854 145.491 64.2208 145.671 64.5418 145.992C64.8628 146.313 65.0431 146.748 65.0431 147.202V201.975C65.0431 202.429 64.8628 202.865 64.5418 203.186C64.2208 203.507 63.7854 203.687 63.3315 203.687ZM23.9634 200.264H61.6198V148.914H23.9634V200.264Z" fill="#041213"/>
<path id="Vector_7" d="M135.221 167.742C135.221 165.927 134.5 164.185 133.216 162.901C131.932 161.617 130.19 160.896 128.374 160.896C130.19 160.896 131.932 160.174 133.216 158.89C134.5 157.606 135.221 155.865 135.221 154.049C135.221 152.233 134.5 150.492 133.216 149.208C131.932 147.924 130.19 147.202 128.374 147.202H94.1414V140.356C94.1414 138.54 93.42 136.799 92.136 135.515C90.852 134.231 89.1106 133.509 87.2947 133.509H82.8444C81.2891 133.508 79.78 134.037 78.5653 135.009L63.3315 147.202V201.975H128.374C130.19 201.975 131.932 201.254 133.216 199.97C134.5 198.686 135.221 196.945 135.221 195.129C135.221 193.313 134.5 191.572 133.216 190.288C131.932 189.004 130.19 188.282 128.374 188.282C130.19 188.282 131.932 187.561 133.216 186.277C134.5 184.993 135.221 183.251 135.221 181.436C135.221 179.62 134.5 177.878 133.216 176.594C131.932 175.31 130.19 174.589 128.374 174.589C130.19 174.589 131.932 173.868 133.216 172.584C134.5 171.3 135.221 169.558 135.221 167.742Z" fill="#E0C8A4"/>
<path id="Vector_8" d="M128.374 203.687H63.3313C62.8773 203.687 62.442 203.507 62.121 203.186C61.8 202.865 61.6196 202.429 61.6196 201.975V147.202C61.6195 146.945 61.6773 146.691 61.7887 146.46C61.9001 146.228 62.0623 146.024 62.2632 145.864L77.5038 133.673C79.0196 132.461 80.9028 131.799 82.8442 131.797H87.2945C89.5643 131.797 91.7411 132.699 93.3461 134.304C94.9511 135.909 95.8528 138.086 95.8528 140.356V145.491H128.374C130.17 145.491 131.921 146.056 133.378 147.106C134.836 148.156 135.925 149.639 136.493 151.343C137.061 153.047 137.079 154.886 136.543 156.601C136.008 158.315 134.946 159.818 133.509 160.896C134.572 161.693 135.435 162.727 136.029 163.915C136.623 165.103 136.933 166.414 136.933 167.742C136.933 169.071 136.623 170.381 136.029 171.57C135.435 172.758 134.572 173.792 133.509 174.589C134.572 175.386 135.435 176.42 136.029 177.608C136.623 178.797 136.933 180.107 136.933 181.436C136.933 182.764 136.623 184.075 136.029 185.263C135.435 186.451 134.572 187.485 133.509 188.282C134.946 189.36 136.008 190.862 136.543 192.577C137.079 194.292 137.061 196.131 136.493 197.835C135.925 199.539 134.836 201.021 133.378 202.072C131.921 203.122 130.17 203.687 128.374 203.687ZM65.0429 200.264H128.374C129.736 200.264 131.042 199.723 132.005 198.76C132.968 197.797 133.509 196.491 133.509 195.129C133.509 193.767 132.968 192.461 132.005 191.498C131.042 190.535 129.736 189.994 128.374 189.994C127.92 189.994 127.485 189.813 127.164 189.492C126.843 189.171 126.663 188.736 126.663 188.282C126.663 187.828 126.843 187.393 127.164 187.072C127.485 186.751 127.92 186.57 128.374 186.57C129.736 186.57 131.042 186.029 132.005 185.066C132.968 184.104 133.509 182.797 133.509 181.436C133.509 180.074 132.968 178.768 132.005 177.805C131.042 176.842 129.736 176.301 128.374 176.301C127.92 176.301 127.485 176.12 127.164 175.799C126.843 175.478 126.663 175.043 126.663 174.589C126.663 174.135 126.843 173.7 127.164 173.379C127.485 173.058 127.92 172.877 128.374 172.877C129.736 172.877 131.042 172.336 132.005 171.373C132.968 170.41 133.509 169.104 133.509 167.742C133.509 166.38 132.968 165.074 132.005 164.111C131.042 163.148 129.736 162.607 128.374 162.607C127.92 162.607 127.485 162.427 127.164 162.106C126.843 161.785 126.663 161.35 126.663 160.896C126.663 160.442 126.843 160.006 127.164 159.685C127.485 159.364 127.92 159.184 128.374 159.184C129.736 159.184 131.042 158.643 132.005 157.68C132.968 156.717 133.509 155.411 133.509 154.049C133.509 152.687 132.968 151.381 132.005 150.418C131.042 149.455 129.736 148.914 128.374 148.914H94.1411C93.6871 148.914 93.2518 148.734 92.9308 148.413C92.6098 148.092 92.4294 147.656 92.4294 147.202V140.356C92.4294 138.994 91.8884 137.688 90.9254 136.725C89.9625 135.762 88.6564 135.221 87.2945 135.221H82.8442C81.6793 135.222 80.5494 135.619 79.6399 136.347L65.0429 148.024V200.264Z" fill="#041213"/>
<path id="Vector_9" d="M70.1782 196.841C69.7242 196.841 69.2889 196.66 68.9679 196.339C68.6469 196.018 68.4666 195.583 68.4666 195.129V150.492C68.4669 150.236 68.5249 149.983 68.6363 149.751C68.7477 149.52 68.9097 149.317 69.1101 149.157L81.7764 139.017C82.1314 138.734 82.5846 138.603 83.0362 138.653C83.4878 138.703 83.901 138.931 84.1847 139.286C84.4684 139.641 84.5995 140.094 84.5491 140.546C84.4987 140.998 84.271 141.411 83.916 141.694L71.8899 151.31V195.129C71.8899 195.583 71.7095 196.018 71.3885 196.339C71.0675 196.66 70.6322 196.841 70.1782 196.841Z" fill="#E0C8A4"/>
<path id="Vector_10" d="M128.375 162.607H107.835C107.381 162.607 106.945 162.427 106.624 162.106C106.303 161.785 106.123 161.35 106.123 160.896C106.123 160.442 106.303 160.006 106.624 159.685C106.945 159.364 107.381 159.184 107.835 159.184H128.375C128.829 159.184 129.264 159.364 129.585 159.685C129.906 160.006 130.086 160.442 130.086 160.896C130.086 161.35 129.906 161.785 129.585 162.106C129.264 162.427 128.829 162.607 128.375 162.607Z" fill="#041213"/>
<path id="Vector_11" d="M128.375 176.301H107.835C107.381 176.301 106.945 176.12 106.624 175.799C106.303 175.478 106.123 175.043 106.123 174.589C106.123 174.135 106.303 173.7 106.624 173.379C106.945 173.058 107.381 172.877 107.835 172.877H128.375C128.829 172.877 129.264 173.058 129.585 173.379C129.906 173.7 130.086 174.135 130.086 174.589C130.086 175.043 129.906 175.478 129.585 175.799C129.264 176.12 128.829 176.301 128.375 176.301Z" fill="#041213"/>
<path id="Vector_12" d="M128.375 189.994H107.835C107.381 189.994 106.945 189.813 106.624 189.492C106.303 189.171 106.123 188.736 106.123 188.282C106.123 187.828 106.303 187.393 106.624 187.072C106.945 186.751 107.381 186.57 107.835 186.57H128.375C128.829 186.57 129.264 186.751 129.585 187.072C129.906 187.393 130.086 187.828 130.086 188.282C130.086 188.736 129.906 189.171 129.585 189.492C129.264 189.813 128.829 189.994 128.375 189.994Z" fill="#041213"/>
<path id="Vector_13" d="M49.638 75.3129L44.5031 59.908L29.0981 54.773L44.5031 49.638L49.638 34.2331L54.773 49.638L70.1779 54.773L54.773 59.908L49.638 75.3129Z" fill="#FBBC04"/>
<path id="Vector_14" d="M49.6385 77.0245C49.2788 77.025 48.9282 76.9121 48.6363 76.7019C48.3444 76.4918 48.1261 76.195 48.0124 75.8537L43.1342 61.2773L28.5578 56.3956C28.2178 56.2815 27.9223 56.0635 27.7129 55.7723C27.5035 55.4812 27.3909 55.1316 27.3909 54.773C27.3909 54.4144 27.5035 54.0648 27.7129 53.7737C27.9223 53.4825 28.2178 53.2645 28.5578 53.1503L43.1342 48.2687L47.9988 33.6785C48.1409 33.3666 48.3698 33.1021 48.6581 32.9167C48.9464 32.7312 49.282 32.6326 49.6248 32.6326C49.9676 32.6326 50.3032 32.7312 50.5915 32.9167C50.8799 33.1021 51.1087 33.3666 51.2509 33.6785L56.1428 48.2687L70.733 53.1366C71.0729 53.2508 71.3685 53.4688 71.5779 53.76C71.7872 54.0511 71.8999 54.4007 71.8999 54.7593C71.8999 55.1179 71.7872 55.4675 71.5779 55.7586C71.3685 56.0498 71.0729 56.2678 70.733 56.3819L56.1428 61.2773L51.2783 75.8674C51.1616 76.2084 50.9402 76.5038 50.6458 76.7115C50.3513 76.9193 49.9988 77.0288 49.6385 77.0245ZM34.5109 54.773L45.0444 58.2853C45.2969 58.3689 45.5265 58.5102 45.7148 58.698C45.9032 58.8857 46.0452 59.1148 46.1296 59.3671L49.6385 69.9006L53.1474 59.3671C53.2318 59.1148 53.3738 58.8857 53.5622 58.698C53.7506 58.5102 53.9801 58.3689 54.2326 58.2853L64.7661 54.773L54.2326 51.2607C53.9801 51.1771 53.7506 51.0358 53.5622 50.848C53.3738 50.6602 53.2318 50.4311 53.1474 50.1789L49.6385 39.6454L46.1296 50.1789C46.0452 50.4311 45.9032 50.6602 45.7148 50.848C45.5265 51.0358 45.2969 51.1771 45.0444 51.2607L34.5109 54.773Z" fill="#041213"/>
<path id="Vector_15" d="M176.301 160.896L171.166 145.491L155.761 140.356L171.166 135.221L176.301 119.816L181.436 135.221L196.84 140.356L181.436 145.491L176.301 160.896Z" fill="#FBBC04"/>
<path id="Vector_16" d="M176.301 162.607C175.941 162.608 175.591 162.495 175.299 162.285C175.007 162.075 174.788 161.778 174.675 161.437L169.797 146.86L155.206 141.992C154.866 141.878 154.571 141.66 154.362 141.369C154.152 141.078 154.04 140.728 154.04 140.369C154.04 140.011 154.152 139.661 154.362 139.37C154.571 139.079 154.866 138.861 155.206 138.747L169.797 133.851L174.661 119.261C174.803 118.949 175.032 118.685 175.32 118.499C175.609 118.314 175.944 118.215 176.287 118.215C176.63 118.215 176.966 118.314 177.254 118.499C177.542 118.685 177.771 118.949 177.913 119.261L182.805 133.851L197.395 138.719C197.735 138.834 198.031 139.052 198.24 139.343C198.45 139.634 198.562 139.983 198.562 140.342C198.562 140.701 198.45 141.05 198.24 141.341C198.031 141.633 197.735 141.851 197.395 141.965L182.805 146.86L177.941 161.45C177.824 161.791 177.603 162.087 177.308 162.294C177.014 162.502 176.661 162.612 176.301 162.607ZM161.173 140.356L171.707 143.868C171.959 143.952 172.189 144.093 172.377 144.281C172.566 144.469 172.708 144.698 172.792 144.95L176.301 155.483L179.81 144.95C179.894 144.698 180.036 144.469 180.225 144.281C180.413 144.093 180.642 143.952 180.895 143.868L191.429 140.356L180.895 136.843C180.642 136.76 180.413 136.619 180.225 136.431C180.036 136.243 179.894 136.014 179.81 135.762L176.301 125.228L172.792 135.762C172.708 136.014 172.566 136.243 172.377 136.431C172.189 136.619 171.959 136.76 171.707 136.843L161.173 140.356Z" fill="#041213"/>
<path id="Vector_17" d="M179.724 30.8098C179.724 28.994 179.003 27.2525 177.719 25.9685C176.435 24.6845 174.693 23.9632 172.877 23.9632H104.411V85.5828H124.951C126.767 85.5828 128.508 86.3041 129.792 87.5881C131.076 88.8721 131.798 90.6136 131.798 92.4294C131.798 94.2453 132.519 95.9867 133.803 97.2707C135.087 98.5547 136.828 99.276 138.644 99.276H210.534V37.6564H186.571C184.755 37.6564 183.013 36.9351 181.729 35.6511C180.445 34.3671 179.724 32.6256 179.724 30.8098Z" fill="#A0B570"/>
<path id="Vector_18" d="M210.534 100.988H138.644C136.375 100.988 134.198 100.086 132.593 98.4811C130.988 96.8761 130.086 94.6993 130.086 92.4295C130.086 91.0676 129.545 89.7615 128.582 88.7985C127.619 87.8355 126.313 87.2945 124.951 87.2945H104.411C103.957 87.2945 103.522 87.1142 103.201 86.7932C102.88 86.4722 102.7 86.0368 102.7 85.5828V23.9632C102.7 23.5092 102.88 23.0739 103.201 22.7529C103.522 22.4319 103.957 22.2515 104.411 22.2515H172.878C175.147 22.2515 177.324 23.1532 178.929 24.7582C180.534 26.3632 181.436 28.54 181.436 30.8098C181.436 32.1717 181.977 33.4778 182.94 34.4408C183.903 35.4038 185.209 35.9448 186.571 35.9448H210.534C210.988 35.9448 211.423 36.1251 211.744 36.4461C212.065 36.7671 212.246 37.2025 212.246 37.6564V99.2761C212.246 99.73 212.065 100.165 211.744 100.486C211.423 100.807 210.988 100.988 210.534 100.988ZM106.123 83.8712H124.951C127.221 83.8712 129.398 84.7728 131.003 86.3778C132.608 87.9828 133.51 90.1597 133.51 92.4295C133.51 93.7913 134.051 95.0974 135.014 96.0604C135.977 97.0234 137.283 97.5644 138.644 97.5644H208.822V39.3681H186.571C184.301 39.3681 182.124 38.4664 180.519 36.8614C178.914 35.2565 178.013 33.0796 178.013 30.8098C178.013 29.4479 177.472 28.1418 176.509 27.1789C175.546 26.2159 174.24 25.6749 172.878 25.6749H106.123V83.8712Z" fill="#041213"/>
<path id="Vector_19" d="M203.687 94.1411C203.234 94.1411 202.798 93.9607 202.477 93.6397C202.156 93.3187 201.976 92.8834 201.976 92.4294V44.503C201.976 44.0491 202.156 43.6137 202.477 43.2927C202.798 42.9717 203.234 42.7914 203.687 42.7914C204.141 42.7914 204.577 42.9717 204.898 43.2927C205.219 43.6137 205.399 44.0491 205.399 44.503V92.4294C205.399 92.8834 205.219 93.3187 204.898 93.6397C204.577 93.9607 204.141 94.1411 203.687 94.1411Z" fill="#A0B570"/>
<path id="Vector_20" d="M111.258 80.4478C110.804 80.4478 110.368 80.2675 110.047 79.9465C109.726 79.6255 109.546 79.1901 109.546 78.7362V30.8098C109.546 30.3558 109.726 29.9205 110.047 29.5995C110.368 29.2785 110.804 29.0981 111.258 29.0981C111.712 29.0981 112.147 29.2785 112.468 29.5995C112.789 29.9205 112.969 30.3558 112.969 30.8098V78.7362C112.969 79.1901 112.789 79.6255 112.468 79.9465C112.147 80.2675 111.712 80.4478 111.258 80.4478Z" fill="#A0B570"/>
<path id="Vector_21" d="M180.751 46.006C179.788 45.0433 178.482 44.5025 177.121 44.5025C175.759 44.5025 174.453 45.0433 173.49 46.006L150.493 69.0038L142.02 60.5311C141.553 60.0136 140.987 59.5965 140.354 59.3051C139.721 59.0137 139.036 58.854 138.339 58.8359C137.643 58.8178 136.95 58.9415 136.303 59.1997C135.656 59.4578 135.068 59.8448 134.576 60.3373C134.083 60.8298 133.696 61.4174 133.437 62.0643C133.179 62.7112 133.055 63.4039 133.072 64.1003C133.09 64.7967 133.25 65.4822 133.541 66.1151C133.832 66.748 134.249 67.315 134.766 67.7816L146.86 79.8967C147.337 80.3739 147.904 80.7525 148.527 81.0107C149.15 81.269 149.818 81.4019 150.493 81.4019C151.167 81.4019 151.835 81.269 152.458 81.0107C153.082 80.7525 153.648 80.3739 154.125 79.8967L180.751 53.2702C181.228 52.7934 181.607 52.2271 181.865 51.6039C182.123 50.9807 182.256 50.3127 182.256 49.6381C182.256 48.9635 182.123 48.2955 181.865 47.6723C181.607 47.049 181.228 46.4828 180.751 46.006Z" fill="#D6D6D6"/>
<path id="Vector_22" d="M150.499 83.1109C149.6 83.1133 148.709 82.9372 147.878 82.5929C147.047 82.2485 146.293 81.7427 145.659 81.1048L133.557 69.0034C132.274 67.7194 131.553 65.9783 131.553 64.1628C131.553 62.3473 132.274 60.6062 133.557 59.3223C134.861 58.076 136.595 57.3804 138.398 57.3804C140.201 57.3804 141.935 58.076 143.238 59.3223L150.499 66.5831L172.285 44.7971C172.917 44.1432 173.672 43.6216 174.508 43.2628C175.343 42.904 176.241 42.7151 177.15 42.7072C178.06 42.6993 178.961 42.8725 179.803 43.2168C180.644 43.561 181.408 44.0694 182.051 44.7123C182.694 45.3551 183.202 46.1196 183.547 46.961C183.891 47.8024 184.064 48.704 184.056 49.6131C184.048 50.5221 183.86 51.4206 183.501 52.2559C183.142 53.0912 182.62 53.8467 181.966 54.4783L155.34 81.1048C154.706 81.7432 153.952 82.2493 153.121 82.5937C152.29 82.9381 151.399 83.1139 150.499 83.1109ZM138.398 60.7395C137.721 60.7396 137.059 60.9405 136.496 61.3167C135.934 61.6928 135.495 62.2274 135.236 62.8529C134.977 63.4783 134.909 64.1665 135.041 64.8305C135.173 65.4944 135.499 66.1043 135.978 66.5831L148.079 78.6845C148.73 79.3084 149.597 79.6567 150.499 79.6567C151.401 79.6567 152.268 79.3084 152.92 78.6845L179.546 52.058C180.17 51.4123 180.515 50.5476 180.507 49.65C180.499 48.7524 180.139 47.8938 179.504 47.2591C178.87 46.6244 178.011 46.2644 177.114 46.2566C176.216 46.2488 175.351 46.5938 174.706 47.2174L151.708 70.2118C151.387 70.5327 150.951 70.713 150.498 70.713C150.044 70.713 149.608 70.5327 149.287 70.2118L140.818 61.7425C140.176 61.1005 139.306 60.7397 138.398 60.7395Z" fill="#041213"/>
<path id="Vector_23" d="M29.0984 196.84C28.6444 196.84 28.209 196.66 27.8881 196.339C27.5671 196.018 27.3867 195.583 27.3867 195.129V154.049C27.3867 153.595 27.5671 153.16 27.8881 152.839C28.209 152.518 28.6444 152.337 29.0984 152.337C29.5523 152.337 29.9877 152.518 30.3087 152.839C30.6297 153.16 30.81 153.595 30.81 154.049V195.129C30.81 195.583 30.6297 196.018 30.3087 196.339C29.9877 196.66 29.5523 196.84 29.0984 196.84Z" fill="#1E97C6"/>
<path id="Vector_24" d="M56.4848 196.84C56.0309 196.84 55.5955 196.66 55.2745 196.339C54.9535 196.018 54.7732 195.583 54.7732 195.129V154.049C54.7732 153.595 54.9535 153.16 55.2745 152.839C55.5955 152.518 56.0309 152.337 56.4848 152.337C56.9388 152.337 57.3742 152.518 57.6952 152.839C58.0162 153.16 58.1965 153.595 58.1965 154.049V195.129C58.1965 195.583 58.0162 196.018 57.6952 196.339C57.3742 196.66 56.9388 196.84 56.4848 196.84Z" fill="#1E97C6"/>
</g>
</svg>
