<svg width="190" height="56" viewBox="0 0 190 56" fill="none" xmlns="http://www.w3.org/2000/svg">
<rect x="1.15" y="0.65" width="187.7" height="54.7" rx="5.85" fill="black"/>
<rect x="1.15" y="0.65" width="187.7" height="54.7" rx="5.85" stroke="#A6A6A6" stroke-width="1.3"/>
<g filter="url(#filter0_ii_302_682)">
<path d="M15.1104 10.5532C14.703 10.9844 14.4622 11.6537 14.4622 12.5203V43.4826C14.4622 44.3506 14.703 45.0185 15.1104 45.4496L15.214 45.5504L32.5586 28.2058V28.0014V27.797L15.214 10.4511L15.1104 10.5532Z" fill="url(#paint0_linear_302_682)"/>
<path d="M38.3392 33.9892L32.5586 28.2058V28.0014V27.797L38.3406 22.015L38.4708 22.0892L45.321 25.9812C47.2768 27.0928 47.2768 28.9114 45.321 30.0244L38.4708 33.9164L38.3392 33.9892Z" fill="url(#paint1_linear_302_682)"/>
<g filter="url(#filter1_i_302_682)">
<path d="M38.4708 33.9151L32.5572 28.0015L15.1104 45.4497C15.7544 46.1329 16.8198 46.2169 18.0196 45.5365L38.4708 33.9151Z" fill="url(#paint2_linear_302_682)"/>
</g>
<path d="M38.4708 22.0878L18.0196 10.4678C16.8198 9.78602 15.7544 9.87142 15.1104 10.5546L32.5585 28.0028L38.4708 22.0878Z" fill="url(#paint3_linear_302_682)"/>
</g>
<path d="M95.8903 30.4516C92.5975 30.4516 89.9137 32.9562 89.9137 36.4058C89.9137 39.8344 92.5975 42.36 95.8903 42.36C99.1845 42.36 101.868 39.8344 101.868 36.4058C101.867 32.9562 99.1831 30.4516 95.8903 30.4516ZM95.8903 40.0164C94.0857 40.0164 92.5303 38.5282 92.5303 36.4072C92.5303 34.2638 94.0871 32.798 95.8903 32.798C97.6949 32.798 99.2503 34.2638 99.2503 36.4072C99.2503 38.5268 97.6949 40.0164 95.8903 40.0164ZM82.8507 30.4516C79.5579 30.4516 76.8741 32.9562 76.8741 36.4058C76.8741 39.8344 79.5579 42.36 82.8507 42.36C86.1449 42.36 88.8287 39.8344 88.8287 36.4058C88.8287 32.9562 86.1449 30.4516 82.8507 30.4516ZM82.8507 40.0164C81.0461 40.0164 79.4907 38.5282 79.4907 36.4072C79.4907 34.2638 81.0475 32.798 82.8507 32.798C84.6553 32.798 86.2107 34.2638 86.2107 36.4072C86.2121 38.5268 84.6553 40.0164 82.8507 40.0164ZM67.3415 32.28V34.8056H73.3867C73.2061 36.2266 72.7329 37.264 72.0105 37.985C71.1313 38.8642 69.7551 39.8344 67.3415 39.8344C63.6203 39.8344 60.7111 36.8342 60.7111 33.113C60.7111 29.3918 63.6203 26.3916 67.3415 26.3916C69.3491 26.3916 70.8149 27.1812 71.8971 28.1962L73.6793 26.414C72.1673 24.9706 70.1611 23.866 67.3415 23.866C62.2441 23.866 57.9587 28.0156 57.9587 33.113C57.9587 38.2104 62.2441 42.36 67.3415 42.36C70.0925 42.36 72.1687 41.457 73.7913 39.7658C75.4601 38.097 75.9795 35.7506 75.9795 33.8564C75.9795 33.2712 75.9347 32.7294 75.8437 32.2786H67.3415V32.28ZM130.773 34.2414C130.277 32.9114 128.765 30.4516 125.675 30.4516C122.608 30.4516 120.059 32.8652 120.059 36.4058C120.059 39.7434 122.586 42.36 125.968 42.36C128.697 42.36 130.276 40.6912 130.931 39.721L128.901 38.3672C128.225 39.3598 127.299 40.0136 125.968 40.0136C124.638 40.0136 123.69 39.4046 123.081 38.209L131.043 34.9162L130.773 34.2414ZM122.653 36.2266C122.586 33.925 124.435 32.7532 125.766 32.7532C126.804 32.7532 127.683 33.2726 127.977 34.016L122.653 36.2266ZM116.181 42.0002H118.796V24.4988H116.181V42.0002ZM111.894 31.783H111.804C111.218 31.083 110.089 30.4516 108.67 30.4516C105.692 30.4516 102.963 33.0682 102.963 36.4296C102.963 39.7672 105.692 42.3614 108.67 42.3614C110.091 42.3614 111.218 41.73 111.804 41.009H111.894V41.8658C111.894 44.1436 110.676 45.3616 108.714 45.3616C107.113 45.3616 106.12 44.2122 105.714 43.242L103.436 44.1898C104.09 45.7676 105.826 47.708 108.714 47.708C111.782 47.708 114.376 45.9034 114.376 41.5046V30.8142H111.895V31.783H111.894ZM108.895 40.0164C107.09 40.0164 105.58 38.5044 105.58 36.4296C105.58 34.331 107.09 32.798 108.895 32.798C110.676 32.798 112.074 34.331 112.074 36.4296C112.074 38.5044 110.676 40.0164 108.895 40.0164ZM143.028 24.4988H136.769V42.0002H139.38V35.3698H143.027C145.922 35.3698 148.77 33.274 148.77 29.935C148.77 26.596 145.924 24.4988 143.028 24.4988ZM143.096 32.9338H139.38V26.9348H143.096C145.049 26.9348 146.157 28.5518 146.157 29.935C146.157 31.2902 145.049 32.9338 143.096 32.9338ZM159.24 30.4208C157.349 30.4208 155.39 31.2538 154.58 33.1004L156.898 34.0678C157.394 33.1004 158.318 32.784 159.285 32.784C160.636 32.784 162.01 33.5946 162.032 35.0352V35.2158C161.559 34.9456 160.545 34.541 159.308 34.541C156.809 34.541 154.263 35.9144 154.263 38.4806C154.263 40.8228 156.313 42.3306 158.609 42.3306C160.365 42.3306 161.333 41.5424 161.941 40.6184H162.031V41.9694H164.553V35.2592C164.555 32.154 162.234 30.4208 159.24 30.4208ZM158.924 40.0122C158.07 40.0122 156.876 39.5838 156.876 38.5254C156.876 37.1744 158.363 36.6564 159.646 36.6564C160.793 36.6564 161.335 36.9042 162.032 37.2416C161.829 38.8642 160.433 40.0122 158.924 40.0122ZM173.74 30.803L170.746 38.391H170.656L167.548 30.803H164.734L169.395 41.408L166.737 47.3076H169.462L176.645 30.803H173.74ZM150.212 42.0002H152.823V24.4988H150.212V42.0002Z" fill="white"/>
<path d="M66.8852 14.3401C66.8852 15.5133 66.538 16.4471 65.8422 17.1443C65.0526 17.9731 64.0222 18.3875 62.7566 18.3875C61.5442 18.3875 60.5124 17.9675 59.6654 17.1275C58.817 16.2861 58.3928 15.2445 58.3928 14.0013C58.3928 12.7567 58.817 11.7151 59.6654 10.8751C60.5124 10.0337 61.5442 9.6137 62.7566 9.6137C63.3586 9.6137 63.934 9.7313 64.48 9.9651C65.0274 10.2003 65.4656 10.5125 65.7932 10.9031L65.0554 11.6423C64.4996 10.9773 63.7338 10.6455 62.7552 10.6455C61.8704 10.6455 61.106 10.9563 60.4606 11.5779C59.8152 12.1995 59.4932 13.0073 59.4932 13.9999C59.4932 14.9925 59.8152 15.8003 60.4606 16.4219C61.106 17.0435 61.8704 17.3543 62.7552 17.3543C63.6932 17.3543 64.4758 17.0421 65.1016 16.4163C65.5076 16.0089 65.7428 15.4419 65.8058 14.7153H62.7552V13.7059H66.825C66.867 13.9257 66.8852 14.1371 66.8852 14.3401Z" fill="white"/>
<path d="M73.3394 10.8318H69.5146V13.4946H72.9642V14.504H69.5146V17.1668H73.3394V18.2H68.4352V9.79998H73.3394V10.8318Z" fill="white"/>
<path d="M77.8906 18.2H76.8112V10.8318H74.4648V9.79998H80.237V10.8318H77.8906V18.2Z" fill="white"/>
<path d="M84.4131 18.2V9.79998H85.4925V18.2H84.4131Z" fill="white"/>
<path d="M90.2794 18.2H89.2V10.8318H86.8536V9.79998H92.6258V10.8318H90.2794V18.2Z" fill="white"/>
<path d="M103.552 17.115C102.726 17.9634 101.7 18.3876 100.472 18.3876C99.2446 18.3876 98.2184 17.9634 97.3938 17.115C96.5678 16.2666 96.1562 15.2278 96.1562 14C96.1562 12.7722 96.5678 11.7334 97.3938 10.885C98.2184 10.0366 99.2446 9.61096 100.472 9.61096C101.693 9.61096 102.718 10.038 103.547 10.8906C104.376 11.7432 104.79 12.7792 104.79 14C104.79 15.2278 104.377 16.2666 103.552 17.115ZM98.1904 16.4108C98.812 17.0408 99.5722 17.3544 100.472 17.3544C101.373 17.3544 102.134 17.0394 102.754 16.4108C103.376 15.7808 103.688 14.9772 103.688 14C103.688 13.0228 103.376 12.2192 102.754 11.5892C102.134 10.9592 101.373 10.6456 100.472 10.6456C99.5722 10.6456 98.812 10.9606 98.1904 11.5892C97.5702 12.2192 97.258 13.0228 97.258 14C97.258 14.9772 97.5702 15.7808 98.1904 16.4108Z" fill="white"/>
<path d="M106.305 18.2V9.79998H107.618L111.7 16.3338H111.747L111.7 14.7154V9.79998H112.78V18.2H111.653L107.381 11.3484H107.335L107.381 12.9668V18.2H106.305Z" fill="white"/>
<path d="M66.8852 14.3401C66.8852 15.5133 66.538 16.4471 65.8422 17.1443C65.0526 17.9731 64.0222 18.3875 62.7566 18.3875C61.5442 18.3875 60.5124 17.9675 59.6654 17.1275C58.817 16.2861 58.3928 15.2445 58.3928 14.0013C58.3928 12.7567 58.817 11.7151 59.6654 10.8751C60.5124 10.0337 61.5442 9.6137 62.7566 9.6137C63.3586 9.6137 63.934 9.7313 64.48 9.9651C65.0274 10.2003 65.4656 10.5125 65.7932 10.9031L65.0554 11.6423C64.4996 10.9773 63.7338 10.6455 62.7552 10.6455C61.8704 10.6455 61.106 10.9563 60.4606 11.5779C59.8152 12.1995 59.4932 13.0073 59.4932 13.9999C59.4932 14.9925 59.8152 15.8003 60.4606 16.4219C61.106 17.0435 61.8704 17.3543 62.7552 17.3543C63.6932 17.3543 64.4758 17.0421 65.1016 16.4163C65.5076 16.0089 65.7428 15.4419 65.8058 14.7153H62.7552V13.7059H66.825C66.867 13.9257 66.8852 14.1371 66.8852 14.3401Z" stroke="white" stroke-width="0.26" stroke-miterlimit="10"/>
<path d="M73.3394 10.8318H69.5146V13.4946H72.9642V14.504H69.5146V17.1668H73.3394V18.2H68.4352V9.79998H73.3394V10.8318Z" stroke="white" stroke-width="0.26" stroke-miterlimit="10"/>
<path d="M77.8906 18.2H76.8112V10.8318H74.4648V9.79998H80.237V10.8318H77.8906V18.2Z" stroke="white" stroke-width="0.26" stroke-miterlimit="10"/>
<path d="M84.4131 18.2V9.79998H85.4925V18.2H84.4131Z" stroke="white" stroke-width="0.26" stroke-miterlimit="10"/>
<path d="M90.2794 18.2H89.2V10.8318H86.8536V9.79998H92.6258V10.8318H90.2794V18.2Z" stroke="white" stroke-width="0.26" stroke-miterlimit="10"/>
<path d="M103.552 17.115C102.726 17.9634 101.7 18.3876 100.472 18.3876C99.2446 18.3876 98.2184 17.9634 97.3938 17.115C96.5678 16.2666 96.1562 15.2278 96.1562 14C96.1562 12.7722 96.5678 11.7334 97.3938 10.885C98.2184 10.0366 99.2446 9.61096 100.472 9.61096C101.693 9.61096 102.718 10.038 103.547 10.8906C104.376 11.7432 104.79 12.7792 104.79 14C104.79 15.2278 104.377 16.2666 103.552 17.115ZM98.1904 16.4108C98.812 17.0408 99.5722 17.3544 100.472 17.3544C101.373 17.3544 102.134 17.0394 102.754 16.4108C103.376 15.7808 103.688 14.9772 103.688 14C103.688 13.0228 103.376 12.2192 102.754 11.5892C102.134 10.9592 101.373 10.6456 100.472 10.6456C99.5722 10.6456 98.812 10.9606 98.1904 11.5892C97.5702 12.2192 97.258 13.0228 97.258 14C97.258 14.9772 97.5702 15.7808 98.1904 16.4108Z" stroke="white" stroke-width="0.26" stroke-miterlimit="10"/>
<path d="M106.305 18.2V9.79998H107.618L111.7 16.3338H111.747L111.7 14.7154V9.79998H112.78V18.2H111.653L107.381 11.3484H107.335L107.381 12.9668V18.2H106.305Z" stroke="white" stroke-width="0.26" stroke-miterlimit="10"/>
<defs>
<filter id="filter0_ii_302_682" x="14.4622" y="9.99731" width="32.3257" height="36.0092" filterUnits="userSpaceOnUse" color-interpolation-filters="sRGB">
<feFlood flood-opacity="0" result="BackgroundImageFix"/>
<feBlend mode="normal" in="SourceGraphic" in2="BackgroundImageFix" result="shape"/>
<feColorMatrix in="SourceAlpha" type="matrix" values="0 0 0 0 0 0 0 0 0 0 0 0 0 0 0 0 0 0 127 0" result="hardAlpha"/>
<feOffset dy="-0.195"/>
<feComposite in2="hardAlpha" operator="arithmetic" k2="-1" k3="1"/>
<feColorMatrix type="matrix" values="0 0 0 0 0 0 0 0 0 0 0 0 0 0 0 0 0 0 0.12 0"/>
<feBlend mode="normal" in2="shape" result="effect1_innerShadow_302_682"/>
<feColorMatrix in="SourceAlpha" type="matrix" values="0 0 0 0 0 0 0 0 0 0 0 0 0 0 0 0 0 0 127 0" result="hardAlpha"/>
<feOffset dy="0.195"/>
<feComposite in2="hardAlpha" operator="arithmetic" k2="-1" k3="1"/>
<feColorMatrix type="matrix" values="0 0 0 0 1 0 0 0 0 1 0 0 0 0 1 0 0 0 0.25 0"/>
<feBlend mode="normal" in2="effect1_innerShadow_302_682" result="effect2_innerShadow_302_682"/>
</filter>
<filter id="filter1_i_302_682" x="15.1104" y="28.0015" width="23.3604" height="18.005" filterUnits="userSpaceOnUse" color-interpolation-filters="sRGB">
<feFlood flood-opacity="0" result="BackgroundImageFix"/>
<feBlend mode="normal" in="SourceGraphic" in2="BackgroundImageFix" result="shape"/>
<feColorMatrix in="SourceAlpha" type="matrix" values="0 0 0 0 0 0 0 0 0 0 0 0 0 0 0 0 0 0 127 0" result="hardAlpha"/>
<feOffset dy="-0.195"/>
<feComposite in2="hardAlpha" operator="arithmetic" k2="-1" k3="1"/>
<feColorMatrix type="matrix" values="0 0 0 0 0 0 0 0 0 0 0 0 0 0 0 0 0 0 0.08 0"/>
<feBlend mode="normal" in2="shape" result="effect1_innerShadow_302_682"/>
</filter>
<linearGradient id="paint0_linear_302_682" x1="31.0211" y1="12.1926" x2="7.52628" y2="35.6875" gradientUnits="userSpaceOnUse">
<stop stop-color="#00A0FF"/>
<stop offset="0.0066" stop-color="#00A1FF"/>
<stop offset="0.2601" stop-color="#00BEFF"/>
<stop offset="0.5122" stop-color="#00D2FF"/>
<stop offset="0.7604" stop-color="#00DFFF"/>
<stop offset="1" stop-color="#00E3FF"/>
</linearGradient>
<linearGradient id="paint1_linear_302_682" x1="47.8669" y1="28.0014" x2="13.9926" y2="28.0014" gradientUnits="userSpaceOnUse">
<stop stop-color="#FFE000"/>
<stop offset="0.4087" stop-color="#FFBD00"/>
<stop offset="0.7754" stop-color="#FFA500"/>
<stop offset="1" stop-color="#FF9C00"/>
</linearGradient>
<linearGradient id="paint2_linear_302_682" x1="35.2593" y1="31.2129" x2="3.3974" y2="63.0748" gradientUnits="userSpaceOnUse">
<stop stop-color="#FF3A44"/>
<stop offset="1" stop-color="#C31162"/>
</linearGradient>
<linearGradient id="paint3_linear_302_682" x1="10.7163" y1="0.24754" x2="24.9435" y2="14.4748" gradientUnits="userSpaceOnUse">
<stop stop-color="#32A071"/>
<stop offset="0.0685" stop-color="#2DA771"/>
<stop offset="0.4762" stop-color="#15CF74"/>
<stop offset="0.8009" stop-color="#06E775"/>
<stop offset="1" stop-color="#00F076"/>
</linearGradient>
</defs>
</svg>
