<svg width="108" height="37" viewBox="0 0 108 37" fill="none" xmlns="http://www.w3.org/2000/svg">
<rect x="0.45" y="0.850024" width="107.1" height="35.1" rx="5.85" stroke="white" stroke-width="0.9"/>
<path d="M22.2919 18.6707C22.3114 17.1578 23.1239 15.7263 24.4129 14.9339C23.5997 13.7726 22.2378 13.0363 20.8208 12.992C19.3095 12.8333 17.8443 13.8963 17.0742 13.8963C16.2892 13.8963 15.1034 13.0077 13.8265 13.034C12.1622 13.0878 10.6106 14.034 9.80092 15.4891C8.06032 18.5027 9.35865 22.9316 11.026 25.3675C11.8602 26.5604 12.8352 27.8928 14.1109 27.8455C15.3592 27.7937 15.8255 27.0495 17.3323 27.0495C18.8252 27.0495 19.2626 27.8455 20.5642 27.8155C21.9038 27.7937 22.7477 26.6174 23.5527 25.4132C24.1521 24.5633 24.6133 23.624 24.9193 22.63C23.3451 21.9642 22.2938 20.38 22.2919 18.6707Z" fill="white"/>
<path d="M19.8334 11.39C20.5638 10.5132 20.9237 9.38622 20.8365 8.24841C19.7207 8.36561 18.6899 8.89891 17.9497 9.74206C17.2258 10.5659 16.8491 11.673 16.9204 12.7673C18.0366 12.7788 19.134 12.26 19.8334 11.39Z" fill="white"/>
<path d="M73.3733 17.6808V19.7428H72.0808V21.095H73.3733V25.6894C73.3733 27.2583 74.083 27.8858 75.8685 27.8858C76.1822 27.8858 76.4811 27.8485 76.7425 27.8036V26.4664C76.5184 26.4888 76.3765 26.5037 76.13 26.5037C75.3306 26.5037 74.9795 26.1302 74.9795 25.2786V21.095H76.7425V19.7428H74.9795V17.6808H73.3733Z" fill="white"/>
<path d="M81.291 27.9979C83.6667 27.9979 85.1235 26.4066 85.1235 23.7695C85.1235 21.1473 83.6592 19.5485 81.291 19.5485C78.9153 19.5485 77.4511 21.1473 77.4511 23.7695C77.4511 26.4066 78.9079 27.9979 81.291 27.9979ZM81.291 26.571C79.894 26.571 79.1096 25.5475 79.1096 23.7695C79.1096 22.0064 79.894 20.9754 81.291 20.9754C82.6806 20.9754 83.4725 22.0064 83.4725 23.7695C83.4725 25.54 82.6806 26.571 81.291 26.571Z" fill="white"/>
<path d="M86.3699 27.841H87.9761V23.0373C87.9761 21.8943 88.8352 21.1248 90.053 21.1248C90.3368 21.1248 90.815 21.1771 90.9494 21.222V19.6382C90.7776 19.5933 90.4713 19.5709 90.2323 19.5709C89.1714 19.5709 88.2675 20.1536 88.0359 20.953H87.9163V19.7054H86.3699V27.841Z" fill="white"/>
<path d="M94.9376 20.9157C96.1254 20.9157 96.9024 21.7449 96.9397 23.0224H92.8309C92.9205 21.7524 93.7498 20.9157 94.9376 20.9157ZM96.9323 25.6446C96.6334 26.2796 95.9686 26.6307 94.9974 26.6307C93.7124 26.6307 92.8832 25.7268 92.8309 24.2999V24.2102H98.5758V23.6499C98.5758 21.095 97.2087 19.5485 94.9451 19.5485C92.6516 19.5485 91.1948 21.1995 91.1948 23.7994C91.1948 26.3992 92.6217 27.9979 94.9525 27.9979C96.8127 27.9979 98.1126 27.1014 98.4787 25.6446H96.9323Z" fill="white"/>
<path d="M62.84 24.8367C62.9639 26.8344 64.6287 28.112 67.1065 28.112C69.7547 28.112 71.4117 26.7724 71.4117 24.6353C71.4117 22.9551 70.4671 22.0259 68.1751 21.4916L66.9439 21.1896C65.4882 20.8489 64.8997 20.3921 64.8997 19.5945C64.8997 18.5879 65.8134 17.9298 67.184 17.9298C68.4848 17.9298 69.383 18.5724 69.5456 19.6023H71.2336C71.133 17.7207 69.4759 16.3966 67.2072 16.3966C64.7681 16.3966 63.142 17.7207 63.142 19.7107C63.142 21.3522 64.0635 22.3279 66.0844 22.8002L67.5247 23.1486C69.0036 23.4971 69.654 24.0081 69.654 24.8599C69.654 25.851 68.6319 26.5711 67.2382 26.5711C65.7437 26.5711 64.7061 25.8975 64.559 24.8367H62.84Z" fill="white"/>
<path d="M46.2014 19.5709C45.0958 19.5709 44.1395 20.1238 43.6465 21.0501H43.5269V19.7054H41.9805V30.5454H43.5867V26.6083H43.7137C44.1395 27.4675 45.0584 27.9755 46.2164 27.9755C48.2708 27.9755 49.5782 26.3543 49.5782 23.7695C49.5782 21.1846 48.2708 19.5709 46.2014 19.5709ZM45.7457 26.5336C44.401 26.5336 43.5568 25.4728 43.5568 23.7769C43.5568 22.0736 44.401 21.0128 45.7532 21.0128C47.1129 21.0128 47.9272 22.0512 47.9272 23.7695C47.9272 25.4952 47.1129 26.5336 45.7457 26.5336Z" fill="white"/>
<path d="M55.1986 19.5709C54.0929 19.5709 53.1366 20.1238 52.6436 21.0501H52.524V19.7054H50.9776V30.5454H52.5838V26.6083H52.7108C53.1366 27.4675 54.0555 27.9755 55.2135 27.9755C57.2679 27.9755 58.5753 26.3543 58.5753 23.7695C58.5753 21.1846 57.2679 19.5709 55.1986 19.5709ZM54.7428 26.5336C53.3981 26.5336 52.5539 25.4728 52.5539 23.7769C52.5539 22.0736 53.3981 21.0128 54.7503 21.0128C56.11 21.0128 56.9243 22.0512 56.9243 23.7695C56.9243 25.4952 56.11 26.5336 54.7428 26.5336Z" fill="white"/>
<path d="M39.0987 27.841H40.9416L36.9074 16.6676H35.0413L31.0071 27.841H32.788L33.8178 24.8754H38.0766L39.0987 27.841ZM35.8853 18.6963H36.0169L37.6352 23.4197H34.2592L35.8853 18.6963Z" fill="white"/>
<path d="M32.0859 8.23982V13.6299H34.0321C35.6383 13.6299 36.5684 12.6401 36.5684 10.9181C36.5684 9.22222 35.6308 8.23982 34.0321 8.23982H32.0859ZM32.9227 9.00183H33.9387C35.0555 9.00183 35.7167 9.71155 35.7167 10.9293C35.7167 12.1657 35.0667 12.8679 33.9387 12.8679H32.9227V9.00183Z" fill="white"/>
<path d="M39.4169 13.7084C40.6048 13.7084 41.3332 12.9127 41.3332 11.5942C41.3332 10.2831 40.601 9.48369 39.4169 9.48369C38.2291 9.48369 37.497 10.2831 37.497 11.5942C37.497 12.9127 38.2254 13.7084 39.4169 13.7084ZM39.4169 12.9949C38.7184 12.9949 38.3262 12.4832 38.3262 11.5942C38.3262 10.7126 38.7184 10.1971 39.4169 10.1971C40.1117 10.1971 40.5077 10.7126 40.5077 11.5942C40.5077 12.4794 40.1117 12.9949 39.4169 12.9949Z" fill="white"/>
<path d="M47.5361 9.56213H46.733L46.0083 12.6662H45.9448L45.1081 9.56213H44.3386L43.5019 12.6662H43.4422L42.7138 9.56213H41.8995L43.0201 13.6299H43.8456L44.6823 10.6342H44.7458L45.5862 13.6299H46.4192L47.5361 9.56213Z" fill="white"/>
<path d="M48.461 13.6299H49.2641V11.2505C49.2641 10.6155 49.6413 10.2196 50.2353 10.2196C50.8292 10.2196 51.1131 10.5445 51.1131 11.1982V13.6299H51.9162V10.9965C51.9162 10.0291 51.4156 9.48369 50.5079 9.48369C49.8953 9.48369 49.4919 9.75637 49.294 10.2083H49.2342V9.56213H48.461V13.6299Z" fill="white"/>
<path d="M53.181 13.6299H53.9841V7.97461H53.181V13.6299Z" fill="white"/>
<path d="M57.0045 13.7084C58.1923 13.7084 58.9207 12.9127 58.9207 11.5942C58.9207 10.2831 58.1886 9.48369 57.0045 9.48369C55.8166 9.48369 55.0845 10.2831 55.0845 11.5942C55.0845 12.9127 55.8129 13.7084 57.0045 13.7084ZM57.0045 12.9949C56.306 12.9949 55.9137 12.4832 55.9137 11.5942C55.9137 10.7126 56.306 10.1971 57.0045 10.1971C57.6992 10.1971 58.0952 10.7126 58.0952 11.5942C58.0952 12.4794 57.6992 12.9949 57.0045 12.9949Z" fill="white"/>
<path d="M61.3136 13.0211C60.8765 13.0211 60.559 12.8082 60.559 12.4421C60.559 12.0835 60.813 11.893 61.3733 11.8556L62.3669 11.7921V12.1321C62.3669 12.6363 61.9187 13.0211 61.3136 13.0211ZM61.1081 13.6972C61.6423 13.6972 62.0868 13.4656 62.3296 13.0584H62.3931V13.6299H63.1663V10.8508C63.1663 9.9917 62.5911 9.48369 61.5713 9.48369C60.6487 9.48369 59.9913 9.93193 59.9091 10.6304H60.686C60.7757 10.3428 61.0857 10.1785 61.534 10.1785C62.083 10.1785 62.3669 10.4213 62.3669 10.8508V11.202L61.265 11.2655C60.2976 11.3252 59.7522 11.7473 59.7522 12.4794C59.7522 13.2228 60.3237 13.6972 61.1081 13.6972Z" fill="white"/>
<path d="M65.8916 13.6972C66.4519 13.6972 66.9263 13.432 67.1691 12.9875H67.2326V13.6299H68.0021V7.97461H67.199V10.2083H67.1392C66.9188 9.76011 66.4482 9.4949 65.8916 9.4949C64.8644 9.4949 64.2032 10.3092 64.2032 11.5942C64.2032 12.8829 64.8569 13.6972 65.8916 13.6972ZM66.1195 10.2158C66.7918 10.2158 67.2139 10.75 67.2139 11.5979C67.2139 12.4496 66.7956 12.9762 66.1195 12.9762C65.4396 12.9762 65.0325 12.457 65.0325 11.5942C65.0325 10.7388 65.4434 10.2158 66.1195 10.2158Z" fill="white"/>
<path d="M73.2099 13.7084C74.3978 13.7084 75.1262 12.9127 75.1262 11.5942C75.1262 10.2831 74.394 9.48369 73.2099 9.48369C72.0221 9.48369 71.2899 10.2831 71.2899 11.5942C71.2899 12.9127 72.0183 13.7084 73.2099 13.7084ZM73.2099 12.9949C72.5114 12.9949 72.1192 12.4832 72.1192 11.5942C72.1192 10.7126 72.5114 10.1971 73.2099 10.1971C73.9047 10.1971 74.3006 10.7126 74.3006 11.5942C74.3006 12.4794 73.9047 12.9949 73.2099 12.9949Z" fill="white"/>
<path d="M76.1892 13.6299H76.9923V11.2505C76.9923 10.6155 77.3696 10.2196 77.9635 10.2196C78.5574 10.2196 78.8413 10.5445 78.8413 11.1982V13.6299H79.6444V10.9965C79.6444 10.0291 79.1439 9.48369 78.2362 9.48369C77.6236 9.48369 77.2202 9.75637 77.0222 10.2083H76.9625V9.56213H76.1892V13.6299Z" fill="white"/>
<path d="M83.3432 8.54985V9.58081H82.697V10.2569H83.3432V12.5542C83.3432 13.3386 83.698 13.6523 84.5908 13.6523C84.7477 13.6523 84.8971 13.6337 85.0278 13.6113V12.9426C84.9158 12.9538 84.8448 12.9613 84.7215 12.9613C84.3218 12.9613 84.1463 12.7745 84.1463 12.3487V10.2569H85.0278V9.58081H84.1463V8.54985H83.3432Z" fill="white"/>
<path d="M86.1058 13.6299H86.9089V11.2542C86.9089 10.6379 87.275 10.2233 87.9324 10.2233C88.5002 10.2233 88.8028 10.552 88.8028 11.202V13.6299H89.6059V11.004C89.6059 10.0365 89.0717 9.48743 88.2051 9.48743C87.5925 9.48743 87.1629 9.76011 86.965 10.2158H86.9015V7.97461H86.1058V13.6299Z" fill="white"/>
<path d="M92.503 10.1673C93.0969 10.1673 93.4854 10.5819 93.5041 11.2206H91.4496C91.4945 10.5856 91.9091 10.1673 92.503 10.1673ZM93.5003 12.5317C93.3509 12.8492 93.0185 13.0248 92.5329 13.0248C91.8904 13.0248 91.4758 12.5728 91.4496 11.8594V11.8146H94.3221V11.5344C94.3221 10.2569 93.6386 9.48369 92.5067 9.48369C91.36 9.48369 90.6316 10.3092 90.6316 11.6091C90.6316 12.909 91.345 13.7084 92.5105 13.7084C93.4406 13.7084 94.0905 13.2601 94.2736 12.5317H93.5003Z" fill="white"/>
</svg>
