<svg width="169" height="57" viewBox="0 0 169 57" fill="none" xmlns="http://www.w3.org/2000/svg">
<rect x="1.45005" y="1.24998" width="166.7" height="54.7" rx="8.45" stroke="white" stroke-width="1.3"/>
<path d="M35.4765 29.0212C35.5068 26.6678 36.7707 24.441 38.7757 23.2083C37.5108 21.4019 35.3922 20.2565 33.1881 20.1876C30.8371 19.9408 28.558 21.5943 27.36 21.5943C26.1388 21.5943 24.2943 20.2121 22.3081 20.2529C19.7191 20.3366 17.3056 21.8085 16.046 24.072C13.3384 28.7598 15.358 35.6492 17.9517 39.4385C19.2493 41.294 20.7659 43.3666 22.7504 43.2931C24.6922 43.2126 25.4175 42.0548 27.7615 42.0548C30.0838 42.0548 30.7642 43.2931 32.7889 43.2464C34.8727 43.2125 36.1855 41.3826 37.4376 39.5096C38.37 38.1875 39.0875 36.7263 39.5634 35.1801C37.1147 34.1443 35.4794 31.68 35.4765 29.0212Z" fill="white"/>
<path d="M31.6522 17.6956C32.7883 16.3317 33.348 14.5786 33.2125 12.8087C31.4767 12.991 29.8734 13.8206 28.7219 15.1322C27.5959 16.4136 27.0099 18.1358 27.1207 19.8381C28.8571 19.856 30.5641 19.0489 31.6522 17.6956Z" fill="white"/>
<path d="M114.936 27.4814V30.6888H112.926V32.7922H114.936V39.9392C114.936 42.3796 116.04 43.3558 118.818 43.3558C119.306 43.3558 119.771 43.2977 120.177 43.2279V41.1478C119.829 41.1826 119.608 41.2059 119.224 41.2059C117.981 41.2059 117.435 40.6248 117.435 39.3V32.7922H120.177V30.6888H117.435V27.4814H114.936Z" fill="white"/>
<path d="M127.253 43.5301C130.948 43.5301 133.214 41.0548 133.214 36.9525C133.214 32.8735 130.937 30.3866 127.253 30.3866C123.557 30.3866 121.279 32.8735 121.279 36.9525C121.279 41.0548 123.546 43.5301 127.253 43.5301ZM127.253 41.3105C125.08 41.3105 123.859 39.7184 123.859 36.9525C123.859 34.21 125.08 32.6063 127.253 32.6063C129.414 32.6063 130.646 34.21 130.646 36.9525C130.646 39.7067 129.414 41.3105 127.253 41.3105Z" fill="white"/>
<path d="M135.153 43.286H137.652V35.8137C137.652 34.0356 138.988 32.8387 140.882 32.8387C141.324 32.8387 142.068 32.92 142.277 32.9897V30.5261C142.01 30.4564 141.533 30.4215 141.161 30.4215C139.511 30.4215 138.105 31.3279 137.745 32.5714H137.559V30.6307H135.153V43.286Z" fill="white"/>
<path d="M148.481 32.5133C150.328 32.5133 151.537 33.8032 151.595 35.7904H145.204C145.343 33.8148 146.633 32.5133 148.481 32.5133ZM151.584 39.8694C151.119 40.8572 150.084 41.4034 148.574 41.4034C146.575 41.4034 145.285 39.9973 145.204 37.7776V37.6382H154.14V36.7666C154.14 32.7922 152.013 30.3866 148.492 30.3866C144.925 30.3866 142.659 32.9549 142.659 36.999C142.659 41.0432 144.878 43.5301 148.504 43.5301C151.398 43.5301 153.42 42.1355 153.989 39.8694H151.584Z" fill="white"/>
<path d="M98.5511 38.6126C98.7439 41.7202 101.334 43.7076 105.188 43.7076C109.307 43.7076 111.885 41.6238 111.885 38.2994C111.885 35.6857 110.415 34.2403 106.85 33.4092L104.935 32.9394C102.67 32.4095 101.755 31.6988 101.755 30.4582C101.755 28.8924 103.176 27.8685 105.308 27.8685C107.332 27.8685 108.729 28.8683 108.982 30.4702H111.608C111.451 27.5433 108.874 25.4836 105.344 25.4836C101.55 25.4836 99.0209 27.5433 99.0209 30.6389C99.0209 33.1924 100.454 34.7101 103.598 35.4448L105.838 35.9868C108.139 36.5288 109.151 37.3238 109.151 38.6487C109.151 40.1905 107.561 41.3107 105.393 41.3107C103.068 41.3107 101.454 40.2628 101.225 38.6126H98.5511Z" fill="white"/>
<path d="M72.6689 30.4215C70.9489 30.4215 69.4614 31.2814 68.6945 32.7225H68.5085V30.6307H66.1029V47.4929H68.6015V41.3686H68.799C69.4614 42.705 70.8908 43.4952 72.6921 43.4952C75.8879 43.4952 77.9216 40.9734 77.9216 36.9525C77.9216 32.9316 75.8879 30.4215 72.6689 30.4215ZM71.96 41.2523C69.8682 41.2523 68.555 39.6022 68.555 36.9642C68.555 34.3146 69.8682 32.6644 71.9716 32.6644C74.0866 32.6644 75.3533 34.2797 75.3533 36.9525C75.3533 39.637 74.0866 41.2523 71.96 41.2523Z" fill="white"/>
<path d="M86.6644 30.4215C84.9445 30.4215 83.457 31.2814 82.69 32.7225H82.504V30.6307H80.0985V47.4929H82.597V41.3686H82.7946C83.457 42.705 84.8864 43.4952 86.6876 43.4952C89.8834 43.4952 91.9171 40.9734 91.9171 36.9525C91.9171 32.9316 89.8834 30.4215 86.6644 30.4215ZM85.9555 41.2523C83.8637 41.2523 82.5505 39.6022 82.5505 36.9642C82.5505 34.3146 83.8637 32.6644 85.9671 32.6644C88.0822 32.6644 89.3489 34.2797 89.3489 36.9525C89.3489 39.637 88.0822 41.2523 85.9555 41.2523Z" fill="white"/>
<path d="M61.6201 43.286H64.4868L58.2114 25.9052H55.3086L49.0332 43.286H51.8035L53.4055 38.6728H60.0302L61.6201 43.286ZM56.6215 29.061H56.8263L59.3437 36.4084H54.0921L56.6215 29.061Z" fill="white"/>
<path d="M50.7117 12.7954V21.18H53.739C56.2375 21.18 57.6843 19.6402 57.6843 16.9615C57.6843 14.3235 56.2259 12.7954 53.739 12.7954H50.7117ZM52.0132 13.9807H53.5937C55.3311 13.9807 56.3595 15.0847 56.3595 16.979C56.3595 18.9022 55.3485 19.9946 53.5937 19.9946H52.0132V13.9807Z" fill="white"/>
<path d="M62.1154 21.302C63.9632 21.302 65.0963 20.0644 65.0963 18.0132C65.0963 15.9737 63.9574 14.7303 62.1154 14.7303C60.2677 14.7303 59.1288 15.9737 59.1288 18.0132C59.1288 20.0644 60.2619 21.302 62.1154 21.302ZM62.1154 20.1922C61.0289 20.1922 60.4188 19.3961 60.4188 18.0132C60.4188 16.6419 61.0289 15.8401 62.1154 15.8401C63.1962 15.8401 63.8121 16.6419 63.8121 18.0132C63.8121 19.3903 63.1962 20.1922 62.1154 20.1922Z" fill="white"/>
<path d="M74.7453 14.8523H73.496L72.3687 19.6809H72.27L70.9684 14.8523H69.7714L68.4699 19.6809H68.3769L67.2438 14.8523H65.9771L67.7203 21.18H69.0044L70.306 16.5199H70.4048L71.7121 21.18H73.0079L74.7453 14.8523Z" fill="white"/>
<path d="M76.1839 21.18H77.4332V17.4787C77.4332 16.4909 78.0201 15.875 78.944 15.875C79.8678 15.875 80.3094 16.3805 80.3094 17.3973V21.18H81.5587V17.0835C81.5587 15.5786 80.7801 14.7303 79.3681 14.7303C78.4152 14.7303 77.7877 15.1544 77.4797 15.8575H77.3867V14.8523H76.1839V21.18Z" fill="white"/>
<path d="M83.5262 21.18H84.7754V12.3828H83.5262V21.18Z" fill="white"/>
<path d="M89.4738 21.302C91.3216 21.302 92.4546 20.0644 92.4546 18.0132C92.4546 15.9737 91.3158 14.7303 89.4738 14.7303C87.6261 14.7303 86.4872 15.9737 86.4872 18.0132C86.4872 20.0644 87.6203 21.302 89.4738 21.302ZM89.4738 20.1922C88.3873 20.1922 87.7771 19.3961 87.7771 18.0132C87.7771 16.6419 88.3873 15.8401 89.4738 15.8401C90.5546 15.8401 91.1705 16.6419 91.1705 18.0132C91.1705 19.3903 90.5546 20.1922 89.4738 20.1922Z" fill="white"/>
<path d="M96.1769 20.2329C95.497 20.2329 95.0031 19.9017 95.0031 19.3322C95.0031 18.7744 95.3983 18.4781 96.2698 18.42L97.8154 18.3212V18.8499C97.8154 19.6344 97.1182 20.2329 96.1769 20.2329ZM95.8573 21.2846C96.6882 21.2846 97.3797 20.9243 97.7573 20.291H97.8561V21.18H99.0589V16.8569C99.0589 15.5205 98.1641 14.7303 96.5778 14.7303C95.1426 14.7303 94.1199 15.4275 93.9921 16.5141H95.2007C95.3402 16.0667 95.8224 15.811 96.5197 15.811C97.3738 15.811 97.8154 16.1887 97.8154 16.8569V17.4031L96.1013 17.5019C94.5964 17.5949 93.7481 18.2515 93.7481 19.3903C93.7481 20.5466 94.6371 21.2846 95.8573 21.2846Z" fill="white"/>
<path d="M103.298 21.2846C104.17 21.2846 104.908 20.872 105.285 20.1806H105.384V21.18H106.581V12.3828H105.332V15.8575H105.239C104.896 15.1603 104.164 14.7477 103.298 14.7477C101.7 14.7477 100.672 16.0144 100.672 18.0132C100.672 20.0179 101.689 21.2846 103.298 21.2846ZM103.653 15.8691C104.699 15.8691 105.355 16.7 105.355 18.019C105.355 19.3438 104.704 20.1631 103.653 20.1631C102.595 20.1631 101.962 19.3555 101.962 18.0132C101.962 16.6826 102.601 15.8691 103.653 15.8691Z" fill="white"/>
<path d="M114.682 21.302C116.53 21.302 117.663 20.0644 117.663 18.0132C117.663 15.9737 116.524 14.7303 114.682 14.7303C112.835 14.7303 111.696 15.9737 111.696 18.0132C111.696 20.0644 112.829 21.302 114.682 21.302ZM114.682 20.1922C113.596 20.1922 112.986 19.3961 112.986 18.0132C112.986 16.6419 113.596 15.8401 114.682 15.8401C115.763 15.8401 116.379 16.6419 116.379 18.0132C116.379 19.3903 115.763 20.1922 114.682 20.1922Z" fill="white"/>
<path d="M119.317 21.18H120.566V17.4787C120.566 16.4909 121.153 15.875 122.077 15.875C123.001 15.875 123.442 16.3805 123.442 17.3973V21.18H124.692V17.0835C124.692 15.5786 123.913 14.7303 122.501 14.7303C121.548 14.7303 120.921 15.1544 120.613 15.8575H120.52V14.8523H119.317V21.18Z" fill="white"/>
<path d="M130.445 13.2776V14.8813H129.44V15.9331H130.445V19.5065C130.445 20.7268 130.997 21.2148 132.386 21.2148C132.63 21.2148 132.862 21.1858 133.066 21.1509V20.1108C132.891 20.1283 132.781 20.1399 132.589 20.1399C131.968 20.1399 131.694 19.8494 131.694 19.187V15.9331H133.066V14.8813H131.694V13.2776H130.445Z" fill="white"/>
<path d="M134.743 21.18H135.992V17.4845C135.992 16.5257 136.561 15.8808 137.584 15.8808C138.467 15.8808 138.938 16.3921 138.938 17.4031V21.18H140.187V17.0952C140.187 15.5902 139.356 14.7361 138.008 14.7361C137.055 14.7361 136.387 15.1603 136.079 15.8691H135.98V12.3828H134.743V21.18Z" fill="white"/>
<path d="M144.694 15.7936C145.618 15.7936 146.222 16.4386 146.251 17.4322H143.055C143.125 16.4444 143.77 15.7936 144.694 15.7936ZM146.245 19.4717C146.013 19.9656 145.496 20.2387 144.74 20.2387C143.741 20.2387 143.096 19.5356 143.055 18.4258V18.3561H147.524V17.9203C147.524 15.9331 146.46 14.7303 144.7 14.7303C142.916 14.7303 141.783 16.0144 141.783 18.0365C141.783 20.0585 142.893 21.302 144.705 21.302C146.152 21.302 147.163 20.6047 147.448 19.4717H146.245Z" fill="white"/>
</svg>
