<svg width="169" height="57" viewBox="0 0 169 57" fill="none" xmlns="http://www.w3.org/2000/svg">
<rect x="1.45005" y="1.45005" width="166.7" height="54.7" rx="8.45" fill="white"/>
<rect x="1.45005" y="1.45005" width="166.7" height="54.7" rx="8.45" stroke="black" stroke-width="1.3"/>
<path d="M35.4765 29.2212C35.5068 26.8678 36.7707 24.6409 38.7757 23.4083C37.5108 21.6018 35.3922 20.4565 33.1881 20.3875C30.8371 20.1408 28.558 21.7943 27.36 21.7943C26.1388 21.7943 24.2943 20.412 22.3081 20.4529C19.7191 20.5365 17.3056 22.0085 16.046 24.2719C13.3384 28.9597 15.358 35.8492 17.9517 39.6384C19.2493 41.4939 20.7659 43.5666 22.7504 43.4931C24.6922 43.4125 25.4175 42.2548 27.7615 42.2548C30.0838 42.2548 30.7642 43.4931 32.7889 43.4463C34.8727 43.4125 36.1855 41.5826 37.4376 39.7095C38.37 38.3874 39.0875 36.9262 39.5634 35.38C37.1147 34.3443 35.4794 31.88 35.4765 29.2212Z" fill="black"/>
<path d="M31.6522 17.8955C32.7883 16.5316 33.348 14.7786 33.2125 13.0087C31.4767 13.191 29.8734 14.0206 28.7219 15.3321C27.5959 16.6136 27.0099 18.3358 27.1207 20.0381C28.8571 20.0559 30.5641 19.2489 31.6522 17.8955Z" fill="black"/>
<path d="M114.936 27.6813V30.8887H112.926V32.9921H114.936V40.1391C114.936 42.5795 116.04 43.5557 118.818 43.5557C119.306 43.5557 119.771 43.4976 120.177 43.4279V41.3477C119.829 41.3826 119.608 41.4058 119.224 41.4058C117.981 41.4058 117.435 40.8248 117.435 39.5V32.9921H120.177V30.8887H117.435V27.6813H114.936Z" fill="black"/>
<path d="M127.253 43.73C130.948 43.73 133.214 41.2547 133.214 37.1525C133.214 33.0735 130.937 30.5866 127.253 30.5866C123.557 30.5866 121.279 33.0735 121.279 37.1525C121.279 41.2547 123.546 43.73 127.253 43.73ZM127.253 41.5104C125.08 41.5104 123.859 39.9183 123.859 37.1525C123.859 34.4099 125.08 32.8062 127.253 32.8062C129.414 32.8062 130.646 34.4099 130.646 37.1525C130.646 39.9067 129.414 41.5104 127.253 41.5104Z" fill="black"/>
<path d="M135.153 43.486H137.652V36.0136C137.652 34.2356 138.988 33.0386 140.882 33.0386C141.324 33.0386 142.068 33.12 142.277 33.1897V30.726C142.01 30.6563 141.533 30.6214 141.161 30.6214C139.511 30.6214 138.105 31.5279 137.745 32.7713H137.559V30.8306H135.153V43.486Z" fill="black"/>
<path d="M148.481 32.7132C150.328 32.7132 151.537 34.0032 151.595 35.9904H145.204C145.343 34.0148 146.633 32.7132 148.481 32.7132ZM151.584 40.0694C151.119 41.0572 150.084 41.6034 148.574 41.6034C146.575 41.6034 145.285 40.1972 145.204 37.9776V37.8381H154.14V36.9666C154.14 32.9921 152.013 30.5866 148.492 30.5866C144.925 30.5866 142.659 33.1548 142.659 37.199C142.659 41.2431 144.878 43.73 148.504 43.73C151.398 43.73 153.42 42.3355 153.989 40.0694H151.584Z" fill="black"/>
<path d="M98.5511 38.8126C98.7439 41.9201 101.334 43.9076 105.188 43.9076C109.307 43.9076 111.885 41.8238 111.885 38.4994C111.885 35.8856 110.415 34.4403 106.85 33.6092L104.935 33.1394C102.67 32.6094 101.755 31.8988 101.755 30.6581C101.755 29.0923 103.176 28.0685 105.308 28.0685C107.332 28.0685 108.729 29.0682 108.982 30.6702H111.608C111.451 27.7433 108.874 25.6836 105.344 25.6836C101.55 25.6836 99.0209 27.7433 99.0209 30.8388C99.0209 33.3923 100.454 34.91 103.598 35.6447L105.838 36.1868C108.139 36.7288 109.151 37.5238 109.151 38.8487C109.151 40.3904 107.561 41.5106 105.393 41.5106C103.068 41.5106 101.454 40.4627 101.225 38.8126H98.5511Z" fill="black"/>
<path d="M72.6689 30.6214C70.9489 30.6214 69.4614 31.4814 68.6945 32.9224H68.5085V30.8306H66.1029V47.6928H68.6015V41.5685H68.799C69.4614 42.9049 70.8908 43.6952 72.6921 43.6952C75.8879 43.6952 77.9216 41.1734 77.9216 37.1525C77.9216 33.1316 75.8879 30.6214 72.6689 30.6214ZM71.96 41.4523C69.8682 41.4523 68.555 39.8021 68.555 37.1641C68.555 34.5145 69.8682 32.8643 71.9716 32.8643C74.0866 32.8643 75.3533 34.4796 75.3533 37.1525C75.3533 39.837 74.0866 41.4523 71.96 41.4523Z" fill="black"/>
<path d="M86.6644 30.6214C84.9445 30.6214 83.457 31.4814 82.69 32.9224H82.504V30.8306H80.0985V47.6928H82.597V41.5685H82.7946C83.457 42.9049 84.8864 43.6952 86.6876 43.6952C89.8834 43.6952 91.9171 41.1734 91.9171 37.1525C91.9171 33.1316 89.8834 30.6214 86.6644 30.6214ZM85.9555 41.4523C83.8637 41.4523 82.5505 39.8021 82.5505 37.1641C82.5505 34.5145 83.8637 32.8643 85.9671 32.8643C88.0822 32.8643 89.3489 34.4796 89.3489 37.1525C89.3489 39.837 88.0822 41.4523 85.9555 41.4523Z" fill="black"/>
<path d="M61.6201 43.486H64.4868L58.2114 26.1052H55.3086L49.0332 43.486H51.8035L53.4055 38.8728H60.0302L61.6201 43.486ZM56.6215 29.2609H56.8263L59.3437 36.6083H54.0921L56.6215 29.2609Z" fill="black"/>
<path d="M50.7117 12.9953V21.3799H53.739C56.2375 21.3799 57.6843 19.8401 57.6843 17.1615C57.6843 14.5235 56.2259 12.9953 53.739 12.9953H50.7117ZM52.0132 14.1807H53.5937C55.3311 14.1807 56.3595 15.2847 56.3595 17.1789C56.3595 19.1022 55.3485 20.1946 53.5937 20.1946H52.0132V14.1807Z" fill="black"/>
<path d="M62.1154 21.502C63.9632 21.502 65.0963 20.2643 65.0963 18.2132C65.0963 16.1737 63.9574 14.9302 62.1154 14.9302C60.2677 14.9302 59.1288 16.1737 59.1288 18.2132C59.1288 20.2643 60.2619 21.502 62.1154 21.502ZM62.1154 20.3921C61.0289 20.3921 60.4188 19.5961 60.4188 18.2132C60.4188 16.8419 61.0289 16.04 62.1154 16.04C63.1962 16.04 63.8121 16.8419 63.8121 18.2132C63.8121 19.5903 63.1962 20.3921 62.1154 20.3921Z" fill="black"/>
<path d="M74.7453 15.0522H73.496L72.3687 19.8808H72.27L70.9684 15.0522H69.7714L68.4699 19.8808H68.3769L67.2438 15.0522H65.9771L67.7203 21.3799H69.0044L70.306 16.7199H70.4048L71.7121 21.3799H73.0079L74.7453 15.0522Z" fill="black"/>
<path d="M76.1839 21.3799H77.4332V17.6786C77.4332 16.6908 78.0201 16.0749 78.944 16.0749C79.8678 16.0749 80.3094 16.5804 80.3094 17.5973V21.3799H81.5587V17.2835C81.5587 15.7786 80.7801 14.9302 79.3681 14.9302C78.4152 14.9302 77.7877 15.3544 77.4797 16.0575H77.3867V15.0522H76.1839V21.3799Z" fill="black"/>
<path d="M83.5262 21.3799H84.7754V12.5828H83.5262V21.3799Z" fill="black"/>
<path d="M89.4738 21.502C91.3216 21.502 92.4546 20.2643 92.4546 18.2132C92.4546 16.1737 91.3158 14.9302 89.4738 14.9302C87.6261 14.9302 86.4872 16.1737 86.4872 18.2132C86.4872 20.2643 87.6203 21.502 89.4738 21.502ZM89.4738 20.3921C88.3873 20.3921 87.7771 19.5961 87.7771 18.2132C87.7771 16.8419 88.3873 16.04 89.4738 16.04C90.5546 16.04 91.1705 16.8419 91.1705 18.2132C91.1705 19.5903 90.5546 20.3921 89.4738 20.3921Z" fill="black"/>
<path d="M96.1769 20.4328C95.497 20.4328 95.0031 20.1016 95.0031 19.5322C95.0031 18.9744 95.3983 18.678 96.2698 18.6199L97.8154 18.5211V19.0499C97.8154 19.8343 97.1182 20.4328 96.1769 20.4328ZM95.8573 21.4845C96.6882 21.4845 97.3797 21.1243 97.7573 20.4909H97.8561V21.3799H99.0589V17.0569C99.0589 15.7205 98.1641 14.9302 96.5778 14.9302C95.1426 14.9302 94.1199 15.6275 93.9921 16.7141H95.2007C95.3402 16.2666 95.8224 16.011 96.5197 16.011C97.3738 16.011 97.8154 16.3887 97.8154 17.0569V17.6031L96.1013 17.7019C94.5964 17.7948 93.7481 18.4514 93.7481 19.5903C93.7481 20.7466 94.6371 21.4845 95.8573 21.4845Z" fill="black"/>
<path d="M103.298 21.4845C104.17 21.4845 104.908 21.072 105.285 20.3805H105.384V21.3799H106.581V12.5828H105.332V16.0575H105.239C104.896 15.3602 104.164 14.9477 103.298 14.9477C101.7 14.9477 100.672 16.2144 100.672 18.2132C100.672 20.2178 101.689 21.4845 103.298 21.4845ZM103.653 16.0691C104.699 16.0691 105.355 16.9 105.355 18.219C105.355 19.5438 104.704 20.3631 103.653 20.3631C102.595 20.3631 101.962 19.5554 101.962 18.2132C101.962 16.8826 102.601 16.0691 103.653 16.0691Z" fill="black"/>
<path d="M114.682 21.502C116.53 21.502 117.663 20.2643 117.663 18.2132C117.663 16.1737 116.524 14.9302 114.682 14.9302C112.835 14.9302 111.696 16.1737 111.696 18.2132C111.696 20.2643 112.829 21.502 114.682 21.502ZM114.682 20.3921C113.596 20.3921 112.986 19.5961 112.986 18.2132C112.986 16.8419 113.596 16.04 114.682 16.04C115.763 16.04 116.379 16.8419 116.379 18.2132C116.379 19.5903 115.763 20.3921 114.682 20.3921Z" fill="black"/>
<path d="M119.317 21.3799H120.566V17.6786C120.566 16.6908 121.153 16.0749 122.077 16.0749C123.001 16.0749 123.442 16.5804 123.442 17.5973V21.3799H124.692V17.2835C124.692 15.7786 123.913 14.9302 122.501 14.9302C121.548 14.9302 120.921 15.3544 120.613 16.0575H120.52V15.0522H119.317V21.3799Z" fill="black"/>
<path d="M130.445 13.4776V15.0813H129.44V16.133H130.445V19.7065C130.445 20.9267 130.997 21.4148 132.386 21.4148C132.63 21.4148 132.862 21.3857 133.066 21.3509V20.3108C132.891 20.3282 132.781 20.3398 132.589 20.3398C131.968 20.3398 131.694 20.0493 131.694 19.3869V16.133H133.066V15.0813H131.694V13.4776H130.445Z" fill="black"/>
<path d="M134.743 21.3799H135.992V17.6844C135.992 16.7257 136.561 16.0807 137.584 16.0807C138.467 16.0807 138.938 16.592 138.938 17.6031V21.3799H140.187V17.2951C140.187 15.7902 139.356 14.936 138.008 14.936C137.055 14.936 136.387 15.3602 136.079 16.0691H135.98V12.5828H134.743V21.3799Z" fill="black"/>
<path d="M144.694 15.9936C145.618 15.9936 146.222 16.6385 146.251 17.6321H143.055C143.125 16.6443 143.77 15.9936 144.694 15.9936ZM146.245 19.6716C146.013 20.1655 145.496 20.4386 144.74 20.4386C143.741 20.4386 143.096 19.7355 143.055 18.6257V18.556H147.524V18.1202C147.524 16.133 146.46 14.9302 144.7 14.9302C142.916 14.9302 141.783 16.2144 141.783 18.2364C141.783 20.2585 142.893 21.502 144.705 21.502C146.152 21.502 147.163 20.8047 147.448 19.6716H146.245Z" fill="black"/>
</svg>
