<svg width="123" height="37" viewBox="0 0 123 37" fill="none" xmlns="http://www.w3.org/2000/svg">
<rect x="1.25005" y="0.850024" width="120.6" height="35.1" rx="4.05" stroke="white" stroke-width="0.9"/>
<path fill-rule="evenodd" clip-rule="evenodd" d="M9.94066 7.56978C9.83436 7.81053 9.77563 8.10552 9.77563 8.44864V28.353C9.77563 28.6969 9.83443 28.9919 9.94086 29.2326L20.7714 18.4005L9.94066 7.56978ZM10.5664 29.8799C10.9678 30.0517 11.4915 29.9972 12.0625 29.6734L24.8039 22.4331L21.4078 19.0369L10.5664 29.8799ZM25.6161 21.9725L29.6134 19.7014C30.8707 18.9859 30.8707 17.8168 29.6134 17.1022L25.6143 14.8298L22.0441 18.4005L25.6161 21.9725ZM24.8027 14.3686L12.0625 7.12925C11.4915 6.80473 10.9677 6.75058 10.5663 6.92261L21.4077 17.7641L24.8027 14.3686Z" fill="white"/>
<path d="M62.1224 19.976C60.0056 19.976 58.2803 21.5861 58.2803 23.8037C58.2803 26.0078 60.0056 27.6314 62.1224 27.6314C64.2401 27.6314 65.9654 26.0078 65.9654 23.8037C65.9645 21.5861 64.2392 19.976 62.1224 19.976ZM62.1224 26.1248C60.9623 26.1248 59.9624 25.1681 59.9624 23.8046C59.9624 22.4267 60.9632 21.4844 62.1224 21.4844C63.2825 21.4844 64.2824 22.4267 64.2824 23.8046C64.2824 25.1672 63.2825 26.1248 62.1224 26.1248ZM53.7398 19.976C51.623 19.976 49.8977 21.5861 49.8977 23.8037C49.8977 26.0078 51.623 27.6314 53.7398 27.6314C55.8575 27.6314 57.5828 26.0078 57.5828 23.8037C57.5828 21.5861 55.8575 19.976 53.7398 19.976ZM53.7398 26.1248C52.5797 26.1248 51.5798 25.1681 51.5798 23.8046C51.5798 22.4267 52.5806 21.4844 53.7398 21.4844C54.8999 21.4844 55.8998 22.4267 55.8998 23.8046C55.9007 25.1672 54.8999 26.1248 53.7398 26.1248ZM43.7696 21.1514V22.775H47.6558C47.5397 23.6885 47.2355 24.3554 46.7711 24.8189C46.2059 25.3841 45.3212 26.0078 43.7696 26.0078C41.3774 26.0078 39.5072 24.0791 39.5072 21.6869C39.5072 19.2947 41.3774 17.366 43.7696 17.366C45.0602 17.366 46.0025 17.8736 46.6982 18.5261L47.8439 17.3804C46.8719 16.4525 45.5822 15.7424 43.7696 15.7424C40.4927 15.7424 37.7378 18.41 37.7378 21.6869C37.7378 24.9638 40.4927 27.6314 43.7696 27.6314C45.5381 27.6314 46.8728 27.0509 47.9159 25.9637C48.9887 24.8909 49.3226 23.3825 49.3226 22.1648C49.3226 21.7886 49.2938 21.4403 49.2353 21.1505H43.7696V21.1514ZM84.5468 22.4123C84.2282 21.5573 83.2562 19.976 81.2699 19.976C79.298 19.976 77.6591 21.5276 77.6591 23.8037C77.6591 25.9493 79.2836 27.6314 81.458 27.6314C83.2121 27.6314 84.2273 26.5586 84.6485 25.9349L83.3435 25.0646C82.9088 25.7027 82.3139 26.123 81.458 26.123C80.603 26.123 79.9937 25.7315 79.6022 24.9629L84.7205 22.8461L84.5468 22.4123ZM79.3268 23.6885C79.2836 22.2089 80.4725 21.4556 81.3284 21.4556C81.9953 21.4556 82.5605 21.7895 82.7495 22.2674L79.3268 23.6885ZM75.1661 27.4001H76.8473V16.1492H75.1661V27.4001ZM72.4103 20.8319H72.3527C71.9756 20.3819 71.2502 19.976 70.3376 19.976C68.4233 19.976 66.6692 21.6581 66.6692 23.819C66.6692 25.9646 68.4233 27.6323 70.3376 27.6323C71.2511 27.6323 71.9756 27.2264 72.3527 26.7629H72.4103V27.3137C72.4103 28.778 71.6273 29.561 70.3664 29.561C69.3368 29.561 68.6987 28.8221 68.4377 28.1984L66.9734 28.8077C67.3937 29.822 68.5097 31.0694 70.3664 31.0694C72.3383 31.0694 74.006 29.9093 74.006 27.0815V20.2091H72.4112V20.8319H72.4103ZM70.4825 26.1248C69.3224 26.1248 68.3513 25.1528 68.3513 23.819C68.3513 22.4699 69.3224 21.4844 70.4825 21.4844C71.6273 21.4844 72.5264 22.4699 72.5264 23.819C72.5264 25.1528 71.6273 26.1248 70.4825 26.1248ZM92.4254 16.1492H88.4015V27.4001H90.08V23.1377H92.4245C94.2857 23.1377 96.1163 21.7904 96.1163 19.6439C96.1163 17.4974 94.2866 16.1492 92.4254 16.1492ZM92.4686 21.5717H90.08V17.7152H92.4686C93.7241 17.7152 94.4369 18.7547 94.4369 19.6439C94.4369 20.5151 93.7241 21.5717 92.4686 21.5717ZM102.847 19.9562C101.631 19.9562 100.372 20.4917 99.8513 21.6788L101.342 22.3007C101.66 21.6788 102.254 21.4754 102.876 21.4754C103.745 21.4754 104.628 21.9965 104.642 22.9226V23.0387C104.338 22.865 103.686 22.6049 102.891 22.6049C101.284 22.6049 99.6479 23.4878 99.6479 25.1375C99.6479 26.6432 100.965 27.6125 102.441 27.6125C103.57 27.6125 104.193 27.1058 104.583 26.5118H104.641V27.3803H106.263V23.0666C106.264 21.0704 104.772 19.9562 102.847 19.9562ZM102.644 26.1221C102.095 26.1221 101.327 25.8467 101.327 25.1663C101.327 24.2978 102.283 23.9648 103.108 23.9648C103.845 23.9648 104.194 24.1241 104.642 24.341C104.511 25.3841 103.614 26.1221 102.644 26.1221ZM112.169 20.2019L110.244 25.0799H110.186L108.188 20.2019H106.379L109.375 27.0194L107.667 30.812H109.418L114.036 20.2019H112.169ZM97.0433 27.4001H98.7218V16.1492H97.0433V27.4001Z" fill="white"/>
<path d="M43.4762 9.61865C43.4762 10.3728 43.253 10.9731 42.8057 11.4213C42.2981 11.9541 41.6357 12.2205 40.8221 12.2205C40.0427 12.2205 39.3794 11.9505 38.8349 11.4105C38.2895 10.8696 38.0168 10.2 38.0168 9.40085C38.0168 8.60075 38.2895 7.93115 38.8349 7.39115C39.3794 6.85025 40.0427 6.58025 40.8221 6.58025C41.2091 6.58025 41.579 6.65585 41.93 6.80615C42.2819 6.95735 42.5636 7.15805 42.7742 7.40915L42.2999 7.88435C41.9426 7.45685 41.4503 7.24355 40.8212 7.24355C40.2524 7.24355 39.761 7.44335 39.3461 7.84295C38.9312 8.24255 38.7242 8.76185 38.7242 9.39995C38.7242 10.038 38.9312 10.5573 39.3461 10.9569C39.761 11.3565 40.2524 11.5563 40.8212 11.5563C41.4242 11.5563 41.9273 11.3556 42.3296 10.9533C42.5906 10.6914 42.7418 10.3269 42.7823 9.85985H40.8212V9.21095H43.4375C43.4645 9.35225 43.4762 9.48815 43.4762 9.61865Z" fill="white"/>
<path d="M47.6253 7.3633H45.1665V9.0751H47.3841V9.724H45.1665V11.4358H47.6253V12.1H44.4726V6.7H47.6253V7.3633Z" fill="white"/>
<path d="M50.5511 12.1H49.8572V7.3633H48.3488V6.7H52.0595V7.3633H50.5511V12.1Z" fill="white"/>
<path d="M54.7442 12.1V6.7H55.4381V12.1H54.7442Z" fill="white"/>
<path d="M58.5153 12.1H57.8214V7.3633H56.313V6.7H60.0237V7.3633H58.5153V12.1Z" fill="white"/>
<path d="M67.048 11.4025C66.517 11.9479 65.8573 12.2206 65.068 12.2206C64.2787 12.2206 63.619 11.9479 63.0889 11.4025C62.5579 10.8571 62.2933 10.1893 62.2933 9.39999C62.2933 8.61069 62.5579 7.94289 63.0889 7.39749C63.619 6.85209 64.2787 6.57849 65.068 6.57849C65.8528 6.57849 66.5116 6.85299 67.0444 7.40109C67.5772 7.94919 67.8436 8.61519 67.8436 9.39999C67.8436 10.1893 67.5781 10.8571 67.048 11.4025ZM63.601 10.9498C64.0006 11.3548 64.4893 11.5564 65.068 11.5564C65.6467 11.5564 66.1363 11.3539 66.535 10.9498C66.9346 10.5448 67.1353 10.0282 67.1353 9.39999C67.1353 8.77179 66.9346 8.25519 66.535 7.85019C66.1363 7.44519 65.6467 7.24359 65.068 7.24359C64.4893 7.24359 64.0006 7.44609 63.601 7.85019C63.2023 8.25519 63.0016 8.77179 63.0016 9.39999C63.0016 10.0282 63.2023 10.5448 63.601 10.9498Z" fill="white"/>
<path d="M68.8175 12.1V6.7H69.6617L72.2861 10.9003H72.3158L72.2861 9.8599V6.7H72.98V12.1H72.2555L69.5096 7.6954H69.4799L69.5096 8.7358V12.1H68.8175Z" fill="white"/>
<path d="M43.4762 9.61865C43.4762 10.3728 43.253 10.9731 42.8057 11.4213C42.2981 11.9541 41.6357 12.2205 40.8221 12.2205C40.0427 12.2205 39.3794 11.9505 38.8349 11.4105C38.2895 10.8696 38.0168 10.2 38.0168 9.40085C38.0168 8.60075 38.2895 7.93115 38.8349 7.39115C39.3794 6.85025 40.0427 6.58025 40.8221 6.58025C41.2091 6.58025 41.579 6.65585 41.93 6.80615C42.2819 6.95735 42.5636 7.15805 42.7742 7.40915L42.2999 7.88435C41.9426 7.45685 41.4503 7.24355 40.8212 7.24355C40.2524 7.24355 39.761 7.44335 39.3461 7.84295C38.9312 8.24255 38.7242 8.76185 38.7242 9.39995C38.7242 10.038 38.9312 10.5573 39.3461 10.9569C39.761 11.3565 40.2524 11.5563 40.8212 11.5563C41.4242 11.5563 41.9273 11.3556 42.3296 10.9533C42.5906 10.6914 42.7418 10.3269 42.7823 9.85985H40.8212V9.21095H43.4375C43.4645 9.35225 43.4762 9.48815 43.4762 9.61865Z" stroke="white" stroke-width="0.18" stroke-miterlimit="10"/>
<path d="M47.6253 7.3633H45.1665V9.0751H47.3841V9.724H45.1665V11.4358H47.6253V12.1H44.4726V6.7H47.6253V7.3633Z" stroke="white" stroke-width="0.18" stroke-miterlimit="10"/>
<path d="M50.5511 12.1H49.8572V7.3633H48.3488V6.7H52.0595V7.3633H50.5511V12.1Z" stroke="white" stroke-width="0.18" stroke-miterlimit="10"/>
<path d="M54.7442 12.1V6.7H55.4381V12.1H54.7442Z" stroke="white" stroke-width="0.18" stroke-miterlimit="10"/>
<path d="M58.5153 12.1H57.8214V7.3633H56.313V6.7H60.0237V7.3633H58.5153V12.1Z" stroke="white" stroke-width="0.18" stroke-miterlimit="10"/>
<path d="M67.048 11.4025C66.517 11.9479 65.8573 12.2206 65.068 12.2206C64.2787 12.2206 63.619 11.9479 63.0889 11.4025C62.5579 10.8571 62.2933 10.1893 62.2933 9.39999C62.2933 8.61069 62.5579 7.94289 63.0889 7.39749C63.619 6.85209 64.2787 6.57849 65.068 6.57849C65.8528 6.57849 66.5116 6.85299 67.0444 7.40109C67.5772 7.94919 67.8436 8.61519 67.8436 9.39999C67.8436 10.1893 67.5781 10.8571 67.048 11.4025ZM63.601 10.9498C64.0006 11.3548 64.4893 11.5564 65.068 11.5564C65.6467 11.5564 66.1363 11.3539 66.535 10.9498C66.9346 10.5448 67.1353 10.0282 67.1353 9.39999C67.1353 8.77179 66.9346 8.25519 66.535 7.85019C66.1363 7.44519 65.6467 7.24359 65.068 7.24359C64.4893 7.24359 64.0006 7.44609 63.601 7.85019C63.2023 8.25519 63.0016 8.77179 63.0016 9.39999C63.0016 10.0282 63.2023 10.5448 63.601 10.9498Z" stroke="white" stroke-width="0.18" stroke-miterlimit="10"/>
<path d="M68.8175 12.1V6.7H69.6617L72.2861 10.9003H72.3158L72.2861 9.8599V6.7H72.98V12.1H72.2555L69.5096 7.6954H69.4799L69.5096 8.7358V12.1H68.8175Z" stroke="white" stroke-width="0.18" stroke-miterlimit="10"/>
</svg>
