<svg width="123" height="37" viewBox="0 0 123 37" fill="none" xmlns="http://www.w3.org/2000/svg">
<rect x="1.25005" y="1.04998" width="120.6" height="35.1" rx="4.05" fill="black"/>
<rect x="1.25005" y="1.04998" width="120.6" height="35.1" rx="4.05" stroke="#A6A6A6" stroke-width="0.9"/>
<g filter="url(#filter0_ii_302_674)">
<path d="M10.1923 7.38418C9.93044 7.66138 9.77563 8.09158 9.77563 8.64868V28.5531C9.77563 29.1111 9.93044 29.5404 10.1923 29.8176L10.2589 29.8824L21.409 18.7323V18.6009V18.4695L10.2589 7.31848L10.1923 7.38418Z" fill="url(#paint0_linear_302_674)"/>
<path d="M25.125 22.4503L21.4089 18.7324V18.601V18.4696L25.1259 14.7526L25.2096 14.8003L29.6133 17.3023C30.8706 18.0169 30.8706 19.186 29.6133 19.9015L25.2096 22.4035L25.125 22.4503Z" fill="url(#paint1_linear_302_674)"/>
<g filter="url(#filter1_i_302_674)">
<path d="M25.2098 22.4026L21.4082 18.601L10.1924 29.8177C10.6064 30.2569 11.2913 30.3109 12.0626 29.8735L25.2098 22.4026Z" fill="url(#paint2_linear_302_674)"/>
</g>
<path d="M25.2098 14.7993L12.0626 7.32932C11.2913 6.89102 10.6064 6.94592 10.1924 7.38512L21.4091 18.6018L25.2098 14.7993Z" fill="url(#paint3_linear_302_674)"/>
</g>
<path d="M62.1224 20.176C60.0056 20.176 58.2803 21.7861 58.2803 24.0037C58.2803 26.2078 60.0056 27.8314 62.1224 27.8314C64.2401 27.8314 65.9654 26.2078 65.9654 24.0037C65.9645 21.7861 64.2392 20.176 62.1224 20.176ZM62.1224 26.3248C60.9623 26.3248 59.9624 25.3681 59.9624 24.0046C59.9624 22.6267 60.9632 21.6844 62.1224 21.6844C63.2825 21.6844 64.2824 22.6267 64.2824 24.0046C64.2824 25.3672 63.2825 26.3248 62.1224 26.3248ZM53.7398 20.176C51.623 20.176 49.8977 21.7861 49.8977 24.0037C49.8977 26.2078 51.623 27.8314 53.7398 27.8314C55.8575 27.8314 57.5828 26.2078 57.5828 24.0037C57.5828 21.7861 55.8575 20.176 53.7398 20.176ZM53.7398 26.3248C52.5797 26.3248 51.5798 25.3681 51.5798 24.0046C51.5798 22.6267 52.5806 21.6844 53.7398 21.6844C54.8999 21.6844 55.8998 22.6267 55.8998 24.0046C55.9007 25.3672 54.8999 26.3248 53.7398 26.3248ZM43.7696 21.3514V22.975H47.6558C47.5397 23.8885 47.2355 24.5554 46.7711 25.0189C46.2059 25.5841 45.3212 26.2078 43.7696 26.2078C41.3774 26.2078 39.5072 24.2791 39.5072 21.8869C39.5072 19.4947 41.3774 17.566 43.7696 17.566C45.0602 17.566 46.0025 18.0736 46.6982 18.7261L47.8439 17.5804C46.8719 16.6525 45.5822 15.9424 43.7696 15.9424C40.4927 15.9424 37.7378 18.61 37.7378 21.8869C37.7378 25.1638 40.4927 27.8314 43.7696 27.8314C45.5381 27.8314 46.8728 27.2509 47.9159 26.1637C48.9887 25.0909 49.3226 23.5825 49.3226 22.3648C49.3226 21.9886 49.2938 21.6403 49.2353 21.3505H43.7696V21.3514ZM84.5468 22.6123C84.2282 21.7573 83.2562 20.176 81.2699 20.176C79.298 20.176 77.6591 21.7276 77.6591 24.0037C77.6591 26.1493 79.2836 27.8314 81.458 27.8314C83.2121 27.8314 84.2273 26.7586 84.6485 26.1349L83.3435 25.2646C82.9088 25.9027 82.3139 26.323 81.458 26.323C80.603 26.323 79.9937 25.9315 79.6022 25.1629L84.7205 23.0461L84.5468 22.6123ZM79.3268 23.8885C79.2836 22.4089 80.4725 21.6556 81.3284 21.6556C81.9953 21.6556 82.5605 21.9895 82.7495 22.4674L79.3268 23.8885ZM75.1661 27.6001H76.8473V16.3492H75.1661V27.6001ZM72.4103 21.0319H72.3527C71.9756 20.5819 71.2502 20.176 70.3376 20.176C68.4233 20.176 66.6692 21.8581 66.6692 24.019C66.6692 26.1646 68.4233 27.8323 70.3376 27.8323C71.2511 27.8323 71.9756 27.4264 72.3527 26.9629H72.4103V27.5137C72.4103 28.978 71.6273 29.761 70.3664 29.761C69.3368 29.761 68.6987 29.0221 68.4377 28.3984L66.9734 29.0077C67.3937 30.022 68.5097 31.2694 70.3664 31.2694C72.3383 31.2694 74.006 30.1093 74.006 27.2815V20.4091H72.4112V21.0319H72.4103ZM70.4825 26.3248C69.3224 26.3248 68.3513 25.3528 68.3513 24.019C68.3513 22.6699 69.3224 21.6844 70.4825 21.6844C71.6273 21.6844 72.5264 22.6699 72.5264 24.019C72.5264 25.3528 71.6273 26.3248 70.4825 26.3248ZM92.4254 16.3492H88.4015V27.6001H90.08V23.3377H92.4245C94.2857 23.3377 96.1163 21.9904 96.1163 19.8439C96.1163 17.6974 94.2866 16.3492 92.4254 16.3492ZM92.4686 21.7717H90.08V17.9152H92.4686C93.7241 17.9152 94.4369 18.9547 94.4369 19.8439C94.4369 20.7151 93.7241 21.7717 92.4686 21.7717ZM102.847 20.1562C101.631 20.1562 100.372 20.6917 99.8513 21.8788L101.342 22.5007C101.66 21.8788 102.254 21.6754 102.876 21.6754C103.745 21.6754 104.628 22.1965 104.642 23.1226V23.2387C104.338 23.065 103.686 22.8049 102.891 22.8049C101.284 22.8049 99.6479 23.6878 99.6479 25.3375C99.6479 26.8432 100.965 27.8125 102.441 27.8125C103.57 27.8125 104.193 27.3058 104.583 26.7118H104.641V27.5803H106.263V23.2666C106.264 21.2704 104.772 20.1562 102.847 20.1562ZM102.644 26.3221C102.095 26.3221 101.327 26.0467 101.327 25.3663C101.327 24.4978 102.283 24.1648 103.108 24.1648C103.845 24.1648 104.194 24.3241 104.642 24.541C104.511 25.5841 103.614 26.3221 102.644 26.3221ZM112.169 20.4019L110.244 25.2799H110.186L108.188 20.4019H106.379L109.375 27.2194L107.667 31.012H109.418L114.036 20.4019H112.169ZM97.0433 27.6001H98.7218V16.3492H97.0433V27.6001Z" fill="white"/>
<path d="M43.4762 9.8186C43.4762 10.5728 43.253 11.1731 42.8057 11.6213C42.2981 12.1541 41.6357 12.4205 40.8221 12.4205C40.0427 12.4205 39.3794 12.1505 38.8349 11.6105C38.2895 11.0696 38.0168 10.4 38.0168 9.6008C38.0168 8.8007 38.2895 8.1311 38.8349 7.5911C39.3794 7.0502 40.0427 6.7802 40.8221 6.7802C41.2091 6.7802 41.579 6.8558 41.93 7.0061C42.2819 7.1573 42.5636 7.358 42.7742 7.6091L42.2999 8.0843C41.9426 7.6568 41.4503 7.4435 40.8212 7.4435C40.2524 7.4435 39.761 7.6433 39.3461 8.0429C38.9312 8.4425 38.7242 8.9618 38.7242 9.5999C38.7242 10.238 38.9312 10.7573 39.3461 11.1569C39.761 11.5565 40.2524 11.7563 40.8212 11.7563C41.4242 11.7563 41.9273 11.5556 42.3296 11.1533C42.5906 10.8914 42.7418 10.5269 42.7823 10.0598H40.8212V9.4109H43.4375C43.4645 9.5522 43.4762 9.6881 43.4762 9.8186Z" fill="white"/>
<path d="M47.6253 7.56325H45.1665V9.27505H47.3841V9.92395H45.1665V11.6358H47.6253V12.3H44.4726V6.89995H47.6253V7.56325Z" fill="white"/>
<path d="M50.5511 12.3H49.8572V7.56325H48.3488V6.89995H52.0595V7.56325H50.5511V12.3Z" fill="white"/>
<path d="M54.7442 12.3V6.89995H55.4381V12.3H54.7442Z" fill="white"/>
<path d="M58.5153 12.3H57.8214V7.56325H56.313V6.89995H60.0237V7.56325H58.5153V12.3Z" fill="white"/>
<path d="M67.048 11.6024C66.517 12.1478 65.8573 12.4205 65.068 12.4205C64.2787 12.4205 63.619 12.1478 63.0889 11.6024C62.5579 11.057 62.2933 10.3892 62.2933 9.59994C62.2933 8.81064 62.5579 8.14284 63.0889 7.59744C63.619 7.05204 64.2787 6.77844 65.068 6.77844C65.8528 6.77844 66.5116 7.05294 67.0444 7.60104C67.5772 8.14914 67.8436 8.81514 67.8436 9.59994C67.8436 10.3892 67.5781 11.057 67.048 11.6024ZM63.601 11.1497C64.0006 11.5547 64.4893 11.7563 65.068 11.7563C65.6467 11.7563 66.1363 11.5538 66.535 11.1497C66.9346 10.7447 67.1353 10.2281 67.1353 9.59994C67.1353 8.97174 66.9346 8.45514 66.535 8.05014C66.1363 7.64514 65.6467 7.44354 65.068 7.44354C64.4893 7.44354 64.0006 7.64604 63.601 8.05014C63.2023 8.45514 63.0016 8.97174 63.0016 9.59994C63.0016 10.2281 63.2023 10.7447 63.601 11.1497Z" fill="white"/>
<path d="M68.8175 12.3V6.89995H69.6617L72.2861 11.1003H72.3158L72.2861 10.0599V6.89995H72.98V12.3H72.2555L69.5096 7.89535H69.4799L69.5096 8.93575V12.3H68.8175Z" fill="white"/>
<path d="M43.4762 9.8186C43.4762 10.5728 43.253 11.1731 42.8057 11.6213C42.2981 12.1541 41.6357 12.4205 40.8221 12.4205C40.0427 12.4205 39.3794 12.1505 38.8349 11.6105C38.2895 11.0696 38.0168 10.4 38.0168 9.6008C38.0168 8.8007 38.2895 8.1311 38.8349 7.5911C39.3794 7.0502 40.0427 6.7802 40.8221 6.7802C41.2091 6.7802 41.579 6.8558 41.93 7.0061C42.2819 7.1573 42.5636 7.358 42.7742 7.6091L42.2999 8.0843C41.9426 7.6568 41.4503 7.4435 40.8212 7.4435C40.2524 7.4435 39.761 7.6433 39.3461 8.0429C38.9312 8.4425 38.7242 8.9618 38.7242 9.5999C38.7242 10.238 38.9312 10.7573 39.3461 11.1569C39.761 11.5565 40.2524 11.7563 40.8212 11.7563C41.4242 11.7563 41.9273 11.5556 42.3296 11.1533C42.5906 10.8914 42.7418 10.5269 42.7823 10.0598H40.8212V9.4109H43.4375C43.4645 9.5522 43.4762 9.6881 43.4762 9.8186Z" stroke="white" stroke-width="0.18" stroke-miterlimit="10"/>
<path d="M47.6253 7.56325H45.1665V9.27505H47.3841V9.92395H45.1665V11.6358H47.6253V12.3H44.4726V6.89995H47.6253V7.56325Z" stroke="white" stroke-width="0.18" stroke-miterlimit="10"/>
<path d="M50.5511 12.3H49.8572V7.56325H48.3488V6.89995H52.0595V7.56325H50.5511V12.3Z" stroke="white" stroke-width="0.18" stroke-miterlimit="10"/>
<path d="M54.7442 12.3V6.89995H55.4381V12.3H54.7442Z" stroke="white" stroke-width="0.18" stroke-miterlimit="10"/>
<path d="M58.5153 12.3H57.8214V7.56325H56.313V6.89995H60.0237V7.56325H58.5153V12.3Z" stroke="white" stroke-width="0.18" stroke-miterlimit="10"/>
<path d="M67.048 11.6024C66.517 12.1478 65.8573 12.4205 65.068 12.4205C64.2787 12.4205 63.619 12.1478 63.0889 11.6024C62.5579 11.057 62.2933 10.3892 62.2933 9.59994C62.2933 8.81064 62.5579 8.14284 63.0889 7.59744C63.619 7.05204 64.2787 6.77844 65.068 6.77844C65.8528 6.77844 66.5116 7.05294 67.0444 7.60104C67.5772 8.14914 67.8436 8.81514 67.8436 9.59994C67.8436 10.3892 67.5781 11.057 67.048 11.6024ZM63.601 11.1497C64.0006 11.5547 64.4893 11.7563 65.068 11.7563C65.6467 11.7563 66.1363 11.5538 66.535 11.1497C66.9346 10.7447 67.1353 10.2281 67.1353 9.59994C67.1353 8.97174 66.9346 8.45514 66.535 8.05014C66.1363 7.64514 65.6467 7.44354 65.068 7.44354C64.4893 7.44354 64.0006 7.64604 63.601 8.05014C63.2023 8.45514 63.0016 8.97174 63.0016 9.59994C63.0016 10.2281 63.2023 10.7447 63.601 11.1497Z" stroke="white" stroke-width="0.18" stroke-miterlimit="10"/>
<path d="M68.8175 12.3V6.89995H69.6617L72.2861 11.1003H72.3158L72.2861 10.0599V6.89995H72.98V12.3H72.2555L69.5096 7.89535H69.4799L69.5096 8.93575V12.3H68.8175Z" stroke="white" stroke-width="0.18" stroke-miterlimit="10"/>
<defs>
<filter id="filter0_ii_302_674" x="9.77563" y="7.02686" width="20.7808" height="23.1487" filterUnits="userSpaceOnUse" color-interpolation-filters="sRGB">
<feFlood flood-opacity="0" result="BackgroundImageFix"/>
<feBlend mode="normal" in="SourceGraphic" in2="BackgroundImageFix" result="shape"/>
<feColorMatrix in="SourceAlpha" type="matrix" values="0 0 0 0 0 0 0 0 0 0 0 0 0 0 0 0 0 0 127 0" result="hardAlpha"/>
<feOffset dy="-0.135"/>
<feComposite in2="hardAlpha" operator="arithmetic" k2="-1" k3="1"/>
<feColorMatrix type="matrix" values="0 0 0 0 0 0 0 0 0 0 0 0 0 0 0 0 0 0 0.12 0"/>
<feBlend mode="normal" in2="shape" result="effect1_innerShadow_302_674"/>
<feColorMatrix in="SourceAlpha" type="matrix" values="0 0 0 0 0 0 0 0 0 0 0 0 0 0 0 0 0 0 127 0" result="hardAlpha"/>
<feOffset dy="0.135"/>
<feComposite in2="hardAlpha" operator="arithmetic" k2="-1" k3="1"/>
<feColorMatrix type="matrix" values="0 0 0 0 1 0 0 0 0 1 0 0 0 0 1 0 0 0 0.25 0"/>
<feBlend mode="normal" in2="effect1_innerShadow_302_674" result="effect2_innerShadow_302_674"/>
</filter>
<filter id="filter1_i_302_674" x="10.1924" y="18.601" width="15.0173" height="11.5746" filterUnits="userSpaceOnUse" color-interpolation-filters="sRGB">
<feFlood flood-opacity="0" result="BackgroundImageFix"/>
<feBlend mode="normal" in="SourceGraphic" in2="BackgroundImageFix" result="shape"/>
<feColorMatrix in="SourceAlpha" type="matrix" values="0 0 0 0 0 0 0 0 0 0 0 0 0 0 0 0 0 0 127 0" result="hardAlpha"/>
<feOffset dy="-0.135"/>
<feComposite in2="hardAlpha" operator="arithmetic" k2="-1" k3="1"/>
<feColorMatrix type="matrix" values="0 0 0 0 0 0 0 0 0 0 0 0 0 0 0 0 0 0 0.08 0"/>
<feBlend mode="normal" in2="shape" result="effect1_innerShadow_302_674"/>
</filter>
<linearGradient id="paint0_linear_302_674" x1="20.4207" y1="8.43808" x2="5.31686" y2="23.5419" gradientUnits="userSpaceOnUse">
<stop stop-color="#00A0FF"/>
<stop offset="0.0066" stop-color="#00A1FF"/>
<stop offset="0.2601" stop-color="#00BEFF"/>
<stop offset="0.5122" stop-color="#00D2FF"/>
<stop offset="0.7604" stop-color="#00DFFF"/>
<stop offset="1" stop-color="#00E3FF"/>
</linearGradient>
<linearGradient id="paint1_linear_302_674" x1="31.25" y1="18.601" x2="9.47368" y2="18.601" gradientUnits="userSpaceOnUse">
<stop stop-color="#FFE000"/>
<stop offset="0.4087" stop-color="#FFBD00"/>
<stop offset="0.7754" stop-color="#FFA500"/>
<stop offset="1" stop-color="#FF9C00"/>
</linearGradient>
<linearGradient id="paint2_linear_302_674" x1="23.1453" y1="20.6655" x2="2.66263" y2="41.1481" gradientUnits="userSpaceOnUse">
<stop stop-color="#FF3A44"/>
<stop offset="1" stop-color="#C31162"/>
</linearGradient>
<linearGradient id="paint3_linear_302_674" x1="7.36764" y1="0.759144" x2="16.5137" y2="9.90521" gradientUnits="userSpaceOnUse">
<stop stop-color="#32A071"/>
<stop offset="0.0685" stop-color="#2DA771"/>
<stop offset="0.4762" stop-color="#15CF74"/>
<stop offset="0.8009" stop-color="#06E775"/>
<stop offset="1" stop-color="#00F076"/>
</linearGradient>
</defs>
</svg>
