<svg width="190" height="57" viewBox="0 0 190 57" fill="none" xmlns="http://www.w3.org/2000/svg">
<rect x="1.15" y="1.45005" width="187.7" height="54.7" rx="5.85" fill="white"/>
<rect x="1.15" y="1.45005" width="187.7" height="54.7" rx="5.85" stroke="black" stroke-width="1.3"/>
<path fill-rule="evenodd" clip-rule="evenodd" d="M14.741 11.9045C14.5617 12.2877 14.4622 12.7632 14.4622 13.3203V44.2827C14.4622 44.841 14.5618 45.3165 14.7413 45.6994L31.6374 28.8009L14.741 11.9045ZM15.6433 46.6359C16.2738 46.9291 17.1079 46.8535 18.0196 46.3365L37.8846 35.0482L32.5566 29.7202L15.6433 46.6359ZM39.0578 34.3829L45.321 30.8245C47.2768 29.7115 47.2768 27.8929 45.321 26.7813L39.055 23.2208L33.4758 28.8009L39.0578 34.3829ZM37.8827 22.5547L18.0196 11.2679C17.1079 10.7498 16.2738 10.6747 15.6432 10.9683L32.5565 27.8816L37.8827 22.5547Z" fill="black"/>
<path d="M95.8903 31.2516C92.5975 31.2516 89.9137 33.7562 89.9137 37.2058C89.9137 40.6344 92.5975 43.16 95.8903 43.16C99.1845 43.16 101.868 40.6344 101.868 37.2058C101.867 33.7562 99.1831 31.2516 95.8903 31.2516ZM95.8903 40.8164C94.0857 40.8164 92.5303 39.3282 92.5303 37.2072C92.5303 35.0638 94.0871 33.598 95.8903 33.598C97.6949 33.598 99.2503 35.0638 99.2503 37.2072C99.2503 39.3268 97.6949 40.8164 95.8903 40.8164ZM82.8507 31.2516C79.5579 31.2516 76.8741 33.7562 76.8741 37.2058C76.8741 40.6344 79.5579 43.16 82.8507 43.16C86.1449 43.16 88.8287 40.6344 88.8287 37.2058C88.8287 33.7562 86.1449 31.2516 82.8507 31.2516ZM82.8507 40.8164C81.0461 40.8164 79.4907 39.3282 79.4907 37.2072C79.4907 35.0638 81.0475 33.598 82.8507 33.598C84.6553 33.598 86.2107 35.0638 86.2107 37.2072C86.2121 39.3268 84.6553 40.8164 82.8507 40.8164ZM67.3415 33.08V35.6056H73.3867C73.2061 37.0266 72.7329 38.064 72.0105 38.785C71.1313 39.6642 69.7551 40.6344 67.3415 40.6344C63.6203 40.6344 60.7111 37.6342 60.7111 33.913C60.7111 30.1918 63.6203 27.1916 67.3415 27.1916C69.3491 27.1916 70.8149 27.9812 71.8971 28.9962L73.6793 27.214C72.1673 25.7706 70.1611 24.666 67.3415 24.666C62.2441 24.666 57.9587 28.8156 57.9587 33.913C57.9587 39.0104 62.2441 43.16 67.3415 43.16C70.0925 43.16 72.1687 42.257 73.7913 40.5658C75.4601 38.897 75.9795 36.5506 75.9795 34.6564C75.9795 34.0712 75.9347 33.5294 75.8437 33.0786H67.3415V33.08ZM130.773 35.0414C130.277 33.7114 128.765 31.2516 125.675 31.2516C122.608 31.2516 120.059 33.6652 120.059 37.2058C120.059 40.5434 122.586 43.16 125.968 43.16C128.697 43.16 130.276 41.4912 130.931 40.521L128.901 39.1672C128.225 40.1598 127.299 40.8136 125.968 40.8136C124.638 40.8136 123.69 40.2046 123.081 39.009L131.043 35.7162L130.773 35.0414ZM122.653 37.0266C122.586 34.725 124.435 33.5532 125.766 33.5532C126.804 33.5532 127.683 34.0726 127.977 34.816L122.653 37.0266ZM116.181 42.8002H118.796V25.2988H116.181V42.8002ZM111.894 32.583H111.804C111.218 31.883 110.089 31.2516 108.67 31.2516C105.692 31.2516 102.963 33.8682 102.963 37.2296C102.963 40.5672 105.692 43.1614 108.67 43.1614C110.091 43.1614 111.218 42.53 111.804 41.809H111.894V42.6658C111.894 44.9436 110.676 46.1616 108.714 46.1616C107.113 46.1616 106.12 45.0122 105.714 44.042L103.436 44.9898C104.09 46.5676 105.826 48.508 108.714 48.508C111.782 48.508 114.376 46.7034 114.376 42.3046V31.6142H111.895V32.583H111.894ZM108.895 40.8164C107.09 40.8164 105.58 39.3044 105.58 37.2296C105.58 35.131 107.09 33.598 108.895 33.598C110.676 33.598 112.074 35.131 112.074 37.2296C112.074 39.3044 110.676 40.8164 108.895 40.8164ZM143.028 25.2988H136.769V42.8002H139.38V36.1698H143.027C145.922 36.1698 148.77 34.074 148.77 30.735C148.77 27.396 145.924 25.2988 143.028 25.2988ZM143.096 33.7338H139.38V27.7348H143.096C145.049 27.7348 146.157 29.3518 146.157 30.735C146.157 32.0902 145.049 33.7338 143.096 33.7338ZM159.24 31.2208C157.349 31.2208 155.39 32.0538 154.58 33.9004L156.898 34.8678C157.394 33.9004 158.318 33.584 159.285 33.584C160.636 33.584 162.01 34.3946 162.032 35.8352V36.0158C161.559 35.7456 160.545 35.341 159.308 35.341C156.809 35.341 154.263 36.7144 154.263 39.2806C154.263 41.6228 156.313 43.1306 158.609 43.1306C160.365 43.1306 161.333 42.3424 161.941 41.4184H162.031V42.7694H164.553V36.0592C164.555 32.954 162.234 31.2208 159.24 31.2208ZM158.924 40.8122C158.07 40.8122 156.876 40.3838 156.876 39.3254C156.876 37.9744 158.363 37.4564 159.646 37.4564C160.793 37.4564 161.335 37.7042 162.032 38.0416C161.829 39.6642 160.433 40.8122 158.924 40.8122ZM173.74 31.603L170.746 39.191H170.656L167.548 31.603H164.734L169.395 42.208L166.737 48.1076H169.462L176.645 31.603H173.74ZM150.212 42.8002H152.823V25.2988H150.212V42.8002Z" fill="black"/>
<path d="M66.8852 15.1401C66.8852 16.3133 66.538 17.2471 65.8422 17.9443C65.0526 18.7731 64.0222 19.1875 62.7566 19.1875C61.5442 19.1875 60.5124 18.7675 59.6654 17.9275C58.817 17.0861 58.3928 16.0445 58.3928 14.8013C58.3928 13.5567 58.817 12.5151 59.6654 11.6751C60.5124 10.8337 61.5442 10.4137 62.7566 10.4137C63.3586 10.4137 63.934 10.5313 64.48 10.7651C65.0274 11.0003 65.4656 11.3125 65.7932 11.7031L65.0554 12.4423C64.4996 11.7773 63.7338 11.4455 62.7552 11.4455C61.8704 11.4455 61.106 11.7563 60.4606 12.3779C59.8152 12.9995 59.4932 13.8073 59.4932 14.7999C59.4932 15.7925 59.8152 16.6003 60.4606 17.2219C61.106 17.8435 61.8704 18.1543 62.7552 18.1543C63.6932 18.1543 64.4758 17.8421 65.1016 17.2163C65.5076 16.8089 65.7428 16.2419 65.8058 15.5153H62.7552V14.5059H66.825C66.867 14.7257 66.8852 14.9371 66.8852 15.1401Z" fill="black"/>
<path d="M73.3394 11.6318H69.5146V14.2946H72.9642V15.304H69.5146V17.9668H73.3394V19H68.4352V10.6H73.3394V11.6318Z" fill="black"/>
<path d="M77.8906 19H76.8112V11.6318H74.4648V10.6H80.237V11.6318H77.8906V19Z" fill="black"/>
<path d="M84.4131 19V10.6H85.4925V19H84.4131Z" fill="black"/>
<path d="M90.2794 19H89.2V11.6318H86.8536V10.6H92.6258V11.6318H90.2794V19Z" fill="black"/>
<path d="M103.552 17.915C102.726 18.7634 101.7 19.1876 100.472 19.1876C99.2446 19.1876 98.2184 18.7634 97.3938 17.915C96.5678 17.0666 96.1562 16.0278 96.1562 14.8C96.1562 13.5722 96.5678 12.5334 97.3938 11.685C98.2184 10.8366 99.2446 10.411 100.472 10.411C101.693 10.411 102.718 10.838 103.547 11.6906C104.376 12.5432 104.79 13.5792 104.79 14.8C104.79 16.0278 104.377 17.0666 103.552 17.915ZM98.1904 17.2108C98.812 17.8408 99.5722 18.1544 100.472 18.1544C101.373 18.1544 102.134 17.8394 102.754 17.2108C103.376 16.5808 103.688 15.7772 103.688 14.8C103.688 13.8228 103.376 13.0192 102.754 12.3892C102.134 11.7592 101.373 11.4456 100.472 11.4456C99.5722 11.4456 98.812 11.7606 98.1904 12.3892C97.5702 13.0192 97.258 13.8228 97.258 14.8C97.258 15.7772 97.5702 16.5808 98.1904 17.2108Z" fill="black"/>
<path d="M106.305 19V10.6H107.618L111.7 17.1338H111.747L111.7 15.5154V10.6H112.78V19H111.653L107.381 12.1484H107.335L107.381 13.7668V19H106.305Z" fill="black"/>
<path d="M66.8852 15.1401C66.8852 16.3133 66.538 17.2471 65.8422 17.9443C65.0526 18.7731 64.0222 19.1875 62.7566 19.1875C61.5442 19.1875 60.5124 18.7675 59.6654 17.9275C58.817 17.0861 58.3928 16.0445 58.3928 14.8013C58.3928 13.5567 58.817 12.5151 59.6654 11.6751C60.5124 10.8337 61.5442 10.4137 62.7566 10.4137C63.3586 10.4137 63.934 10.5313 64.48 10.7651C65.0274 11.0003 65.4656 11.3125 65.7932 11.7031L65.0554 12.4423C64.4996 11.7773 63.7338 11.4455 62.7552 11.4455C61.8704 11.4455 61.106 11.7563 60.4606 12.3779C59.8152 12.9995 59.4932 13.8073 59.4932 14.7999C59.4932 15.7925 59.8152 16.6003 60.4606 17.2219C61.106 17.8435 61.8704 18.1543 62.7552 18.1543C63.6932 18.1543 64.4758 17.8421 65.1016 17.2163C65.5076 16.8089 65.7428 16.2419 65.8058 15.5153H62.7552V14.5059H66.825C66.867 14.7257 66.8852 14.9371 66.8852 15.1401Z" stroke="black" stroke-width="0.26" stroke-miterlimit="10"/>
<path d="M73.3394 11.6318H69.5146V14.2946H72.9642V15.304H69.5146V17.9668H73.3394V19H68.4352V10.6H73.3394V11.6318Z" stroke="black" stroke-width="0.26" stroke-miterlimit="10"/>
<path d="M77.8906 19H76.8112V11.6318H74.4648V10.6H80.237V11.6318H77.8906V19Z" stroke="black" stroke-width="0.26" stroke-miterlimit="10"/>
<path d="M84.4131 19V10.6H85.4925V19H84.4131Z" stroke="black" stroke-width="0.26" stroke-miterlimit="10"/>
<path d="M90.2794 19H89.2V11.6318H86.8536V10.6H92.6258V11.6318H90.2794V19Z" stroke="black" stroke-width="0.26" stroke-miterlimit="10"/>
<path d="M103.552 17.915C102.726 18.7634 101.7 19.1876 100.472 19.1876C99.2446 19.1876 98.2184 18.7634 97.3938 17.915C96.5678 17.0666 96.1562 16.0278 96.1562 14.8C96.1562 13.5722 96.5678 12.5334 97.3938 11.685C98.2184 10.8366 99.2446 10.411 100.472 10.411C101.693 10.411 102.718 10.838 103.547 11.6906C104.376 12.5432 104.79 13.5792 104.79 14.8C104.79 16.0278 104.377 17.0666 103.552 17.915ZM98.1904 17.2108C98.812 17.8408 99.5722 18.1544 100.472 18.1544C101.373 18.1544 102.134 17.8394 102.754 17.2108C103.376 16.5808 103.688 15.7772 103.688 14.8C103.688 13.8228 103.376 13.0192 102.754 12.3892C102.134 11.7592 101.373 11.4456 100.472 11.4456C99.5722 11.4456 98.812 11.7606 98.1904 12.3892C97.5702 13.0192 97.258 13.8228 97.258 14.8C97.258 15.7772 97.5702 16.5808 98.1904 17.2108Z" stroke="black" stroke-width="0.26" stroke-miterlimit="10"/>
<path d="M106.305 19V10.6H107.618L111.7 17.1338H111.747L111.7 15.5154V10.6H112.78V19H111.653L107.381 12.1484H107.335L107.381 13.7668V19H106.305Z" stroke="black" stroke-width="0.26" stroke-miterlimit="10"/>
</svg>
