<svg width="108" height="37" viewBox="0 0 108 37" fill="none" xmlns="http://www.w3.org/2000/svg">
<g id="Type=Black Background, Digital Store=Appstore, Size=Small">
<rect x="0.45" y="1.04998" width="107.1" height="35.1" rx="5.85" fill="black"/>
<rect x="0.45" y="1.04998" width="107.1" height="35.1" rx="5.85" stroke="#A6A6A6" stroke-width="0.9"/>
<g id="Logo">
<path d="M22.2919 18.8707C22.3114 17.3578 23.1239 15.9263 24.4129 15.1338C23.5997 13.9725 22.2378 13.2363 20.8208 13.1919C19.3095 13.0333 17.8443 14.0963 17.0742 14.0963C16.2892 14.0963 15.1034 13.2077 13.8265 13.2339C12.1622 13.2877 10.6106 14.234 9.80092 15.689C8.06032 18.7026 9.35865 23.1315 11.026 25.5675C11.8602 26.7603 12.8352 28.0927 14.1109 28.0455C15.3592 27.9937 15.8255 27.2494 17.3323 27.2494C18.8252 27.2494 19.2626 28.0455 20.5642 28.0154C21.9038 27.9937 22.7477 26.8173 23.5527 25.6132C24.1521 24.7633 24.6133 23.8239 24.9193 22.8299C23.3451 22.1641 22.2938 20.5799 22.2919 18.8707Z" fill="white"/>
<path d="M19.8334 11.5899C20.5638 10.7131 20.9237 9.58617 20.8365 8.44836C19.7207 8.56556 18.6899 9.09887 17.9497 9.94201C17.2258 10.7658 16.8491 11.8729 16.9204 12.9673C18.0366 12.9788 19.134 12.4599 19.8334 11.5899Z" fill="white"/>
</g>
<g id="App Store">
<path d="M73.3733 17.8808V19.9427H72.0808V21.2949H73.3733V25.8894C73.3733 27.4582 74.083 28.0858 75.8685 28.0858C76.1822 28.0858 76.4811 28.0484 76.7425 28.0036V26.6663C76.5184 26.6888 76.3765 26.7037 76.13 26.7037C75.3306 26.7037 74.9795 26.3302 74.9795 25.4785V21.2949H76.7425V19.9427H74.9795V17.8808H73.3733Z" fill="white"/>
<path d="M81.291 28.1978C83.6667 28.1978 85.1235 26.6066 85.1235 23.9694C85.1235 21.3472 83.6592 19.7485 81.291 19.7485C78.9153 19.7485 77.4511 21.3472 77.4511 23.9694C77.4511 26.6066 78.9079 28.1978 81.291 28.1978ZM81.291 26.7709C79.894 26.7709 79.1096 25.7474 79.1096 23.9694C79.1096 22.2063 79.894 21.1754 81.291 21.1754C82.6806 21.1754 83.4725 22.2063 83.4725 23.9694C83.4725 25.74 82.6806 26.7709 81.291 26.7709Z" fill="white"/>
<path d="M86.3699 28.041H87.9761V23.2373C87.9761 22.0943 88.8352 21.3248 90.053 21.3248C90.3368 21.3248 90.815 21.3771 90.9494 21.4219V19.8381C90.7776 19.7933 90.4713 19.7709 90.2323 19.7709C89.1714 19.7709 88.2675 20.3536 88.0359 21.153H87.9163V19.9054H86.3699V28.041Z" fill="white"/>
<path d="M94.9376 21.1156C96.1254 21.1156 96.9024 21.9449 96.9397 23.2224H92.8309C92.9205 21.9523 93.7498 21.1156 94.9376 21.1156ZM96.9323 25.8446C96.6334 26.4796 95.9686 26.8307 94.9974 26.8307C93.7124 26.8307 92.8832 25.9267 92.8309 24.4998V24.4102H98.5758V23.8499C98.5758 21.2949 97.2087 19.7485 94.9451 19.7485C92.6516 19.7485 91.1948 21.3995 91.1948 23.9993C91.1948 26.5991 92.6217 28.1978 94.9525 28.1978C96.8127 28.1978 98.1126 27.3014 98.4787 25.8446H96.9323Z" fill="white"/>
<path d="M62.84 25.0366C62.9639 27.0343 64.6287 28.312 67.1065 28.312C69.7547 28.312 71.4117 26.9724 71.4117 24.8353C71.4117 23.155 70.4671 22.2258 68.1751 21.6916L66.9439 21.3896C65.4882 21.0489 64.8997 20.592 64.8997 19.7945C64.8997 18.7879 65.8134 18.1297 67.184 18.1297C68.4848 18.1297 69.383 18.7724 69.5456 19.8022H71.2336C71.133 17.9206 69.4759 16.5966 67.2072 16.5966C64.7681 16.5966 63.142 17.9206 63.142 19.9106C63.142 21.5522 64.0635 22.5278 66.0844 23.0002L67.5247 23.3486C69.0036 23.697 69.654 24.2081 69.654 25.0598C69.654 26.051 68.6319 26.7711 67.2382 26.7711C65.7437 26.7711 64.7061 26.0974 64.559 25.0366H62.84Z" fill="white"/>
<path d="M46.2014 19.7709C45.0958 19.7709 44.1395 20.3237 43.6465 21.2501H43.5269V19.9054H41.9805V30.7453H43.5867V26.8083H43.7137C44.1395 27.6674 45.0584 28.1754 46.2164 28.1754C48.2708 28.1754 49.5782 26.5543 49.5782 23.9694C49.5782 21.3846 48.2708 19.7709 46.2014 19.7709ZM45.7457 26.7336C44.401 26.7336 43.5568 25.6727 43.5568 23.9769C43.5568 22.2736 44.401 21.2127 45.7532 21.2127C47.1129 21.2127 47.9272 22.2512 47.9272 23.9694C47.9272 25.6952 47.1129 26.7336 45.7457 26.7336Z" fill="white"/>
<path d="M55.1986 19.7709C54.0929 19.7709 53.1366 20.3237 52.6436 21.2501H52.524V19.9054H50.9776V30.7453H52.5838V26.8083H52.7108C53.1366 27.6674 54.0555 28.1754 55.2135 28.1754C57.2679 28.1754 58.5753 26.5543 58.5753 23.9694C58.5753 21.3846 57.2679 19.7709 55.1986 19.7709ZM54.7428 26.7336C53.3981 26.7336 52.5539 25.6727 52.5539 23.9769C52.5539 22.2736 53.3981 21.2127 54.7503 21.2127C56.11 21.2127 56.9243 22.2512 56.9243 23.9694C56.9243 25.6952 56.11 26.7336 54.7428 26.7336Z" fill="white"/>
<path d="M39.0987 28.041H40.9416L36.9074 16.8676H35.0413L31.0071 28.041H32.788L33.8178 25.0753H38.0766L39.0987 28.041ZM35.8853 18.8963H36.0169L37.6352 23.6196H34.2592L35.8853 18.8963Z" fill="white"/>
</g>
<g id="Download on the">
<path d="M32.0859 8.43989V13.83H34.0321C35.6383 13.83 36.5684 12.8401 36.5684 11.1181C36.5684 9.42229 35.6308 8.43989 34.0321 8.43989H32.0859ZM32.9227 9.2019H33.9387C35.0555 9.2019 35.7167 9.91162 35.7167 11.1293C35.7167 12.3657 35.0667 13.068 33.9387 13.068H32.9227V9.2019Z" fill="white"/>
<path d="M39.4169 13.9084C40.6048 13.9084 41.3332 13.1128 41.3332 11.7942C41.3332 10.4831 40.601 9.68376 39.4169 9.68376C38.2291 9.68376 37.497 10.4831 37.497 11.7942C37.497 13.1128 38.2254 13.9084 39.4169 13.9084ZM39.4169 13.195C38.7184 13.195 38.3262 12.6833 38.3262 11.7942C38.3262 10.9127 38.7184 10.3972 39.4169 10.3972C40.1117 10.3972 40.5077 10.9127 40.5077 11.7942C40.5077 12.6795 40.1117 13.195 39.4169 13.195Z" fill="white"/>
<path d="M47.5361 9.76221H46.733L46.0083 12.8663H45.9448L45.1081 9.76221H44.3386L43.5019 12.8663H43.4422L42.7138 9.76221H41.8995L43.0201 13.83H43.8456L44.6823 10.8343H44.7458L45.5862 13.83H46.4192L47.5361 9.76221Z" fill="white"/>
<path d="M48.461 13.83H49.2641V11.4506C49.2641 10.8156 49.6413 10.4196 50.2353 10.4196C50.8292 10.4196 51.1131 10.7446 51.1131 11.3983V13.83H51.9162V11.1966C51.9162 10.2291 51.4156 9.68376 50.5079 9.68376C49.8953 9.68376 49.4919 9.95645 49.294 10.4084H49.2342V9.76221H48.461V13.83Z" fill="white"/>
<path d="M53.181 13.83H53.9841V8.17468H53.181V13.83Z" fill="white"/>
<path d="M57.0045 13.9084C58.1923 13.9084 58.9207 13.1128 58.9207 11.7942C58.9207 10.4831 58.1886 9.68376 57.0045 9.68376C55.8166 9.68376 55.0845 10.4831 55.0845 11.7942C55.0845 13.1128 55.8129 13.9084 57.0045 13.9084ZM57.0045 13.195C56.306 13.195 55.9137 12.6833 55.9137 11.7942C55.9137 10.9127 56.306 10.3972 57.0045 10.3972C57.6992 10.3972 58.0952 10.9127 58.0952 11.7942C58.0952 12.6795 57.6992 13.195 57.0045 13.195Z" fill="white"/>
<path d="M61.3136 13.2211C60.8765 13.2211 60.559 13.0082 60.559 12.6422C60.559 12.2836 60.813 12.0931 61.3733 12.0557L62.3669 11.9922V12.3321C62.3669 12.8364 61.9187 13.2211 61.3136 13.2211ZM61.1081 13.8972C61.6423 13.8972 62.0868 13.6656 62.3296 13.2585H62.3931V13.83H63.1663V11.0509C63.1663 10.1918 62.5911 9.68376 61.5713 9.68376C60.6487 9.68376 59.9913 10.132 59.9091 10.8305H60.686C60.7757 10.5429 61.0857 10.3785 61.534 10.3785C62.083 10.3785 62.3669 10.6213 62.3669 11.0509V11.402L61.265 11.4655C60.2976 11.5253 59.7522 11.9474 59.7522 12.6795C59.7522 13.4229 60.3237 13.8972 61.1081 13.8972Z" fill="white"/>
<path d="M65.8916 13.8972C66.4519 13.8972 66.9263 13.632 67.1691 13.1875H67.2326V13.83H68.0021V8.17468H67.199V10.4084H67.1392C66.9188 9.96018 66.4482 9.69497 65.8916 9.69497C64.8644 9.69497 64.2032 10.5093 64.2032 11.7942C64.2032 13.0829 64.8569 13.8972 65.8916 13.8972ZM66.1195 10.4159C66.7918 10.4159 67.2139 10.95 67.2139 11.798C67.2139 12.6496 66.7956 13.1763 66.1195 13.1763C65.4396 13.1763 65.0325 12.6571 65.0325 11.7942C65.0325 10.9388 65.4434 10.4159 66.1195 10.4159Z" fill="white"/>
<path d="M73.2099 13.9084C74.3978 13.9084 75.1262 13.1128 75.1262 11.7942C75.1262 10.4831 74.394 9.68376 73.2099 9.68376C72.0221 9.68376 71.2899 10.4831 71.2899 11.7942C71.2899 13.1128 72.0183 13.9084 73.2099 13.9084ZM73.2099 13.195C72.5114 13.195 72.1192 12.6833 72.1192 11.7942C72.1192 10.9127 72.5114 10.3972 73.2099 10.3972C73.9047 10.3972 74.3006 10.9127 74.3006 11.7942C74.3006 12.6795 73.9047 13.195 73.2099 13.195Z" fill="white"/>
<path d="M76.1892 13.83H76.9923V11.4506C76.9923 10.8156 77.3696 10.4196 77.9635 10.4196C78.5574 10.4196 78.8413 10.7446 78.8413 11.3983V13.83H79.6444V11.1966C79.6444 10.2291 79.1439 9.68376 78.2362 9.68376C77.6236 9.68376 77.2202 9.95645 77.0222 10.4084H76.9625V9.76221H76.1892V13.83Z" fill="white"/>
<path d="M83.3432 8.74993V9.78088H82.697V10.457H83.3432V12.7542C83.3432 13.5386 83.698 13.8524 84.5908 13.8524C84.7477 13.8524 84.8971 13.8337 85.0278 13.8113V13.1427C84.9158 13.1539 84.8448 13.1614 84.7215 13.1614C84.3218 13.1614 84.1463 12.9746 84.1463 12.5488V10.457H85.0278V9.78088H84.1463V8.74993H83.3432Z" fill="white"/>
<path d="M86.1058 13.83H86.9089V11.4543C86.9089 10.838 87.275 10.4234 87.9324 10.4234C88.5002 10.4234 88.8028 10.7521 88.8028 11.402V13.83H89.6059V11.2041C89.6059 10.2366 89.0717 9.6875 88.2051 9.6875C87.5925 9.6875 87.1629 9.96018 86.965 10.4159H86.9015V8.17468H86.1058V13.83Z" fill="white"/>
<path d="M92.503 10.3673C93.0969 10.3673 93.4854 10.782 93.5041 11.4207H91.4496C91.4945 10.7857 91.9091 10.3673 92.503 10.3673ZM93.5003 12.7318C93.3509 13.0493 93.0185 13.2249 92.5329 13.2249C91.8904 13.2249 91.4758 12.7729 91.4496 12.0594V12.0146H94.3221V11.7345C94.3221 10.457 93.6386 9.68376 92.5067 9.68376C91.36 9.68376 90.6316 10.5093 90.6316 11.8092C90.6316 13.1091 91.345 13.9084 92.5105 13.9084C93.4406 13.9084 94.0905 13.4602 94.2736 12.7318H93.5003Z" fill="white"/>
</g>
</g>
</svg>
