<svg width="190" height="57" viewBox="0 0 190 57" fill="none" xmlns="http://www.w3.org/2000/svg">
<rect x="1.15" y="1.24998" width="187.7" height="54.7" rx="5.85" stroke="white" stroke-width="1.3"/>
<path fill-rule="evenodd" clip-rule="evenodd" d="M14.741 11.7045C14.5617 12.0876 14.4622 12.5631 14.4622 13.1202V44.0826C14.4622 44.6409 14.5618 45.1164 14.7413 45.4994L31.6374 28.6009L14.741 11.7045ZM15.6433 46.4359C16.2738 46.7291 17.1079 46.6534 18.0196 46.1364L37.8846 34.8481L32.5566 29.5201L15.6433 46.4359ZM39.0578 34.1828L45.321 30.6244C47.2768 29.5114 47.2768 27.6928 45.321 26.5812L39.055 23.0207L33.4758 28.6008L39.0578 34.1828ZM37.8827 22.3546L18.0196 11.0678C17.1079 10.5497 16.2738 10.4746 15.6432 10.7682L32.5565 27.6816L37.8827 22.3546Z" fill="white"/>
<path d="M95.8903 31.0515C92.5975 31.0515 89.9137 33.5561 89.9137 37.0057C89.9137 40.4343 92.5975 42.9599 95.8903 42.9599C99.1845 42.9599 101.868 40.4343 101.868 37.0057C101.867 33.5561 99.1831 31.0515 95.8903 31.0515ZM95.8903 40.6163C94.0857 40.6163 92.5303 39.1281 92.5303 37.0071C92.5303 34.8637 94.0871 33.3979 95.8903 33.3979C97.6949 33.3979 99.2503 34.8637 99.2503 37.0071C99.2503 39.1267 97.6949 40.6163 95.8903 40.6163ZM82.8507 31.0515C79.5579 31.0515 76.8741 33.5561 76.8741 37.0057C76.8741 40.4343 79.5579 42.9599 82.8507 42.9599C86.1449 42.9599 88.8287 40.4343 88.8287 37.0057C88.8287 33.5561 86.1449 31.0515 82.8507 31.0515ZM82.8507 40.6163C81.0461 40.6163 79.4907 39.1281 79.4907 37.0071C79.4907 34.8637 81.0475 33.3979 82.8507 33.3979C84.6553 33.3979 86.2107 34.8637 86.2107 37.0071C86.2121 39.1267 84.6553 40.6163 82.8507 40.6163ZM67.3415 32.8799V35.4055H73.3867C73.2061 36.8265 72.7329 37.8639 72.0105 38.5849C71.1313 39.4641 69.7551 40.4343 67.3415 40.4343C63.6203 40.4343 60.7111 37.4341 60.7111 33.7129C60.7111 29.9917 63.6203 26.9915 67.3415 26.9915C69.3491 26.9915 70.8149 27.7811 71.8971 28.7961L73.6793 27.0139C72.1673 25.5705 70.1611 24.4659 67.3415 24.4659C62.2441 24.4659 57.9587 28.6155 57.9587 33.7129C57.9587 38.8103 62.2441 42.9599 67.3415 42.9599C70.0925 42.9599 72.1687 42.0569 73.7913 40.3657C75.4601 38.6969 75.9795 36.3505 75.9795 34.4563C75.9795 33.8711 75.9347 33.3293 75.8437 32.8785H67.3415V32.8799ZM130.773 34.8413C130.277 33.5113 128.765 31.0515 125.675 31.0515C122.608 31.0515 120.059 33.4651 120.059 37.0057C120.059 40.3433 122.586 42.9599 125.968 42.9599C128.697 42.9599 130.276 41.2911 130.931 40.3209L128.901 38.9671C128.225 39.9597 127.299 40.6135 125.968 40.6135C124.638 40.6135 123.69 40.0045 123.081 38.8089L131.043 35.5161L130.773 34.8413ZM122.653 36.8265C122.586 34.5249 124.435 33.3531 125.766 33.3531C126.804 33.3531 127.683 33.8725 127.977 34.6159L122.653 36.8265ZM116.181 42.6001H118.796V25.0987H116.181V42.6001ZM111.894 32.3829H111.804C111.218 31.6829 110.089 31.0515 108.67 31.0515C105.692 31.0515 102.963 33.6681 102.963 37.0295C102.963 40.3671 105.692 42.9613 108.67 42.9613C110.091 42.9613 111.218 42.3299 111.804 41.6089H111.894V42.4657C111.894 44.7435 110.676 45.9615 108.714 45.9615C107.113 45.9615 106.12 44.8121 105.714 43.8419L103.436 44.7897C104.09 46.3675 105.826 48.3079 108.714 48.3079C111.782 48.3079 114.376 46.5033 114.376 42.1045V31.4141H111.895V32.3829H111.894ZM108.895 40.6163C107.09 40.6163 105.58 39.1043 105.58 37.0295C105.58 34.9309 107.09 33.3979 108.895 33.3979C110.676 33.3979 112.074 34.9309 112.074 37.0295C112.074 39.1043 110.676 40.6163 108.895 40.6163ZM143.028 25.0987H136.769V42.6001H139.38V35.9697H143.027C145.922 35.9697 148.77 33.8739 148.77 30.5349C148.77 27.1959 145.924 25.0987 143.028 25.0987ZM143.096 33.5337H139.38V27.5347H143.096C145.049 27.5347 146.157 29.1517 146.157 30.5349C146.157 31.8901 145.049 33.5337 143.096 33.5337ZM159.24 31.0207C157.349 31.0207 155.39 31.8537 154.58 33.7003L156.898 34.6677C157.394 33.7003 158.318 33.3839 159.285 33.3839C160.636 33.3839 162.01 34.1945 162.032 35.6351V35.8157C161.559 35.5455 160.545 35.1409 159.308 35.1409C156.809 35.1409 154.263 36.5143 154.263 39.0805C154.263 41.4227 156.313 42.9305 158.609 42.9305C160.365 42.9305 161.333 42.1423 161.941 41.2183H162.031V42.5693H164.553V35.8591C164.555 32.7539 162.234 31.0207 159.24 31.0207ZM158.924 40.6121C158.07 40.6121 156.876 40.1837 156.876 39.1253C156.876 37.7743 158.363 37.2563 159.646 37.2563C160.793 37.2563 161.335 37.5041 162.032 37.8415C161.829 39.4641 160.433 40.6121 158.924 40.6121ZM173.74 31.4029L170.746 38.9909H170.656L167.548 31.4029H164.734L169.395 42.0079L166.737 47.9075H169.462L176.645 31.4029H173.74ZM150.212 42.6001H152.823V25.0987H150.212V42.6001Z" fill="white"/>
<path d="M66.8852 14.9402C66.8852 16.1134 66.538 17.0472 65.8422 17.7444C65.0526 18.5732 64.0222 18.9876 62.7566 18.9876C61.5442 18.9876 60.5124 18.5676 59.6654 17.7276C58.817 16.8862 58.3928 15.8446 58.3928 14.6014C58.3928 13.3568 58.817 12.3152 59.6654 11.4752C60.5124 10.6338 61.5442 10.2138 62.7566 10.2138C63.3586 10.2138 63.934 10.3314 64.48 10.5652C65.0274 10.8004 65.4656 11.1126 65.7932 11.5032L65.0554 12.2424C64.4996 11.5774 63.7338 11.2456 62.7552 11.2456C61.8704 11.2456 61.106 11.5564 60.4606 12.178C59.8152 12.7996 59.4932 13.6074 59.4932 14.6C59.4932 15.5926 59.8152 16.4004 60.4606 17.022C61.106 17.6436 61.8704 17.9544 62.7552 17.9544C63.6932 17.9544 64.4758 17.6422 65.1016 17.0164C65.5076 16.609 65.7428 16.042 65.8058 15.3154H62.7552V14.306H66.825C66.867 14.5258 66.8852 14.7372 66.8852 14.9402Z" fill="white"/>
<path d="M73.3394 11.4319H69.5146V14.0947H72.9642V15.1041H69.5146V17.7669H73.3394V18.8001H68.4352V10.4001H73.3394V11.4319Z" fill="white"/>
<path d="M77.8906 18.8001H76.8112V11.4319H74.4648V10.4001H80.237V11.4319H77.8906V18.8001Z" fill="white"/>
<path d="M84.4131 18.8001V10.4001H85.4925V18.8001H84.4131Z" fill="white"/>
<path d="M90.2794 18.8001H89.2V11.4319H86.8536V10.4001H92.6258V11.4319H90.2794V18.8001Z" fill="white"/>
<path d="M103.552 17.7151C102.726 18.5635 101.7 18.9877 100.472 18.9877C99.2446 18.9877 98.2184 18.5635 97.3938 17.7151C96.5678 16.8667 96.1562 15.8279 96.1562 14.6001C96.1562 13.3723 96.5678 12.3335 97.3938 11.4851C98.2184 10.6367 99.2446 10.2111 100.472 10.2111C101.693 10.2111 102.718 10.6381 103.547 11.4907C104.376 12.3433 104.79 13.3793 104.79 14.6001C104.79 15.8279 104.377 16.8667 103.552 17.7151ZM98.1904 17.0109C98.812 17.6409 99.5722 17.9545 100.472 17.9545C101.373 17.9545 102.134 17.6395 102.754 17.0109C103.376 16.3809 103.688 15.5773 103.688 14.6001C103.688 13.6229 103.376 12.8193 102.754 12.1893C102.134 11.5593 101.373 11.2457 100.472 11.2457C99.5722 11.2457 98.812 11.5607 98.1904 12.1893C97.5702 12.8193 97.258 13.6229 97.258 14.6001C97.258 15.5773 97.5702 16.3809 98.1904 17.0109Z" fill="white"/>
<path d="M106.305 18.8001V10.4001H107.618L111.7 16.9339H111.747L111.7 15.3155V10.4001H112.78V18.8001H111.653L107.381 11.9485H107.335L107.381 13.5669V18.8001H106.305Z" fill="white"/>
<path d="M66.8852 14.9402C66.8852 16.1134 66.538 17.0472 65.8422 17.7444C65.0526 18.5732 64.0222 18.9876 62.7566 18.9876C61.5442 18.9876 60.5124 18.5676 59.6654 17.7276C58.817 16.8862 58.3928 15.8446 58.3928 14.6014C58.3928 13.3568 58.817 12.3152 59.6654 11.4752C60.5124 10.6338 61.5442 10.2138 62.7566 10.2138C63.3586 10.2138 63.934 10.3314 64.48 10.5652C65.0274 10.8004 65.4656 11.1126 65.7932 11.5032L65.0554 12.2424C64.4996 11.5774 63.7338 11.2456 62.7552 11.2456C61.8704 11.2456 61.106 11.5564 60.4606 12.178C59.8152 12.7996 59.4932 13.6074 59.4932 14.6C59.4932 15.5926 59.8152 16.4004 60.4606 17.022C61.106 17.6436 61.8704 17.9544 62.7552 17.9544C63.6932 17.9544 64.4758 17.6422 65.1016 17.0164C65.5076 16.609 65.7428 16.042 65.8058 15.3154H62.7552V14.306H66.825C66.867 14.5258 66.8852 14.7372 66.8852 14.9402Z" stroke="white" stroke-width="0.26" stroke-miterlimit="10"/>
<path d="M73.3394 11.4319H69.5146V14.0947H72.9642V15.1041H69.5146V17.7669H73.3394V18.8001H68.4352V10.4001H73.3394V11.4319Z" stroke="white" stroke-width="0.26" stroke-miterlimit="10"/>
<path d="M77.8906 18.8001H76.8112V11.4319H74.4648V10.4001H80.237V11.4319H77.8906V18.8001Z" stroke="white" stroke-width="0.26" stroke-miterlimit="10"/>
<path d="M84.4131 18.8001V10.4001H85.4925V18.8001H84.4131Z" stroke="white" stroke-width="0.26" stroke-miterlimit="10"/>
<path d="M90.2794 18.8001H89.2V11.4319H86.8536V10.4001H92.6258V11.4319H90.2794V18.8001Z" stroke="white" stroke-width="0.26" stroke-miterlimit="10"/>
<path d="M103.552 17.7151C102.726 18.5635 101.7 18.9877 100.472 18.9877C99.2446 18.9877 98.2184 18.5635 97.3938 17.7151C96.5678 16.8667 96.1562 15.8279 96.1562 14.6001C96.1562 13.3723 96.5678 12.3335 97.3938 11.4851C98.2184 10.6367 99.2446 10.2111 100.472 10.2111C101.693 10.2111 102.718 10.6381 103.547 11.4907C104.376 12.3433 104.79 13.3793 104.79 14.6001C104.79 15.8279 104.377 16.8667 103.552 17.7151ZM98.1904 17.0109C98.812 17.6409 99.5722 17.9545 100.472 17.9545C101.373 17.9545 102.134 17.6395 102.754 17.0109C103.376 16.3809 103.688 15.5773 103.688 14.6001C103.688 13.6229 103.376 12.8193 102.754 12.1893C102.134 11.5593 101.373 11.2457 100.472 11.2457C99.5722 11.2457 98.812 11.5607 98.1904 12.1893C97.5702 12.8193 97.258 13.6229 97.258 14.6001C97.258 15.5773 97.5702 16.3809 98.1904 17.0109Z" stroke="white" stroke-width="0.26" stroke-miterlimit="10"/>
<path d="M106.305 18.8001V10.4001H107.618L111.7 16.9339H111.747L111.7 15.3155V10.4001H112.78V18.8001H111.653L107.381 11.9485H107.335L107.381 13.5669V18.8001H106.305Z" stroke="white" stroke-width="0.26" stroke-miterlimit="10"/>
</svg>
