<svg width="108" height="36" viewBox="0 0 108 36" fill="none" xmlns="http://www.w3.org/2000/svg">
<rect x="0.45" y="0.45" width="107.1" height="35.1" rx="5.85" fill="white"/>
<rect x="0.45" y="0.45" width="107.1" height="35.1" rx="5.85" stroke="black" stroke-width="0.9"/>
<path d="M22.2919 18.2707C22.3114 16.7578 23.1239 15.3263 24.4129 14.5339C23.5997 13.3726 22.2378 12.6363 20.8208 12.5919C19.3095 12.4333 17.8443 13.4963 17.0742 13.4963C16.2892 13.4963 15.1034 12.6077 13.8265 12.634C12.1622 12.6877 10.6106 13.634 9.80092 15.089C8.06032 18.1026 9.35865 22.5316 11.026 24.9675C11.8602 26.1603 12.8352 27.4927 14.1109 27.4455C15.3592 27.3937 15.8255 26.6495 17.3323 26.6495C18.8252 26.6495 19.2626 27.4455 20.5642 27.4155C21.9038 27.3937 22.7477 26.2173 23.5527 25.0132C24.1521 24.1633 24.6133 23.2239 24.9193 22.23C23.3451 21.5642 22.2938 19.9799 22.2919 18.2707Z" fill="black"/>
<path d="M19.8334 10.9899C20.5638 10.1132 20.9237 8.9862 20.8365 7.84839C19.7207 7.96559 18.6899 8.49889 17.9497 9.34204C17.2258 10.1658 16.8491 11.273 16.9204 12.3673C18.0366 12.3788 19.134 11.8599 19.8334 10.9899Z" fill="black"/>
<path d="M73.3733 17.2808V19.3427H72.0808V20.6949H73.3733V25.2894C73.3733 26.8583 74.083 27.4858 75.8685 27.4858C76.1822 27.4858 76.4811 27.4484 76.7425 27.4036V26.0664C76.5184 26.0888 76.3765 26.1037 76.13 26.1037C75.3306 26.1037 74.9795 25.7302 74.9795 24.8785V20.6949H76.7425V19.3427H74.9795V17.2808H73.3733Z" fill="black"/>
<path d="M81.291 27.5979C83.6667 27.5979 85.1235 26.0066 85.1235 23.3694C85.1235 20.7472 83.6592 19.1485 81.291 19.1485C78.9153 19.1485 77.4511 20.7472 77.4511 23.3694C77.4511 26.0066 78.9079 27.5979 81.291 27.5979ZM81.291 26.171C79.894 26.171 79.1096 25.1475 79.1096 23.3694C79.1096 21.6064 79.894 20.5754 81.291 20.5754C82.6806 20.5754 83.4725 21.6064 83.4725 23.3694C83.4725 25.14 82.6806 26.171 81.291 26.171Z" fill="black"/>
<path d="M86.3699 27.441H87.9761V22.6373C87.9761 21.4943 88.8352 20.7248 90.053 20.7248C90.3368 20.7248 90.815 20.7771 90.9494 20.8219V19.2381C90.7776 19.1933 90.4713 19.1709 90.2323 19.1709C89.1714 19.1709 88.2675 19.7536 88.0359 20.553H87.9163V19.3054H86.3699V27.441Z" fill="black"/>
<path d="M94.9376 20.5156C96.1254 20.5156 96.9024 21.3449 96.9397 22.6224H92.8309C92.9205 21.3524 93.7498 20.5156 94.9376 20.5156ZM96.9323 25.2446C96.6334 25.8796 95.9686 26.2307 94.9974 26.2307C93.7124 26.2307 92.8832 25.3268 92.8309 23.8999V23.8102H98.5758V23.2499C98.5758 20.6949 97.2087 19.1485 94.9451 19.1485C92.6516 19.1485 91.1948 20.7995 91.1948 23.3993C91.1948 25.9991 92.6217 27.5979 94.9525 27.5979C96.8127 27.5979 98.1126 26.7014 98.4787 25.2446H96.9323Z" fill="black"/>
<path d="M62.84 24.4366C62.9639 26.4344 64.6287 27.712 67.1065 27.712C69.7547 27.712 71.4117 26.3724 71.4117 24.2353C71.4117 22.555 70.4671 21.6259 68.1751 21.0916L66.9439 20.7896C65.4882 20.4489 64.8997 19.9921 64.8997 19.1945C64.8997 18.1879 65.8134 17.5297 67.184 17.5297C68.4848 17.5297 69.383 18.1724 69.5456 19.2023H71.2336C71.133 17.3207 69.4759 15.9966 67.2072 15.9966C64.7681 15.9966 63.142 17.3207 63.142 19.3107C63.142 20.9522 64.0635 21.9278 66.0844 22.4002L67.5247 22.7486C69.0036 23.0971 69.654 23.6081 69.654 24.4599C69.654 25.451 68.6319 26.1711 67.2382 26.1711C65.7437 26.1711 64.7061 25.4974 64.559 24.4366H62.84Z" fill="black"/>
<path d="M46.2014 19.1709C45.0958 19.1709 44.1395 19.7237 43.6465 20.6501H43.5269V19.3054H41.9805V30.1454H43.5867V26.2083H43.7137C44.1395 27.0674 45.0584 27.5755 46.2164 27.5755C48.2708 27.5755 49.5782 25.9543 49.5782 23.3694C49.5782 20.7846 48.2708 19.1709 46.2014 19.1709ZM45.7457 26.1336C44.401 26.1336 43.5568 25.0728 43.5568 23.3769C43.5568 21.6736 44.401 20.6128 45.7532 20.6128C47.1129 20.6128 47.9272 21.6512 47.9272 23.3694C47.9272 25.0952 47.1129 26.1336 45.7457 26.1336Z" fill="black"/>
<path d="M55.1986 19.1709C54.0929 19.1709 53.1366 19.7237 52.6436 20.6501H52.524V19.3054H50.9776V30.1454H52.5838V26.2083H52.7108C53.1366 27.0674 54.0555 27.5755 55.2135 27.5755C57.2679 27.5755 58.5753 25.9543 58.5753 23.3694C58.5753 20.7846 57.2679 19.1709 55.1986 19.1709ZM54.7428 26.1336C53.3981 26.1336 52.5539 25.0728 52.5539 23.3769C52.5539 21.6736 53.3981 20.6128 54.7503 20.6128C56.11 20.6128 56.9243 21.6512 56.9243 23.3694C56.9243 25.0952 56.11 26.1336 54.7428 26.1336Z" fill="black"/>
<path d="M39.0987 27.441H40.9416L36.9074 16.2676H35.0413L31.0071 27.441H32.788L33.8178 24.4753H38.0766L39.0987 27.441ZM35.8853 18.2963H36.0169L37.6352 23.0196H34.2592L35.8853 18.2963Z" fill="black"/>
<path d="M32.0859 7.83979V13.2299H34.0321C35.6383 13.2299 36.5684 12.24 36.5684 10.518C36.5684 8.82219 35.6308 7.83979 34.0321 7.83979H32.0859ZM32.9227 8.60181H33.9387C35.0555 8.60181 35.7167 9.31152 35.7167 10.5292C35.7167 11.7656 35.0667 12.4679 33.9387 12.4679H32.9227V8.60181Z" fill="black"/>
<path d="M39.4169 13.3083C40.6048 13.3083 41.3332 12.5127 41.3332 11.1941C41.3332 9.88303 40.601 9.08367 39.4169 9.08367C38.2291 9.08367 37.497 9.88303 37.497 11.1941C37.497 12.5127 38.2254 13.3083 39.4169 13.3083ZM39.4169 12.5949C38.7184 12.5949 38.3262 12.0832 38.3262 11.1941C38.3262 10.3126 38.7184 9.79712 39.4169 9.79712C40.1117 9.79712 40.5077 10.3126 40.5077 11.1941C40.5077 12.0794 40.1117 12.5949 39.4169 12.5949Z" fill="black"/>
<path d="M47.5361 9.16211H46.733L46.0083 12.2662H45.9448L45.1081 9.16211H44.3386L43.5019 12.2662H43.4422L42.7138 9.16211H41.8995L43.0201 13.2299H43.8456L44.6823 10.2342H44.7458L45.5862 13.2299H46.4192L47.5361 9.16211Z" fill="black"/>
<path d="M48.461 13.2299H49.2641V10.8505C49.2641 10.2155 49.6413 9.81953 50.2353 9.81953C50.8292 9.81953 51.1131 10.1445 51.1131 10.7982V13.2299H51.9162V10.5965C51.9162 9.62903 51.4156 9.08367 50.5079 9.08367C49.8953 9.08367 49.4919 9.35635 49.294 9.80833H49.2342V9.16211H48.461V13.2299Z" fill="black"/>
<path d="M53.181 13.2299H53.9841V7.57458H53.181V13.2299Z" fill="black"/>
<path d="M57.0045 13.3083C58.1923 13.3083 58.9207 12.5127 58.9207 11.1941C58.9207 9.88303 58.1886 9.08367 57.0045 9.08367C55.8166 9.08367 55.0845 9.88303 55.0845 11.1941C55.0845 12.5127 55.8129 13.3083 57.0045 13.3083ZM57.0045 12.5949C56.306 12.5949 55.9137 12.0832 55.9137 11.1941C55.9137 10.3126 56.306 9.79712 57.0045 9.79712C57.6992 9.79712 58.0952 10.3126 58.0952 11.1941C58.0952 12.0794 57.6992 12.5949 57.0045 12.5949Z" fill="black"/>
<path d="M61.3136 12.621C60.8765 12.621 60.559 12.4081 60.559 12.0421C60.559 11.6835 60.813 11.493 61.3733 11.4556L62.3669 11.3921V11.732C62.3669 12.2363 61.9187 12.621 61.3136 12.621ZM61.1081 13.2971C61.6423 13.2971 62.0868 13.0656 62.3296 12.6584H62.3931V13.2299H63.1663V10.4508C63.1663 9.59167 62.5911 9.08367 61.5713 9.08367C60.6487 9.08367 59.9913 9.53191 59.9091 10.2304H60.686C60.7757 9.9428 61.0857 9.77844 61.534 9.77844C62.083 9.77844 62.3669 10.0212 62.3669 10.4508V10.8019L61.265 10.8654C60.2976 10.9252 59.7522 11.3473 59.7522 12.0794C59.7522 12.8228 60.3237 13.2971 61.1081 13.2971Z" fill="black"/>
<path d="M65.8916 13.2971C66.4519 13.2971 66.9263 13.0319 67.1691 12.5874H67.2326V13.2299H68.0021V7.57458H67.199V9.80833H67.1392C66.9188 9.36008 66.4482 9.09487 65.8916 9.09487C64.8644 9.09487 64.2032 9.90918 64.2032 11.1941C64.2032 12.4828 64.8569 13.2971 65.8916 13.2971ZM66.1195 9.8158C66.7918 9.8158 67.2139 10.35 67.2139 11.1979C67.2139 12.0495 66.7956 12.5762 66.1195 12.5762C65.4396 12.5762 65.0325 12.057 65.0325 11.1941C65.0325 10.3387 65.4434 9.8158 66.1195 9.8158Z" fill="black"/>
<path d="M73.2099 13.3083C74.3978 13.3083 75.1262 12.5127 75.1262 11.1941C75.1262 9.88303 74.394 9.08367 73.2099 9.08367C72.0221 9.08367 71.2899 9.88303 71.2899 11.1941C71.2899 12.5127 72.0183 13.3083 73.2099 13.3083ZM73.2099 12.5949C72.5114 12.5949 72.1192 12.0832 72.1192 11.1941C72.1192 10.3126 72.5114 9.79712 73.2099 9.79712C73.9047 9.79712 74.3006 10.3126 74.3006 11.1941C74.3006 12.0794 73.9047 12.5949 73.2099 12.5949Z" fill="black"/>
<path d="M76.1892 13.2299H76.9923V10.8505C76.9923 10.2155 77.3696 9.81953 77.9635 9.81953C78.5574 9.81953 78.8413 10.1445 78.8413 10.7982V13.2299H79.6444V10.5965C79.6444 9.62903 79.1439 9.08367 78.2362 9.08367C77.6236 9.08367 77.2202 9.35635 77.0222 9.80833H76.9625V9.16211H76.1892V13.2299Z" fill="black"/>
<path d="M83.3432 8.14983V9.18079H82.697V9.85688H83.3432V12.1541C83.3432 12.9385 83.698 13.2523 84.5908 13.2523C84.7477 13.2523 84.8971 13.2336 85.0278 13.2112V12.5426C84.9158 12.5538 84.8448 12.5613 84.7215 12.5613C84.3218 12.5613 84.1463 12.3745 84.1463 11.9487V9.85688H85.0278V9.18079H84.1463V8.14983H83.3432Z" fill="black"/>
<path d="M86.1058 13.2299H86.9089V10.8542C86.9089 10.2379 87.275 9.82327 87.9324 9.82327C88.5002 9.82327 88.8028 10.152 88.8028 10.8019V13.2299H89.6059V10.604C89.6059 9.6365 89.0717 9.0874 88.2051 9.0874C87.5925 9.0874 87.1629 9.36008 86.965 9.8158H86.9015V7.57458H86.1058V13.2299Z" fill="black"/>
<path d="M92.503 9.76724C93.0969 9.76724 93.4854 10.1819 93.5041 10.8206H91.4496C91.4945 10.1856 91.9091 9.76724 92.503 9.76724ZM93.5003 12.1317C93.3509 12.4492 93.0185 12.6248 92.5329 12.6248C91.8904 12.6248 91.4758 12.1728 91.4496 11.4594V11.4145H94.3221V11.1344C94.3221 9.85688 93.6386 9.08367 92.5067 9.08367C91.36 9.08367 90.6316 9.90918 90.6316 11.2091C90.6316 12.509 91.345 13.3083 92.5105 13.3083C93.4406 13.3083 94.0905 12.8601 94.2736 12.1317H93.5003Z" fill="black"/>
</svg>
