<svg width="123" height="36" viewBox="0 0 123 36" fill="none" xmlns="http://www.w3.org/2000/svg">
<rect x="1.25005" y="0.45" width="120.6" height="35.1" rx="4.05" fill="white"/>
<rect x="1.25005" y="0.45" width="120.6" height="35.1" rx="4.05" stroke="black" stroke-width="0.9"/>
<path fill-rule="evenodd" clip-rule="evenodd" d="M9.94066 7.16988C9.83436 7.41063 9.77563 7.70561 9.77563 8.04874V27.9531C9.77563 28.297 9.83443 28.592 9.94086 28.8327L20.7714 18.0006L9.94066 7.16988ZM10.5664 29.48C10.9678 29.6518 11.4915 29.5973 12.0625 29.2735L24.8039 22.0331L21.4078 18.637L10.5664 29.48ZM25.6161 21.5726L29.6134 19.3014C30.8707 18.5859 30.8707 17.4169 29.6134 16.7022L25.6143 14.4299L22.0441 18.0006L25.6161 21.5726ZM24.8027 13.9687L12.0625 6.72935C11.4915 6.40483 10.9677 6.35068 10.5663 6.52271L21.4077 17.3642L24.8027 13.9687Z" fill="black"/>
<path d="M62.1224 19.576C60.0056 19.576 58.2803 21.1861 58.2803 23.4037C58.2803 25.6078 60.0056 27.2314 62.1224 27.2314C64.2401 27.2314 65.9654 25.6078 65.9654 23.4037C65.9645 21.1861 64.2392 19.576 62.1224 19.576ZM62.1224 25.7248C60.9623 25.7248 59.9624 24.7681 59.9624 23.4046C59.9624 22.0267 60.9632 21.0844 62.1224 21.0844C63.2825 21.0844 64.2824 22.0267 64.2824 23.4046C64.2824 24.7672 63.2825 25.7248 62.1224 25.7248ZM53.7398 19.576C51.623 19.576 49.8977 21.1861 49.8977 23.4037C49.8977 25.6078 51.623 27.2314 53.7398 27.2314C55.8575 27.2314 57.5828 25.6078 57.5828 23.4037C57.5828 21.1861 55.8575 19.576 53.7398 19.576ZM53.7398 25.7248C52.5797 25.7248 51.5798 24.7681 51.5798 23.4046C51.5798 22.0267 52.5806 21.0844 53.7398 21.0844C54.8999 21.0844 55.8998 22.0267 55.8998 23.4046C55.9007 24.7672 54.8999 25.7248 53.7398 25.7248ZM43.7696 20.7514V22.375H47.6558C47.5397 23.2885 47.2355 23.9554 46.7711 24.4189C46.2059 24.9841 45.3212 25.6078 43.7696 25.6078C41.3774 25.6078 39.5072 23.6791 39.5072 21.2869C39.5072 18.8947 41.3774 16.966 43.7696 16.966C45.0602 16.966 46.0025 17.4736 46.6982 18.1261L47.8439 16.9804C46.8719 16.0525 45.5822 15.3424 43.7696 15.3424C40.4927 15.3424 37.7378 18.01 37.7378 21.2869C37.7378 24.5638 40.4927 27.2314 43.7696 27.2314C45.5381 27.2314 46.8728 26.6509 47.9159 25.5637C48.9887 24.4909 49.3226 22.9825 49.3226 21.7648C49.3226 21.3886 49.2938 21.0403 49.2353 20.7505H43.7696V20.7514ZM84.5468 22.0123C84.2282 21.1573 83.2562 19.576 81.2699 19.576C79.298 19.576 77.6591 21.1276 77.6591 23.4037C77.6591 25.5493 79.2836 27.2314 81.458 27.2314C83.2121 27.2314 84.2273 26.1586 84.6485 25.5349L83.3435 24.6646C82.9088 25.3027 82.3139 25.723 81.458 25.723C80.603 25.723 79.9937 25.3315 79.6022 24.5629L84.7205 22.4461L84.5468 22.0123ZM79.3268 23.2885C79.2836 21.8089 80.4725 21.0556 81.3284 21.0556C81.9953 21.0556 82.5605 21.3895 82.7495 21.8674L79.3268 23.2885ZM75.1661 27.0001H76.8473V15.7492H75.1661V27.0001ZM72.4103 20.4319H72.3527C71.9756 19.9819 71.2502 19.576 70.3376 19.576C68.4233 19.576 66.6692 21.2581 66.6692 23.419C66.6692 25.5646 68.4233 27.2323 70.3376 27.2323C71.2511 27.2323 71.9756 26.8264 72.3527 26.3629H72.4103V26.9137C72.4103 28.378 71.6273 29.161 70.3664 29.161C69.3368 29.161 68.6987 28.4221 68.4377 27.7984L66.9734 28.4077C67.3937 29.422 68.5097 30.6694 70.3664 30.6694C72.3383 30.6694 74.006 29.5093 74.006 26.6815V19.8091H72.4112V20.4319H72.4103ZM70.4825 25.7248C69.3224 25.7248 68.3513 24.7528 68.3513 23.419C68.3513 22.0699 69.3224 21.0844 70.4825 21.0844C71.6273 21.0844 72.5264 22.0699 72.5264 23.419C72.5264 24.7528 71.6273 25.7248 70.4825 25.7248ZM92.4254 15.7492H88.4015V27.0001H90.08V22.7377H92.4245C94.2857 22.7377 96.1163 21.3904 96.1163 19.2439C96.1163 17.0974 94.2866 15.7492 92.4254 15.7492ZM92.4686 21.1717H90.08V17.3152H92.4686C93.7241 17.3152 94.4369 18.3547 94.4369 19.2439C94.4369 20.1151 93.7241 21.1717 92.4686 21.1717ZM102.847 19.5562C101.631 19.5562 100.372 20.0917 99.8513 21.2788L101.342 21.9007C101.66 21.2788 102.254 21.0754 102.876 21.0754C103.745 21.0754 104.628 21.5965 104.642 22.5226V22.6387C104.338 22.465 103.686 22.2049 102.891 22.2049C101.284 22.2049 99.6479 23.0878 99.6479 24.7375C99.6479 26.2432 100.965 27.2125 102.441 27.2125C103.57 27.2125 104.193 26.7058 104.583 26.1118H104.641V26.9803H106.263V22.6666C106.264 20.6704 104.772 19.5562 102.847 19.5562ZM102.644 25.7221C102.095 25.7221 101.327 25.4467 101.327 24.7663C101.327 23.8978 102.283 23.5648 103.108 23.5648C103.845 23.5648 104.194 23.7241 104.642 23.941C104.511 24.9841 103.614 25.7221 102.644 25.7221ZM112.169 19.8019L110.244 24.6799H110.186L108.188 19.8019H106.379L109.375 26.6194L107.667 30.412H109.418L114.036 19.8019H112.169ZM97.0433 27.0001H98.7218V15.7492H97.0433V27.0001Z" fill="black"/>
<path d="M43.4762 9.21862C43.4762 9.97282 43.253 10.5731 42.8057 11.0213C42.2981 11.5541 41.6357 11.8205 40.8221 11.8205C40.0427 11.8205 39.3794 11.5505 38.8349 11.0105C38.2895 10.4696 38.0168 9.80002 38.0168 9.00082C38.0168 8.20072 38.2895 7.53112 38.8349 6.99112C39.3794 6.45022 40.0427 6.18023 40.8221 6.18023C41.2091 6.18023 41.579 6.25582 41.93 6.40612C42.2819 6.55732 42.5636 6.75802 42.7742 7.00912L42.2999 7.48432C41.9426 7.05682 41.4503 6.84352 40.8212 6.84352C40.2524 6.84352 39.761 7.04333 39.3461 7.44293C38.9312 7.84253 38.7242 8.36182 38.7242 8.99992C38.7242 9.63802 38.9312 10.1573 39.3461 10.5569C39.761 10.9565 40.2524 11.1563 40.8212 11.1563C41.4242 11.1563 41.9273 10.9556 42.3296 10.5533C42.5906 10.2914 42.7418 9.92692 42.7823 9.45982H40.8212V8.81093H43.4375C43.4645 8.95223 43.4762 9.08812 43.4762 9.21862Z" fill="black"/>
<path d="M47.6253 6.96328H45.1665V8.67508H47.3841V9.32398H45.1665V11.0358H47.6253V11.7H44.4726V6.29998H47.6253V6.96328Z" fill="black"/>
<path d="M50.5511 11.7H49.8572V6.96328H48.3488V6.29998H52.0595V6.96328H50.5511V11.7Z" fill="black"/>
<path d="M54.7442 11.7V6.29998H55.4381V11.7H54.7442Z" fill="black"/>
<path d="M58.5153 11.7H57.8214V6.96328H56.313V6.29998H60.0237V6.96328H58.5153V11.7Z" fill="black"/>
<path d="M67.048 11.0025C66.517 11.5479 65.8573 11.8206 65.068 11.8206C64.2787 11.8206 63.619 11.5479 63.0889 11.0025C62.5579 10.4571 62.2933 9.78927 62.2933 8.99997C62.2933 8.21067 62.5579 7.54287 63.0889 6.99747C63.619 6.45207 64.2787 6.17847 65.068 6.17847C65.8528 6.17847 66.5116 6.45297 67.0444 7.00107C67.5772 7.54917 67.8436 8.21517 67.8436 8.99997C67.8436 9.78927 67.5781 10.4571 67.048 11.0025ZM63.601 10.5498C64.0006 10.9548 64.4893 11.1564 65.068 11.1564C65.6467 11.1564 66.1363 10.9539 66.535 10.5498C66.9346 10.1448 67.1353 9.62817 67.1353 8.99997C67.1353 8.37177 66.9346 7.85517 66.535 7.45017C66.1363 7.04517 65.6467 6.84357 65.068 6.84357C64.4893 6.84357 64.0006 7.04607 63.601 7.45017C63.2023 7.85517 63.0016 8.37177 63.0016 8.99997C63.0016 9.62817 63.2023 10.1448 63.601 10.5498Z" fill="black"/>
<path d="M68.8175 11.7V6.29998H69.6617L72.2861 10.5003H72.3158L72.2861 9.45988V6.29998H72.98V11.7H72.2555L69.5096 7.29538H69.4799L69.5096 8.33577V11.7H68.8175Z" fill="black"/>
<path d="M43.4762 9.21862C43.4762 9.97282 43.253 10.5731 42.8057 11.0213C42.2981 11.5541 41.6357 11.8205 40.8221 11.8205C40.0427 11.8205 39.3794 11.5505 38.8349 11.0105C38.2895 10.4696 38.0168 9.80002 38.0168 9.00082C38.0168 8.20072 38.2895 7.53112 38.8349 6.99112C39.3794 6.45022 40.0427 6.18023 40.8221 6.18023C41.2091 6.18023 41.579 6.25582 41.93 6.40612C42.2819 6.55732 42.5636 6.75802 42.7742 7.00912L42.2999 7.48432C41.9426 7.05682 41.4503 6.84352 40.8212 6.84352C40.2524 6.84352 39.761 7.04333 39.3461 7.44293C38.9312 7.84253 38.7242 8.36182 38.7242 8.99992C38.7242 9.63802 38.9312 10.1573 39.3461 10.5569C39.761 10.9565 40.2524 11.1563 40.8212 11.1563C41.4242 11.1563 41.9273 10.9556 42.3296 10.5533C42.5906 10.2914 42.7418 9.92692 42.7823 9.45982H40.8212V8.81093H43.4375C43.4645 8.95223 43.4762 9.08812 43.4762 9.21862Z" stroke="black" stroke-width="0.18" stroke-miterlimit="10"/>
<path d="M47.6253 6.96328H45.1665V8.67508H47.3841V9.32398H45.1665V11.0358H47.6253V11.7H44.4726V6.29998H47.6253V6.96328Z" stroke="black" stroke-width="0.18" stroke-miterlimit="10"/>
<path d="M50.5511 11.7H49.8572V6.96328H48.3488V6.29998H52.0595V6.96328H50.5511V11.7Z" stroke="black" stroke-width="0.18" stroke-miterlimit="10"/>
<path d="M54.7442 11.7V6.29998H55.4381V11.7H54.7442Z" stroke="black" stroke-width="0.18" stroke-miterlimit="10"/>
<path d="M58.5153 11.7H57.8214V6.96328H56.313V6.29998H60.0237V6.96328H58.5153V11.7Z" stroke="black" stroke-width="0.18" stroke-miterlimit="10"/>
<path d="M67.048 11.0025C66.517 11.5479 65.8573 11.8206 65.068 11.8206C64.2787 11.8206 63.619 11.5479 63.0889 11.0025C62.5579 10.4571 62.2933 9.78927 62.2933 8.99997C62.2933 8.21067 62.5579 7.54287 63.0889 6.99747C63.619 6.45207 64.2787 6.17847 65.068 6.17847C65.8528 6.17847 66.5116 6.45297 67.0444 7.00107C67.5772 7.54917 67.8436 8.21517 67.8436 8.99997C67.8436 9.78927 67.5781 10.4571 67.048 11.0025ZM63.601 10.5498C64.0006 10.9548 64.4893 11.1564 65.068 11.1564C65.6467 11.1564 66.1363 10.9539 66.535 10.5498C66.9346 10.1448 67.1353 9.62817 67.1353 8.99997C67.1353 8.37177 66.9346 7.85517 66.535 7.45017C66.1363 7.04517 65.6467 6.84357 65.068 6.84357C64.4893 6.84357 64.0006 7.04607 63.601 7.45017C63.2023 7.85517 63.0016 8.37177 63.0016 8.99997C63.0016 9.62817 63.2023 10.1448 63.601 10.5498Z" stroke="black" stroke-width="0.18" stroke-miterlimit="10"/>
<path d="M68.8175 11.7V6.29998H69.6617L72.2861 10.5003H72.3158L72.2861 9.45988V6.29998H72.98V11.7H72.2555L69.5096 7.29538H69.4799L69.5096 8.33577V11.7H68.8175Z" stroke="black" stroke-width="0.18" stroke-miterlimit="10"/>
</svg>
