<svg width="169" height="56" viewBox="0 0 169 56" fill="none" xmlns="http://www.w3.org/2000/svg">
<rect x="1.45005" y="0.65" width="166.7" height="54.7" rx="8.45" fill="black"/>
<rect x="1.45005" y="0.65" width="166.7" height="54.7" rx="8.45" stroke="#A6A6A6" stroke-width="1.3"/>
<path d="M35.4765 28.4211C35.5068 26.0677 36.7707 23.8409 38.7757 22.6082C37.5108 20.8018 35.3922 19.6564 33.1881 19.5875C30.8371 19.3407 28.558 20.9942 27.36 20.9942C26.1388 20.9942 24.2943 19.612 22.3081 19.6529C19.7191 19.7365 17.3056 21.2084 16.046 23.4719C13.3384 28.1597 15.358 35.0491 17.9517 38.8384C19.2493 40.6939 20.7659 42.7665 22.7504 42.693C24.6922 42.6125 25.4175 41.4547 27.7615 41.4547C30.0838 41.4547 30.7642 42.693 32.7889 42.6463C34.8727 42.6124 36.1855 40.7825 37.4376 38.9095C38.37 37.5874 39.0875 36.1262 39.5634 34.58C37.1147 33.5443 35.4794 31.0799 35.4765 28.4211Z" fill="white"/>
<path d="M31.6522 17.0955C32.7883 15.7316 33.348 13.9785 33.2125 12.2086C31.4767 12.3909 29.8734 13.2205 28.7219 14.5321C27.5959 15.8135 27.0099 17.5357 27.1207 19.238C28.8571 19.2559 30.5641 18.4488 31.6522 17.0955Z" fill="white"/>
<path d="M114.936 26.8814V30.0888H112.926V32.1922H114.936V39.3392C114.936 41.7796 116.04 42.7558 118.818 42.7558C119.306 42.7558 119.771 42.6977 120.177 42.628V40.5478C119.829 40.5826 119.608 40.6059 119.224 40.6059C117.981 40.6059 117.435 40.0248 117.435 38.7V32.1922H120.177V30.0888H117.435V26.8814H114.936Z" fill="white"/>
<path d="M127.253 42.9301C130.948 42.9301 133.214 40.4548 133.214 36.3526C133.214 32.2736 130.937 29.7866 127.253 29.7866C123.557 29.7866 121.279 32.2736 121.279 36.3526C121.279 40.4548 123.546 42.9301 127.253 42.9301ZM127.253 40.7105C125.08 40.7105 123.859 39.1184 123.859 36.3526C123.859 33.61 125.08 32.0063 127.253 32.0063C129.414 32.0063 130.646 33.61 130.646 36.3526C130.646 39.1068 129.414 40.7105 127.253 40.7105Z" fill="white"/>
<path d="M135.153 42.6861H137.652V35.2137C137.652 33.4357 138.988 32.2387 140.882 32.2387C141.324 32.2387 142.068 32.32 142.277 32.3898V29.9261C142.01 29.8564 141.533 29.8215 141.161 29.8215C139.511 29.8215 138.105 30.728 137.745 31.9714H137.559V30.0307H135.153V42.6861Z" fill="white"/>
<path d="M148.481 31.9133C150.328 31.9133 151.537 33.2032 151.595 35.1905H145.204C145.343 33.2149 146.633 31.9133 148.481 31.9133ZM151.584 39.2695C151.119 40.2573 150.084 40.8034 148.574 40.8034C146.575 40.8034 145.285 39.3973 145.204 37.1777V37.0382H154.14V36.1666C154.14 32.1922 152.013 29.7866 148.492 29.7866C144.925 29.7866 142.659 32.3549 142.659 36.3991C142.659 40.4432 144.878 42.9301 148.504 42.9301C151.398 42.9301 153.42 41.5356 153.989 39.2695H151.584Z" fill="white"/>
<path d="M98.5511 38.0126C98.7439 41.1202 101.334 43.1076 105.188 43.1076C109.307 43.1076 111.885 41.0239 111.885 37.6995C111.885 35.0857 110.415 33.6403 106.85 32.8092L104.935 32.3395C102.67 31.8095 101.755 31.0988 101.755 29.8582C101.755 28.2924 103.176 27.2686 105.308 27.2686C107.332 27.2686 108.729 28.2683 108.982 29.8703H111.608C111.451 26.9433 108.874 24.8837 105.344 24.8837C101.55 24.8837 99.0209 26.9433 99.0209 30.0389C99.0209 32.5924 100.454 34.1101 103.598 34.8448L105.838 35.3868C108.139 35.9289 109.151 36.7238 109.151 38.0488C109.151 39.5905 107.561 40.7107 105.393 40.7107C103.068 40.7107 101.454 39.6628 101.225 38.0126H98.5511Z" fill="white"/>
<path d="M72.6689 29.8215C70.9489 29.8215 69.4614 30.6815 68.6945 32.1225H68.5085V30.0307H66.1029V46.8929H68.6015V40.7686H68.799C69.4614 42.105 70.8908 42.8952 72.6921 42.8952C75.8879 42.8952 77.9216 40.3735 77.9216 36.3526C77.9216 32.3317 75.8879 29.8215 72.6689 29.8215ZM71.96 40.6524C69.8682 40.6524 68.555 39.0022 68.555 36.3642C68.555 33.7146 69.8682 32.0644 71.9716 32.0644C74.0866 32.0644 75.3533 33.6797 75.3533 36.3526C75.3533 39.037 74.0866 40.6524 71.96 40.6524Z" fill="white"/>
<path d="M86.6644 29.8215C84.9445 29.8215 83.457 30.6815 82.69 32.1225H82.504V30.0307H80.0985V46.8929H82.597V40.7686H82.7946C83.457 42.105 84.8864 42.8952 86.6876 42.8952C89.8834 42.8952 91.9171 40.3735 91.9171 36.3526C91.9171 32.3317 89.8834 29.8215 86.6644 29.8215ZM85.9555 40.6524C83.8637 40.6524 82.5505 39.0022 82.5505 36.3642C82.5505 33.7146 83.8637 32.0644 85.9671 32.0644C88.0822 32.0644 89.3489 33.6797 89.3489 36.3526C89.3489 39.037 88.0822 40.6524 85.9555 40.6524Z" fill="white"/>
<path d="M61.6201 42.6861H64.4868L58.2114 25.3052H55.3086L49.0332 42.6861H51.8035L53.4055 38.0729H60.0302L61.6201 42.6861ZM56.6215 28.461H56.8263L59.3437 35.8084H54.0921L56.6215 28.461Z" fill="white"/>
<path d="M50.7117 12.1954V20.58H53.739C56.2375 20.58 57.6843 19.0402 57.6843 16.3615C57.6843 13.7236 56.2259 12.1954 53.739 12.1954H50.7117ZM52.0132 13.3807H53.5937C55.3311 13.3807 56.3595 14.4847 56.3595 16.379C56.3595 18.3023 55.3485 19.3947 53.5937 19.3947H52.0132V13.3807Z" fill="white"/>
<path d="M62.1154 20.702C63.9632 20.702 65.0963 19.4644 65.0963 17.4133C65.0963 15.3738 63.9574 14.1303 62.1154 14.1303C60.2677 14.1303 59.1288 15.3738 59.1288 17.4133C59.1288 19.4644 60.2619 20.702 62.1154 20.702ZM62.1154 19.5922C61.0289 19.5922 60.4188 18.7962 60.4188 17.4133C60.4188 16.042 61.0289 15.2401 62.1154 15.2401C63.1962 15.2401 63.8121 16.042 63.8121 17.4133C63.8121 18.7904 63.1962 19.5922 62.1154 19.5922Z" fill="white"/>
<path d="M74.7453 14.2523H73.496L72.3687 19.0809H72.27L70.9684 14.2523H69.7714L68.4699 19.0809H68.3769L67.2438 14.2523H65.9771L67.7203 20.58H69.0044L70.306 15.9199H70.4048L71.7121 20.58H73.0079L74.7453 14.2523Z" fill="white"/>
<path d="M76.1839 20.58H77.4332V16.8787C77.4332 15.8909 78.0201 15.275 78.944 15.275C79.8678 15.275 80.3094 15.7805 80.3094 16.7973V20.58H81.5587V16.4836C81.5587 14.9786 80.7801 14.1303 79.3681 14.1303C78.4152 14.1303 77.7877 14.5545 77.4797 15.2575H77.3867V14.2523H76.1839V20.58Z" fill="white"/>
<path d="M83.5262 20.58H84.7754V11.7828H83.5262V20.58Z" fill="white"/>
<path d="M89.4738 20.702C91.3216 20.702 92.4546 19.4644 92.4546 17.4133C92.4546 15.3738 91.3158 14.1303 89.4738 14.1303C87.6261 14.1303 86.4872 15.3738 86.4872 17.4133C86.4872 19.4644 87.6203 20.702 89.4738 20.702ZM89.4738 19.5922C88.3873 19.5922 87.7771 18.7962 87.7771 17.4133C87.7771 16.042 88.3873 15.2401 89.4738 15.2401C90.5546 15.2401 91.1705 16.042 91.1705 17.4133C91.1705 18.7904 90.5546 19.5922 89.4738 19.5922Z" fill="white"/>
<path d="M96.1769 19.6329C95.497 19.6329 95.0031 19.3017 95.0031 18.7322C95.0031 18.1744 95.3983 17.8781 96.2698 17.82L97.8154 17.7212V18.25C97.8154 19.0344 97.1182 19.6329 96.1769 19.6329ZM95.8573 20.6846C96.6882 20.6846 97.3797 20.3243 97.7573 19.691H97.8561V20.58H99.0589V16.257C99.0589 14.9205 98.1641 14.1303 96.5778 14.1303C95.1426 14.1303 94.1199 14.8276 93.9921 15.9141H95.2007C95.3402 15.4667 95.8224 15.2111 96.5197 15.2111C97.3738 15.2111 97.8154 15.5887 97.8154 16.257V16.8031L96.1013 16.9019C94.5964 16.9949 93.7481 17.6515 93.7481 18.7904C93.7481 19.9467 94.6371 20.6846 95.8573 20.6846Z" fill="white"/>
<path d="M103.298 20.6846C104.17 20.6846 104.908 20.272 105.285 19.5806H105.384V20.58H106.581V11.7828H105.332V15.2575H105.239C104.896 14.5603 104.164 14.1477 103.298 14.1477C101.7 14.1477 100.672 15.4144 100.672 17.4133C100.672 19.4179 101.689 20.6846 103.298 20.6846ZM103.653 15.2692C104.699 15.2692 105.355 16.1001 105.355 17.4191C105.355 18.7439 104.704 19.5632 103.653 19.5632C102.595 19.5632 101.962 18.7555 101.962 17.4133C101.962 16.0826 102.601 15.2692 103.653 15.2692Z" fill="white"/>
<path d="M114.682 20.702C116.53 20.702 117.663 19.4644 117.663 17.4133C117.663 15.3738 116.524 14.1303 114.682 14.1303C112.835 14.1303 111.696 15.3738 111.696 17.4133C111.696 19.4644 112.829 20.702 114.682 20.702ZM114.682 19.5922C113.596 19.5922 112.986 18.7962 112.986 17.4133C112.986 16.042 113.596 15.2401 114.682 15.2401C115.763 15.2401 116.379 16.042 116.379 17.4133C116.379 18.7904 115.763 19.5922 114.682 19.5922Z" fill="white"/>
<path d="M119.317 20.58H120.566V16.8787C120.566 15.8909 121.153 15.275 122.077 15.275C123.001 15.275 123.442 15.7805 123.442 16.7973V20.58H124.692V16.4836C124.692 14.9786 123.913 14.1303 122.501 14.1303C121.548 14.1303 120.921 14.5545 120.613 15.2575H120.52V14.2523H119.317V20.58Z" fill="white"/>
<path d="M130.445 12.6777V14.2814H129.44V15.3331H130.445V18.9066C130.445 20.1268 130.997 20.6149 132.386 20.6149C132.63 20.6149 132.862 20.5858 133.066 20.551V19.5109C132.891 19.5283 132.781 19.5399 132.589 19.5399C131.968 19.5399 131.694 19.2494 131.694 18.587V15.3331H133.066V14.2814H131.694V12.6777H130.445Z" fill="white"/>
<path d="M134.743 20.58H135.992V16.8845C135.992 15.9258 136.561 15.2808 137.584 15.2808C138.467 15.2808 138.938 15.7921 138.938 16.8031V20.58H140.187V16.4952C140.187 14.9903 139.356 14.1361 138.008 14.1361C137.055 14.1361 136.387 14.5603 136.079 15.2692H135.98V11.7828H134.743V20.58Z" fill="white"/>
<path d="M144.694 15.1936C145.618 15.1936 146.222 15.8386 146.251 16.8322H143.055C143.125 15.8444 143.77 15.1936 144.694 15.1936ZM146.245 18.8717C146.013 19.3656 145.496 19.6387 144.74 19.6387C143.741 19.6387 143.096 18.9356 143.055 17.8258V17.7561H147.524V17.3203C147.524 15.3331 146.46 14.1303 144.7 14.1303C142.916 14.1303 141.783 15.4144 141.783 17.4365C141.783 19.4586 142.893 20.702 144.705 20.702C146.152 20.702 147.163 20.0048 147.448 18.8717H146.245Z" fill="white"/>
</svg>
