<svg width="477" height="477" viewBox="0 0 477 477" fill="none" xmlns="http://www.w3.org/2000/svg">
<rect x="16.683" y="16.6835" width="443.822" height="443.822" rx="221.911" fill="#ADB6B7"/>
<rect x="16.683" y="16.6835" width="443.822" height="443.822" rx="221.911" stroke="#082326" stroke-width="32.6339"/>
<path fill-rule="evenodd" clip-rule="evenodd" d="M254.306 82.511C256.453 80.3643 259.365 79.1584 262.401 79.1584C265.437 79.1584 268.349 80.3643 270.496 82.511L347.26 159.274H376.871C382.944 159.274 388.769 161.687 393.064 165.982C397.359 170.277 399.771 176.102 399.771 182.175V216.526C399.771 222.6 397.359 228.425 393.064 232.72C388.769 237.014 382.944 239.427 376.871 239.427H365.42L345.325 380.072C344.545 385.529 341.822 390.522 337.658 394.133C333.493 397.745 328.165 399.733 322.653 399.733H156.279C150.766 399.733 145.439 397.745 141.274 394.133C137.109 390.522 134.387 385.529 133.607 380.072L113.512 239.427H102.061C95.9875 239.427 90.1626 237.014 85.8679 232.72C81.5732 228.425 79.1604 222.6 79.1604 216.526V182.175C79.1604 176.102 81.5732 170.277 85.8679 165.982C90.1626 161.687 95.9875 159.274 102.061 159.274H132.519L132.519 159.274L132.519 159.274C132.691 159.08 132.863 158.885 133.057 158.702L209.237 82.5224C211.396 80.4366 214.289 79.2825 217.291 79.3086C220.293 79.3347 223.165 80.5389 225.288 82.6619C227.411 84.7849 228.615 87.6568 228.642 90.6591C228.668 93.6613 227.513 96.5537 225.428 98.7133L164.867 159.286H314.867L254.294 98.7018C252.148 96.5546 250.942 93.6426 250.942 90.6064C250.942 87.5702 252.159 84.6582 254.306 82.511ZM263.474 275.917C260.17 279.344 255.704 281.057 250.074 281.057H241.263L244.384 248.383H251.726C256.621 248.383 260.599 249.668 263.658 252.238C266.84 254.685 268.431 258.418 268.431 263.435C268.431 268.33 266.779 272.491 263.474 275.917ZM238.877 304.553H261.639C275.59 304.553 287.521 301.616 297.434 295.742C302.573 292.683 306.612 288.4 309.549 282.893C312.608 277.386 314.138 270.9 314.138 263.435C314.138 251.198 310.099 241.836 302.023 235.35C294.068 228.742 283.666 225.438 270.817 225.438H188.948L199.962 336.677H235.756L238.877 304.553Z" fill="#082326"/>
</svg>
