<svg width="24" height="24" viewBox="0 0 24 24" fill="none" xmlns="http://www.w3.org/2000/svg">
<g clip-path="url(#clip0_64_3379)">
<path fill-rule="evenodd" clip-rule="evenodd" d="M14.4039 3.61206L14.3853 3.63476C14.1377 3.92871 13.7544 4.28145 13.3133 4.56964C13.2513 4.61013 13.208 4.67357 13.1928 4.74602C13.1776 4.81847 13.1918 4.89399 13.2323 4.95597C13.2728 5.01794 13.3362 5.06129 13.4087 5.07649C13.4811 5.09168 13.5566 5.07747 13.6186 5.03699C14.1942 4.6608 14.68 4.18434 14.9416 3.83104C15.0794 3.64517 15.1581 3.4822 15.1808 3.37262C15.2177 3.19643 15.1572 3.07438 15.0694 2.99904C14.9903 2.93113 14.8208 2.86583 14.5498 2.97206C14.2599 3.08592 14.0642 3.13894 13.8893 3.12815C13.7219 3.11773 13.5784 3.04648 13.3868 2.9395C13.0686 2.76183 12.6495 2.49038 11.9317 2.15773C11.1192 1.78118 10.3613 2.02527 9.74659 2.47122C8.89469 3.08945 8.33562 4.09634 8.33562 4.09634C8.31395 4.13534 8.30196 4.17898 8.30066 4.22358C8.29935 4.26818 8.30878 4.31244 8.32814 4.35264C8.3475 4.39283 8.37623 4.4278 8.41192 4.45459C8.4476 4.48137 8.48919 4.4992 8.5332 4.50657C9.15348 4.61169 9.42827 4.68759 10.1777 5.05411C10.2442 5.08662 10.3209 5.09138 10.3909 5.06735C10.4609 5.04331 10.5185 4.99243 10.5511 4.92592C10.5836 4.85941 10.5883 4.7827 10.5643 4.71267C10.5403 4.64265 10.4894 4.58504 10.4229 4.55252C9.7879 4.2422 9.46473 4.12369 9.03534 4.03252C9.24892 3.72183 9.61283 3.25783 10.0744 2.92294C10.5319 2.59104 11.0923 2.38397 11.6971 2.66415C12.3966 2.98824 12.8046 3.25373 13.1148 3.42676C13.3944 3.58304 13.61 3.66992 13.8547 3.68518C14.0139 3.69504 14.1877 3.67383 14.4039 3.61206Z" fill="#0F0F0F" stroke="#0F0F0F" stroke-width="0.5"/>
<path fill-rule="evenodd" clip-rule="evenodd" d="M12.7746 3.65436C12.236 3.4166 11.8853 3.05176 11.022 3.05176C10.7048 3.05176 10.379 3.10627 10.0564 3.19929C9.9853 3.21982 9.92524 3.26776 9.88946 3.33257C9.85368 3.39738 9.84511 3.47375 9.86563 3.54487C9.88616 3.616 9.9341 3.67606 9.99891 3.71184C10.0637 3.74762 10.1401 3.75619 10.2112 3.73566C10.4821 3.65734 10.7556 3.6099 11.022 3.6099C11.7788 3.6099 12.0769 3.9565 12.5493 4.16506C12.6165 4.19202 12.6915 4.19181 12.7586 4.16448C12.8257 4.13715 12.8795 4.08484 12.9087 4.01859C12.9379 3.95233 12.9403 3.87731 12.9153 3.80936C12.8902 3.74141 12.8398 3.68583 12.7746 3.65436ZM6.74777 4.48915C6.75497 4.49082 6.76205 4.49293 6.76898 4.49548C7.56712 4.81232 7.96247 5.46404 8.15745 6.11948C8.17854 6.19043 8.22696 6.2501 8.29205 6.28536C8.35714 6.32062 8.43356 6.32857 8.50452 6.30748C8.57547 6.28638 8.63514 6.23797 8.6704 6.17288C8.70565 6.10779 8.71361 6.03136 8.69252 5.96041C8.45308 5.15539 7.95503 4.3658 6.97494 3.97678C6.82573 3.91762 6.69977 3.9178 6.59447 3.94683C6.43596 3.99036 6.31261 4.10571 6.23168 4.26385C6.09773 4.52599 6.09326 4.91911 6.09326 4.91911C6.09326 5.01046 6.13773 5.09585 6.21252 5.14794C6.21252 5.14794 6.85773 5.60022 7.36024 6.34664C7.3807 6.37705 7.40695 6.40312 7.43749 6.42338C7.46803 6.44365 7.50226 6.45769 7.53823 6.46472C7.5742 6.47176 7.6112 6.47163 7.64712 6.46437C7.68304 6.4571 7.71718 6.44282 7.74759 6.42236C7.77799 6.4019 7.80407 6.37565 7.82433 6.34511C7.84459 6.31457 7.85864 6.28034 7.86567 6.24437C7.8727 6.2084 7.87258 6.1714 7.86531 6.13548C7.85804 6.09956 7.84377 6.06542 7.82331 6.03501C7.40359 5.41139 6.89382 4.97157 6.66033 4.7872C6.66459 4.75039 6.67036 4.71377 6.67763 4.67743C6.68787 4.62794 6.70163 4.57566 6.72303 4.52971C6.7288 4.51725 6.74033 4.49976 6.74777 4.48915Z" fill="#0F0F0F" stroke="#0F0F0F" stroke-width="0.5"/>
<path fill-rule="evenodd" clip-rule="evenodd" d="M14.1897 6.88339C13.5616 6.29548 12.767 5.8339 11.8528 5.84581C11.4502 5.85102 10.9692 6.00785 10.4511 6.20283C9.75473 6.46497 8.98189 6.79855 8.24347 6.80804C7.68106 6.81548 7.13985 6.71967 6.6712 6.59148L6.67082 6.5913C5.9227 6.3873 5.13572 6.37158 4.38004 6.54554C3.62437 6.71951 2.92347 7.07774 2.33985 7.58832C1.36534 8.44041 0.434545 9.6099 0.231568 11.3626C-0.101827 14.2417 0.797335 16.1712 2.23492 18.4888C3.1032 19.8886 3.9432 20.7535 4.63287 21.2305C5.13557 21.5785 5.5711 21.7262 5.89427 21.739C6.21147 21.7519 6.49389 21.6834 6.79659 21.5948C7.18301 21.4819 7.60906 21.334 8.23864 21.3532C8.59268 21.3639 8.96348 21.4975 9.33445 21.6123C9.77017 21.747 10.2063 21.8568 10.6184 21.8017C10.6547 21.7969 10.6897 21.7849 10.7214 21.7665C10.7531 21.7481 10.7808 21.7237 10.8031 21.6946C10.8253 21.6655 10.8417 21.6323 10.8511 21.5969C10.8605 21.5615 10.8628 21.5245 10.858 21.4882C10.8531 21.4519 10.8412 21.4169 10.8228 21.3852C10.8044 21.3535 10.78 21.3257 10.7509 21.3035C10.7218 21.2812 10.6886 21.2649 10.6531 21.2555C10.6177 21.2461 10.5808 21.2437 10.5445 21.2486C10.2083 21.2934 9.85482 21.1891 9.49929 21.0791C9.07901 20.9491 8.65668 20.8075 8.25557 20.7952C7.66301 20.7773 7.22952 20.8862 6.84906 20.9974C6.52292 21.0927 6.24329 21.1945 5.91641 21.1814C5.66729 21.1714 5.33836 21.04 4.95027 20.7716C4.30375 20.3243 3.52329 19.507 2.70915 18.1946C1.34282 15.9917 0.469149 14.1632 0.785987 11.4268C0.970173 9.83706 1.82338 8.78143 2.70729 8.00841C3.22161 7.55844 3.83928 7.24272 4.50523 7.08941C5.17119 6.93609 5.86473 6.94994 6.52403 7.12971C7.03864 7.27055 7.63306 7.37418 8.25073 7.36618C8.9231 7.35743 9.62431 7.11371 10.2794 6.86534C10.8693 6.64153 11.4163 6.40971 11.86 6.40395C12.6254 6.39409 13.2824 6.79855 13.8081 7.29083C13.8622 7.34143 13.9341 7.3685 14.0081 7.36607C14.082 7.36365 14.152 7.33193 14.2026 7.2779C14.2532 7.22387 14.2803 7.15195 14.2779 7.07797C14.2755 7.00398 14.2437 6.93399 14.1897 6.88339Z" fill="#0F0F0F" stroke="#0F0F0F" stroke-width="0.5"/>
<path fill-rule="evenodd" clip-rule="evenodd" d="M14.0436 7.8073C10.214 7.8073 7.09473 11.1342 7.09473 15.2434C7.09473 17.1396 7.69901 18.7342 8.72096 19.904C9.07389 20.3081 9.53677 20.4962 10.0447 20.624C10.486 20.7353 10.963 20.7999 11.4103 20.9716C11.7712 21.1102 12.0923 21.3703 12.4322 21.5922C12.8341 21.8544 13.259 22.0668 13.7649 22.0668C19.3874 22.0668 23.2709 18.3667 23.7511 14.0557C23.9565 12.2118 23.4242 10.2222 22.3716 8.92451C21.6436 8.02739 20.6698 7.45679 19.5211 7.45679C18.686 7.45679 18.1288 7.65307 17.622 7.86776C17.1688 8.05995 16.7619 8.27204 16.1944 8.334C15.8856 8.36748 15.6958 8.24525 15.4486 8.1273C15.1251 7.97269 14.7308 7.8073 14.0436 7.8073ZM14.0436 8.36544C14.7366 8.36544 15.0743 8.56953 15.3809 8.7139C15.6486 8.83986 15.899 8.92748 16.2549 8.88879C16.7645 8.83334 17.1606 8.67539 17.5591 8.50311C18.0903 8.27316 18.6263 8.01493 19.5211 8.01493C20.4979 8.01493 21.3191 8.51335 21.9381 9.27614C22.9055 10.4687 23.3851 12.2994 23.1963 13.9939C22.744 18.0546 19.0609 21.5087 13.7649 21.5087C13.3727 21.5087 13.049 21.3282 12.7373 21.1249C12.3639 20.8812 12.0067 20.6028 11.6104 20.4506C11.142 20.2707 10.6434 20.1993 10.1811 20.0828C9.78515 19.9831 9.4164 19.8518 9.14124 19.5368C8.2004 18.4599 7.65287 16.9891 7.65287 15.2434C7.65287 11.4527 10.5109 8.36544 14.0436 8.36544Z" fill="#0F0F0F" stroke="#0F0F0F" stroke-width="0.5"/>
<path fill-rule="evenodd" clip-rule="evenodd" d="M17.1195 7.82602C17.7909 7.03942 18.7396 6.21709 19.9126 6.03123C20.2789 5.97337 20.5485 5.95849 20.7425 5.97914C20.8577 5.99142 20.9349 6.00277 20.9731 6.0463C20.9785 6.05244 20.9725 6.06081 20.9716 6.069C20.9687 6.08986 20.9637 6.11037 20.9567 6.13021C20.9334 6.19905 20.8936 6.26956 20.8488 6.33765C20.8082 6.39952 20.7938 6.47498 20.8087 6.54746C20.8237 6.61994 20.8668 6.68352 20.9286 6.72426C20.9905 6.76484 21.066 6.77921 21.1384 6.76421C21.2109 6.74921 21.2745 6.70607 21.3152 6.64426C21.4302 6.46937 21.5135 6.2796 21.528 6.11291C21.5424 5.94956 21.5007 5.80128 21.3924 5.67793C21.3055 5.57895 21.166 5.49039 20.9442 5.44574C20.7083 5.39812 20.3498 5.397 19.8253 5.47998C18.5158 5.68742 17.4443 6.58565 16.6949 7.4636C16.6497 7.52024 16.6283 7.59224 16.6352 7.66438C16.6421 7.73652 16.6767 7.80316 16.7319 7.85021C16.787 7.89726 16.8582 7.92105 16.9306 7.91653C17.0029 7.91202 17.0706 7.87956 17.1195 7.82602Z" fill="#0F0F0F" stroke="#0F0F0F" stroke-width="0.5"/>
<path fill-rule="evenodd" clip-rule="evenodd" d="M7.33251 13.3102C7.32936 13.3226 7.32706 13.3352 7.32563 13.348C7.29706 13.6108 7.28277 13.875 7.28284 14.1394C7.28284 15.8778 7.84023 17.3396 8.78274 18.412C9.11 18.7844 9.53902 18.9586 10.0101 19.0765C10.4146 19.1779 10.852 19.2365 11.262 19.3932C11.5898 19.5184 11.8828 19.7861 12.193 20.0019C12.5826 20.2732 12.9948 20.4689 13.4771 20.3911C15.9772 19.9874 17.6512 19.1913 18.8235 18.1973C20.5816 16.7067 21.2151 14.763 21.7822 12.9707C22.4216 10.9493 21.9254 8.71317 20.5898 7.6514C20.5628 7.62978 20.5319 7.61343 20.4988 7.60321C20.1822 7.50542 19.8526 7.45606 19.5212 7.4568C18.686 7.4568 18.1288 7.65307 17.622 7.86777C17.1688 8.05996 16.7619 8.27205 16.1945 8.334C15.8856 8.36749 15.6959 8.24526 15.4486 8.12731C15.1251 7.9727 14.7308 7.80731 14.0436 7.80731C10.8367 7.80731 8.12935 10.1381 7.33251 13.3102ZM7.87856 13.4274C8.61809 10.5158 11.0966 8.36545 14.0436 8.36545C14.7366 8.36545 15.0743 8.56954 15.3809 8.71391C15.6486 8.83986 15.899 8.92749 16.2549 8.8888C16.7645 8.83335 17.1606 8.6754 17.5591 8.50312C18.0903 8.27317 18.6263 8.01493 19.5212 8.01493C19.7883 8.01493 20.0423 8.05177 20.283 8.12117C21.4326 9.07373 21.8088 11.0356 21.2499 12.8025C20.712 14.5027 20.1305 16.3574 18.4626 17.7716C17.3511 18.7141 15.7587 19.4572 13.388 19.8401C13.0557 19.8938 12.7803 19.7308 12.5119 19.5439C12.164 19.3018 11.8287 19.0121 11.4611 18.8717C11.0298 18.707 10.571 18.6417 10.1455 18.5351C9.78647 18.4453 9.45158 18.3275 9.20191 18.0436C8.34144 17.0642 7.84098 15.7267 7.84098 14.1394C7.84098 13.899 7.85363 13.6616 7.87837 13.4281L7.87856 13.4274Z" fill="#0F0F0F" stroke="#0F0F0F" stroke-width="0.5"/>
<path fill-rule="evenodd" clip-rule="evenodd" d="M15.9544 8.51091C14.1213 10.9727 12.8772 13.7118 12.1552 16.6966C12.1377 16.7685 12.1496 16.8444 12.1882 16.9076C12.2267 16.9708 12.2888 17.0161 12.3607 17.0335C12.4327 17.0509 12.5086 17.0391 12.5718 17.0005C12.635 16.962 12.6803 16.8999 12.6977 16.8279C13.4019 13.9171 14.6143 11.2452 16.402 8.84412C16.4248 8.81479 16.4414 8.78123 16.4511 8.74538C16.4607 8.70954 16.463 8.67214 16.458 8.63537C16.453 8.5986 16.4407 8.5632 16.4218 8.53124C16.403 8.49929 16.3779 8.47141 16.3481 8.44926C16.3184 8.4271 16.2845 8.4111 16.2485 8.40219C16.2124 8.39329 16.175 8.39166 16.1383 8.3974C16.1017 8.40314 16.0665 8.41614 16.0349 8.43563C16.0034 8.45512 15.976 8.48071 15.9544 8.51091ZM14.6521 13.5159C14.6521 13.5159 14.9712 14.1604 14.0368 14.9563C13.981 15.0044 13.9465 15.0727 13.9408 15.1462C13.9351 15.2197 13.9588 15.2925 14.0066 15.3486C14.0544 15.4048 14.1224 15.4397 14.1959 15.4458C14.2694 15.4519 14.3423 15.4287 14.3987 15.3812C15.0523 14.8246 15.2324 14.3042 15.2627 13.931C15.2971 13.5053 15.1371 13.24 15.1371 13.24C15.1195 13.2073 15.0954 13.1785 15.0665 13.1552C15.0375 13.1319 15.0042 13.1147 14.9685 13.1044C14.9328 13.0942 14.8954 13.0912 14.8585 13.0956C14.8216 13.1 14.7859 13.1118 14.7536 13.1301C14.7213 13.1485 14.693 13.1731 14.6704 13.2026C14.6477 13.2321 14.6312 13.2657 14.6217 13.3017C14.6123 13.3376 14.6101 13.3751 14.6153 13.4119C14.6205 13.4487 14.633 13.484 14.6521 13.5159ZM12.3647 12.8605C12.3647 12.8605 11.2262 13.4737 11.5232 14.8212C11.5303 14.8577 11.5447 14.8924 11.5654 14.9233C11.5862 14.9542 11.6129 14.9806 11.644 15.001C11.6751 15.0214 11.71 15.0354 11.7466 15.0421C11.7832 15.0488 11.8207 15.0482 11.857 15.0402C11.8934 15.0322 11.9277 15.017 11.9581 14.9955C11.9885 14.974 12.0143 14.9467 12.0339 14.9151C12.0536 14.8836 12.0667 14.8484 12.0726 14.8116C12.0785 14.7749 12.0769 14.7374 12.0681 14.7012C11.8646 13.777 12.632 13.3505 12.632 13.3505C12.6945 13.3138 12.7403 13.2542 12.7597 13.1843C12.779 13.1144 12.7704 13.0397 12.7357 12.976C12.701 12.9124 12.6428 12.8647 12.5736 12.8431C12.5043 12.8216 12.4294 12.8278 12.3647 12.8605Z" fill="#0F0F0F" stroke="#0F0F0F" stroke-width="0.5"/>
</g>
<defs>
<clipPath id="clip0_64_3379">
<rect width="24" height="24" fill="white"/>
</clipPath>
</defs>
</svg>
