<svg width="24" height="24" viewBox="0 0 24 24" fill="none" xmlns="http://www.w3.org/2000/svg">
<g id="Deal">
<path id="path7" d="M18.8276 4.5381C17.9436 4.48314 16.9122 4.87009 16.0122 5.64259L15.9419 5.57374C15.5594 5.19124 15.0294 4.99586 14.4917 5.02736L11.7554 5.21046C11.3024 5.24121 10.8759 5.43363 10.5542 5.75538L3.75879 12.5523C3.40404 12.9063 3.20947 13.3769 3.20947 13.8779C3.20947 14.3789 3.40479 14.8496 3.75879 15.2036L7.4707 18.917C7.83595 19.2823 8.31639 19.4649 8.79639 19.4649C9.27714 19.4649 9.75607 19.2823 10.1221 18.917L16.9189 12.1201C17.2399 11.7991 17.4339 11.3727 17.4639 10.919L17.4697 10.8399C18.1552 10.6194 18.8326 10.2065 19.4033 9.63575C20.8898 8.14775 21.239 6.16797 20.1987 5.12697C19.8348 4.76331 19.3581 4.57107 18.8276 4.5381ZM18.6841 5.29103C19.0784 5.29416 19.4229 5.41199 19.6685 5.65724C20.387 6.37574 20.0235 7.95427 18.873 9.10402C18.4658 9.51202 17.9995 9.82951 17.5225 10.0313L17.6455 8.18263C17.6815 7.64338 17.4831 7.11493 17.1006 6.73243L16.541 6.17286C17.2334 5.59958 18.027 5.28581 18.6841 5.29103ZM14.5415 5.77589C14.8715 5.75264 15.1821 5.87377 15.4116 6.10402L15.4717 6.16407C15.1889 6.48357 14.9465 6.82657 14.7598 7.18507C14.3668 7.05232 13.9175 7.13306 13.6055 7.44581C13.3932 7.65806 13.2759 7.94047 13.2759 8.24122C13.2759 8.54197 13.3932 8.82438 13.6055 9.03663C13.8245 9.25563 14.1129 9.36476 14.4009 9.36476C14.6889 9.36476 14.9765 9.25563 15.1963 9.03663C15.4085 8.82438 15.5259 8.54197 15.5259 8.24122C15.5259 8.03422 15.4661 7.83732 15.3618 7.66407C15.5223 7.32582 15.738 6.9981 16.002 6.69435L16.5703 7.26271C16.7998 7.49221 16.9194 7.80882 16.8984 8.13282L16.7153 10.8692C16.6966 11.1407 16.5807 11.3971 16.3887 11.5899L9.5918 18.3853C9.15305 18.8233 8.44123 18.8248 8.00098 18.3853L4.28906 14.6734C4.07681 14.4611 3.95947 14.1787 3.95947 13.8779C3.95947 13.5772 4.07681 13.2941 4.28906 13.0811L11.0845 6.28566C11.2772 6.09291 11.5337 5.977 11.8052 5.959L14.5415 5.77589ZM14.4009 7.86622C14.4969 7.86622 14.5925 7.90259 14.666 7.97609C14.7358 8.04734 14.7744 8.14072 14.7744 8.24122C14.7744 8.34172 14.7365 8.43586 14.666 8.50636C14.5198 8.65186 14.282 8.65261 14.1357 8.50636C14.0645 8.43586 14.0259 8.34172 14.0259 8.24122C14.0259 8.14147 14.0652 8.04734 14.1357 7.97609C14.2092 7.90259 14.3049 7.86622 14.4009 7.86622ZM10.6538 9.52589C10.5578 9.52589 10.4618 9.56263 10.3887 9.63575L6.67529 13.3477C6.52904 13.4939 6.52904 13.7317 6.67529 13.8779C6.74879 13.9514 6.84589 13.9878 6.94189 13.9878C7.03789 13.9878 7.13353 13.9507 7.20703 13.8779L10.9189 10.166C11.0644 10.019 11.0652 9.782 10.9189 9.63575C10.8458 9.56263 10.7498 9.52589 10.6538 9.52589ZM12.7749 11.647C12.6787 11.6469 12.5829 11.6833 12.5098 11.7568L8.79639 15.4688C8.65014 15.615 8.65014 15.8528 8.79639 15.999C8.86989 16.0725 8.96552 16.1089 9.06152 16.1089C9.15752 16.1089 9.25462 16.0718 9.32812 15.999L13.04 12.2871C13.1863 12.1409 13.1863 11.9031 13.04 11.7568C12.9669 11.6837 12.8711 11.6471 12.7749 11.647Z" fill="#0F0F0F" stroke="#0F0F0F" stroke-width="0.5"/>
</g>
</svg>
