<svg width="24" height="24" viewBox="0 0 24 24" fill="none" xmlns="http://www.w3.org/2000/svg">
<g id="Bucket">
<path id="9" d="M21 8.00003H16.87L14.87 4.50003C14.7374 4.26929 14.5186 4.10068 14.2616 4.03129C14.0047 3.9619 13.7307 3.99742 13.5 4.13003C13.2693 4.26264 13.1007 4.48147 13.0313 4.7384C12.9619 4.99532 12.9974 5.26929 13.13 5.50003L14.56 8.00003H9.44L10.87 5.50003C10.9357 5.38578 10.9782 5.25971 10.9951 5.12903C11.0121 4.99835 11.0031 4.86562 10.9687 4.7384C10.9344 4.61118 10.8753 4.49198 10.7949 4.3876C10.7144 4.28321 10.6143 4.19569 10.5 4.13003C10.3857 4.06437 10.2597 4.02185 10.129 4.00491C9.99832 3.98797 9.86559 3.99693 9.73837 4.03129C9.61115 4.06565 9.49195 4.12473 9.38757 4.20515C9.28318 4.28558 9.19566 4.38578 9.13 4.50003L7.13 8.00003H3C2.73478 8.00003 2.48043 8.10539 2.29289 8.29292C2.10536 8.48046 2 8.73481 2 9.00003V14C2 15.8565 2.7375 17.637 4.05025 18.9498C5.36301 20.2625 7.14348 21 9 21H15C16.8565 21 18.637 20.2625 19.9497 18.9498C21.2625 17.637 22 15.8565 22 14V9.00003C22 8.73481 21.8946 8.48046 21.7071 8.29292C21.5196 8.10539 21.2652 8.00003 21 8.00003ZM20 14C20 15.3261 19.4732 16.5979 18.5355 17.5356C17.5979 18.4732 16.3261 19 15 19H9C7.67392 19 6.40215 18.4732 5.46447 17.5356C4.52678 16.5979 4 15.3261 4 14V10H6L5.14 11.5C5.07434 11.6143 5.03182 11.7403 5.01488 11.871C4.99794 12.0017 5.00691 12.1344 5.04126 12.2617C5.07562 12.3889 5.1347 12.5081 5.21513 12.6125C5.29555 12.7168 5.39575 12.8044 5.51 12.87C5.62425 12.9357 5.75031 12.9782 5.88099 12.9951C6.01168 13.0121 6.14441 13.0031 6.27163 12.9688C6.39885 12.9344 6.51805 12.8753 6.62243 12.7949C6.72682 12.7145 6.81434 12.6143 6.88 12.5L8.29 10H15.7L17.13 12.5C17.1957 12.6143 17.2832 12.7145 17.3876 12.7949C17.492 12.8753 17.6112 12.9344 17.7384 12.9688C17.8656 13.0031 17.9983 13.0121 18.129 12.9951C18.2597 12.9782 18.3857 12.9357 18.5 12.87C18.6143 12.8044 18.7144 12.7168 18.7949 12.6125C18.8753 12.5081 18.9344 12.3889 18.9687 12.2617C19.0031 12.1344 19.0121 12.0017 18.9951 11.871C18.9782 11.7403 18.9357 11.6143 18.87 11.5L18 10H20V14Z" fill="#0F0F0F"/>
</g>
</svg>
