<svg width="24" height="24" viewBox="0 0 24 24" fill="none" xmlns="http://www.w3.org/2000/svg">
<path d="M7.03906 11.8231C5.89481 12.1626 4.94282 12.6126 4.255 13.1317L7.03906 11.8231ZM7.03906 11.8231V14.7007C7.03906 14.9374 7.21017 15.1392 7.44333 15.1784L7.44346 15.1784L16.3962 16.6783C16.3962 16.6783 16.3962 16.6783 16.3963 16.6783L16.3966 16.6784L7.03906 11.8231ZM5.1523 18.4717L5.1523 18.4717C6.99799 19.3186 9.43031 19.7788 12 19.7788C14.5697 19.7788 17.002 19.3186 18.8477 18.4717L18.7434 18.2445L18.8477 18.4717C20.7377 17.6044 21.8828 16.382 21.8828 14.982C21.8828 14.0092 21.3179 13.1052 20.3282 12.3583C19.4026 11.6597 18.1082 11.0963 16.5932 10.7191L16.5931 10.7191C16.4489 10.6833 16.2953 10.7156 16.1776 10.808C16.0609 10.8996 15.992 11.0399 15.992 11.1893V15.6288L8.00758 14.2911V11.1896C8.00758 11.0401 7.93865 10.8998 7.82196 10.8082C7.70423 10.7158 7.55095 10.6836 7.40666 10.7193L7.40631 10.7194C5.89158 11.0966 4.59696 11.6599 3.67135 12.3585L3.82195 12.5581L3.67135 12.3585C2.68207 13.1052 2.11719 14.0093 2.11719 14.982C2.11719 16.382 3.26228 17.6044 5.1523 18.4717ZM16.9609 11.8231C18.1052 12.1626 19.0572 12.6126 19.745 13.1317L19.8949 12.9331L19.745 13.1317C20.5422 13.7332 20.9141 14.3768 20.9141 14.982C20.9141 15.425 20.7219 15.8784 20.3036 16.3322L20.3036 16.3323C19.8806 16.7914 19.2591 17.2171 18.4437 17.5911L18.548 17.8184L18.4437 17.5912C16.7393 18.3731 14.4514 18.8101 12 18.8101C9.54859 18.8101 7.2607 18.3733 5.5563 17.5912C4.74114 17.2169 4.11933 16.7911 3.69641 16.3322L3.69637 16.3322C3.27794 15.8784 3.08594 15.425 3.08594 14.982C3.08594 14.3768 3.45782 13.7334 4.25497 13.1317L16.9609 11.8231Z" fill="#0F0F0F" stroke="#0F0F0F" stroke-width="0.5"/>
<path d="M7.02664 17.2011C6.31711 16.9406 5.74805 16.6231 5.35218 16.2568C4.95461 15.8889 4.71826 15.4577 4.71826 14.9819C4.71826 14.4654 4.99158 14.0049 5.44795 13.6188C5.90266 13.234 6.55705 12.9059 7.37499 12.6428L7.02664 17.2011ZM7.02664 17.2011C8.37051 17.6946 10.1369 17.9617 12 17.9617M7.02664 17.2011L12 17.9617M12 17.9617C13.8631 17.9617 15.6294 17.6946 16.9733 17.2011C17.683 16.9406 18.252 16.6231 18.6479 16.2568C19.0454 15.8889 19.2817 15.4576 19.2817 14.9819C19.2817 14.4654 19.0084 14.0049 18.552 13.6188M12 17.9617L18.552 13.6188M18.552 13.6188C18.0973 13.234 17.4429 12.9059 16.625 12.6428L18.552 13.6188ZM7.44332 15.1783L7.44344 15.1783L15.7383 16.568C14.657 16.8429 13.3645 16.9929 12 16.9929C10.2314 16.9929 8.58392 16.7408 7.36042 16.2918C6.79225 16.0832 6.362 15.8476 6.07865 15.6094C5.79153 15.368 5.68701 15.1525 5.68701 14.9819C5.68701 14.812 5.7939 14.5946 6.08592 14.3507C6.31373 14.1605 6.63371 13.9724 7.03904 13.7994V14.7007C7.03904 14.9373 7.21015 15.1391 7.44332 15.1783ZM16.9609 13.7994C17.3663 13.9724 17.6862 14.1604 17.914 14.3506C18.206 14.5944 18.313 14.8118 18.313 14.9819C18.313 15.1525 18.2084 15.368 17.9213 15.6094C17.6941 15.8004 17.3724 15.9897 16.9609 16.1648V13.7994ZM7.80869 12.7125C7.68394 12.6216 7.52277 12.5952 7.37514 12.6428L16.6248 12.6428C16.4772 12.5952 16.316 12.6216 16.1913 12.7125C16.0663 12.8035 15.9922 12.9489 15.9922 13.1039V15.6285L8.00779 14.2908V13.1039C8.00779 12.9489 7.93365 12.8035 7.80869 12.7125Z" fill="#0F0F0F" stroke="#0F0F0F" stroke-width="0.5"/>
<path opacity="0.949" d="M7.2125 9.54093L7.21203 9.54054C7.00708 9.36853 6.9805 9.06294 7.15242 8.85809L7.15249 8.85801C8.1034 7.72586 9.33366 6.78074 10.7107 6.123L7.2125 9.54093ZM7.2125 9.54093C7.30286 9.61638 7.41344 9.65388 7.52345 9.65388C7.66085 9.65388 7.79846 9.59531 7.89443 9.48098C8.75517 8.45603 9.87331 7.59645 11.1283 6.99697L11.1284 6.99695M7.2125 9.54093L11.1284 6.99695M11.1284 6.99695C11.3696 6.88165 11.4719 6.5925 11.3565 6.35116C11.2412 6.10992 10.9521 6.00768 10.7108 6.12298L11.1284 6.99695ZM13.2895 6.24785L13.2896 6.24784C13.5959 6.17832 13.9084 6.1225 14.2223 6.08105L16.0235 10.8408L16.2574 10.7525L16.0236 10.841L16.0236 10.8408C16.097 11.0352 16.2815 11.1539 16.4766 11.1539C16.5343 11.1539 16.5905 11.1436 16.6436 11.1246L16.6436 11.1247L16.6482 11.123C16.8982 11.0285 17.0246 10.749 16.9298 10.4985C16.9298 10.4985 16.9297 10.4984 16.9297 10.4984L14.995 5.3861L14.9949 5.38595C14.9178 5.18251 14.714 5.05409 14.4956 5.07526C14.019 5.12104 13.5412 5.19771 13.0754 5.30318L13.0754 5.3032C12.8147 5.3623 12.651 5.62147 12.7101 5.88251L12.7101 5.88261C12.7692 6.14329 13.0287 6.30699 13.2895 6.24785Z" fill="#0F0F0F" stroke="#0F0F0F" stroke-width="0.5"/>
<path d="M7.44346 13.7962L7.44333 13.7962C7.21017 13.757 7.03906 13.5552 7.03906 13.3186V11.935C7.03906 11.7928 7.10155 11.6574 7.21074 11.5652L7.37203 11.7562L7.21074 11.5652C7.31907 11.4737 7.46268 11.4336 7.60358 11.4574L7.60342 11.4574L7.56211 11.7039L7.6039 11.4575L16.5565 12.9574L16.5567 12.9574C16.7898 12.9966 16.9609 13.1984 16.9609 13.435V14.8186C16.9609 14.9607 16.8985 15.096 16.7895 15.1882L7.44346 13.7962ZM7.44346 13.7962L16.3952 15.296M7.44346 13.7962L16.3952 15.296M7.44346 11.0289L7.44333 11.0289C7.21017 10.9897 7.03906 10.7879 7.03906 10.5513V9.16941C7.03906 9.02714 7.10155 8.89178 7.21074 8.79957C7.31907 8.70809 7.46244 8.66799 7.60356 8.69178L7.60342 8.69175L7.56211 8.93832L7.60376 8.69181L16.5565 10.1918L16.5567 10.1918C16.7898 10.231 16.9609 10.4328 16.9609 10.6694V12.0513C16.9609 12.1935 16.8985 12.3288 16.7895 12.421C16.7894 12.421 16.7893 12.4211 16.7893 12.4211L16.628 12.2301L7.44346 11.0289ZM7.44346 11.0289L16.3952 12.5287L7.44346 11.0289ZM16.3952 15.296C16.4247 15.3012 16.4521 15.3029 16.4766 15.3029C16.5905 15.3029 16.7014 15.2627 16.7893 15.1884L16.3952 15.296ZM8.00781 12.5074L15.9922 13.8452V14.2464L8.00781 12.9087V12.5074ZM8.00781 9.74181L15.9922 11.0795V11.4791L8.00781 10.1414V9.74181Z" fill="#0F0F0F" stroke="#0F0F0F" stroke-width="0.5"/>
<path d="M12.0222 6.0267C12.1483 5.86627 12.2523 5.70373 12.3317 5.53967M12.0222 6.0267L11.8256 5.87224L12.0222 6.02666C12.0222 6.02668 12.0222 6.02669 12.0222 6.0267ZM12.0222 6.0267C11.8996 6.18274 11.7845 6.29967 11.6818 6.40398L11.6789 6.40692L11.6788 6.40706C11.5622 6.5253 11.4664 6.62315 11.3721 6.75789L11.3707 6.75982L11.3707 6.75981L11.3681 6.76344M12.3317 5.53967L11.318 6.83532C11.3347 6.81118 11.3513 6.78722 11.3681 6.76344M12.3317 5.53967C12.5205 5.70683 12.664 5.87087 12.7784 6.04327L12.7785 6.04341C12.8647 6.17314 12.9343 6.30813 12.9922 6.45754C13.0518 6.61148 13.0906 6.8062 13.1025 7.00139M12.3317 5.53967L13.1025 7.00139M11.3681 6.76344L11.1638 6.61943L11.3672 6.76473L11.3681 6.76344ZM12.0746 8.20358C11.8442 8.18976 11.61 8.11231 11.4144 7.9788L11.4142 7.9787C11.361 7.94241 11.2959 7.87107 11.2382 7.7795C11.1803 7.68757 11.1473 7.60304 11.1386 7.55655L12.0746 8.20358ZM12.0746 8.20358C12.0909 7.60363 12.529 7.10745 13.1025 7.00139M12.0746 8.20358L13.1025 7.00139M12.7357 8.82372L12.826 9.05686C12.7358 9.09178 12.6429 9.11876 12.5496 9.13671C12.5495 9.13671 12.5495 9.13672 12.5494 9.13673L12.5023 8.89122M12.7357 8.82372L10.4323 7.68841C10.4834 7.96122 10.703 8.36364 11.0095 8.57247C11.3442 8.80099 11.7527 8.92403 12.1523 8.92403C12.2705 8.92403 12.3879 8.91325 12.5023 8.89122M12.7357 8.82372L12.8254 9.05708C12.9558 9.00696 13.0576 8.903 13.1056 8.77272C13.1535 8.64244 13.1433 8.49807 13.0775 8.37582L13.0775 8.37566C13.0546 8.33328 13.0431 8.28781 13.0431 8.23825C13.0431 8.07914 13.1731 7.94919 13.3322 7.94919C13.3618 7.94919 13.3908 7.95356 13.4182 7.96192L13.4186 7.96205C13.5504 8.00213 13.694 7.98441 13.8124 7.91208C13.9302 7.84015 14.0123 7.7211 14.0367 7.58413C14.12 7.11929 14.0653 6.54592 13.8955 6.10773C13.8127 5.89324 13.7111 5.69668 13.5855 5.50737L13.5854 5.50728C13.2896 5.06193 12.8832 4.68946 12.2904 4.30055L12.2903 4.30048C12.1345 4.19837 11.9335 4.19442 11.7736 4.29133L11.9032 4.50513M12.7357 8.82372C12.6588 8.85349 12.5803 8.87622 12.5023 8.89122M12.5023 8.89122L10.8686 8.77894C10.6789 8.6497 10.525 8.46767 10.4126 8.28608C10.3004 8.10495 10.2189 7.90736 10.1865 7.73443L10.1865 7.73428C10.1232 7.39496 10.145 7.11532 10.2188 6.87283C10.2916 6.63384 10.4111 6.44424 10.5204 6.28532L10.5205 6.28529C10.5387 6.25881 10.5572 6.2323 10.5756 6.20634C10.5757 6.20619 10.5758 6.20604 10.5759 6.20588L10.5785 6.20209L10.5786 6.20204C10.7208 5.99899 10.8615 5.8561 10.9851 5.73063L10.9887 5.72702L10.9888 5.72695C11.0879 5.62642 11.1721 5.54049 11.2603 5.42813C11.4898 5.13594 11.5586 4.91286 11.5427 4.75369L11.5426 4.7534C11.5243 4.56825 11.6136 4.38783 11.7741 4.29104L11.9032 4.50513M11.9032 4.50513C11.9805 4.45825 12.0778 4.46013 12.1533 4.50958L11.1668 5.90247C11.2657 5.80216 11.359 5.70724 11.457 5.58255C11.704 5.26802 11.8167 4.98091 11.7914 4.72872C11.7825 4.63895 11.8259 4.55177 11.9032 4.50513ZM16.7893 13.8049C16.8985 13.7127 16.9609 13.5773 16.9609 13.435V12.0513L7.37203 10.3725C7.3193 10.417 7.28906 10.4824 7.28906 10.5513V11.935C7.28906 12.0497 7.3718 12.1474 7.48477 12.1661L7.44346 12.4127L7.44356 12.4127C7.44365 12.4127 7.44374 12.4128 7.44383 12.4128L16.3953 13.9125C16.4247 13.9177 16.4522 13.9194 16.4766 13.9194C16.5905 13.9194 16.7014 13.8792 16.7893 13.8049ZM16.7893 13.8049L16.628 13.6139L16.7895 13.8047C16.7894 13.8048 16.7893 13.8048 16.7893 13.8049ZM16.9609 14.8186V16.2007C16.9609 16.3429 16.8985 16.4783 16.7893 16.5705M16.9609 14.8186L16.628 16.3795M16.9609 14.8186C16.9609 14.5824 16.7903 14.3799 16.5565 14.3409L16.9609 14.8186ZM16.7893 16.5705L16.628 16.3795M16.7893 16.5705C16.7893 16.5705 16.7894 16.5704 16.7895 16.5703L16.628 16.3795M16.7893 16.5705C16.7014 16.6448 16.5905 16.685 16.4766 16.685C16.4522 16.685 16.4247 16.6833 16.3953 16.6781M16.628 16.3795C16.5853 16.4156 16.5316 16.435 16.4766 16.435C16.4637 16.435 16.4508 16.4341 16.4379 16.4318M16.3953 16.6781L16.3966 16.6783L16.4379 16.4318M16.3953 16.6781L7.44383 15.1784M16.3953 16.6781C16.3946 16.678 16.3939 16.6779 16.3932 16.6777L16.4379 16.4318M16.4379 16.4318L7.44383 15.1784M7.44383 15.1784L7.48477 14.9318L7.44346 15.1783C7.20982 15.1394 7.03906 14.9372 7.03906 14.7007V13.3186C7.03906 13.1763 7.10155 13.0409 7.21074 12.9487L7.37203 13.1397L7.21032 12.9491C7.3188 12.8571 7.46264 12.8172 7.60342 12.8409L7.44383 15.1784ZM16.5562 11.5736L7.60376 10.0737L16.5152 11.8202L16.5565 11.5736L16.5562 11.5736ZM16.5562 14.3408L7.60376 12.841L16.5562 14.3408Z" fill="#0F0F0F" stroke="#0F0F0F" stroke-width="0.5"/>
<path d="M12.3213 7.14319L12.321 7.14341C12.2511 7.19903 12.221 7.22536 12.207 7.24391L12.2068 7.24409C12.1989 7.25461 12.1968 7.27704 12.2002 7.28561L12.2002 7.28577C12.2989 7.53387 12.1783 7.8158 11.9297 7.91484L11.9293 7.91498C11.8713 7.93802 11.8107 7.94924 11.7504 7.94924C11.5587 7.94924 11.3762 7.83444 11.3004 7.64411L12.3213 7.14319ZM12.3213 7.14319L12.3243 7.14079M12.3213 7.14319L12.3243 7.14079M12.3243 7.14079C12.3555 7.11586 12.3922 7.08652 12.4297 7.05374L12.3243 7.14079ZM11.7914 6.32509L11.816 6.35312L12.4297 7.05371C12.6409 6.86904 12.7796 6.63985 12.7846 6.37216L12.7846 6.37205C12.7895 6.10455 12.5764 5.88381 12.309 5.87897L12.309 5.87896L12.3076 5.87895C12.061 5.87583 11.8531 6.05682 11.8203 6.2971C11.8139 6.3042 11.8045 6.31362 11.7914 6.32509ZM12.2248 8.83495L12.225 8.83531C12.445 9.24241 12.8692 9.49588 13.3322 9.49588C14.026 9.49588 14.59 8.93184 14.59 8.23807C14.59 7.68328 14.2328 7.19922 13.7024 7.03565L13.7021 7.03558C13.5819 6.99863 13.4575 6.98025 13.3322 6.98025C12.6385 6.98025 12.0744 7.54429 12.0744 8.23807C12.0744 8.44601 12.1264 8.65221 12.2248 8.83495ZM11.4346 6.65932C11.2218 6.94027 11.1699 7.31657 11.3004 7.64402L11.4346 6.65932Z" fill="#0F0F0F" stroke="#0F0F0F" stroke-width="0.5"/>
</svg>
