<svg width="24" height="24" viewBox="0 0 24 24" fill="none" xmlns="http://www.w3.org/2000/svg">
<g id="deals" clip-path="url(#clip0_64_3355)">
<path id="Vector" d="M23.897 8.55524C23.8311 8.48933 23.7417 8.45231 23.6484 8.45231C23.5552 8.45231 23.4658 8.48933 23.3998 8.55524L21.3674 10.5877L15.9227 5.02812L17.8977 3.0531C17.9304 3.02048 17.9564 2.98171 17.9742 2.93903C17.992 2.89634 18.0011 2.85057 18.0012 2.80434C18.0012 2.75811 17.9921 2.71232 17.9745 2.6696C17.9568 2.62688 17.9309 2.58806 17.8982 2.55537C17.8655 2.52268 17.8267 2.49676 17.784 2.47909C17.7412 2.46142 17.6955 2.45235 17.6492 2.45239C17.603 2.45244 17.5572 2.4616 17.5145 2.47936C17.4719 2.49712 17.4331 2.52312 17.4005 2.55588L14.7157 5.24066C14.5394 5.41687 14.4028 5.62863 14.3148 5.86182C14.2268 6.095 14.1895 6.34426 14.2055 6.59299H13.7348C13.3842 6.59313 13.0375 6.66715 12.7173 6.81025C12.3972 6.95334 12.1108 7.16228 11.8768 7.42346L11.8085 7.4998C11.1619 7.17587 10.4533 6.99433 9.73062 6.96745C9.8169 6.66597 9.82102 6.3469 9.74255 6.0433C9.66408 5.73969 9.50588 5.46258 9.28432 5.24066L6.59953 2.55588C6.53358 2.49001 6.44417 2.45302 6.35096 2.45305C6.25775 2.45308 6.16837 2.49012 6.10246 2.55603C6.03655 2.62194 5.99951 2.71132 5.99948 2.80453C5.99945 2.89774 6.03644 2.98715 6.10231 3.0531L8.10666 5.05745L2.66196 10.617L0.600172 8.55524C0.534222 8.48937 0.444815 8.45238 0.351605 8.45241C0.258395 8.45244 0.16901 8.48948 0.1031 8.55539C0.0371907 8.6213 0.00015043 8.71068 0.000122087 8.80389C9.37429e-05 8.8971 0.0370796 8.98651 0.102949 9.05246L2.35442 11.3039C2.38413 11.355 2.42659 11.3974 2.47765 11.4272L2.78773 11.7372C3.00972 11.9587 3.28682 12.1168 3.59038 12.1952C3.89395 12.2737 4.21296 12.2697 4.51444 12.1836C4.52328 12.4227 4.54913 12.6609 4.5918 12.8963C4.4281 12.9715 4.27911 13.0753 4.15182 13.2028L3.38003 13.9746C3.16698 14.1876 3.02189 14.4591 2.96311 14.7546C2.90433 15.0501 2.9345 15.3564 3.04981 15.6348C3.16511 15.9132 3.36038 16.1511 3.61091 16.3185C3.86144 16.4859 4.15598 16.5753 4.45729 16.5753C4.50471 16.5753 4.55176 16.5729 4.59842 16.5686C4.5787 16.7796 4.60325 16.9924 4.67048 17.1933C4.73772 17.3942 4.84616 17.5789 4.98888 17.7356C5.13159 17.8922 5.30543 18.0173 5.49927 18.1029C5.69311 18.1884 5.90269 18.2326 6.11458 18.2325C6.162 18.2325 6.20905 18.2302 6.2557 18.2259C6.236 18.4369 6.26055 18.6496 6.32779 18.8506C6.39503 19.0515 6.50348 19.2362 6.64619 19.3928C6.7889 19.5494 6.96274 19.6745 7.15657 19.7601C7.35041 19.8457 7.55998 19.8899 7.77186 19.8898C7.81929 19.8898 7.86634 19.8874 7.91299 19.8832C7.88426 20.195 7.95232 20.5081 8.10791 20.7799C8.26349 21.0516 8.49904 21.2688 8.78249 21.4019C9.06594 21.535 9.38351 21.5775 9.69198 21.5236C10.0005 21.4698 10.2848 21.3222 10.5064 21.1009L11.014 20.5933L11.5217 21.1009C11.7348 21.3139 12.0062 21.459 12.3017 21.5177C12.5972 21.5765 12.9035 21.5463 13.1818 21.431C13.4602 21.3157 13.6981 21.1205 13.8655 20.87C14.0329 20.6195 14.1223 20.325 14.1224 20.0238C14.1224 19.9766 14.12 19.9297 14.1158 19.8833C14.1622 19.8875 14.209 19.8898 14.2562 19.8898C14.6602 19.8898 15.0477 19.7293 15.3334 19.4436C15.6191 19.1579 15.7796 18.7704 15.7796 18.3663C15.7796 18.3192 15.7773 18.2723 15.773 18.2259C15.8195 18.2301 15.8662 18.2325 15.9134 18.2325C16.3175 18.2325 16.705 18.072 16.9907 17.7863C17.2764 17.5006 17.4369 17.1131 17.4369 16.7091C17.4369 16.6619 17.4345 16.6151 17.4303 16.5687C17.4767 16.5729 17.5235 16.5753 17.5707 16.5753C17.872 16.5753 18.1666 16.4859 18.4171 16.3185C18.6676 16.1511 18.8629 15.9132 18.9782 15.6348C19.0935 15.3564 19.1237 15.0501 19.0649 14.7546C19.0061 14.4591 18.861 14.1876 18.648 13.9746L18.2218 13.5485C18.7175 13.1714 19.1406 12.7076 19.4707 12.1796C19.7739 12.2688 20.0957 12.2749 20.4021 12.197C20.7085 12.1192 20.9883 11.9604 21.2123 11.7372L23.897 9.05246C23.963 8.98652 24 8.89709 24 8.80385C24 8.7106 23.963 8.62118 23.897 8.55524ZM3.28496 11.24L3.15919 11.1143L8.6039 5.55469L8.78709 5.73788C8.98461 5.93582 9.09553 6.20402 9.09553 6.48365C9.09553 6.76327 8.98461 7.03148 8.78709 7.22941L4.77649 11.24C4.57855 11.4375 4.31035 11.5485 4.03072 11.5485C3.7511 11.5485 3.48289 11.4375 3.28496 11.24ZM4.45729 15.8721C4.29506 15.8721 4.13647 15.824 4.00159 15.7339C3.8667 15.6437 3.76157 15.5156 3.69949 15.3657C3.6374 15.2158 3.62116 15.0509 3.6528 14.8918C3.68444 14.7327 3.76255 14.5865 3.87726 14.4718L4.64905 13.7C4.72519 13.6237 4.81562 13.5631 4.91518 13.5218C5.01474 13.4805 5.12147 13.4592 5.22927 13.4591C5.33707 13.459 5.44382 13.4802 5.54342 13.5215C5.64303 13.5627 5.73353 13.6231 5.80976 13.6994C5.88598 13.7756 5.94644 13.8661 5.98767 13.9657C6.0289 14.0653 6.05009 14.172 6.05003 14.2798C6.04998 14.3876 6.02867 14.4944 5.98734 14.5939C5.94601 14.6935 5.88546 14.7839 5.80916 14.8601L5.03732 15.6319C4.96133 15.7083 4.87093 15.7688 4.77137 15.8101C4.67181 15.8513 4.56506 15.8724 4.45729 15.8721ZM6.11458 17.5294C5.95234 17.5294 5.79375 17.4813 5.65886 17.3911C5.52397 17.301 5.41884 17.1729 5.35675 17.023C5.29467 16.8731 5.27841 16.7082 5.31005 16.5491C5.34169 16.3899 5.4198 16.2438 5.5345 16.129L6.30633 15.3573C6.46026 15.2039 6.66876 15.1179 6.88607 15.118C7.10337 15.1182 7.31173 15.2046 7.46539 15.3583C7.61905 15.5119 7.70546 15.7203 7.70566 15.9376C7.70586 16.1549 7.61982 16.3634 7.46644 16.5173L6.69461 17.2891C6.61862 17.3656 6.52822 17.4261 6.42866 17.4674C6.3291 17.5086 6.22234 17.5297 6.11458 17.5294ZM7.77186 19.1867C7.6641 19.187 7.55734 19.1659 7.45778 19.1247C7.35822 19.0834 7.26783 19.0228 7.19183 18.9464C7.03823 18.7925 6.95196 18.5838 6.95195 18.3664C6.95194 18.1489 7.03819 17.9403 7.19179 17.7863L7.96362 17.0145C8.03976 16.9382 8.1302 16.8776 8.22976 16.8363C8.32933 16.795 8.43606 16.7736 8.54387 16.7736C8.65168 16.7735 8.75844 16.7947 8.85805 16.8359C8.95766 16.8772 9.04817 16.9376 9.1244 17.0139C9.20062 17.0901 9.26108 17.1806 9.3023 17.2802C9.34352 17.3798 9.3647 17.4866 9.36463 17.5944C9.36456 17.7022 9.34324 17.8089 9.30189 17.9085C9.26054 18.0081 9.19997 18.0985 9.12364 18.1746L8.3519 18.9464C8.2759 19.0228 8.18551 19.0834 8.08595 19.1247C7.98638 19.1659 7.87963 19.187 7.77186 19.1867ZM10.7809 19.8319L10.0092 20.6037C9.85532 20.7571 9.64679 20.8433 9.42943 20.8431C9.21208 20.843 9.00367 20.7566 8.84997 20.6029C8.69627 20.4492 8.60986 20.2408 8.6097 20.0234C8.60954 19.8061 8.69565 19.5975 8.84912 19.4436L9.62086 18.6719C9.69698 18.5955 9.78742 18.5348 9.88701 18.4934C9.98659 18.452 10.0934 18.4306 10.2012 18.4305C10.3091 18.4304 10.4159 18.4516 10.5155 18.4928C10.6152 18.534 10.7058 18.5945 10.782 18.6708C10.8583 18.747 10.9188 18.8376 10.96 18.9372C11.0012 19.0369 11.0224 19.1437 11.0223 19.2516C11.0222 19.3594 11.0008 19.4662 10.9594 19.5658C10.918 19.6654 10.8573 19.7558 10.7809 19.8319ZM18.3911 15.0518C18.3911 15.2141 18.343 15.3727 18.2528 15.5076C18.1627 15.6425 18.0346 15.7476 17.8847 15.8097C17.7348 15.8718 17.5698 15.888 17.4107 15.8564C17.2516 15.8247 17.1054 15.7465 16.9907 15.6318L14.4716 13.1128C14.439 13.0801 14.4002 13.0542 14.3575 13.0365C14.3149 13.0188 14.2691 13.0097 14.2229 13.0096C14.1768 13.0096 14.131 13.0187 14.0883 13.0364C14.0457 13.0541 14.0069 13.08 13.9742 13.1126C13.9416 13.1453 13.9157 13.1841 13.898 13.2267C13.8803 13.2694 13.8712 13.3152 13.8712 13.3613C13.8713 13.4075 13.8804 13.4533 13.8981 13.4959C13.9158 13.5386 13.9417 13.5774 13.9744 13.61L16.4935 16.129C16.5699 16.2051 16.6305 16.2956 16.6719 16.3952C16.7133 16.4948 16.7347 16.6015 16.7348 16.7094C16.7349 16.8172 16.7137 16.924 16.6725 17.0237C16.6313 17.1234 16.5708 17.2139 16.4946 17.2902C16.4183 17.3665 16.3277 17.4269 16.2281 17.4682C16.1284 17.5094 16.0216 17.5305 15.9137 17.5304C15.8059 17.5303 15.6991 17.509 15.5995 17.4676C15.4999 17.4261 15.4095 17.3655 15.3334 17.2891L12.8144 14.77C12.7484 14.7041 12.659 14.667 12.5658 14.667C12.4725 14.667 12.3831 14.7041 12.3171 14.77C12.2512 14.836 12.2142 14.9254 12.2142 15.0186C12.2142 15.1119 12.2512 15.2013 12.3171 15.2672L14.8362 17.7863C14.9125 17.8624 14.973 17.9529 15.0144 18.0524C15.0557 18.152 15.077 18.2587 15.0771 18.3665C15.0771 18.4743 15.0559 18.5811 15.0147 18.6807C14.9735 18.7803 14.913 18.8708 14.8368 18.947C14.7606 19.0232 14.6701 19.0837 14.5705 19.1249C14.4709 19.1661 14.3641 19.1873 14.2564 19.1872C14.1486 19.1872 14.0418 19.1659 13.9423 19.1246C13.8427 19.0832 13.7523 19.0227 13.6761 18.9464L11.1571 16.4273C11.1244 16.3946 11.0857 16.3686 11.043 16.3509C11.0004 16.3332 10.9546 16.324 10.9084 16.324C10.8622 16.3239 10.8164 16.333 10.7737 16.3506C10.731 16.3683 10.6922 16.3942 10.6596 16.4269C10.6269 16.4595 10.6009 16.4983 10.5833 16.541C10.5656 16.5837 10.5565 16.6294 10.5565 16.6757C10.5565 16.7219 10.5656 16.7676 10.5833 16.8103C10.601 16.853 10.627 16.8917 10.6597 16.9244L13.1787 19.4435C13.2549 19.5196 13.3154 19.61 13.3566 19.7096C13.3978 19.8091 13.4191 19.9157 13.4191 20.0234C13.4191 20.1312 13.3979 20.2378 13.3567 20.3374C13.3155 20.4369 13.2551 20.5273 13.1789 20.6035C13.1028 20.6797 13.0124 20.7401 12.9129 20.7814C12.8133 20.8226 12.7067 20.8438 12.599 20.8439C12.4912 20.8439 12.3846 20.8227 12.2851 20.7815C12.1855 20.7403 12.0951 20.6799 12.0189 20.6037L11.4858 20.0706C11.6325 19.8403 11.7146 19.5748 11.7236 19.3019C11.7325 19.0289 11.6679 18.7586 11.5366 18.5192C11.4052 18.2798 11.212 18.0801 10.977 17.941C10.742 17.8018 10.474 17.7284 10.2009 17.7284C10.1537 17.7284 10.1069 17.7308 10.0605 17.735C10.0647 17.6886 10.0671 17.6418 10.0671 17.5946C10.0671 17.1906 9.90655 16.8031 9.62086 16.5174C9.33517 16.2317 8.94769 16.0712 8.54365 16.0711C8.49623 16.0711 8.44917 16.0735 8.40252 16.0778C8.42341 15.8549 8.39488 15.6303 8.31897 15.4197C8.24305 15.2092 8.12162 15.018 7.96334 14.8598C7.80505 14.7016 7.61381 14.5803 7.40325 14.5045C7.19268 14.4287 6.96799 14.4003 6.74518 14.4213C6.76471 14.2146 6.74173 14.0062 6.67766 13.8088C6.6136 13.6114 6.5098 13.4293 6.37267 13.2735C6.23553 13.1177 6.06796 12.9917 5.88027 12.9031C5.69258 12.8146 5.48875 12.7654 5.28133 12.7586C5.22445 12.4387 5.20369 12.1134 5.21942 11.7888C5.23774 11.772 5.25595 11.755 5.27371 11.7372L9.28432 7.72664C9.30209 7.70887 9.31912 7.69064 9.33596 7.6723C9.40472 7.66906 9.47433 7.66686 9.54515 7.66686C10.1568 7.66717 10.7615 7.79636 11.3198 8.046L9.09659 10.5309C8.91052 10.7391 8.81115 11.0105 8.81888 11.2895C8.82661 11.5686 8.94085 11.8341 9.13815 12.0316C9.51258 12.4051 10.0199 12.6149 10.5488 12.6149C11.0777 12.6149 11.585 12.4051 11.9594 12.0315L13.8347 10.1558L14.9051 11.2262C15.7465 12.0674 16.5877 12.9087 17.4288 13.75L17.4298 13.7509L18.1508 14.4718C18.2272 14.5478 18.2878 14.6382 18.329 14.7377C18.3703 14.8373 18.3914 14.9441 18.3911 15.0518ZM18.5043 12.3151C18.2729 12.5893 18.0096 12.8349 17.7199 13.0466C16.9474 12.2738 16.1749 11.5013 15.4023 10.7289L14.0833 9.40997C14.0173 9.34405 13.9279 9.30701 13.8347 9.30702C13.7414 9.30703 13.652 9.34408 13.5861 9.41002L11.4622 11.5344C11.2198 11.7762 10.8913 11.9121 10.5488 11.9121C10.2063 11.9121 9.87779 11.7762 9.63533 11.5344C9.56504 11.464 9.52435 11.3694 9.52162 11.27C9.51888 11.1706 9.55431 11.0739 9.62063 10.9997L12.4008 7.8924C12.5688 7.70486 12.7744 7.55484 13.0043 7.4521C13.2341 7.34936 13.4831 7.29621 13.7348 7.29611H14.3998C14.4825 7.45492 14.589 7.60012 14.7157 7.72664L18.7263 11.7372C18.7653 11.7763 18.8059 11.8128 18.8476 11.8474C18.7434 12.0106 18.6287 12.1668 18.5043 12.3151ZM20.715 11.24C20.5171 11.4375 20.2489 11.5485 19.9693 11.5485C19.6896 11.5485 19.4214 11.4375 19.2235 11.24L15.2129 7.22941C15.0154 7.03148 14.9045 6.76327 14.9045 6.48365C14.9045 6.20402 15.0154 5.93582 15.2129 5.73788L15.4254 5.52536L20.8702 11.0849L20.715 11.24Z" fill="#0F0F0F" stroke="#0F0F0F" stroke-width="0.5"/>
</g>
<defs>
<clipPath id="clip0_64_3355">
<rect width="24" height="24" fill="white"/>
</clipPath>
</defs>
</svg>
