<svg width="24" height="21" viewBox="0 0 24 21" fill="none" xmlns="http://www.w3.org/2000/svg">
<g clip-path="url(#clip0_76_3552)">
<mask id="path-1-outside-1_76_3552" maskUnits="userSpaceOnUse" x="7.56445" y="-0.52478" width="9" height="25" fill="black">
<rect fill="white" x="7.56445" y="-0.52478" width="9" height="25"/>
<path d="M15.9014 8.62309C15.9027 8.61175 15.908 8.60199 15.908 8.59039C15.908 8.57166 15.9006 8.55505 15.8972 8.53738C15.8859 8.32323 15.8708 8.13175 15.8518 7.97219C15.7334 6.97659 15.1128 5.92402 14.6099 5.07004C14.3894 4.69632 14.1397 4.27303 14.0909 4.08868C14.0044 3.76032 13.963 3.40191 13.9432 3.15188C14.0484 3.04481 14.1106 2.89896 14.1106 2.74204V1.55707C14.1104 1.27023 13.9963 0.995223 13.7935 0.792398C13.5906 0.589573 13.3156 0.475503 13.0288 0.475224H11.4688C11.3265 0.474821 11.1854 0.502708 11.054 0.557265C10.9225 0.611822 10.8032 0.691961 10.7029 0.793026C10.6024 0.893108 10.5227 1.01216 10.4685 1.14327C10.4143 1.27438 10.3867 1.41494 10.3872 1.55681V2.74204C10.3872 2.89896 10.4492 3.04454 10.5547 3.15188C10.5352 3.40111 10.4935 3.7598 10.4062 4.08868C10.3566 4.27566 10.1058 4.70107 9.88032 5.08349C9.38265 5.92771 8.76366 6.97843 8.64524 7.97166C8.62417 8.15918 8.60913 8.34732 8.60014 8.5358C8.59645 8.554 8.58907 8.57087 8.58907 8.59013C8.58907 8.60226 8.5946 8.61228 8.59592 8.62415C8.55109 9.55356 8.56427 10.8722 8.57456 11.8947L8.57641 12.0749C8.58063 12.5074 8.58405 12.8793 8.58142 13.1369C8.57865 13.4516 8.63511 13.7641 8.74783 14.0579C8.9219 14.515 9.327 15.682 9.327 16.6438C9.327 17.3744 9.15953 18.226 9.0121 18.9774C8.87997 19.6494 8.76603 20.2299 8.76603 20.6964C8.76603 21.7268 9.00972 22.4571 9.51056 22.9292C9.78405 23.1866 10.1464 23.3227 10.5592 23.3227C10.8208 23.3227 11.0911 23.2641 11.3201 23.1584L11.3311 23.1534C11.5186 23.3061 11.7705 23.4562 12.0728 23.506C12.1274 23.5194 12.1859 23.5255 12.2447 23.5231C12.3051 23.5268 12.3657 23.521 12.4243 23.506C12.7289 23.4564 12.9871 23.3042 13.1802 23.1497C13.1863 23.1529 13.1928 23.1555 13.1992 23.1584C13.4386 23.2653 13.6978 23.3208 13.9601 23.3214C14.3588 23.3214 14.7135 23.1856 14.9863 22.9289C15.4879 22.4574 15.7318 21.7268 15.7318 20.6961C15.7318 20.2336 15.6182 19.6557 15.4831 18.9663C15.3365 18.216 15.1701 17.366 15.1701 16.6436C15.1701 15.682 15.5752 14.515 15.7492 14.0579C15.862 13.7637 15.9185 13.4509 15.9157 13.1359C15.9128 12.8787 15.9164 12.5069 15.9207 12.0746L15.922 11.9414C15.9331 10.9047 15.9473 9.56542 15.9014 8.62309ZM9.17034 12.0696L9.16849 11.8892C9.15926 10.9569 9.14739 9.77509 9.17904 8.88709H15.3188C15.3513 9.78775 15.3386 10.9891 15.3286 11.9361L15.3273 12.0696C15.3234 12.3935 15.3216 12.7173 15.3217 13.0412H9.17561C9.17693 12.788 9.17377 12.4552 9.17034 12.0696ZM9.423 7.29334C9.44172 7.29703 9.45939 7.30468 9.47944 7.30468H15.0179C15.0379 7.30468 15.0556 7.29703 15.0746 7.29334C15.1653 7.54784 15.2339 7.79997 15.2626 8.04261C15.2716 8.11804 15.2793 8.20349 15.2866 8.29369H9.21095C9.21808 8.20323 9.22599 8.11751 9.23495 8.04235C9.2637 7.79997 9.33254 7.54784 9.423 7.29334ZM10.3957 5.37835C10.6715 4.91101 10.9097 4.50696 10.9804 4.24085C11.0608 3.9365 11.1059 3.62028 11.1323 3.34889H12.4219C12.5006 3.34889 12.5761 3.31764 12.6317 3.26199C12.6874 3.20635 12.7186 3.13088 12.7186 3.05219C12.7186 2.9735 12.6874 2.89803 12.6317 2.84239C12.5761 2.78675 12.5006 2.75549 12.4219 2.75549H11.0023C10.9949 2.75153 10.9888 2.74599 10.9809 2.74257V1.55654C10.9806 1.42678 11.031 1.30441 11.1233 1.21237C11.1686 1.16666 11.2225 1.13041 11.2819 1.10574C11.3413 1.08106 11.405 1.06845 11.4693 1.06863H13.0293C13.2986 1.06863 13.5178 1.2878 13.5178 1.55707L13.5233 2.73413C13.4665 2.75766 13.4184 2.79828 13.3857 2.85035C13.353 2.90242 13.3373 2.96337 13.3408 3.02476C13.3579 3.33861 13.4028 3.80463 13.5178 4.24032C13.5877 4.50406 13.8248 4.90599 14.1041 5.37966C14.3441 5.78661 14.6131 6.24446 14.8338 6.71127H9.66484C9.88533 6.24551 10.1546 5.7874 10.3957 5.37835ZM14.5769 16.6441C14.5769 17.424 14.7489 18.3041 14.9048 19.1008C15.0303 19.7396 15.1387 20.2916 15.1387 20.6964C15.1387 21.5546 14.9559 22.1433 14.5798 22.4969C14.4171 22.6504 14.2085 22.7282 13.9603 22.7282C13.7835 22.7278 13.6086 22.6907 13.4468 22.6193C13.385 22.591 13.3237 22.5619 13.2627 22.5318C13.2081 22.5049 13.1465 22.4955 13.0863 22.5049C13.0262 22.5143 12.9703 22.542 12.9265 22.5842C12.8131 22.6934 12.5833 22.8825 12.3204 22.9218C12.3063 22.9239 12.2922 22.9269 12.2785 22.9308C12.2584 22.9292 12.2382 22.929 12.2181 22.9303C12.2053 22.9267 12.1924 22.9239 12.1793 22.9218C11.9322 22.8844 11.7238 22.7209 11.5925 22.59C11.5486 22.5464 11.492 22.5175 11.4309 22.5076C11.3697 22.4977 11.307 22.5071 11.2515 22.5347C11.2022 22.5589 11.142 22.5871 11.0716 22.6196C10.9108 22.692 10.7364 22.7293 10.56 22.729C10.3796 22.729 10.1222 22.6887 9.91829 22.4967C9.54273 22.143 9.36023 21.5541 9.36023 20.6961C9.36023 20.2874 9.46889 19.7332 9.59495 19.0916C9.74792 18.3138 9.9212 17.4321 9.9212 16.6438C9.9212 15.5834 9.48867 14.3343 9.30273 13.8467C9.27666 13.7771 9.25465 13.7062 9.2368 13.6341H15.2616C15.2438 13.7063 15.2218 13.7773 15.1957 13.8469C15.0092 14.3348 14.5769 15.5839 14.5769 16.6441Z"/>
</mask>
<path d="M15.9014 8.62309C15.9027 8.61175 15.908 8.60199 15.908 8.59039C15.908 8.57166 15.9006 8.55505 15.8972 8.53738C15.8859 8.32323 15.8708 8.13175 15.8518 7.97219C15.7334 6.97659 15.1128 5.92402 14.6099 5.07004C14.3894 4.69632 14.1397 4.27303 14.0909 4.08868C14.0044 3.76032 13.963 3.40191 13.9432 3.15188C14.0484 3.04481 14.1106 2.89896 14.1106 2.74204V1.55707C14.1104 1.27023 13.9963 0.995223 13.7935 0.792398C13.5906 0.589573 13.3156 0.475503 13.0288 0.475224H11.4688C11.3265 0.474821 11.1854 0.502708 11.054 0.557265C10.9225 0.611822 10.8032 0.691961 10.7029 0.793026C10.6024 0.893108 10.5227 1.01216 10.4685 1.14327C10.4143 1.27438 10.3867 1.41494 10.3872 1.55681V2.74204C10.3872 2.89896 10.4492 3.04454 10.5547 3.15188C10.5352 3.40111 10.4935 3.7598 10.4062 4.08868C10.3566 4.27566 10.1058 4.70107 9.88032 5.08349C9.38265 5.92771 8.76366 6.97843 8.64524 7.97166C8.62417 8.15918 8.60913 8.34732 8.60014 8.5358C8.59645 8.554 8.58907 8.57087 8.58907 8.59013C8.58907 8.60226 8.5946 8.61228 8.59592 8.62415C8.55109 9.55356 8.56427 10.8722 8.57456 11.8947L8.57641 12.0749C8.58063 12.5074 8.58405 12.8793 8.58142 13.1369C8.57865 13.4516 8.63511 13.7641 8.74783 14.0579C8.9219 14.515 9.327 15.682 9.327 16.6438C9.327 17.3744 9.15953 18.226 9.0121 18.9774C8.87997 19.6494 8.76603 20.2299 8.76603 20.6964C8.76603 21.7268 9.00972 22.4571 9.51056 22.9292C9.78405 23.1866 10.1464 23.3227 10.5592 23.3227C10.8208 23.3227 11.0911 23.2641 11.3201 23.1584L11.3311 23.1534C11.5186 23.3061 11.7705 23.4562 12.0728 23.506C12.1274 23.5194 12.1859 23.5255 12.2447 23.5231C12.3051 23.5268 12.3657 23.521 12.4243 23.506C12.7289 23.4564 12.9871 23.3042 13.1802 23.1497C13.1863 23.1529 13.1928 23.1555 13.1992 23.1584C13.4386 23.2653 13.6978 23.3208 13.9601 23.3214C14.3588 23.3214 14.7135 23.1856 14.9863 22.9289C15.4879 22.4574 15.7318 21.7268 15.7318 20.6961C15.7318 20.2336 15.6182 19.6557 15.4831 18.9663C15.3365 18.216 15.1701 17.366 15.1701 16.6436C15.1701 15.682 15.5752 14.515 15.7492 14.0579C15.862 13.7637 15.9185 13.4509 15.9157 13.1359C15.9128 12.8787 15.9164 12.5069 15.9207 12.0746L15.922 11.9414C15.9331 10.9047 15.9473 9.56542 15.9014 8.62309ZM9.17034 12.0696L9.16849 11.8892C9.15926 10.9569 9.14739 9.77509 9.17904 8.88709H15.3188C15.3513 9.78775 15.3386 10.9891 15.3286 11.9361L15.3273 12.0696C15.3234 12.3935 15.3216 12.7173 15.3217 13.0412H9.17561C9.17693 12.788 9.17377 12.4552 9.17034 12.0696ZM9.423 7.29334C9.44172 7.29703 9.45939 7.30468 9.47944 7.30468H15.0179C15.0379 7.30468 15.0556 7.29703 15.0746 7.29334C15.1653 7.54784 15.2339 7.79997 15.2626 8.04261C15.2716 8.11804 15.2793 8.20349 15.2866 8.29369H9.21095C9.21808 8.20323 9.22599 8.11751 9.23495 8.04235C9.2637 7.79997 9.33254 7.54784 9.423 7.29334ZM10.3957 5.37835C10.6715 4.91101 10.9097 4.50696 10.9804 4.24085C11.0608 3.9365 11.1059 3.62028 11.1323 3.34889H12.4219C12.5006 3.34889 12.5761 3.31764 12.6317 3.26199C12.6874 3.20635 12.7186 3.13088 12.7186 3.05219C12.7186 2.9735 12.6874 2.89803 12.6317 2.84239C12.5761 2.78675 12.5006 2.75549 12.4219 2.75549H11.0023C10.9949 2.75153 10.9888 2.74599 10.9809 2.74257V1.55654C10.9806 1.42678 11.031 1.30441 11.1233 1.21237C11.1686 1.16666 11.2225 1.13041 11.2819 1.10574C11.3413 1.08106 11.405 1.06845 11.4693 1.06863H13.0293C13.2986 1.06863 13.5178 1.2878 13.5178 1.55707L13.5233 2.73413C13.4665 2.75766 13.4184 2.79828 13.3857 2.85035C13.353 2.90242 13.3373 2.96337 13.3408 3.02476C13.3579 3.33861 13.4028 3.80463 13.5178 4.24032C13.5877 4.50406 13.8248 4.90599 14.1041 5.37966C14.3441 5.78661 14.6131 6.24446 14.8338 6.71127H9.66484C9.88533 6.24551 10.1546 5.7874 10.3957 5.37835ZM14.5769 16.6441C14.5769 17.424 14.7489 18.3041 14.9048 19.1008C15.0303 19.7396 15.1387 20.2916 15.1387 20.6964C15.1387 21.5546 14.9559 22.1433 14.5798 22.4969C14.4171 22.6504 14.2085 22.7282 13.9603 22.7282C13.7835 22.7278 13.6086 22.6907 13.4468 22.6193C13.385 22.591 13.3237 22.5619 13.2627 22.5318C13.2081 22.5049 13.1465 22.4955 13.0863 22.5049C13.0262 22.5143 12.9703 22.542 12.9265 22.5842C12.8131 22.6934 12.5833 22.8825 12.3204 22.9218C12.3063 22.9239 12.2922 22.9269 12.2785 22.9308C12.2584 22.9292 12.2382 22.929 12.2181 22.9303C12.2053 22.9267 12.1924 22.9239 12.1793 22.9218C11.9322 22.8844 11.7238 22.7209 11.5925 22.59C11.5486 22.5464 11.492 22.5175 11.4309 22.5076C11.3697 22.4977 11.307 22.5071 11.2515 22.5347C11.2022 22.5589 11.142 22.5871 11.0716 22.6196C10.9108 22.692 10.7364 22.7293 10.56 22.729C10.3796 22.729 10.1222 22.6887 9.91829 22.4967C9.54273 22.143 9.36023 21.5541 9.36023 20.6961C9.36023 20.2874 9.46889 19.7332 9.59495 19.0916C9.74792 18.3138 9.9212 17.4321 9.9212 16.6438C9.9212 15.5834 9.48867 14.3343 9.30273 13.8467C9.27666 13.7771 9.25465 13.7062 9.2368 13.6341H15.2616C15.2438 13.7063 15.2218 13.7773 15.1957 13.8469C15.0092 14.3348 14.5769 15.5839 14.5769 16.6441Z" fill="#0F0F0F"/>
<path d="M15.9014 8.62309C15.9027 8.61175 15.908 8.60199 15.908 8.59039C15.908 8.57166 15.9006 8.55505 15.8972 8.53738C15.8859 8.32323 15.8708 8.13175 15.8518 7.97219C15.7334 6.97659 15.1128 5.92402 14.6099 5.07004C14.3894 4.69632 14.1397 4.27303 14.0909 4.08868C14.0044 3.76032 13.963 3.40191 13.9432 3.15188C14.0484 3.04481 14.1106 2.89896 14.1106 2.74204V1.55707C14.1104 1.27023 13.9963 0.995223 13.7935 0.792398C13.5906 0.589573 13.3156 0.475503 13.0288 0.475224H11.4688C11.3265 0.474821 11.1854 0.502708 11.054 0.557265C10.9225 0.611822 10.8032 0.691961 10.7029 0.793026C10.6024 0.893108 10.5227 1.01216 10.4685 1.14327C10.4143 1.27438 10.3867 1.41494 10.3872 1.55681V2.74204C10.3872 2.89896 10.4492 3.04454 10.5547 3.15188C10.5352 3.40111 10.4935 3.7598 10.4062 4.08868C10.3566 4.27566 10.1058 4.70107 9.88032 5.08349C9.38265 5.92771 8.76366 6.97843 8.64524 7.97166C8.62417 8.15918 8.60913 8.34732 8.60014 8.5358C8.59645 8.554 8.58907 8.57087 8.58907 8.59013C8.58907 8.60226 8.5946 8.61228 8.59592 8.62415C8.55109 9.55356 8.56427 10.8722 8.57456 11.8947L8.57641 12.0749C8.58063 12.5074 8.58405 12.8793 8.58142 13.1369C8.57865 13.4516 8.63511 13.7641 8.74783 14.0579C8.9219 14.515 9.327 15.682 9.327 16.6438C9.327 17.3744 9.15953 18.226 9.0121 18.9774C8.87997 19.6494 8.76603 20.2299 8.76603 20.6964C8.76603 21.7268 9.00972 22.4571 9.51056 22.9292C9.78405 23.1866 10.1464 23.3227 10.5592 23.3227C10.8208 23.3227 11.0911 23.2641 11.3201 23.1584L11.3311 23.1534C11.5186 23.3061 11.7705 23.4562 12.0728 23.506C12.1274 23.5194 12.1859 23.5255 12.2447 23.5231C12.3051 23.5268 12.3657 23.521 12.4243 23.506C12.7289 23.4564 12.9871 23.3042 13.1802 23.1497C13.1863 23.1529 13.1928 23.1555 13.1992 23.1584C13.4386 23.2653 13.6978 23.3208 13.9601 23.3214C14.3588 23.3214 14.7135 23.1856 14.9863 22.9289C15.4879 22.4574 15.7318 21.7268 15.7318 20.6961C15.7318 20.2336 15.6182 19.6557 15.4831 18.9663C15.3365 18.216 15.1701 17.366 15.1701 16.6436C15.1701 15.682 15.5752 14.515 15.7492 14.0579C15.862 13.7637 15.9185 13.4509 15.9157 13.1359C15.9128 12.8787 15.9164 12.5069 15.9207 12.0746L15.922 11.9414C15.9331 10.9047 15.9473 9.56542 15.9014 8.62309ZM9.17034 12.0696L9.16849 11.8892C9.15926 10.9569 9.14739 9.77509 9.17904 8.88709H15.3188C15.3513 9.78775 15.3386 10.9891 15.3286 11.9361L15.3273 12.0696C15.3234 12.3935 15.3216 12.7173 15.3217 13.0412H9.17561C9.17693 12.788 9.17377 12.4552 9.17034 12.0696ZM9.423 7.29334C9.44172 7.29703 9.45939 7.30468 9.47944 7.30468H15.0179C15.0379 7.30468 15.0556 7.29703 15.0746 7.29334C15.1653 7.54784 15.2339 7.79997 15.2626 8.04261C15.2716 8.11804 15.2793 8.20349 15.2866 8.29369H9.21095C9.21808 8.20323 9.22599 8.11751 9.23495 8.04235C9.2637 7.79997 9.33254 7.54784 9.423 7.29334ZM10.3957 5.37835C10.6715 4.91101 10.9097 4.50696 10.9804 4.24085C11.0608 3.9365 11.1059 3.62028 11.1323 3.34889H12.4219C12.5006 3.34889 12.5761 3.31764 12.6317 3.26199C12.6874 3.20635 12.7186 3.13088 12.7186 3.05219C12.7186 2.9735 12.6874 2.89803 12.6317 2.84239C12.5761 2.78675 12.5006 2.75549 12.4219 2.75549H11.0023C10.9949 2.75153 10.9888 2.74599 10.9809 2.74257V1.55654C10.9806 1.42678 11.031 1.30441 11.1233 1.21237C11.1686 1.16666 11.2225 1.13041 11.2819 1.10574C11.3413 1.08106 11.405 1.06845 11.4693 1.06863H13.0293C13.2986 1.06863 13.5178 1.2878 13.5178 1.55707L13.5233 2.73413C13.4665 2.75766 13.4184 2.79828 13.3857 2.85035C13.353 2.90242 13.3373 2.96337 13.3408 3.02476C13.3579 3.33861 13.4028 3.80463 13.5178 4.24032C13.5877 4.50406 13.8248 4.90599 14.1041 5.37966C14.3441 5.78661 14.6131 6.24446 14.8338 6.71127H9.66484C9.88533 6.24551 10.1546 5.7874 10.3957 5.37835ZM14.5769 16.6441C14.5769 17.424 14.7489 18.3041 14.9048 19.1008C15.0303 19.7396 15.1387 20.2916 15.1387 20.6964C15.1387 21.5546 14.9559 22.1433 14.5798 22.4969C14.4171 22.6504 14.2085 22.7282 13.9603 22.7282C13.7835 22.7278 13.6086 22.6907 13.4468 22.6193C13.385 22.591 13.3237 22.5619 13.2627 22.5318C13.2081 22.5049 13.1465 22.4955 13.0863 22.5049C13.0262 22.5143 12.9703 22.542 12.9265 22.5842C12.8131 22.6934 12.5833 22.8825 12.3204 22.9218C12.3063 22.9239 12.2922 22.9269 12.2785 22.9308C12.2584 22.9292 12.2382 22.929 12.2181 22.9303C12.2053 22.9267 12.1924 22.9239 12.1793 22.9218C11.9322 22.8844 11.7238 22.7209 11.5925 22.59C11.5486 22.5464 11.492 22.5175 11.4309 22.5076C11.3697 22.4977 11.307 22.5071 11.2515 22.5347C11.2022 22.5589 11.142 22.5871 11.0716 22.6196C10.9108 22.692 10.7364 22.7293 10.56 22.729C10.3796 22.729 10.1222 22.6887 9.91829 22.4967C9.54273 22.143 9.36023 21.5541 9.36023 20.6961C9.36023 20.2874 9.46889 19.7332 9.59495 19.0916C9.74792 18.3138 9.9212 17.4321 9.9212 16.6438C9.9212 15.5834 9.48867 14.3343 9.30273 13.8467C9.27666 13.7771 9.25465 13.7062 9.2368 13.6341H15.2616C15.2438 13.7063 15.2218 13.7773 15.1957 13.8469C15.0092 14.3348 14.5769 15.5839 14.5769 16.6441Z" stroke="#0F0F0F" mask="url(#path-1-outside-1_76_3552)"/>
</g>
<defs>
<clipPath id="clip0_76_3552">
<rect width="24" height="24" fill="white"/>
</clipPath>
</defs>
</svg>
