<svg width="24" height="24" viewBox="0 0 24 24" fill="none" xmlns="http://www.w3.org/2000/svg">
<mask id="path-1-outside-1_76_3562" maskUnits="userSpaceOnUse" x="3.875" y="-0.25" width="16" height="24" fill="black">
<rect fill="white" x="3.875" y="-0.25" width="16" height="24"/>
<path d="M5.25 23.25H18.75C18.8495 23.25 18.9448 23.2105 19.0152 23.1402C19.0855 23.0698 19.125 22.9745 19.125 22.875V19.125C19.1006 16.0238 16.44 13.9789 13.5 14.25V13.1861C14.1597 12.898 14.7216 12.4248 15.1178 11.8238C16.1357 10.8545 16.8554 9.61459 17.1923 8.25C19.452 8.15325 19.1617 5.02388 16.875 5.25C16.9205 4.67903 16.8478 4.10482 16.6615 3.56318C16.4752 3.02154 16.1793 2.52409 15.7923 2.10187C15.4052 1.67964 14.9354 1.3417 14.4119 1.10911C13.8885 0.876516 13.3228 0.754273 12.75 0.75H11.25C10.6772 0.754273 10.1115 0.876516 9.58807 1.10911C9.06465 1.3417 8.59476 1.67964 8.20772 2.10187C7.82068 2.52409 7.52479 3.02154 7.33851 3.56318C7.15223 4.10482 7.07955 4.67903 7.125 5.25C4.83825 5.02425 4.54875 8.15175 6.80588 8.25C7.06417 9.27025 7.52985 10.2264 8.17388 11.0588C6.78075 12.2175 7.00687 13.3703 7.43775 14.8324C6.66442 15.2518 6.01833 15.8717 5.56738 16.627C5.11643 17.3824 4.87725 18.2453 4.875 19.125V22.875C4.875 22.9745 4.91451 23.0698 4.98484 23.1402C5.05516 23.2105 5.15054 23.25 5.25 23.25ZM7.875 22.5V18.6893C7.902 18.6949 7.92863 18.7016 7.95563 18.7061C8.01707 18.8314 8.1123 18.937 8.23058 19.011C8.34886 19.085 8.48547 19.1245 8.625 19.125H9.375C9.48914 19.1218 9.6012 19.0937 9.70341 19.0428C9.80563 18.9919 9.89554 18.9194 9.9669 18.8303C10.0383 18.7411 10.0894 18.6376 10.1167 18.5267C10.144 18.4158 10.1468 18.3003 10.125 18.1882C10.2044 18.1295 10.2806 18.0667 10.3534 18H13.875V18.375C13.8752 18.5739 13.9543 18.7645 14.0949 18.9051C14.2355 19.0457 14.4261 19.1248 14.625 19.125H15.375C15.5739 19.1248 15.7645 19.0457 15.9051 18.9051C16.0457 18.7645 16.1248 18.5739 16.125 18.375V22.5H7.875ZM15.375 18.375H14.625V15.0187C14.8788 15.0423 15.1299 15.0895 15.375 15.1597V18.375ZM18.375 19.125V22.5H16.875V18.375C16.8743 18.1431 16.8018 17.9171 16.6676 17.728C16.5333 17.5389 16.3437 17.396 16.125 17.319V15.4552C16.8015 15.8006 17.3695 16.326 17.7665 16.9735C18.1635 17.621 18.374 18.3655 18.375 19.125ZM13.875 15V17.25H10.935C11.0966 16.9508 11.2004 16.6239 11.241 16.2863C11.4685 16.4186 11.7267 16.489 11.9899 16.4902C12.2531 16.4915 12.512 16.4236 12.7407 16.2934C12.9695 16.1631 13.16 15.9751 13.2932 15.7482C13.4265 15.5212 13.4978 15.2632 13.5 15H13.875ZM10.5 14.3201C10.1243 13.8966 9.88817 13.3676 9.82388 12.8051C10.0354 12.9542 10.2621 13.0806 10.5 13.1824V14.3201ZM12.75 15C12.75 15.1989 12.671 15.3897 12.5303 15.5303C12.3897 15.671 12.1989 15.75 12 15.75C11.8011 15.75 11.6103 15.671 11.4697 15.5303C11.329 15.3897 11.25 15.1989 11.25 15V13.4183C11.7442 13.5237 12.2549 13.526 12.75 13.425V15ZM12 12.75C11.2055 12.7463 10.4446 12.429 9.88282 11.8672C9.32102 11.3054 9.00375 10.5445 9 9.75V8.25H15V9.75C14.9951 10.5441 14.6774 11.3043 14.1159 11.8659C13.5543 12.4274 12.7941 12.7451 12 12.75ZM15.7432 9.84225C15.744 9.8115 15.75 8.25 15.75 8.25H16.419C16.2597 8.80639 16.0328 9.34114 15.7432 9.84225ZM7.875 4.875C7.87803 4.62225 7.90961 4.37066 7.96912 4.125H16.0309C16.1121 4.49415 16.1437 4.87248 16.125 5.25H7.875V4.875ZM11.25 1.5H12.75C13.3788 1.49839 13.9955 1.67326 14.5299 2.00472C15.0643 2.33618 15.4949 2.81093 15.7729 3.375H8.2275C8.50543 2.81099 8.93603 2.33627 9.47034 2.00482C10.0046 1.67336 10.6212 1.49846 11.25 1.5ZM5.99925 6.71063C6.0211 6.51159 6.11698 6.32804 6.26786 6.19641C6.41874 6.06477 6.61359 5.99466 6.81375 6H17.1863C17.3364 5.99154 17.4857 6.0278 17.6152 6.10419C17.7447 6.18059 17.8487 6.29368 17.9139 6.42917C17.9791 6.56465 18.0027 6.71645 17.9817 6.86534C17.9606 7.01423 17.8959 7.15353 17.7956 7.26562C17.7256 7.33999 17.641 7.39917 17.5472 7.43948C17.4533 7.4798 17.3522 7.5004 17.25 7.5H6.75C6.64826 7.4995 6.54767 7.47844 6.45427 7.4381C6.36087 7.39776 6.27658 7.33897 6.20646 7.26524C6.13635 7.19152 6.08185 7.10439 6.04624 7.00909C6.01064 6.91378 5.99465 6.81226 5.99925 6.71063ZM8.25 8.25C8.25 8.25 8.25637 9.81675 8.25712 9.8505C7.96659 9.34679 7.73914 8.80925 7.57987 8.25H8.25ZM7.8675 12.8243C7.9912 12.3441 8.27412 11.9201 8.67 11.6216C8.8158 11.7532 8.94626 11.9009 9.05888 12.0619C9.01033 12.5818 9.07215 13.1061 9.2403 13.6005C9.40845 14.0949 9.67914 14.5481 10.0346 14.9306C10.2832 15.1586 10.4481 15.4633 10.503 15.7961C10.698 17.2286 8.98575 18.4736 7.64625 17.8474C8.13398 16.9785 8.33404 15.9776 8.21775 14.988C8.151 14.2024 7.73325 13.5649 7.8675 12.8243ZM5.625 19.125C5.62662 18.4382 5.79879 17.7625 6.12605 17.1586C6.45332 16.5547 6.92543 16.0416 7.5 15.6652C7.46374 16.4266 7.22433 17.1644 6.80662 17.802C6.63487 18.0746 6.8655 18.3353 7.125 18.4234V22.5H5.625V19.125Z"/>
</mask>
<path d="M5.25 23.25H18.75C18.8495 23.25 18.9448 23.2105 19.0152 23.1402C19.0855 23.0698 19.125 22.9745 19.125 22.875V19.125C19.1006 16.0238 16.44 13.9789 13.5 14.25V13.1861C14.1597 12.898 14.7216 12.4248 15.1178 11.8238C16.1357 10.8545 16.8554 9.61459 17.1923 8.25C19.452 8.15325 19.1617 5.02388 16.875 5.25C16.9205 4.67903 16.8478 4.10482 16.6615 3.56318C16.4752 3.02154 16.1793 2.52409 15.7923 2.10187C15.4052 1.67964 14.9354 1.3417 14.4119 1.10911C13.8885 0.876516 13.3228 0.754273 12.75 0.75H11.25C10.6772 0.754273 10.1115 0.876516 9.58807 1.10911C9.06465 1.3417 8.59476 1.67964 8.20772 2.10187C7.82068 2.52409 7.52479 3.02154 7.33851 3.56318C7.15223 4.10482 7.07955 4.67903 7.125 5.25C4.83825 5.02425 4.54875 8.15175 6.80588 8.25C7.06417 9.27025 7.52985 10.2264 8.17388 11.0588C6.78075 12.2175 7.00687 13.3703 7.43775 14.8324C6.66442 15.2518 6.01833 15.8717 5.56738 16.627C5.11643 17.3824 4.87725 18.2453 4.875 19.125V22.875C4.875 22.9745 4.91451 23.0698 4.98484 23.1402C5.05516 23.2105 5.15054 23.25 5.25 23.25ZM7.875 22.5V18.6893C7.902 18.6949 7.92863 18.7016 7.95563 18.7061C8.01707 18.8314 8.1123 18.937 8.23058 19.011C8.34886 19.085 8.48547 19.1245 8.625 19.125H9.375C9.48914 19.1218 9.6012 19.0937 9.70341 19.0428C9.80563 18.9919 9.89554 18.9194 9.9669 18.8303C10.0383 18.7411 10.0894 18.6376 10.1167 18.5267C10.144 18.4158 10.1468 18.3003 10.125 18.1882C10.2044 18.1295 10.2806 18.0667 10.3534 18H13.875V18.375C13.8752 18.5739 13.9543 18.7645 14.0949 18.9051C14.2355 19.0457 14.4261 19.1248 14.625 19.125H15.375C15.5739 19.1248 15.7645 19.0457 15.9051 18.9051C16.0457 18.7645 16.1248 18.5739 16.125 18.375V22.5H7.875ZM15.375 18.375H14.625V15.0187C14.8788 15.0423 15.1299 15.0895 15.375 15.1597V18.375ZM18.375 19.125V22.5H16.875V18.375C16.8743 18.1431 16.8018 17.9171 16.6676 17.728C16.5333 17.5389 16.3437 17.396 16.125 17.319V15.4552C16.8015 15.8006 17.3695 16.326 17.7665 16.9735C18.1635 17.621 18.374 18.3655 18.375 19.125ZM13.875 15V17.25H10.935C11.0966 16.9508 11.2004 16.6239 11.241 16.2863C11.4685 16.4186 11.7267 16.489 11.9899 16.4902C12.2531 16.4915 12.512 16.4236 12.7407 16.2934C12.9695 16.1631 13.16 15.9751 13.2932 15.7482C13.4265 15.5212 13.4978 15.2632 13.5 15H13.875ZM10.5 14.3201C10.1243 13.8966 9.88817 13.3676 9.82388 12.8051C10.0354 12.9542 10.2621 13.0806 10.5 13.1824V14.3201ZM12.75 15C12.75 15.1989 12.671 15.3897 12.5303 15.5303C12.3897 15.671 12.1989 15.75 12 15.75C11.8011 15.75 11.6103 15.671 11.4697 15.5303C11.329 15.3897 11.25 15.1989 11.25 15V13.4183C11.7442 13.5237 12.2549 13.526 12.75 13.425V15ZM12 12.75C11.2055 12.7463 10.4446 12.429 9.88282 11.8672C9.32102 11.3054 9.00375 10.5445 9 9.75V8.25H15V9.75C14.9951 10.5441 14.6774 11.3043 14.1159 11.8659C13.5543 12.4274 12.7941 12.7451 12 12.75ZM15.7432 9.84225C15.744 9.8115 15.75 8.25 15.75 8.25H16.419C16.2597 8.80639 16.0328 9.34114 15.7432 9.84225ZM7.875 4.875C7.87803 4.62225 7.90961 4.37066 7.96912 4.125H16.0309C16.1121 4.49415 16.1437 4.87248 16.125 5.25H7.875V4.875ZM11.25 1.5H12.75C13.3788 1.49839 13.9955 1.67326 14.5299 2.00472C15.0643 2.33618 15.4949 2.81093 15.7729 3.375H8.2275C8.50543 2.81099 8.93603 2.33627 9.47034 2.00482C10.0046 1.67336 10.6212 1.49846 11.25 1.5ZM5.99925 6.71063C6.0211 6.51159 6.11698 6.32804 6.26786 6.19641C6.41874 6.06477 6.61359 5.99466 6.81375 6H17.1863C17.3364 5.99154 17.4857 6.0278 17.6152 6.10419C17.7447 6.18059 17.8487 6.29368 17.9139 6.42917C17.9791 6.56465 18.0027 6.71645 17.9817 6.86534C17.9606 7.01423 17.8959 7.15353 17.7956 7.26562C17.7256 7.33999 17.641 7.39917 17.5472 7.43948C17.4533 7.4798 17.3522 7.5004 17.25 7.5H6.75C6.64826 7.4995 6.54767 7.47844 6.45427 7.4381C6.36087 7.39776 6.27658 7.33897 6.20646 7.26524C6.13635 7.19152 6.08185 7.10439 6.04624 7.00909C6.01064 6.91378 5.99465 6.81226 5.99925 6.71063ZM8.25 8.25C8.25 8.25 8.25637 9.81675 8.25712 9.8505C7.96659 9.34679 7.73914 8.80925 7.57987 8.25H8.25ZM7.8675 12.8243C7.9912 12.3441 8.27412 11.9201 8.67 11.6216C8.8158 11.7532 8.94626 11.9009 9.05888 12.0619C9.01033 12.5818 9.07215 13.1061 9.2403 13.6005C9.40845 14.0949 9.67914 14.5481 10.0346 14.9306C10.2832 15.1586 10.4481 15.4633 10.503 15.7961C10.698 17.2286 8.98575 18.4736 7.64625 17.8474C8.13398 16.9785 8.33404 15.9776 8.21775 14.988C8.151 14.2024 7.73325 13.5649 7.8675 12.8243ZM5.625 19.125C5.62662 18.4382 5.79879 17.7625 6.12605 17.1586C6.45332 16.5547 6.92543 16.0416 7.5 15.6652C7.46374 16.4266 7.22433 17.1644 6.80662 17.802C6.63487 18.0746 6.8655 18.3353 7.125 18.4234V22.5H5.625V19.125Z" fill="#0F0F0F"/>
<path d="M5.25 23.25H18.75C18.8495 23.25 18.9448 23.2105 19.0152 23.1402C19.0855 23.0698 19.125 22.9745 19.125 22.875V19.125C19.1006 16.0238 16.44 13.9789 13.5 14.25V13.1861C14.1597 12.898 14.7216 12.4248 15.1178 11.8238C16.1357 10.8545 16.8554 9.61459 17.1923 8.25C19.452 8.15325 19.1617 5.02388 16.875 5.25C16.9205 4.67903 16.8478 4.10482 16.6615 3.56318C16.4752 3.02154 16.1793 2.52409 15.7923 2.10187C15.4052 1.67964 14.9354 1.3417 14.4119 1.10911C13.8885 0.876516 13.3228 0.754273 12.75 0.75H11.25C10.6772 0.754273 10.1115 0.876516 9.58807 1.10911C9.06465 1.3417 8.59476 1.67964 8.20772 2.10187C7.82068 2.52409 7.52479 3.02154 7.33851 3.56318C7.15223 4.10482 7.07955 4.67903 7.125 5.25C4.83825 5.02425 4.54875 8.15175 6.80588 8.25C7.06417 9.27025 7.52985 10.2264 8.17388 11.0588C6.78075 12.2175 7.00687 13.3703 7.43775 14.8324C6.66442 15.2518 6.01833 15.8717 5.56738 16.627C5.11643 17.3824 4.87725 18.2453 4.875 19.125V22.875C4.875 22.9745 4.91451 23.0698 4.98484 23.1402C5.05516 23.2105 5.15054 23.25 5.25 23.25ZM7.875 22.5V18.6893C7.902 18.6949 7.92863 18.7016 7.95563 18.7061C8.01707 18.8314 8.1123 18.937 8.23058 19.011C8.34886 19.085 8.48547 19.1245 8.625 19.125H9.375C9.48914 19.1218 9.6012 19.0937 9.70341 19.0428C9.80563 18.9919 9.89554 18.9194 9.9669 18.8303C10.0383 18.7411 10.0894 18.6376 10.1167 18.5267C10.144 18.4158 10.1468 18.3003 10.125 18.1882C10.2044 18.1295 10.2806 18.0667 10.3534 18H13.875V18.375C13.8752 18.5739 13.9543 18.7645 14.0949 18.9051C14.2355 19.0457 14.4261 19.1248 14.625 19.125H15.375C15.5739 19.1248 15.7645 19.0457 15.9051 18.9051C16.0457 18.7645 16.1248 18.5739 16.125 18.375V22.5H7.875ZM15.375 18.375H14.625V15.0187C14.8788 15.0423 15.1299 15.0895 15.375 15.1597V18.375ZM18.375 19.125V22.5H16.875V18.375C16.8743 18.1431 16.8018 17.9171 16.6676 17.728C16.5333 17.5389 16.3437 17.396 16.125 17.319V15.4552C16.8015 15.8006 17.3695 16.326 17.7665 16.9735C18.1635 17.621 18.374 18.3655 18.375 19.125ZM13.875 15V17.25H10.935C11.0966 16.9508 11.2004 16.6239 11.241 16.2863C11.4685 16.4186 11.7267 16.489 11.9899 16.4902C12.2531 16.4915 12.512 16.4236 12.7407 16.2934C12.9695 16.1631 13.16 15.9751 13.2932 15.7482C13.4265 15.5212 13.4978 15.2632 13.5 15H13.875ZM10.5 14.3201C10.1243 13.8966 9.88817 13.3676 9.82388 12.8051C10.0354 12.9542 10.2621 13.0806 10.5 13.1824V14.3201ZM12.75 15C12.75 15.1989 12.671 15.3897 12.5303 15.5303C12.3897 15.671 12.1989 15.75 12 15.75C11.8011 15.75 11.6103 15.671 11.4697 15.5303C11.329 15.3897 11.25 15.1989 11.25 15V13.4183C11.7442 13.5237 12.2549 13.526 12.75 13.425V15ZM12 12.75C11.2055 12.7463 10.4446 12.429 9.88282 11.8672C9.32102 11.3054 9.00375 10.5445 9 9.75V8.25H15V9.75C14.9951 10.5441 14.6774 11.3043 14.1159 11.8659C13.5543 12.4274 12.7941 12.7451 12 12.75ZM15.7432 9.84225C15.744 9.8115 15.75 8.25 15.75 8.25H16.419C16.2597 8.80639 16.0328 9.34114 15.7432 9.84225ZM7.875 4.875C7.87803 4.62225 7.90961 4.37066 7.96912 4.125H16.0309C16.1121 4.49415 16.1437 4.87248 16.125 5.25H7.875V4.875ZM11.25 1.5H12.75C13.3788 1.49839 13.9955 1.67326 14.5299 2.00472C15.0643 2.33618 15.4949 2.81093 15.7729 3.375H8.2275C8.50543 2.81099 8.93603 2.33627 9.47034 2.00482C10.0046 1.67336 10.6212 1.49846 11.25 1.5ZM5.99925 6.71063C6.0211 6.51159 6.11698 6.32804 6.26786 6.19641C6.41874 6.06477 6.61359 5.99466 6.81375 6H17.1863C17.3364 5.99154 17.4857 6.0278 17.6152 6.10419C17.7447 6.18059 17.8487 6.29368 17.9139 6.42917C17.9791 6.56465 18.0027 6.71645 17.9817 6.86534C17.9606 7.01423 17.8959 7.15353 17.7956 7.26562C17.7256 7.33999 17.641 7.39917 17.5472 7.43948C17.4533 7.4798 17.3522 7.5004 17.25 7.5H6.75C6.64826 7.4995 6.54767 7.47844 6.45427 7.4381C6.36087 7.39776 6.27658 7.33897 6.20646 7.26524C6.13635 7.19152 6.08185 7.10439 6.04624 7.00909C6.01064 6.91378 5.99465 6.81226 5.99925 6.71063ZM8.25 8.25C8.25 8.25 8.25637 9.81675 8.25712 9.8505C7.96659 9.34679 7.73914 8.80925 7.57987 8.25H8.25ZM7.8675 12.8243C7.9912 12.3441 8.27412 11.9201 8.67 11.6216C8.8158 11.7532 8.94626 11.9009 9.05888 12.0619C9.01033 12.5818 9.07215 13.1061 9.2403 13.6005C9.40845 14.0949 9.67914 14.5481 10.0346 14.9306C10.2832 15.1586 10.4481 15.4633 10.503 15.7961C10.698 17.2286 8.98575 18.4736 7.64625 17.8474C8.13398 16.9785 8.33404 15.9776 8.21775 14.988C8.151 14.2024 7.73325 13.5649 7.8675 12.8243ZM5.625 19.125C5.62662 18.4382 5.79879 17.7625 6.12605 17.1586C6.45332 16.5547 6.92543 16.0416 7.5 15.6652C7.46374 16.4266 7.22433 17.1644 6.80662 17.802C6.63487 18.0746 6.8655 18.3353 7.125 18.4234V22.5H5.625V19.125Z" stroke="#0F0F0F" mask="url(#path-1-outside-1_76_3562)"/>
<path d="M13.875 20.375H10.125C9.95924 20.375 9.80027 20.4408 9.68306 20.5581C9.56585 20.6753 9.5 20.8342 9.5 21C9.5 21.1658 9.56585 21.3247 9.68306 21.4419C9.80027 21.5592 9.95924 21.625 10.125 21.625H13.875C14.0408 21.625 14.1997 21.5592 14.3169 21.4419C14.4342 21.3247 14.5 21.1658 14.5 21C14.5 20.8342 14.4342 20.6753 14.3169 20.5581C14.1997 20.4408 14.0408 20.375 13.875 20.375Z" fill="#0F0F0F" stroke="#0F0F0F" stroke-width="0.5"/>
</svg>
