<svg width="24" height="24" viewBox="0 0 24 24" fill="none" xmlns="http://www.w3.org/2000/svg">
<g id="Fast food">
<path id="Vector" d="M19.944 12.336C19.944 11.784 19.584 11.328 19.08 11.184V10.8C19.08 8.448 17.184 6.552 14.832 6.552H9.16803C6.81603 6.552 4.92003 8.448 4.92003 10.8V11.208C4.41603 11.352 4.05603 11.808 4.05603 12.36C4.05603 12.888 4.39203 13.344 4.87203 13.488V14.4C4.87203 16.08 6.24003 17.448 7.92003 17.448H16.488C17.928 17.448 19.128 16.272 19.128 14.808V13.464C19.584 13.32 19.944 12.864 19.944 12.336ZM9.16803 7.032H14.808C16.896 7.032 18.576 8.712 18.576 10.8V11.16H5.40003V10.8C5.40003 8.736 7.10403 7.032 9.16803 7.032ZM16.488 16.968H7.92003C6.50403 16.968 5.35203 15.816 5.35203 14.4V13.776C5.44803 13.944 5.59203 14.112 5.73603 14.256C6.02403 14.496 6.43203 14.616 6.81603 14.52C7.29603 14.376 7.65603 13.896 8.16003 13.824C8.64003 13.752 9.07203 14.04 9.43203 14.352C9.79203 14.664 10.176 15 10.656 15.048C11.136 15.072 11.568 14.76 11.976 14.496C12.36 14.208 12.84 13.944 13.296 14.04C13.656 14.112 13.944 14.4 14.256 14.616C14.568 14.832 15 14.976 15.312 14.736C15.48 14.616 15.552 14.424 15.696 14.28C15.936 14.064 16.296 14.016 16.632 14.088C16.944 14.16 17.256 14.304 17.568 14.376C17.88 14.472 18.24 14.496 18.528 14.304C18.576 14.28 18.6 14.256 18.624 14.208V14.832C18.648 16.008 17.664 16.968 16.488 16.968Z" fill="#0F0F0F" stroke="#0F0F0F" stroke-width="0.5"/>
<path id="Vector_2" d="M8.61606 8.44796C8.66406 8.49596 8.71206 8.49596 8.76006 8.49596C8.83206 8.49596 8.90406 8.47196 8.95206 8.39996C9.04806 8.30396 9.02406 8.13596 8.92806 8.06396L8.59206 7.77596C8.49606 7.67996 8.32806 7.70396 8.25606 7.79996C8.16006 7.89596 8.18406 8.06396 8.28006 8.13596L8.61606 8.44796ZM9.64806 9.59996C9.69606 9.69596 9.76806 9.74396 9.86406 9.74396C9.88806 9.74396 9.93606 9.74396 9.96006 9.71996C10.0801 9.67196 10.1521 9.52796 10.1041 9.40796L9.93606 8.99996C9.88806 8.87996 9.74406 8.80796 9.62406 8.85596C9.50406 8.90396 9.43206 9.04796 9.48006 9.16796L9.64806 9.59996ZM12.6241 8.47196C12.6961 8.47196 12.7681 8.44796 12.7921 8.39996L13.0801 8.06396C13.1761 7.96796 13.1521 7.82396 13.0561 7.72796C12.9601 7.63196 12.8161 7.65596 12.7201 7.75196L12.4321 8.08796C12.3361 8.18396 12.3601 8.32796 12.4561 8.42396C12.5041 8.44796 12.5761 8.47196 12.6241 8.47196ZM11.2081 9.67196C11.2321 9.79196 11.3281 9.86396 11.4481 9.86396H11.4961L11.9281 9.79196C12.0481 9.76796 12.1441 9.64796 12.1201 9.52796C12.0961 9.40796 11.9761 9.31196 11.8561 9.33596L11.4241 9.40796C11.2561 9.40796 11.1841 9.52796 11.2081 9.67196ZM15.7441 9.83996C15.8161 9.83996 15.8881 9.81596 15.9121 9.76796L16.2001 9.43196C16.2961 9.33596 16.2721 9.19196 16.1761 9.09596C16.0801 8.99996 15.9361 9.02396 15.8401 9.11996L15.5521 9.45596C15.4561 9.55196 15.4801 9.69596 15.5761 9.79196C15.6481 9.81596 15.6961 9.83996 15.7441 9.83996ZM14.3041 8.39996C14.3761 8.39996 14.4481 8.37596 14.4721 8.32796L14.7601 7.99196C14.8561 7.89596 14.8321 7.75196 14.7361 7.65596C14.6401 7.55996 14.4961 7.58396 14.4001 7.67996L14.1121 8.01596C14.0161 8.11196 14.0401 8.25596 14.1361 8.35196C14.2081 8.37596 14.2561 8.39996 14.3041 8.39996ZM11.0641 8.51996H11.1121C11.2321 8.49596 11.3281 8.37596 11.3041 8.25596L11.2321 7.82396C11.2081 7.70396 11.0881 7.60796 10.9681 7.63196C10.8481 7.65596 10.7521 7.77596 10.7761 7.89596L10.8481 8.32796C10.8241 8.44796 10.9441 8.51996 11.0641 8.51996ZM13.7521 9.88796H13.8001C13.9201 9.86396 14.0161 9.74396 13.9921 9.62396L13.9201 9.16796C13.8961 9.04796 13.7761 8.95196 13.6561 8.97596C13.5361 8.99996 13.4401 9.11996 13.4641 9.23996L13.5361 9.67196C13.5361 9.79196 13.6321 9.88796 13.7521 9.88796Z" fill="#0F0F0F" stroke="#0F0F0F" stroke-width="0.5"/>
</g>
</svg>
