<svg width="24" height="24" viewBox="0 0 24 24" fill="none" xmlns="http://www.w3.org/2000/svg">
<g clip-path="url(#clip0_76_3554)">
<path d="M23.0466 7.58538L23.0467 7.58534C23.1978 7.51068 23.3685 7.48499 23.5349 7.51185C23.7013 7.53871 23.8552 7.61678 23.9752 7.7352M23.0466 7.58538L23.9752 7.7352M23.0466 7.58538C21.4172 8.39107 19.9938 9.58026 18.8753 11.057C17.7139 9.52049 16.242 8.32131 14.5874 7.52938C14.6157 7.20822 14.6289 6.8069 14.5839 6.40175C14.5306 5.92148 14.3922 5.40553 14.0703 5.01708C13.7517 4.63232 13.3063 4.4292 12.7973 4.4292C9.03891 4.4292 6.88856 6.38415 6.28675 7.02273C3.76414 7.8768 1.5619 9.63267 0.0709266 12.0653L0.0708467 12.0654L-0.108494 12.3584L-0.18841 12.489L-0.108442 12.6196L0.0708991 12.9123L0.0709503 12.9124C1.57702 15.3687 3.80781 17.1346 6.36134 17.9788C7.04819 18.6809 9.17304 20.4962 12.7976 20.4962C13.3062 20.4962 13.7516 20.2937 14.0706 19.9086L14.0707 19.9085C14.3844 19.5295 14.5236 19.0293 14.5799 18.5601C14.6274 18.1636 14.618 17.7688 14.592 17.4471C16.2445 16.6548 17.7145 15.4563 18.875 13.9214C19.9936 15.3988 21.4168 16.5876 23.0464 17.3935C23.1993 17.4692 23.3722 17.4947 23.5404 17.4662C23.7086 17.4378 23.8636 17.3569 23.983 17.2351C24.1025 17.1137 24.1807 16.9577 24.2064 16.7893C24.2322 16.6207 24.2041 16.4483 24.1261 16.2967L24.126 16.2965C23.2002 14.499 23.1936 12.6038 23.4278 11.1399C23.6565 9.70971 24.1118 8.71172 24.1362 8.65887M23.0466 7.58538L24.1362 8.65887M23.9752 7.7352C24.0951 7.8535 24.175 8.00634 24.2037 8.17232C24.2323 8.3376 24.2087 8.50766 24.1362 8.65887M23.9752 7.7352L24.1362 8.65887M12.7973 6.04876C12.8088 6.04876 12.8169 6.04933 12.8223 6.04994L12.8229 6.0506C12.8744 6.11258 12.9283 6.25584 12.9593 6.48925C12.9764 6.61736 12.985 6.75918 12.9866 6.90613C12.0919 6.63647 11.1666 6.48192 10.233 6.44615C10.9491 6.21065 11.8023 6.04876 12.7973 6.04876ZM10.3813 18.5269C11.273 18.4808 12.1461 18.326 12.9862 18.0734C12.983 18.2095 12.9736 18.3401 12.9568 18.4582C12.9252 18.6799 12.8729 18.8159 12.8233 18.876C12.8179 18.8766 12.8095 18.8772 12.7976 18.8772C11.8701 18.8772 11.066 18.7366 10.3813 18.5269ZM5.98503 8.88032C7.50109 11.0016 7.5007 13.9768 5.98498 16.0989C4.30721 15.351 2.8273 14.1164 1.7242 12.4895C2.82753 10.8624 4.30724 9.62821 5.98503 8.88032ZM9.81841 16.9213C9.04797 16.9213 8.29122 16.8238 7.55848 16.6405C9.11765 14.132 9.11764 10.846 7.55885 8.33795C8.29741 8.15306 9.05618 8.05883 9.81837 8.05764C13.0299 8.05772 16.0221 9.70039 17.9129 12.489C16.0228 15.2789 13.0303 16.9213 9.81841 16.9213ZM19.8398 12.4893C20.435 11.6124 21.1457 10.841 21.9481 10.1972C21.6812 11.4116 21.5185 13.0152 21.8693 14.7179C21.0989 14.0869 20.4149 13.3375 19.8398 12.4893Z" fill="#0F0F0F" stroke="#0F0F0F" stroke-width="0.5"/>
<path d="M5.21807 12.0691L5.46807 12.0697C5.46858 11.8555 5.38406 11.6499 5.23307 11.498C5.08209 11.346 4.87698 11.2603 4.66279 11.2594V11.2594H4.66185C4.44701 11.2594 4.24098 11.3448 4.08906 11.4967C3.93715 11.6486 3.85181 11.8547 3.85181 12.0695C3.85181 12.2843 3.93715 12.4904 4.08906 12.6423C4.24098 12.7942 4.44701 12.8795 4.66185 12.8795L4.66279 12.8795C4.76894 12.8791 4.87398 12.8578 4.9719 12.8168C5.06982 12.7758 5.1587 12.716 5.23348 12.6406C5.30825 12.5653 5.36746 12.4759 5.40771 12.3777C5.44796 12.2795 5.46847 12.1743 5.46807 12.0681L5.21807 12.0691ZM5.21807 12.0691C5.21835 12.1424 5.20418 12.2151 5.17638 12.2829C5.14858 12.3508 5.10768 12.4125 5.05603 12.4645C5.00438 12.5166 4.94299 12.5579 4.87535 12.5862C4.80772 12.6145 4.73517 12.6293 4.66185 12.6295C4.51332 12.6295 4.37087 12.5705 4.26584 12.4655C4.16081 12.3605 4.10181 12.218 4.10181 12.0695C4.10181 11.921 4.16081 11.7785 4.26584 11.6735C4.37087 11.5684 4.51332 11.5094 4.66185 11.5094C4.80979 11.51 4.95146 11.5693 5.05575 11.6742C5.16004 11.7791 5.21842 11.9212 5.21807 12.0691ZM13.2743 10.3945L13.2745 10.3946C13.5897 10.6744 13.7556 11.0527 13.7499 11.4777L13.7499 11.4782C13.7447 11.8146 13.6335 12.1255 13.4302 12.3901C13.4929 12.4764 13.5468 12.5689 13.591 12.6663L13.5918 12.6681L13.5918 12.6681C13.8599 13.272 13.7006 13.98 13.2212 14.4754C12.8808 14.8274 12.3363 15.1057 11.6582 15.1057C11.3253 15.1057 10.9643 15.0386 10.5832 14.8838L13.2743 10.3945ZM13.2743 10.3945C12.873 10.0389 12.2962 9.91984 11.8257 9.88418C11.3454 9.84779 10.9219 9.89474 10.7816 9.91341L10.7815 9.91342M13.2743 10.3945L10.7815 9.91342M10.7815 9.91342C10.5689 9.94181 10.3763 10.0533 10.2457 10.2234C10.1152 10.3935 10.0574 10.6085 10.0851 10.8211L10.0852 10.8219M10.7815 9.91342L10.0852 10.8219M10.0852 10.8219C10.1135 11.0345 10.2248 11.2272 10.3949 11.3579C10.5649 11.4886 10.7799 11.5466 10.9926 11.5192L10.9927 11.5192C11.2923 11.4805 11.6056 11.4855 11.8485 11.519C11.8768 11.5229 11.9037 11.5271 11.929 11.5316M10.0852 10.8219L11.929 11.5316M12.3804 11.4601C12.3804 11.4831 12.3798 11.5371 12.2828 11.6184M12.3804 11.4601C12.3031 11.2916 11.6037 11.1882 10.9607 11.2713C10.8135 11.2902 10.6649 11.2501 10.5472 11.1597C10.4296 11.0693 10.3525 10.936 10.333 10.7889C10.3139 10.6419 10.3538 10.4932 10.4441 10.3756L12.2828 11.6184M12.3804 11.4601L12.2141 11.5363L12.214 11.5364L12.1531 11.5643C12.1651 11.5905 12.1795 11.604 12.1839 11.6076M12.3804 11.4601H12.1503H12.15H12.1304C12.1304 11.458 12.1307 11.451 12.132 11.4427C12.1322 11.4416 12.1324 11.4405 12.1326 11.4395C12.1326 11.4393 12.1327 11.4392 12.1327 11.4391C12.1347 11.4287 12.1377 11.4197 12.141 11.4125C12.1437 11.4067 12.1457 11.404 12.1457 11.404C12.1457 11.404 12.1401 11.4118 12.1223 11.4267L12.1221 11.4269C12.0742 11.4671 12.0056 11.5027 11.929 11.5316M12.2828 11.6184C12.1285 11.7479 11.8787 11.8222 11.6917 11.8481M12.2828 11.6184L11.3117 12.9584M11.3117 12.9584C11.1741 12.9362 11.0498 12.8636 10.963 12.7546C10.8761 12.6457 10.833 12.5082 10.8421 12.3692C10.8512 12.2302 10.9117 12.0995 11.012 12.0028C11.1122 11.906 11.245 11.8501 11.3842 11.846C11.4867 11.8425 11.5893 11.8432 11.6917 11.8481M11.3117 12.9584C11.4464 12.9786 11.583 12.9828 11.7186 12.9708L11.3117 12.9584ZM11.6917 11.8481L11.7035 11.5984C11.6953 11.598 11.6871 11.5976 11.6789 11.5973M11.6917 11.8481L11.6575 11.6004C11.6646 11.5995 11.6717 11.5984 11.6789 11.5973M11.6789 11.5973C11.7616 11.5843 11.8497 11.5616 11.929 11.5316M11.6789 11.5973C11.5781 11.5931 11.4772 11.5927 11.3763 11.5961C11.1751 11.6022 10.9833 11.683 10.8384 11.8229C10.6934 11.9628 10.6057 12.1518 10.5926 12.3529C10.5795 12.5541 10.6419 12.7528 10.7675 12.9104C10.8931 13.068 11.0729 13.1731 11.2719 13.2052L11.2719 13.2052L11.2746 13.2057L11.929 11.5316M11.929 11.5316L12.1839 11.6076M12.1839 11.6076C12.1848 11.6083 12.1853 11.6086 12.1853 11.6086C12.1853 11.6086 12.1849 11.6083 12.1839 11.6076ZM11.1917 13.3837C10.9928 13.303 10.77 13.3046 10.5723 13.3882C10.3746 13.4718 10.2182 13.6305 10.1374 13.8294C10.0567 14.0283 10.0583 14.2512 10.1419 14.4489C10.2255 14.6466 10.3842 14.803 10.583 14.8837L11.1917 13.3837Z" fill="#0F0F0F" stroke="#0F0F0F" stroke-width="0.5"/>
</g>
<defs>
<clipPath id="clip0_76_3554">
<rect width="24" height="24" fill="white"/>
</clipPath>
</defs>
</svg>
