<svg width="24" height="24" viewBox="0 0 24 24" fill="none" xmlns="http://www.w3.org/2000/svg">
<path d="M12 4.875C10.5908 4.875 9.21327 5.29287 8.04157 6.07578C6.86987 6.85868 5.95664 7.97146 5.41736 9.27338C4.87809 10.5753 4.73699 12.0079 5.01191 13.39C5.28683 14.7721 5.96542 16.0417 6.96187 17.0381C7.95832 18.0346 9.22787 18.7132 10.61 18.9881C11.9921 19.263 13.4247 19.1219 14.7266 18.5826C16.0285 18.0434 17.1413 17.1301 17.9242 15.9584C18.7071 14.7867 19.125 13.4092 19.125 12C19.1229 10.111 18.3716 8.29991 17.0358 6.96417C15.7001 5.62842 13.889 4.87708 12 4.875ZM12 18.375C10.7391 18.375 9.50661 18.0011 8.45824 17.3006C7.40988 16.6001 6.59278 15.6045 6.11027 14.4396C5.62776 13.2747 5.50152 11.9929 5.7475 10.7563C5.99348 9.51967 6.60064 8.38375 7.4922 7.49219C8.38376 6.60063 9.51967 5.99347 10.7563 5.74749C11.9929 5.50151 13.2747 5.62776 14.4396 6.11027C15.6045 6.59278 16.6001 7.40988 17.3006 8.45824C18.0011 9.5066 18.375 10.7391 18.375 12C18.3731 13.6902 17.7009 15.3106 16.5057 16.5057C15.3106 17.7009 13.6902 18.3731 12 18.375Z" fill="#0F0F0F" stroke="#0F0F0F" stroke-width="0.5"/>
<path d="M4.875 7.875V4.125H4.125V7.5H3.75V4.125H3V7.5H2.625V4.125H1.875V7.5H1.5V4.125H0.75V9.75C0.750284 9.9826 0.822516 10.2094 0.956791 10.3994C1.09107 10.5893 1.28081 10.733 1.5 10.8109V19.5C1.5 19.7984 1.61853 20.0845 1.8295 20.2955C2.04048 20.5065 2.32663 20.625 2.625 20.625H3C3.29837 20.625 3.58452 20.5065 3.7955 20.2955C4.00647 20.0845 4.125 19.7984 4.125 19.5V10.8109C4.34419 10.733 4.53393 10.5893 4.66821 10.3994C4.80248 10.2094 4.87472 9.9826 4.875 9.75V7.875ZM4.125 9.75C4.125 9.84946 4.08549 9.94484 4.01516 10.0152C3.94484 10.0855 3.84946 10.125 3.75 10.125C3.65054 10.125 3.55516 10.1645 3.48484 10.2348C3.41451 10.3052 3.375 10.4005 3.375 10.5V19.5C3.375 19.5995 3.33549 19.6948 3.26516 19.7652C3.19484 19.8355 3.09946 19.875 3 19.875H2.625C2.52554 19.875 2.43016 19.8355 2.35984 19.7652C2.28951 19.6948 2.25 19.5995 2.25 19.5V10.5C2.25 10.4005 2.21049 10.3052 2.14016 10.2348C2.06984 10.1645 1.97446 10.125 1.875 10.125C1.77554 10.125 1.68016 10.0855 1.60984 10.0152C1.53951 9.94484 1.5 9.84946 1.5 9.75V8.25H4.125V9.75ZM22.875 3.75C21.9802 3.75099 21.1223 4.10689 20.4896 4.73961C19.8569 5.37233 19.501 6.2302 19.5 7.125V12C19.5 12.2984 19.6185 12.5845 19.8295 12.7955C20.0405 13.0065 20.3266 13.125 20.625 13.125V20.25C20.625 20.3495 20.6645 20.4448 20.7348 20.5152C20.8052 20.5855 20.9005 20.625 21 20.625H22.875C22.9745 20.625 23.0698 20.5855 23.1402 20.5152C23.2105 20.4448 23.25 20.3495 23.25 20.25V4.125C23.25 4.02554 23.2105 3.93016 23.1402 3.85984C23.0698 3.78951 22.9745 3.75 22.875 3.75ZM22.5 19.875H21.375V12.75C21.375 12.6505 21.3355 12.5552 21.2652 12.4848C21.1948 12.4145 21.0995 12.375 21 12.375H20.625C20.5255 12.375 20.4302 12.3355 20.3598 12.2652C20.2895 12.1948 20.25 12.0995 20.25 12V7.125C20.2508 6.49396 20.4785 5.88426 20.8916 5.40722C21.3047 4.93018 21.8756 4.61762 22.5 4.52663V19.875Z" fill="#0F0F0F" stroke="#0F0F0F" stroke-width="0.5"/>
<path d="M21.375 6H20.625V11.625H21.375V6Z" fill="#0F0F0F" stroke="#0F0F0F" stroke-width="0.5"/>
<path d="M12 8.25C11.2583 8.25 10.5333 8.46993 9.91661 8.88199C9.29993 9.29404 8.81928 9.87971 8.53545 10.5649C8.25162 11.2502 8.17736 12.0042 8.32206 12.7316C8.46675 13.459 8.8239 14.1272 9.34835 14.6517C9.8728 15.1761 10.541 15.5333 11.2684 15.6779C11.9958 15.8226 12.7498 15.7484 13.4351 15.4645C14.1203 15.1807 14.706 14.7001 15.118 14.0834C15.5301 13.4667 15.75 12.7417 15.75 12C15.7489 11.0058 15.3535 10.0526 14.6504 9.34956C13.9474 8.64653 12.9942 8.25109 12 8.25ZM12 15C11.4067 15 10.8266 14.8241 10.3333 14.4944C9.83994 14.1648 9.45543 13.6962 9.22836 13.148C9.0013 12.5999 8.94189 11.9967 9.05765 11.4147C9.1734 10.8328 9.45912 10.2982 9.87868 9.87868C10.2982 9.45912 10.8328 9.1734 11.4147 9.05764C11.9967 8.94189 12.5999 9.0013 13.1481 9.22836C13.6962 9.45542 14.1648 9.83994 14.4944 10.3333C14.8241 10.8266 15 11.4067 15 12C14.9991 12.7954 14.6828 13.5579 14.1203 14.1203C13.5579 14.6827 12.7954 14.9991 12 15Z" fill="#0F0F0F" stroke="#0F0F0F" stroke-width="0.5"/>
</svg>
