<svg width="80" height="80" viewBox="0 0 80 80" fill="none" xmlns="http://www.w3.org/2000/svg">
<path opacity="0.3" d="M80 40C80 62.0914 62.0914 80 40 80C17.9086 80 0 62.0914 0 40C0 17.9086 17.9086 0 40 0C62.0914 0 80 17.9086 80 40ZM10.9071 40C10.9071 56.0675 23.9325 69.0929 40 69.0929C56.0675 69.0929 69.0929 56.0675 69.0929 40C69.0929 23.9325 56.0675 10.9071 40 10.9071C23.9325 10.9071 10.9071 23.9325 10.9071 40Z" fill="#99E5EF"/>
<circle cx="40" cy="40" r="29" fill="#00BED7"/>
<g clip-path="url(#clip0_335_3823)">
<path d="M33.3337 45C33.3337 43.159 31.8413 41.6666 30.0003 41.6666C28.1594 41.6666 26.667 43.159 26.667 45V48.3333C26.667 50.1742 28.1594 51.6666 30.0003 51.6666C31.8413 51.6666 33.3337 50.1742 33.3337 48.3333V45Z" stroke="#323234" stroke-width="2" stroke-linecap="round" stroke-linejoin="round"/>
<path d="M53.3337 45C53.3337 43.159 51.8413 41.6666 50.0003 41.6666C48.1594 41.6666 46.667 43.159 46.667 45V48.3333C46.667 50.1742 48.1594 51.6666 50.0003 51.6666C51.8413 51.6666 53.3337 50.1742 53.3337 48.3333V45Z" stroke="#323234" stroke-width="2" stroke-linecap="round" stroke-linejoin="round"/>
<path d="M26.667 45V40C26.667 36.4637 28.0718 33.0724 30.5722 30.5719C33.0727 28.0714 36.4641 26.6666 40.0003 26.6666C43.5365 26.6666 46.9279 28.0714 49.4284 30.5719C51.9289 33.0724 53.3337 36.4637 53.3337 40V45" stroke="#323234" stroke-width="2" stroke-linecap="round" stroke-linejoin="round"/>
<path d="M50 51.6666C50 52.9927 48.9464 54.2645 47.0711 55.2022C45.1957 56.1398 42.6522 56.6666 40 56.6666" stroke="#323234" stroke-width="2" stroke-linecap="round" stroke-linejoin="round"/>
</g>
<defs>
<clipPath id="clip0_335_3823">
<rect width="40" height="40" fill="white" transform="translate(20 20)"/>
</clipPath>
</defs>
</svg>
