<svg width="80" height="80" viewBox="0 0 80 80" fill="none" xmlns="http://www.w3.org/2000/svg">
<path opacity="0.3" d="M80 40C80 62.0914 62.0914 80 40 80C17.9086 80 0 62.0914 0 40C0 17.9086 17.9086 0 40 0C62.0914 0 80 17.9086 80 40ZM10.9071 40C10.9071 56.0675 23.9325 69.0929 40 69.0929C56.0675 69.0929 69.0929 56.0675 69.0929 40C69.0929 23.9325 56.0675 10.9071 40 10.9071C23.9325 10.9071 10.9071 23.9325 10.9071 40Z" fill="#B3ECF3"/>
<circle cx="40" cy="40" r="29" fill="#1AC5DB"/>
<path d="M28.0994 50.5994L28.0992 50.5992C27.2265 49.9485 26.4259 48.9207 25.8431 47.7591C25.2602 46.5974 24.917 45.3452 24.917 44.2667V31.8667C24.917 29.5075 26.6718 26.9619 28.8915 26.1353L28.8925 26.1349L37.2087 23.0184C37.2088 23.0184 37.2089 23.0183 37.2089 23.0183C37.9624 22.7367 38.9619 22.5875 39.9837 22.5875C41.0054 22.5875 42.0049 22.7367 42.7584 23.0183C42.7585 23.0183 42.7585 23.0184 42.7586 23.0184L51.0749 26.1349L51.0758 26.1353C53.2955 26.9619 55.0503 29.5075 55.0503 31.8667V44.25C55.0503 45.3372 54.7069 46.5893 54.1244 47.7484C53.5419 48.9074 52.7414 49.9314 51.8681 50.5825L51.8679 50.5827L44.7012 55.9327L44.7012 55.9326L44.695 55.9374C43.4123 56.9265 41.7243 57.4334 40.0003 57.4334C38.2777 57.4334 36.5855 56.9271 35.2652 55.9487C35.265 55.9486 35.2649 55.9484 35.2647 55.9483L28.0994 50.5994ZM37.7422 24.4316L37.7415 24.4318L29.4249 27.5485L29.4242 27.5488C28.5966 27.8603 27.8553 28.5226 27.3244 29.2907C26.7933 30.0591 26.4337 30.9899 26.4337 31.8834V44.2667C26.4337 45.1612 26.7442 46.1893 27.2012 47.1011C27.6581 48.0127 28.2936 48.8723 29.0012 49.4007L29.0012 49.4007L36.1676 54.7504C37.2296 55.5446 38.6286 55.925 40.0024 55.925C41.3764 55.925 42.7786 55.5446 43.8481 54.7517L43.8494 54.7507L51.0161 49.4007L51.017 49.4C51.7317 48.864 52.3672 48.0051 52.8225 47.0945C53.2779 46.1838 53.5837 45.1601 53.5837 44.2667V31.8667C53.5837 30.9805 53.2232 30.0539 52.6929 29.2866C52.1624 28.519 51.4226 27.8541 50.5979 27.5339L50.598 27.5339L50.5925 27.5318L42.2758 24.4152L42.2758 24.4151L42.2667 24.4119C41.6286 24.1866 40.8005 24.0833 40.001 24.0854C39.2024 24.0876 38.3755 24.1953 37.7422 24.4316Z" fill="#323234" stroke="#323234"/>
<path d="M37.4135 41.0536L37.7671 41.4071L38.1206 41.0536L44.4039 34.7703C44.692 34.4822 45.1754 34.4822 45.4635 34.7703C45.7516 35.0583 45.7516 35.5417 45.4635 35.8298L38.2968 42.9965C38.1455 43.1478 37.9583 43.2167 37.7671 43.2167C37.5758 43.2167 37.3886 43.1478 37.2373 42.9965L34.5539 40.3131C34.2659 40.0251 34.2659 39.5417 34.5539 39.2536C34.842 38.9655 35.3254 38.9655 35.6135 39.2536L37.4135 41.0536Z" fill="#323234" stroke="#323234"/>
</svg>
