<svg width="24" height="24" viewBox="0 0 24 24" fill="none" xmlns="http://www.w3.org/2000/svg">
<g id="New Product">
<path id="Vector" d="M4.5 4.125C4.086 4.125 3.75 4.461 3.75 4.875V8.27344C3.75 8.68744 4.086 9.02344 4.5 9.02344H4.52344V17.625C4.52344 18.8659 5.53256 19.875 6.77344 19.875H17.2266C18.4674 19.875 19.4766 18.8659 19.4766 17.625V9.02344H19.5C19.914 9.02344 20.25 8.68781 20.25 8.27344V4.875C20.25 4.461 19.914 4.125 19.5 4.125H4.5ZM5.4375 5.625H18.5625C18.666 5.625 18.75 5.709 18.75 5.8125V7.33594C18.75 7.43944 18.666 7.52344 18.5625 7.52344H5.4375C5.334 7.52344 5.25 7.43981 5.25 7.33594V5.8125C5.25 5.709 5.334 5.625 5.4375 5.625ZM6.02344 9.02344H17.9766V17.625C17.9766 18.0386 17.6402 18.375 17.2266 18.375H6.77344C6.35981 18.375 6.02344 18.0386 6.02344 17.625V9.02344ZM10.125 10.125C9.711 10.125 9.375 10.461 9.375 10.875C9.375 11.289 9.711 11.625 10.125 11.625H13.875C14.289 11.625 14.625 11.289 14.625 10.875C14.625 10.461 14.289 10.125 13.875 10.125H10.125Z" fill="#0F0F0F"/>
</g>
</svg>
