<svg width="24" height="24" viewBox="0 0 24 24" fill="none" xmlns="http://www.w3.org/2000/svg">
<g clip-path="url(#clip0_64_3414)">
<path d="M12 0.266968C11.7592 0.266968 11.532 0.383593 11.3913 0.578593L5.37335 8.93697C5.20835 9.16609 5.18585 9.46497 5.31447 9.71697C5.44347 9.96859 5.69922 10.125 5.98197 10.125H8.62497V23.25C8.62497 23.6636 8.96135 24 9.37497 24H14.625C15.0386 24 15.375 23.6636 15.375 23.25V20.9808C17.8878 20.7881 19.875 18.6862 19.875 16.125C19.875 13.437 17.688 11.25 15 11.25C12.312 11.25 10.125 13.437 10.125 16.125C10.125 18.6862 12.1121 20.7881 14.625 20.9808V23.25H9.37497V10.125C9.37497 9.71134 9.0386 9.37497 8.62497 9.37497H5.98197L12 1.01659L18.018 9.37497H15.375C14.9613 9.37497 14.625 9.71134 14.625 10.125V10.5C14.625 10.7073 14.793 10.875 15 10.875C15.207 10.875 15.375 10.7073 15.375 10.5V10.125H18.018C18.3007 10.125 18.5565 9.96859 18.6855 9.71697C18.8145 9.46497 18.792 9.16609 18.6266 8.93697L12.6086 0.578218C12.468 0.383218 12.2407 0.266968 12 0.266968ZM10.875 16.125C10.875 13.8506 12.7256 12 15 12C17.2743 12 19.125 13.8506 19.125 16.125C19.125 18.3993 17.2743 20.25 15 20.25C12.7256 20.25 10.875 18.3993 10.875 16.125Z" fill="#0F0F0F" stroke="#0F0F0F" stroke-width="0.5"/>
<path d="M15.375 19.125V18.6968C16.02 18.5291 16.5 17.9471 16.5 17.25C16.5 16.4227 15.8273 15.75 15 15.75C14.5864 15.75 14.25 15.4136 14.25 15C14.25 14.5864 14.5864 14.25 15 14.25C15.2666 14.25 15.5156 14.3936 15.6499 14.625C15.7534 14.8046 15.9832 14.8661 16.1621 14.7615C16.3414 14.658 16.4025 14.4281 16.2986 14.2493C16.0954 13.8979 15.7586 13.6489 15.375 13.5491V13.125C15.375 12.9176 15.207 12.75 15 12.75C14.793 12.75 14.625 12.9176 14.625 13.125V13.5532C13.98 13.7209 13.5 14.3029 13.5 15C13.5 15.8273 14.1727 16.5 15 16.5C15.4136 16.5 15.75 16.8364 15.75 17.25C15.75 17.6636 15.4136 18 15 18C14.7334 18 14.4844 17.856 14.3501 17.6246C14.2466 17.4454 14.0171 17.3835 13.8379 17.4881C13.6586 17.5916 13.5975 17.8215 13.7014 18.0004C13.905 18.3517 14.2414 18.6011 14.6254 18.7009V19.125C14.6254 19.3324 14.7934 19.5 15.0004 19.5C15.2074 19.5 15.375 19.3324 15.375 19.125ZM19.875 0.75C19.668 0.75 19.5 0.917625 19.5 1.125V1.87612L18.7504 1.875C18.5434 1.875 18.375 2.04263 18.375 2.24962C18.375 2.45662 18.5422 2.62462 18.7496 2.625L19.5 2.62612V3.375C19.5 3.58238 19.668 3.75 19.875 3.75C20.082 3.75 20.25 3.58238 20.25 3.375V2.62688L20.9996 2.628C21.2066 2.628 21.375 2.46037 21.375 2.25337C21.375 2.04637 21.2078 1.87837 21.0004 1.878L20.25 1.87688V1.125C20.25 0.917625 20.082 0.75 19.875 0.75ZM21.375 11.25C21.168 11.25 21 11.4176 21 11.625V12.3761L20.2504 12.375C20.0434 12.375 19.875 12.5426 19.875 12.7496C19.875 12.9566 20.0422 13.1246 20.2496 13.125L21 13.1261V13.875C21 14.0824 21.168 14.25 21.375 14.25C21.582 14.25 21.75 14.0824 21.75 13.875V13.1269L22.4996 13.128C22.7066 13.128 22.875 12.9604 22.875 12.7534C22.875 12.5464 22.7078 12.3784 22.5004 12.378L21.75 12.3769V11.625C21.75 11.4176 21.582 11.25 21.375 11.25ZM19.5 23.25C19.707 23.25 19.875 23.0824 19.875 22.875V22.1269L20.6246 22.128C20.8316 22.128 21 21.9604 21 21.7534C21 21.5464 20.8328 21.3784 20.6254 21.378L19.875 21.3769V20.625C19.875 20.4176 19.707 20.25 19.5 20.25C19.293 20.25 19.125 20.4176 19.125 20.625V21.3761L18.3754 21.375C18.1684 21.375 18 21.5426 18 21.7496C18 21.9566 18.1673 22.1246 18.3746 22.125L19.125 22.1261V22.875C19.125 23.0824 19.293 23.25 19.5 23.25ZM6 1.125C5.793 1.125 5.625 1.29263 5.625 1.5V1.87575L5.25075 1.875C5.25038 1.875 5.25 1.875 5.25 1.875C5.04338 1.875 4.87538 2.04225 4.875 2.24925C4.87462 2.45662 5.04225 2.62462 5.24925 2.625L5.625 2.62575V3C5.625 3.20738 5.793 3.375 6 3.375C6.207 3.375 6.375 3.20738 6.375 3V2.62725L6.74925 2.628C6.74925 2.628 6.74963 2.628 6.75 2.628C6.95662 2.628 7.12463 2.46075 7.125 2.25375C7.12537 2.04638 6.95775 1.87837 6.75075 1.878L6.375 1.87725V1.5C6.375 1.29263 6.207 1.125 6 1.125ZM16.8743 16.5L17.25 16.5007V16.875C17.25 17.0824 17.418 17.25 17.625 17.25C17.832 17.25 18 17.0824 18 16.875V16.5023L18.3743 16.503C18.3743 16.503 18.3746 16.503 18.375 16.503C18.5816 16.503 18.7496 16.3357 18.75 16.1287C18.7504 15.9214 18.5828 15.7534 18.3757 15.753L18 15.7523V15.375C18 15.1676 17.832 15 17.625 15C17.418 15 17.25 15.1676 17.25 15.375V15.7507L16.8757 15.75C16.8757 15.75 16.8754 15.75 16.875 15.75C16.6684 15.75 16.5004 15.9173 16.5 16.1243C16.4996 16.3316 16.6673 16.4996 16.8743 16.5ZM3.75 3.75C3.543 3.75 3.375 3.91762 3.375 4.125V4.87313L2.62537 4.872C2.41837 4.872 2.25 5.03963 2.25 5.24662C2.25 5.45363 2.41725 5.62162 2.62463 5.622L3.375 5.62313V6.375C3.375 6.58238 3.543 6.75 3.75 6.75C3.957 6.75 4.125 6.58238 4.125 6.375V5.62387L4.87462 5.625H4.875C5.082 5.625 5.25 5.45738 5.25 5.25038C5.25 5.04338 5.08275 4.87537 4.87538 4.875L4.125 4.87387V4.125C4.125 3.91762 3.957 3.75 3.75 3.75ZM18 4.125C17.793 4.125 17.625 4.29262 17.625 4.5C17.418 4.5 17.25 4.66762 17.25 4.875C17.25 5.08238 17.418 5.25 17.625 5.25C17.625 5.45738 17.793 5.625 18 5.625C18.207 5.625 18.375 5.45738 18.375 5.25C18.582 5.25 18.75 5.08238 18.75 4.875C18.75 4.66762 18.582 4.5 18.375 4.5C18.375 4.29262 18.207 4.125 18 4.125Z" fill="#0F0F0F" stroke="#0F0F0F" stroke-width="0.5"/>
</g>
<defs>
<clipPath id="clip0_64_3414">
<rect width="24" height="24" fill="white"/>
</clipPath>
</defs>
</svg>
