<svg width="24" height="24" viewBox="0 0 24 24" fill="none" xmlns="http://www.w3.org/2000/svg">
<g id="Deals">
<path id="Vector" d="M12.1646 23.8285C10.2627 23.8512 8.41762 23.1809 6.97376 21.9428C6.97376 21.9428 0.116618 16.4571 4.16233 7.25483C4.21649 7.12871 4.29991 7.01731 4.40568 6.92985C4.51146 6.8424 4.63655 6.7814 4.77059 6.75191C4.90464 6.72242 5.04378 6.72529 5.17649 6.76028C5.30921 6.79527 5.43168 6.86137 5.53376 6.95311C6.19859 7.53826 6.93058 8.04236 7.71433 8.45483C8.18893 7.42003 8.4099 6.28698 8.3589 5.14968C8.36692 4.50998 8.24322 3.87547 7.99548 3.28563C7.74775 2.69579 7.38129 2.16324 6.9189 1.72111C6.79383 1.61218 6.70276 1.46956 6.65655 1.31028C6.61035 1.15099 6.61097 0.98177 6.65833 0.822825C6.70275 0.665213 6.79173 0.523778 6.91459 0.415517C7.03745 0.307256 7.18896 0.236774 7.3509 0.212539C7.42633 0.212539 15.0583 -0.644603 17.3212 7.06968C17.7052 8.14625 18.4252 9.32568 18.768 9.40797C18.9894 9.18661 19.1602 8.91993 19.2686 8.62625C19.3414 8.46236 19.4642 8.32569 19.6194 8.23578C19.7746 8.14588 19.9542 8.10734 20.1326 8.12568C20.3141 8.14724 20.4843 8.22489 20.6195 8.34781C20.7547 8.47074 20.8482 8.6328 20.8869 8.8114C20.8869 8.94168 21.6138 11.9931 20.5372 16.8891C20.0627 18.9651 18.8854 20.8134 17.2046 22.1211C15.7735 23.2575 13.9918 23.8611 12.1646 23.8285ZM5.30747 8.97597C2.6949 16.3337 8.00233 20.5645 8.05033 20.6331C9.18871 21.6263 10.6541 22.1636 12.1646 22.1417C13.603 22.1596 15.0025 21.6745 16.1212 20.7703C17.5003 19.7077 18.4694 18.2008 18.864 16.5051C19.2741 14.7065 19.4561 12.8635 19.4058 11.0194C19.1888 11.1102 18.9552 11.1545 18.72 11.1497C17.0606 11.0743 15.9772 8.40683 15.7166 7.62511C15.3594 6.13443 14.5468 4.79201 13.3917 3.78434C12.2366 2.77668 10.7963 2.1538 9.2709 2.00225C10.4435 4.14854 10.1212 6.80225 9.63433 8.31768C9.02405 10.1965 8.2629 10.2583 8.03662 10.2788C7.27548 10.2857 6.20576 9.63425 5.31433 8.97597H5.30747Z" fill="#0F0F0F"/>
<path id="Vector_2" d="M9.60001 23.2046C9.38296 23.2048 9.1742 23.1213 9.01715 22.9714C8.05771 22.0777 7.42555 20.8882 7.22169 19.593C7.01783 18.2977 7.25405 16.9715 7.89258 15.8263C7.96176 15.7034 8.06091 15.5999 8.1808 15.5256C8.30069 15.4513 8.43742 15.4085 8.57829 15.4012C8.72364 15.3905 8.86918 15.4192 8.99953 15.4844C9.12988 15.5496 9.24021 15.6487 9.31886 15.7714C9.55201 16.1074 10.2034 16.7932 10.7314 16.7932C11.0263 16.7932 11.3349 16.56 11.6503 16.1074C12.8846 14.304 11.3417 12.4114 11.2732 12.3292C11.1588 12.1873 11.0914 12.0134 11.0804 11.8316C11.0693 11.6497 11.1151 11.4689 11.2114 11.3143C11.3135 11.1545 11.4665 11.0337 11.6456 10.9715C11.8248 10.9093 12.0197 10.9093 12.1989 10.9714C12.3703 11.0194 16.5532 12.1714 17.9863 15.5109C18.7954 17.4172 18.5486 19.584 17.2457 21.9634C17.1982 22.075 17.1275 22.1751 17.0384 22.2574C16.9493 22.3396 16.8438 22.4019 16.7288 22.4403C16.6138 22.4787 16.4919 22.4923 16.3713 22.4802C16.2507 22.468 16.134 22.4304 16.029 22.3698C15.924 22.3093 15.833 22.2271 15.7621 22.1288C15.6911 22.0305 15.6419 21.9182 15.6175 21.7994C15.5932 21.6807 15.5943 21.5581 15.6209 21.4398C15.6474 21.3215 15.6987 21.2102 15.7714 21.1132C16.8069 19.2274 17.0332 17.5612 16.4572 16.1692C15.8899 14.9892 14.9535 14.0262 13.7897 13.4263C13.9496 14.0391 13.9754 14.6791 13.8653 15.3028C13.7553 15.9264 13.512 16.519 13.152 17.04C12.919 17.4594 12.5823 17.812 12.1741 18.0641C11.7659 18.3163 11.2999 18.4594 10.8206 18.48C10.1531 18.4616 9.51094 18.2202 8.99658 17.7943C8.8722 18.5014 8.9221 19.2282 9.14196 19.9116C9.36181 20.5951 9.74499 21.2146 10.2583 21.7166C10.3381 21.7962 10.4014 21.8908 10.4447 21.9949C10.4879 22.0991 10.5101 22.2107 10.5101 22.3234C10.5101 22.4362 10.4879 22.5478 10.4447 22.652C10.4014 22.7561 10.3381 22.8507 10.2583 22.9303C10.1753 23.0213 10.0733 23.093 9.95957 23.1404C9.84584 23.1878 9.72311 23.2097 9.60001 23.2046Z" fill="#0F0F0F"/>
</g>
</svg>
